%TF.GenerationSoftware,KiCad,Pcbnew,9.0.0*%
%TF.CreationDate,2025-03-15T13:55:50+00:00*%
%TF.ProjectId,LEDStrip,4c454453-7472-4697-902e-6b696361645f,rev?*%
%TF.SameCoordinates,Original*%
%TF.FileFunction,Legend,Top*%
%TF.FilePolarity,Positive*%
%FSLAX46Y46*%
G04 Gerber Fmt 4.6, Leading zero omitted, Abs format (unit mm)*
G04 Created by KiCad (PCBNEW 9.0.0) date 2025-03-15 13:55:50*
%MOMM*%
%LPD*%
G01*
G04 APERTURE LIST*
G04 Aperture macros list*
%AMRoundRect*
0 Rectangle with rounded corners*
0 $1 Rounding radius*
0 $2 $3 $4 $5 $6 $7 $8 $9 X,Y pos of 4 corners*
0 Add a 4 corners polygon primitive as box body*
4,1,4,$2,$3,$4,$5,$6,$7,$8,$9,$2,$3,0*
0 Add four circle primitives for the rounded corners*
1,1,$1+$1,$2,$3*
1,1,$1+$1,$4,$5*
1,1,$1+$1,$6,$7*
1,1,$1+$1,$8,$9*
0 Add four rect primitives between the rounded corners*
20,1,$1+$1,$2,$3,$4,$5,0*
20,1,$1+$1,$4,$5,$6,$7,0*
20,1,$1+$1,$6,$7,$8,$9,0*
20,1,$1+$1,$8,$9,$2,$3,0*%
%AMFreePoly0*
4,1,23,0.550000,-0.750000,0.000000,-0.750000,0.000000,-0.745722,-0.065263,-0.745722,-0.191342,-0.711940,-0.304381,-0.646677,-0.396677,-0.554381,-0.461940,-0.441342,-0.495722,-0.315263,-0.495722,-0.250000,-0.500000,-0.250000,-0.500000,0.250000,-0.495722,0.250000,-0.495722,0.315263,-0.461940,0.441342,-0.396677,0.554381,-0.304381,0.646677,-0.191342,0.711940,-0.065263,0.745722,0.000000,0.745722,
0.000000,0.750000,0.550000,0.750000,0.550000,-0.750000,0.550000,-0.750000,$1*%
%AMFreePoly1*
4,1,23,0.000000,0.745722,0.065263,0.745722,0.191342,0.711940,0.304381,0.646677,0.396677,0.554381,0.461940,0.441342,0.495722,0.315263,0.495722,0.250000,0.500000,0.250000,0.500000,-0.250000,0.495722,-0.250000,0.495722,-0.315263,0.461940,-0.441342,0.396677,-0.554381,0.304381,-0.646677,0.191342,-0.711940,0.065263,-0.745722,0.000000,-0.745722,0.000000,-0.750000,-0.550000,-0.750000,
-0.550000,0.750000,0.000000,0.750000,0.000000,0.745722,0.000000,0.745722,$1*%
G04 Aperture macros list end*
%ADD10C,0.100000*%
%ADD11C,0.125000*%
%ADD12C,0.120000*%
%ADD13C,0.000000*%
%ADD14C,0.127000*%
%ADD15C,0.300000*%
%ADD16RoundRect,0.150000X0.625000X-0.150000X0.625000X0.150000X-0.625000X0.150000X-0.625000X-0.150000X0*%
%ADD17RoundRect,0.250000X0.650000X-0.350000X0.650000X0.350000X-0.650000X0.350000X-0.650000X-0.350000X0*%
%ADD18FreePoly0,90.000000*%
%ADD19R,1.500000X1.000000*%
%ADD20FreePoly1,90.000000*%
%ADD21RoundRect,0.225000X-0.250000X0.225000X-0.250000X-0.225000X0.250000X-0.225000X0.250000X0.225000X0*%
%ADD22R,4.500000X2.000000*%
%ADD23O,4.000000X2.000000*%
%ADD24O,2.000000X4.000000*%
%ADD25RoundRect,0.200000X0.275000X-0.200000X0.275000X0.200000X-0.275000X0.200000X-0.275000X-0.200000X0*%
%ADD26C,5.700000*%
%ADD27RoundRect,0.250000X-0.650000X1.000000X-0.650000X-1.000000X0.650000X-1.000000X0.650000X1.000000X0*%
%ADD28RoundRect,0.250000X-0.450000X-0.425000X0.450000X-0.425000X0.450000X0.425000X-0.450000X0.425000X0*%
%ADD29R,1.600000X1.600000*%
%ADD30O,1.600000X1.600000*%
%ADD31RoundRect,0.150000X-0.200000X0.150000X-0.200000X-0.150000X0.200000X-0.150000X0.200000X0.150000X0*%
%ADD32RoundRect,0.225000X0.250000X-0.225000X0.250000X0.225000X-0.250000X0.225000X-0.250000X-0.225000X0*%
%ADD33RoundRect,0.250000X-0.650000X0.350000X-0.650000X-0.350000X0.650000X-0.350000X0.650000X0.350000X0*%
%ADD34RoundRect,0.150000X-0.625000X0.150000X-0.625000X-0.150000X0.625000X-0.150000X0.625000X0.150000X0*%
%ADD35RoundRect,0.150000X0.200000X-0.150000X0.200000X0.150000X-0.200000X0.150000X-0.200000X-0.150000X0*%
%ADD36RoundRect,0.218750X0.218750X0.256250X-0.218750X0.256250X-0.218750X-0.256250X0.218750X-0.256250X0*%
%ADD37RoundRect,0.200000X0.200000X0.275000X-0.200000X0.275000X-0.200000X-0.275000X0.200000X-0.275000X0*%
%ADD38RoundRect,0.225000X0.225000X0.250000X-0.225000X0.250000X-0.225000X-0.250000X0.225000X-0.250000X0*%
%ADD39R,0.900000X1.000000*%
%ADD40R,0.250000X0.700000*%
%ADD41R,2.350000X1.780000*%
%ADD42RoundRect,0.200000X-0.275000X0.200000X-0.275000X-0.200000X0.275000X-0.200000X0.275000X0.200000X0*%
%ADD43RoundRect,0.250000X-0.787500X-1.875000X0.787500X-1.875000X0.787500X1.875000X-0.787500X1.875000X0*%
%ADD44FreePoly0,270.000000*%
%ADD45FreePoly1,270.000000*%
%ADD46C,0.600000*%
%ADD47R,1.160000X0.600000*%
%ADD48R,1.160000X0.300000*%
%ADD49O,2.000000X0.900000*%
%ADD50O,1.700000X0.900000*%
%ADD51RoundRect,0.250000X-0.425000X0.450000X-0.425000X-0.450000X0.425000X-0.450000X0.425000X0.450000X0*%
%ADD52RoundRect,0.150000X-0.150000X-0.625000X0.150000X-0.625000X0.150000X0.625000X-0.150000X0.625000X0*%
%ADD53RoundRect,0.250000X-0.350000X-0.650000X0.350000X-0.650000X0.350000X0.650000X-0.350000X0.650000X0*%
%ADD54RoundRect,0.250000X0.725000X-0.600000X0.725000X0.600000X-0.725000X0.600000X-0.725000X-0.600000X0*%
%ADD55O,1.950000X1.700000*%
%ADD56RoundRect,0.150000X0.587500X0.150000X-0.587500X0.150000X-0.587500X-0.150000X0.587500X-0.150000X0*%
%ADD57RoundRect,0.225000X-0.375000X0.225000X-0.375000X-0.225000X0.375000X-0.225000X0.375000X0.225000X0*%
%ADD58RoundRect,0.250000X0.450000X0.425000X-0.450000X0.425000X-0.450000X-0.425000X0.450000X-0.425000X0*%
%ADD59RoundRect,0.225000X-0.225000X-0.250000X0.225000X-0.250000X0.225000X0.250000X-0.225000X0.250000X0*%
%ADD60R,1.700000X1.700000*%
%ADD61O,1.700000X1.700000*%
%ADD62RoundRect,0.200000X-0.200000X-0.275000X0.200000X-0.275000X0.200000X0.275000X-0.200000X0.275000X0*%
%ADD63R,1.500000X0.900000*%
%ADD64R,0.900000X1.500000*%
%ADD65R,3.900000X3.900000*%
%ADD66RoundRect,0.250000X-0.300000X2.050000X-0.300000X-2.050000X0.300000X-2.050000X0.300000X2.050000X0*%
%ADD67RoundRect,0.250002X-5.149998X4.449998X-5.149998X-4.449998X5.149998X-4.449998X5.149998X4.449998X0*%
%ADD68R,6.500000X1.920000*%
%ADD69RoundRect,0.102000X-0.689000X-0.689000X0.689000X-0.689000X0.689000X0.689000X-0.689000X0.689000X0*%
%ADD70C,1.582000*%
%ADD71RoundRect,0.375000X-0.625000X-0.375000X0.625000X-0.375000X0.625000X0.375000X-0.625000X0.375000X0*%
%ADD72RoundRect,0.500000X-0.500000X-1.400000X0.500000X-1.400000X0.500000X1.400000X-0.500000X1.400000X0*%
G04 APERTURE END LIST*
D10*
X159784836Y-91696895D02*
X159784836Y-90896895D01*
X159784836Y-90896895D02*
X159951503Y-91468323D01*
X159951503Y-91468323D02*
X160118169Y-90896895D01*
X160118169Y-90896895D02*
X160118169Y-91696895D01*
X160356265Y-91696895D02*
X160356265Y-90896895D01*
X160880074Y-91620704D02*
X160856265Y-91658800D01*
X160856265Y-91658800D02*
X160784836Y-91696895D01*
X160784836Y-91696895D02*
X160737217Y-91696895D01*
X160737217Y-91696895D02*
X160665789Y-91658800D01*
X160665789Y-91658800D02*
X160618170Y-91582609D01*
X160618170Y-91582609D02*
X160594360Y-91506419D01*
X160594360Y-91506419D02*
X160570551Y-91354038D01*
X160570551Y-91354038D02*
X160570551Y-91239752D01*
X160570551Y-91239752D02*
X160594360Y-91087371D01*
X160594360Y-91087371D02*
X160618170Y-91011180D01*
X160618170Y-91011180D02*
X160665789Y-90934990D01*
X160665789Y-90934990D02*
X160737217Y-90896895D01*
X160737217Y-90896895D02*
X160784836Y-90896895D01*
X160784836Y-90896895D02*
X160856265Y-90934990D01*
X160856265Y-90934990D02*
X160880074Y-90973085D01*
X168608940Y-88377068D02*
X168608940Y-88615163D01*
X168608940Y-88615163D02*
X167808940Y-88615163D01*
X168189892Y-88210401D02*
X168189892Y-88043734D01*
X168608940Y-87972306D02*
X168608940Y-88210401D01*
X168608940Y-88210401D02*
X167808940Y-88210401D01*
X167808940Y-88210401D02*
X167808940Y-87972306D01*
X168608940Y-87758020D02*
X167808940Y-87758020D01*
X167808940Y-87758020D02*
X167808940Y-87638972D01*
X167808940Y-87638972D02*
X167847035Y-87567544D01*
X167847035Y-87567544D02*
X167923225Y-87519925D01*
X167923225Y-87519925D02*
X167999416Y-87496115D01*
X167999416Y-87496115D02*
X168151797Y-87472306D01*
X168151797Y-87472306D02*
X168266083Y-87472306D01*
X168266083Y-87472306D02*
X168418464Y-87496115D01*
X168418464Y-87496115D02*
X168494654Y-87519925D01*
X168494654Y-87519925D02*
X168570845Y-87567544D01*
X168570845Y-87567544D02*
X168608940Y-87638972D01*
X168608940Y-87638972D02*
X168608940Y-87758020D01*
X169896895Y-88615163D02*
X169096895Y-88615163D01*
X169096895Y-88615163D02*
X169668323Y-88448496D01*
X169668323Y-88448496D02*
X169096895Y-88281830D01*
X169096895Y-88281830D02*
X169896895Y-88281830D01*
X169668323Y-88067543D02*
X169668323Y-87829448D01*
X169896895Y-88115162D02*
X169096895Y-87948496D01*
X169096895Y-87948496D02*
X169896895Y-87781829D01*
X169096895Y-87686591D02*
X169096895Y-87400877D01*
X169896895Y-87543734D02*
X169096895Y-87543734D01*
X169896895Y-86948497D02*
X169515942Y-87115163D01*
X169896895Y-87234211D02*
X169096895Y-87234211D01*
X169096895Y-87234211D02*
X169096895Y-87043735D01*
X169096895Y-87043735D02*
X169134990Y-86996116D01*
X169134990Y-86996116D02*
X169173085Y-86972306D01*
X169173085Y-86972306D02*
X169249276Y-86948497D01*
X169249276Y-86948497D02*
X169363561Y-86948497D01*
X169363561Y-86948497D02*
X169439752Y-86972306D01*
X169439752Y-86972306D02*
X169477847Y-86996116D01*
X169477847Y-86996116D02*
X169515942Y-87043735D01*
X169515942Y-87043735D02*
X169515942Y-87234211D01*
X169896895Y-86734211D02*
X169096895Y-86734211D01*
X169096895Y-86543735D02*
X169896895Y-86210402D01*
X169096895Y-86210402D02*
X169896895Y-86543735D01*
D11*
X137367950Y-106276547D02*
X137439378Y-106314642D01*
X137439378Y-106314642D02*
X137463188Y-106352738D01*
X137463188Y-106352738D02*
X137486997Y-106428928D01*
X137486997Y-106428928D02*
X137486997Y-106543214D01*
X137486997Y-106543214D02*
X137463188Y-106619404D01*
X137463188Y-106619404D02*
X137439378Y-106657500D01*
X137439378Y-106657500D02*
X137391759Y-106695595D01*
X137391759Y-106695595D02*
X137201283Y-106695595D01*
X137201283Y-106695595D02*
X137201283Y-105895595D01*
X137201283Y-105895595D02*
X137367950Y-105895595D01*
X137367950Y-105895595D02*
X137415569Y-105933690D01*
X137415569Y-105933690D02*
X137439378Y-105971785D01*
X137439378Y-105971785D02*
X137463188Y-106047976D01*
X137463188Y-106047976D02*
X137463188Y-106124166D01*
X137463188Y-106124166D02*
X137439378Y-106200357D01*
X137439378Y-106200357D02*
X137415569Y-106238452D01*
X137415569Y-106238452D02*
X137367950Y-106276547D01*
X137367950Y-106276547D02*
X137201283Y-106276547D01*
X137796521Y-105895595D02*
X137891759Y-105895595D01*
X137891759Y-105895595D02*
X137939378Y-105933690D01*
X137939378Y-105933690D02*
X137986997Y-106009880D01*
X137986997Y-106009880D02*
X138010807Y-106162261D01*
X138010807Y-106162261D02*
X138010807Y-106428928D01*
X138010807Y-106428928D02*
X137986997Y-106581309D01*
X137986997Y-106581309D02*
X137939378Y-106657500D01*
X137939378Y-106657500D02*
X137891759Y-106695595D01*
X137891759Y-106695595D02*
X137796521Y-106695595D01*
X137796521Y-106695595D02*
X137748902Y-106657500D01*
X137748902Y-106657500D02*
X137701283Y-106581309D01*
X137701283Y-106581309D02*
X137677474Y-106428928D01*
X137677474Y-106428928D02*
X137677474Y-106162261D01*
X137677474Y-106162261D02*
X137701283Y-106009880D01*
X137701283Y-106009880D02*
X137748902Y-105933690D01*
X137748902Y-105933690D02*
X137796521Y-105895595D01*
X138320331Y-105895595D02*
X138415569Y-105895595D01*
X138415569Y-105895595D02*
X138463188Y-105933690D01*
X138463188Y-105933690D02*
X138510807Y-106009880D01*
X138510807Y-106009880D02*
X138534617Y-106162261D01*
X138534617Y-106162261D02*
X138534617Y-106428928D01*
X138534617Y-106428928D02*
X138510807Y-106581309D01*
X138510807Y-106581309D02*
X138463188Y-106657500D01*
X138463188Y-106657500D02*
X138415569Y-106695595D01*
X138415569Y-106695595D02*
X138320331Y-106695595D01*
X138320331Y-106695595D02*
X138272712Y-106657500D01*
X138272712Y-106657500D02*
X138225093Y-106581309D01*
X138225093Y-106581309D02*
X138201284Y-106428928D01*
X138201284Y-106428928D02*
X138201284Y-106162261D01*
X138201284Y-106162261D02*
X138225093Y-106009880D01*
X138225093Y-106009880D02*
X138272712Y-105933690D01*
X138272712Y-105933690D02*
X138320331Y-105895595D01*
X138677475Y-105895595D02*
X138963189Y-105895595D01*
X138820332Y-106695595D02*
X138820332Y-105895595D01*
D10*
X166564895Y-90166666D02*
X167136323Y-90166666D01*
X167136323Y-90166666D02*
X167250609Y-90190475D01*
X167250609Y-90190475D02*
X167326800Y-90238094D01*
X167326800Y-90238094D02*
X167364895Y-90309523D01*
X167364895Y-90309523D02*
X167364895Y-90357142D01*
X166831561Y-89714285D02*
X167364895Y-89714285D01*
X166526800Y-89833333D02*
X167098228Y-89952380D01*
X167098228Y-89952380D02*
X167098228Y-89642857D01*
D11*
X170488595Y-93466666D02*
X171060023Y-93466666D01*
X171060023Y-93466666D02*
X171174309Y-93490475D01*
X171174309Y-93490475D02*
X171250500Y-93538094D01*
X171250500Y-93538094D02*
X171288595Y-93609523D01*
X171288595Y-93609523D02*
X171288595Y-93657142D01*
X170755261Y-93014285D02*
X171288595Y-93014285D01*
X170450500Y-93133333D02*
X171021928Y-93252380D01*
X171021928Y-93252380D02*
X171021928Y-92942857D01*
D10*
X170764895Y-102616666D02*
X171336323Y-102616666D01*
X171336323Y-102616666D02*
X171450609Y-102640475D01*
X171450609Y-102640475D02*
X171526800Y-102688094D01*
X171526800Y-102688094D02*
X171564895Y-102759523D01*
X171564895Y-102759523D02*
X171564895Y-102807142D01*
X171564895Y-102378571D02*
X170764895Y-102378571D01*
X170764895Y-102378571D02*
X170764895Y-102188095D01*
X170764895Y-102188095D02*
X170802990Y-102140476D01*
X170802990Y-102140476D02*
X170841085Y-102116666D01*
X170841085Y-102116666D02*
X170917276Y-102092857D01*
X170917276Y-102092857D02*
X171031561Y-102092857D01*
X171031561Y-102092857D02*
X171107752Y-102116666D01*
X171107752Y-102116666D02*
X171145847Y-102140476D01*
X171145847Y-102140476D02*
X171183942Y-102188095D01*
X171183942Y-102188095D02*
X171183942Y-102378571D01*
X170841085Y-101902380D02*
X170802990Y-101878571D01*
X170802990Y-101878571D02*
X170764895Y-101830952D01*
X170764895Y-101830952D02*
X170764895Y-101711904D01*
X170764895Y-101711904D02*
X170802990Y-101664285D01*
X170802990Y-101664285D02*
X170841085Y-101640476D01*
X170841085Y-101640476D02*
X170917276Y-101616666D01*
X170917276Y-101616666D02*
X170993466Y-101616666D01*
X170993466Y-101616666D02*
X171107752Y-101640476D01*
X171107752Y-101640476D02*
X171564895Y-101926190D01*
X171564895Y-101926190D02*
X171564895Y-101616666D01*
D11*
X170801690Y-100864285D02*
X170763595Y-100911904D01*
X170763595Y-100911904D02*
X170763595Y-100983333D01*
X170763595Y-100983333D02*
X170801690Y-101054761D01*
X170801690Y-101054761D02*
X170877880Y-101102380D01*
X170877880Y-101102380D02*
X170954071Y-101126190D01*
X170954071Y-101126190D02*
X171106452Y-101149999D01*
X171106452Y-101149999D02*
X171220738Y-101149999D01*
X171220738Y-101149999D02*
X171373119Y-101126190D01*
X171373119Y-101126190D02*
X171449309Y-101102380D01*
X171449309Y-101102380D02*
X171525500Y-101054761D01*
X171525500Y-101054761D02*
X171563595Y-100983333D01*
X171563595Y-100983333D02*
X171563595Y-100935714D01*
X171563595Y-100935714D02*
X171525500Y-100864285D01*
X171525500Y-100864285D02*
X171487404Y-100840476D01*
X171487404Y-100840476D02*
X171220738Y-100840476D01*
X171220738Y-100840476D02*
X171220738Y-100935714D01*
X171335023Y-100649999D02*
X171335023Y-100411904D01*
X171563595Y-100697618D02*
X170763595Y-100530952D01*
X170763595Y-100530952D02*
X171563595Y-100364285D01*
X171563595Y-100197619D02*
X170763595Y-100197619D01*
X171563595Y-99959524D02*
X170763595Y-99959524D01*
X170763595Y-99959524D02*
X171563595Y-99673810D01*
X171563595Y-99673810D02*
X170763595Y-99673810D01*
D10*
X173364895Y-102857142D02*
X173364895Y-103142856D01*
X173364895Y-102999999D02*
X172564895Y-102999999D01*
X172564895Y-102999999D02*
X172679180Y-103047618D01*
X172679180Y-103047618D02*
X172755371Y-103095237D01*
X172755371Y-103095237D02*
X172793466Y-103142856D01*
X172564895Y-97966666D02*
X172564895Y-97657142D01*
X172564895Y-97657142D02*
X172869657Y-97823809D01*
X172869657Y-97823809D02*
X172869657Y-97752380D01*
X172869657Y-97752380D02*
X172907752Y-97704761D01*
X172907752Y-97704761D02*
X172945847Y-97680952D01*
X172945847Y-97680952D02*
X173022038Y-97657142D01*
X173022038Y-97657142D02*
X173212514Y-97657142D01*
X173212514Y-97657142D02*
X173288704Y-97680952D01*
X173288704Y-97680952D02*
X173326800Y-97704761D01*
X173326800Y-97704761D02*
X173364895Y-97752380D01*
X173364895Y-97752380D02*
X173364895Y-97895237D01*
X173364895Y-97895237D02*
X173326800Y-97942856D01*
X173326800Y-97942856D02*
X173288704Y-97966666D01*
X135903704Y-65133333D02*
X135941800Y-65157142D01*
X135941800Y-65157142D02*
X135979895Y-65228571D01*
X135979895Y-65228571D02*
X135979895Y-65276190D01*
X135979895Y-65276190D02*
X135941800Y-65347618D01*
X135941800Y-65347618D02*
X135865609Y-65395237D01*
X135865609Y-65395237D02*
X135789419Y-65419047D01*
X135789419Y-65419047D02*
X135637038Y-65442856D01*
X135637038Y-65442856D02*
X135522752Y-65442856D01*
X135522752Y-65442856D02*
X135370371Y-65419047D01*
X135370371Y-65419047D02*
X135294180Y-65395237D01*
X135294180Y-65395237D02*
X135217990Y-65347618D01*
X135217990Y-65347618D02*
X135179895Y-65276190D01*
X135179895Y-65276190D02*
X135179895Y-65228571D01*
X135179895Y-65228571D02*
X135217990Y-65157142D01*
X135217990Y-65157142D02*
X135256085Y-65133333D01*
X135179895Y-64680952D02*
X135179895Y-64919047D01*
X135179895Y-64919047D02*
X135560847Y-64942856D01*
X135560847Y-64942856D02*
X135522752Y-64919047D01*
X135522752Y-64919047D02*
X135484657Y-64871428D01*
X135484657Y-64871428D02*
X135484657Y-64752380D01*
X135484657Y-64752380D02*
X135522752Y-64704761D01*
X135522752Y-64704761D02*
X135560847Y-64680952D01*
X135560847Y-64680952D02*
X135637038Y-64657142D01*
X135637038Y-64657142D02*
X135827514Y-64657142D01*
X135827514Y-64657142D02*
X135903704Y-64680952D01*
X135903704Y-64680952D02*
X135941800Y-64704761D01*
X135941800Y-64704761D02*
X135979895Y-64752380D01*
X135979895Y-64752380D02*
X135979895Y-64871428D01*
X135979895Y-64871428D02*
X135941800Y-64919047D01*
X135941800Y-64919047D02*
X135903704Y-64942856D01*
X156833333Y-113514895D02*
X156833333Y-114086323D01*
X156833333Y-114086323D02*
X156809524Y-114200609D01*
X156809524Y-114200609D02*
X156761905Y-114276800D01*
X156761905Y-114276800D02*
X156690476Y-114314895D01*
X156690476Y-114314895D02*
X156642857Y-114314895D01*
X157309523Y-113514895D02*
X157071428Y-113514895D01*
X157071428Y-113514895D02*
X157047619Y-113895847D01*
X157047619Y-113895847D02*
X157071428Y-113857752D01*
X157071428Y-113857752D02*
X157119047Y-113819657D01*
X157119047Y-113819657D02*
X157238095Y-113819657D01*
X157238095Y-113819657D02*
X157285714Y-113857752D01*
X157285714Y-113857752D02*
X157309523Y-113895847D01*
X157309523Y-113895847D02*
X157333333Y-113972038D01*
X157333333Y-113972038D02*
X157333333Y-114162514D01*
X157333333Y-114162514D02*
X157309523Y-114238704D01*
X157309523Y-114238704D02*
X157285714Y-114276800D01*
X157285714Y-114276800D02*
X157238095Y-114314895D01*
X157238095Y-114314895D02*
X157119047Y-114314895D01*
X157119047Y-114314895D02*
X157071428Y-114276800D01*
X157071428Y-114276800D02*
X157047619Y-114238704D01*
X173964895Y-112321428D02*
X173583942Y-112488094D01*
X173964895Y-112607142D02*
X173164895Y-112607142D01*
X173164895Y-112607142D02*
X173164895Y-112416666D01*
X173164895Y-112416666D02*
X173202990Y-112369047D01*
X173202990Y-112369047D02*
X173241085Y-112345237D01*
X173241085Y-112345237D02*
X173317276Y-112321428D01*
X173317276Y-112321428D02*
X173431561Y-112321428D01*
X173431561Y-112321428D02*
X173507752Y-112345237D01*
X173507752Y-112345237D02*
X173545847Y-112369047D01*
X173545847Y-112369047D02*
X173583942Y-112416666D01*
X173583942Y-112416666D02*
X173583942Y-112607142D01*
X173964895Y-111845237D02*
X173964895Y-112130951D01*
X173964895Y-111988094D02*
X173164895Y-111988094D01*
X173164895Y-111988094D02*
X173279180Y-112035713D01*
X173279180Y-112035713D02*
X173355371Y-112083332D01*
X173355371Y-112083332D02*
X173393466Y-112130951D01*
X173431561Y-111416666D02*
X173964895Y-111416666D01*
X173126800Y-111535714D02*
X173698228Y-111654761D01*
X173698228Y-111654761D02*
X173698228Y-111345238D01*
X134564895Y-122569047D02*
X133764895Y-122569047D01*
X133764895Y-122569047D02*
X133764895Y-122449999D01*
X133764895Y-122449999D02*
X133802990Y-122378571D01*
X133802990Y-122378571D02*
X133879180Y-122330952D01*
X133879180Y-122330952D02*
X133955371Y-122307142D01*
X133955371Y-122307142D02*
X134107752Y-122283333D01*
X134107752Y-122283333D02*
X134222038Y-122283333D01*
X134222038Y-122283333D02*
X134374419Y-122307142D01*
X134374419Y-122307142D02*
X134450609Y-122330952D01*
X134450609Y-122330952D02*
X134526800Y-122378571D01*
X134526800Y-122378571D02*
X134564895Y-122449999D01*
X134564895Y-122449999D02*
X134564895Y-122569047D01*
X133764895Y-122116666D02*
X133764895Y-121807142D01*
X133764895Y-121807142D02*
X134069657Y-121973809D01*
X134069657Y-121973809D02*
X134069657Y-121902380D01*
X134069657Y-121902380D02*
X134107752Y-121854761D01*
X134107752Y-121854761D02*
X134145847Y-121830952D01*
X134145847Y-121830952D02*
X134222038Y-121807142D01*
X134222038Y-121807142D02*
X134412514Y-121807142D01*
X134412514Y-121807142D02*
X134488704Y-121830952D01*
X134488704Y-121830952D02*
X134526800Y-121854761D01*
X134526800Y-121854761D02*
X134564895Y-121902380D01*
X134564895Y-121902380D02*
X134564895Y-122045237D01*
X134564895Y-122045237D02*
X134526800Y-122092856D01*
X134526800Y-122092856D02*
X134488704Y-122116666D01*
X156078571Y-104488704D02*
X156054762Y-104526800D01*
X156054762Y-104526800D02*
X155983333Y-104564895D01*
X155983333Y-104564895D02*
X155935714Y-104564895D01*
X155935714Y-104564895D02*
X155864286Y-104526800D01*
X155864286Y-104526800D02*
X155816667Y-104450609D01*
X155816667Y-104450609D02*
X155792857Y-104374419D01*
X155792857Y-104374419D02*
X155769048Y-104222038D01*
X155769048Y-104222038D02*
X155769048Y-104107752D01*
X155769048Y-104107752D02*
X155792857Y-103955371D01*
X155792857Y-103955371D02*
X155816667Y-103879180D01*
X155816667Y-103879180D02*
X155864286Y-103802990D01*
X155864286Y-103802990D02*
X155935714Y-103764895D01*
X155935714Y-103764895D02*
X155983333Y-103764895D01*
X155983333Y-103764895D02*
X156054762Y-103802990D01*
X156054762Y-103802990D02*
X156078571Y-103841085D01*
X156554762Y-104564895D02*
X156269048Y-104564895D01*
X156411905Y-104564895D02*
X156411905Y-103764895D01*
X156411905Y-103764895D02*
X156364286Y-103879180D01*
X156364286Y-103879180D02*
X156316667Y-103955371D01*
X156316667Y-103955371D02*
X156269048Y-103993466D01*
X157007142Y-103764895D02*
X156769047Y-103764895D01*
X156769047Y-103764895D02*
X156745238Y-104145847D01*
X156745238Y-104145847D02*
X156769047Y-104107752D01*
X156769047Y-104107752D02*
X156816666Y-104069657D01*
X156816666Y-104069657D02*
X156935714Y-104069657D01*
X156935714Y-104069657D02*
X156983333Y-104107752D01*
X156983333Y-104107752D02*
X157007142Y-104145847D01*
X157007142Y-104145847D02*
X157030952Y-104222038D01*
X157030952Y-104222038D02*
X157030952Y-104412514D01*
X157030952Y-104412514D02*
X157007142Y-104488704D01*
X157007142Y-104488704D02*
X156983333Y-104526800D01*
X156983333Y-104526800D02*
X156935714Y-104564895D01*
X156935714Y-104564895D02*
X156816666Y-104564895D01*
X156816666Y-104564895D02*
X156769047Y-104526800D01*
X156769047Y-104526800D02*
X156745238Y-104488704D01*
X171564895Y-119761026D02*
X172136323Y-119761026D01*
X172136323Y-119761026D02*
X172250609Y-119784835D01*
X172250609Y-119784835D02*
X172326800Y-119832454D01*
X172326800Y-119832454D02*
X172364895Y-119903883D01*
X172364895Y-119903883D02*
X172364895Y-119951502D01*
X172364895Y-119522931D02*
X171564895Y-119522931D01*
X171564895Y-119522931D02*
X171564895Y-119332455D01*
X171564895Y-119332455D02*
X171602990Y-119284836D01*
X171602990Y-119284836D02*
X171641085Y-119261026D01*
X171641085Y-119261026D02*
X171717276Y-119237217D01*
X171717276Y-119237217D02*
X171831561Y-119237217D01*
X171831561Y-119237217D02*
X171907752Y-119261026D01*
X171907752Y-119261026D02*
X171945847Y-119284836D01*
X171945847Y-119284836D02*
X171983942Y-119332455D01*
X171983942Y-119332455D02*
X171983942Y-119522931D01*
X172364895Y-118761026D02*
X172364895Y-119046740D01*
X172364895Y-118903883D02*
X171564895Y-118903883D01*
X171564895Y-118903883D02*
X171679180Y-118951502D01*
X171679180Y-118951502D02*
X171755371Y-118999121D01*
X171755371Y-118999121D02*
X171793466Y-119046740D01*
D11*
X172963595Y-121610805D02*
X172963595Y-121325091D01*
X173763595Y-121467948D02*
X172963595Y-121467948D01*
X173344547Y-120991758D02*
X173344547Y-121158425D01*
X173763595Y-121158425D02*
X172963595Y-121158425D01*
X172963595Y-121158425D02*
X172963595Y-120920330D01*
X172963595Y-120801282D02*
X172963595Y-120515568D01*
X173763595Y-120658425D02*
X172963595Y-120658425D01*
X173344547Y-119801283D02*
X173382642Y-119729855D01*
X173382642Y-119729855D02*
X173420738Y-119706045D01*
X173420738Y-119706045D02*
X173496928Y-119682236D01*
X173496928Y-119682236D02*
X173611214Y-119682236D01*
X173611214Y-119682236D02*
X173687404Y-119706045D01*
X173687404Y-119706045D02*
X173725500Y-119729855D01*
X173725500Y-119729855D02*
X173763595Y-119777474D01*
X173763595Y-119777474D02*
X173763595Y-119967950D01*
X173763595Y-119967950D02*
X172963595Y-119967950D01*
X172963595Y-119967950D02*
X172963595Y-119801283D01*
X172963595Y-119801283D02*
X173001690Y-119753664D01*
X173001690Y-119753664D02*
X173039785Y-119729855D01*
X173039785Y-119729855D02*
X173115976Y-119706045D01*
X173115976Y-119706045D02*
X173192166Y-119706045D01*
X173192166Y-119706045D02*
X173268357Y-119729855D01*
X173268357Y-119729855D02*
X173306452Y-119753664D01*
X173306452Y-119753664D02*
X173344547Y-119801283D01*
X173344547Y-119801283D02*
X173344547Y-119967950D01*
X173763595Y-119467950D02*
X172963595Y-119467950D01*
X173763595Y-119182236D02*
X173306452Y-119396521D01*
X172963595Y-119182236D02*
X173420738Y-119467950D01*
X173763595Y-118729855D02*
X173763595Y-118967950D01*
X173763595Y-118967950D02*
X172963595Y-118967950D01*
D10*
X172964895Y-118057142D02*
X172964895Y-118342856D01*
X172964895Y-118199999D02*
X172164895Y-118199999D01*
X172164895Y-118199999D02*
X172279180Y-118247618D01*
X172279180Y-118247618D02*
X172355371Y-118295237D01*
X172355371Y-118295237D02*
X172393466Y-118342856D01*
X172164895Y-113166666D02*
X172164895Y-112857142D01*
X172164895Y-112857142D02*
X172469657Y-113023809D01*
X172469657Y-113023809D02*
X172469657Y-112952380D01*
X172469657Y-112952380D02*
X172507752Y-112904761D01*
X172507752Y-112904761D02*
X172545847Y-112880952D01*
X172545847Y-112880952D02*
X172622038Y-112857142D01*
X172622038Y-112857142D02*
X172812514Y-112857142D01*
X172812514Y-112857142D02*
X172888704Y-112880952D01*
X172888704Y-112880952D02*
X172926800Y-112904761D01*
X172926800Y-112904761D02*
X172964895Y-112952380D01*
X172964895Y-112952380D02*
X172964895Y-113095237D01*
X172964895Y-113095237D02*
X172926800Y-113142856D01*
X172926800Y-113142856D02*
X172888704Y-113166666D01*
X154764895Y-93380952D02*
X155412514Y-93380952D01*
X155412514Y-93380952D02*
X155488704Y-93357142D01*
X155488704Y-93357142D02*
X155526800Y-93333333D01*
X155526800Y-93333333D02*
X155564895Y-93285714D01*
X155564895Y-93285714D02*
X155564895Y-93190476D01*
X155564895Y-93190476D02*
X155526800Y-93142857D01*
X155526800Y-93142857D02*
X155488704Y-93119047D01*
X155488704Y-93119047D02*
X155412514Y-93095238D01*
X155412514Y-93095238D02*
X154764895Y-93095238D01*
X155564895Y-92595237D02*
X155564895Y-92880951D01*
X155564895Y-92738094D02*
X154764895Y-92738094D01*
X154764895Y-92738094D02*
X154879180Y-92785713D01*
X154879180Y-92785713D02*
X154955371Y-92833332D01*
X154955371Y-92833332D02*
X154993466Y-92880951D01*
D11*
X143413595Y-98115952D02*
X142613595Y-98115952D01*
X142613595Y-98115952D02*
X143185023Y-97949285D01*
X143185023Y-97949285D02*
X142613595Y-97782619D01*
X142613595Y-97782619D02*
X143413595Y-97782619D01*
X143375500Y-97568332D02*
X143413595Y-97496904D01*
X143413595Y-97496904D02*
X143413595Y-97377856D01*
X143413595Y-97377856D02*
X143375500Y-97330237D01*
X143375500Y-97330237D02*
X143337404Y-97306428D01*
X143337404Y-97306428D02*
X143261214Y-97282618D01*
X143261214Y-97282618D02*
X143185023Y-97282618D01*
X143185023Y-97282618D02*
X143108833Y-97306428D01*
X143108833Y-97306428D02*
X143070738Y-97330237D01*
X143070738Y-97330237D02*
X143032642Y-97377856D01*
X143032642Y-97377856D02*
X142994547Y-97473094D01*
X142994547Y-97473094D02*
X142956452Y-97520713D01*
X142956452Y-97520713D02*
X142918357Y-97544523D01*
X142918357Y-97544523D02*
X142842166Y-97568332D01*
X142842166Y-97568332D02*
X142765976Y-97568332D01*
X142765976Y-97568332D02*
X142689785Y-97544523D01*
X142689785Y-97544523D02*
X142651690Y-97520713D01*
X142651690Y-97520713D02*
X142613595Y-97473094D01*
X142613595Y-97473094D02*
X142613595Y-97354047D01*
X142613595Y-97354047D02*
X142651690Y-97282618D01*
X142651690Y-96806428D02*
X142613595Y-96854047D01*
X142613595Y-96854047D02*
X142613595Y-96925476D01*
X142613595Y-96925476D02*
X142651690Y-96996904D01*
X142651690Y-96996904D02*
X142727880Y-97044523D01*
X142727880Y-97044523D02*
X142804071Y-97068333D01*
X142804071Y-97068333D02*
X142956452Y-97092142D01*
X142956452Y-97092142D02*
X143070738Y-97092142D01*
X143070738Y-97092142D02*
X143223119Y-97068333D01*
X143223119Y-97068333D02*
X143299309Y-97044523D01*
X143299309Y-97044523D02*
X143375500Y-96996904D01*
X143375500Y-96996904D02*
X143413595Y-96925476D01*
X143413595Y-96925476D02*
X143413595Y-96877857D01*
X143413595Y-96877857D02*
X143375500Y-96806428D01*
X143375500Y-96806428D02*
X143337404Y-96782619D01*
X143337404Y-96782619D02*
X143070738Y-96782619D01*
X143070738Y-96782619D02*
X143070738Y-96877857D01*
X142994547Y-96568333D02*
X142994547Y-96401666D01*
X143413595Y-96330238D02*
X143413595Y-96568333D01*
X143413595Y-96568333D02*
X142613595Y-96568333D01*
X142613595Y-96568333D02*
X142613595Y-96330238D01*
X143489785Y-95782619D02*
X143451690Y-95830238D01*
X143451690Y-95830238D02*
X143375500Y-95877857D01*
X143375500Y-95877857D02*
X143261214Y-95949285D01*
X143261214Y-95949285D02*
X143223119Y-95996904D01*
X143223119Y-95996904D02*
X143223119Y-96044523D01*
X143413595Y-96020714D02*
X143375500Y-96068333D01*
X143375500Y-96068333D02*
X143299309Y-96115952D01*
X143299309Y-96115952D02*
X143146928Y-96139761D01*
X143146928Y-96139761D02*
X142880261Y-96139761D01*
X142880261Y-96139761D02*
X142727880Y-96115952D01*
X142727880Y-96115952D02*
X142651690Y-96068333D01*
X142651690Y-96068333D02*
X142613595Y-96020714D01*
X142613595Y-96020714D02*
X142613595Y-95925476D01*
X142613595Y-95925476D02*
X142651690Y-95877857D01*
X142651690Y-95877857D02*
X142727880Y-95830238D01*
X142727880Y-95830238D02*
X142880261Y-95806428D01*
X142880261Y-95806428D02*
X143146928Y-95806428D01*
X143146928Y-95806428D02*
X143299309Y-95830238D01*
X143299309Y-95830238D02*
X143375500Y-95877857D01*
X143375500Y-95877857D02*
X143413595Y-95925476D01*
X143413595Y-95925476D02*
X143413595Y-96020714D01*
X142613595Y-95639761D02*
X142613595Y-95306428D01*
X142613595Y-95306428D02*
X143413595Y-95520713D01*
D10*
X136959895Y-93139047D02*
X136159895Y-93139047D01*
X136159895Y-93139047D02*
X136159895Y-93019999D01*
X136159895Y-93019999D02*
X136197990Y-92948571D01*
X136197990Y-92948571D02*
X136274180Y-92900952D01*
X136274180Y-92900952D02*
X136350371Y-92877142D01*
X136350371Y-92877142D02*
X136502752Y-92853333D01*
X136502752Y-92853333D02*
X136617038Y-92853333D01*
X136617038Y-92853333D02*
X136769419Y-92877142D01*
X136769419Y-92877142D02*
X136845609Y-92900952D01*
X136845609Y-92900952D02*
X136921800Y-92948571D01*
X136921800Y-92948571D02*
X136959895Y-93019999D01*
X136959895Y-93019999D02*
X136959895Y-93139047D01*
X136159895Y-92400952D02*
X136159895Y-92639047D01*
X136159895Y-92639047D02*
X136540847Y-92662856D01*
X136540847Y-92662856D02*
X136502752Y-92639047D01*
X136502752Y-92639047D02*
X136464657Y-92591428D01*
X136464657Y-92591428D02*
X136464657Y-92472380D01*
X136464657Y-92472380D02*
X136502752Y-92424761D01*
X136502752Y-92424761D02*
X136540847Y-92400952D01*
X136540847Y-92400952D02*
X136617038Y-92377142D01*
X136617038Y-92377142D02*
X136807514Y-92377142D01*
X136807514Y-92377142D02*
X136883704Y-92400952D01*
X136883704Y-92400952D02*
X136921800Y-92424761D01*
X136921800Y-92424761D02*
X136959895Y-92472380D01*
X136959895Y-92472380D02*
X136959895Y-92591428D01*
X136959895Y-92591428D02*
X136921800Y-92639047D01*
X136921800Y-92639047D02*
X136883704Y-92662856D01*
X136103704Y-72933333D02*
X136141800Y-72957142D01*
X136141800Y-72957142D02*
X136179895Y-73028571D01*
X136179895Y-73028571D02*
X136179895Y-73076190D01*
X136179895Y-73076190D02*
X136141800Y-73147618D01*
X136141800Y-73147618D02*
X136065609Y-73195237D01*
X136065609Y-73195237D02*
X135989419Y-73219047D01*
X135989419Y-73219047D02*
X135837038Y-73242856D01*
X135837038Y-73242856D02*
X135722752Y-73242856D01*
X135722752Y-73242856D02*
X135570371Y-73219047D01*
X135570371Y-73219047D02*
X135494180Y-73195237D01*
X135494180Y-73195237D02*
X135417990Y-73147618D01*
X135417990Y-73147618D02*
X135379895Y-73076190D01*
X135379895Y-73076190D02*
X135379895Y-73028571D01*
X135379895Y-73028571D02*
X135417990Y-72957142D01*
X135417990Y-72957142D02*
X135456085Y-72933333D01*
X135379895Y-72766666D02*
X135379895Y-72457142D01*
X135379895Y-72457142D02*
X135684657Y-72623809D01*
X135684657Y-72623809D02*
X135684657Y-72552380D01*
X135684657Y-72552380D02*
X135722752Y-72504761D01*
X135722752Y-72504761D02*
X135760847Y-72480952D01*
X135760847Y-72480952D02*
X135837038Y-72457142D01*
X135837038Y-72457142D02*
X136027514Y-72457142D01*
X136027514Y-72457142D02*
X136103704Y-72480952D01*
X136103704Y-72480952D02*
X136141800Y-72504761D01*
X136141800Y-72504761D02*
X136179895Y-72552380D01*
X136179895Y-72552380D02*
X136179895Y-72695237D01*
X136179895Y-72695237D02*
X136141800Y-72742856D01*
X136141800Y-72742856D02*
X136103704Y-72766666D01*
D11*
X173487404Y-87834617D02*
X173525500Y-87858426D01*
X173525500Y-87858426D02*
X173563595Y-87929855D01*
X173563595Y-87929855D02*
X173563595Y-87977474D01*
X173563595Y-87977474D02*
X173525500Y-88048902D01*
X173525500Y-88048902D02*
X173449309Y-88096521D01*
X173449309Y-88096521D02*
X173373119Y-88120331D01*
X173373119Y-88120331D02*
X173220738Y-88144140D01*
X173220738Y-88144140D02*
X173106452Y-88144140D01*
X173106452Y-88144140D02*
X172954071Y-88120331D01*
X172954071Y-88120331D02*
X172877880Y-88096521D01*
X172877880Y-88096521D02*
X172801690Y-88048902D01*
X172801690Y-88048902D02*
X172763595Y-87977474D01*
X172763595Y-87977474D02*
X172763595Y-87929855D01*
X172763595Y-87929855D02*
X172801690Y-87858426D01*
X172801690Y-87858426D02*
X172839785Y-87834617D01*
X173563595Y-87620331D02*
X172763595Y-87620331D01*
X172763595Y-87620331D02*
X173335023Y-87453664D01*
X173335023Y-87453664D02*
X172763595Y-87286998D01*
X172763595Y-87286998D02*
X173563595Y-87286998D01*
X173563595Y-87048902D02*
X172763595Y-87048902D01*
X172763595Y-87048902D02*
X172763595Y-86929854D01*
X172763595Y-86929854D02*
X172801690Y-86858426D01*
X172801690Y-86858426D02*
X172877880Y-86810807D01*
X172877880Y-86810807D02*
X172954071Y-86786997D01*
X172954071Y-86786997D02*
X173106452Y-86763188D01*
X173106452Y-86763188D02*
X173220738Y-86763188D01*
X173220738Y-86763188D02*
X173373119Y-86786997D01*
X173373119Y-86786997D02*
X173449309Y-86810807D01*
X173449309Y-86810807D02*
X173525500Y-86858426D01*
X173525500Y-86858426D02*
X173563595Y-86929854D01*
X173563595Y-86929854D02*
X173563595Y-87048902D01*
X173144547Y-86001283D02*
X173182642Y-85929855D01*
X173182642Y-85929855D02*
X173220738Y-85906045D01*
X173220738Y-85906045D02*
X173296928Y-85882236D01*
X173296928Y-85882236D02*
X173411214Y-85882236D01*
X173411214Y-85882236D02*
X173487404Y-85906045D01*
X173487404Y-85906045D02*
X173525500Y-85929855D01*
X173525500Y-85929855D02*
X173563595Y-85977474D01*
X173563595Y-85977474D02*
X173563595Y-86167950D01*
X173563595Y-86167950D02*
X172763595Y-86167950D01*
X172763595Y-86167950D02*
X172763595Y-86001283D01*
X172763595Y-86001283D02*
X172801690Y-85953664D01*
X172801690Y-85953664D02*
X172839785Y-85929855D01*
X172839785Y-85929855D02*
X172915976Y-85906045D01*
X172915976Y-85906045D02*
X172992166Y-85906045D01*
X172992166Y-85906045D02*
X173068357Y-85929855D01*
X173068357Y-85929855D02*
X173106452Y-85953664D01*
X173106452Y-85953664D02*
X173144547Y-86001283D01*
X173144547Y-86001283D02*
X173144547Y-86167950D01*
X172763595Y-85739378D02*
X172763595Y-85453664D01*
X173563595Y-85596521D02*
X172763595Y-85596521D01*
X173563595Y-85286998D02*
X172763595Y-85286998D01*
X172763595Y-85286998D02*
X173563595Y-85001284D01*
X173563595Y-85001284D02*
X172763595Y-85001284D01*
X172325500Y-86310806D02*
X172363595Y-86239378D01*
X172363595Y-86239378D02*
X172363595Y-86120330D01*
X172363595Y-86120330D02*
X172325500Y-86072711D01*
X172325500Y-86072711D02*
X172287404Y-86048902D01*
X172287404Y-86048902D02*
X172211214Y-86025092D01*
X172211214Y-86025092D02*
X172135023Y-86025092D01*
X172135023Y-86025092D02*
X172058833Y-86048902D01*
X172058833Y-86048902D02*
X172020738Y-86072711D01*
X172020738Y-86072711D02*
X171982642Y-86120330D01*
X171982642Y-86120330D02*
X171944547Y-86215568D01*
X171944547Y-86215568D02*
X171906452Y-86263187D01*
X171906452Y-86263187D02*
X171868357Y-86286997D01*
X171868357Y-86286997D02*
X171792166Y-86310806D01*
X171792166Y-86310806D02*
X171715976Y-86310806D01*
X171715976Y-86310806D02*
X171639785Y-86286997D01*
X171639785Y-86286997D02*
X171601690Y-86263187D01*
X171601690Y-86263187D02*
X171563595Y-86215568D01*
X171563595Y-86215568D02*
X171563595Y-86096521D01*
X171563595Y-86096521D02*
X171601690Y-86025092D01*
X171563595Y-85858426D02*
X172363595Y-85739378D01*
X172363595Y-85739378D02*
X171792166Y-85644140D01*
X171792166Y-85644140D02*
X172363595Y-85548902D01*
X172363595Y-85548902D02*
X171563595Y-85429855D01*
X171563595Y-85286997D02*
X171563595Y-84977473D01*
X171563595Y-84977473D02*
X171868357Y-85144140D01*
X171868357Y-85144140D02*
X171868357Y-85072711D01*
X171868357Y-85072711D02*
X171906452Y-85025092D01*
X171906452Y-85025092D02*
X171944547Y-85001283D01*
X171944547Y-85001283D02*
X172020738Y-84977473D01*
X172020738Y-84977473D02*
X172211214Y-84977473D01*
X172211214Y-84977473D02*
X172287404Y-85001283D01*
X172287404Y-85001283D02*
X172325500Y-85025092D01*
X172325500Y-85025092D02*
X172363595Y-85072711D01*
X172363595Y-85072711D02*
X172363595Y-85215568D01*
X172363595Y-85215568D02*
X172325500Y-85263187D01*
X172325500Y-85263187D02*
X172287404Y-85286997D01*
D10*
X140364895Y-82483333D02*
X139983942Y-82649999D01*
X140364895Y-82769047D02*
X139564895Y-82769047D01*
X139564895Y-82769047D02*
X139564895Y-82578571D01*
X139564895Y-82578571D02*
X139602990Y-82530952D01*
X139602990Y-82530952D02*
X139641085Y-82507142D01*
X139641085Y-82507142D02*
X139717276Y-82483333D01*
X139717276Y-82483333D02*
X139831561Y-82483333D01*
X139831561Y-82483333D02*
X139907752Y-82507142D01*
X139907752Y-82507142D02*
X139945847Y-82530952D01*
X139945847Y-82530952D02*
X139983942Y-82578571D01*
X139983942Y-82578571D02*
X139983942Y-82769047D01*
X139641085Y-82292856D02*
X139602990Y-82269047D01*
X139602990Y-82269047D02*
X139564895Y-82221428D01*
X139564895Y-82221428D02*
X139564895Y-82102380D01*
X139564895Y-82102380D02*
X139602990Y-82054761D01*
X139602990Y-82054761D02*
X139641085Y-82030952D01*
X139641085Y-82030952D02*
X139717276Y-82007142D01*
X139717276Y-82007142D02*
X139793466Y-82007142D01*
X139793466Y-82007142D02*
X139907752Y-82030952D01*
X139907752Y-82030952D02*
X140364895Y-82316666D01*
X140364895Y-82316666D02*
X140364895Y-82007142D01*
X137564895Y-82769047D02*
X136764895Y-82769047D01*
X136764895Y-82769047D02*
X136764895Y-82649999D01*
X136764895Y-82649999D02*
X136802990Y-82578571D01*
X136802990Y-82578571D02*
X136879180Y-82530952D01*
X136879180Y-82530952D02*
X136955371Y-82507142D01*
X136955371Y-82507142D02*
X137107752Y-82483333D01*
X137107752Y-82483333D02*
X137222038Y-82483333D01*
X137222038Y-82483333D02*
X137374419Y-82507142D01*
X137374419Y-82507142D02*
X137450609Y-82530952D01*
X137450609Y-82530952D02*
X137526800Y-82578571D01*
X137526800Y-82578571D02*
X137564895Y-82649999D01*
X137564895Y-82649999D02*
X137564895Y-82769047D01*
X137031561Y-82054761D02*
X137564895Y-82054761D01*
X136726800Y-82173809D02*
X137298228Y-82292856D01*
X137298228Y-82292856D02*
X137298228Y-81983333D01*
X143645952Y-64614895D02*
X143645952Y-63814895D01*
X143645952Y-63814895D02*
X143765000Y-63814895D01*
X143765000Y-63814895D02*
X143836428Y-63852990D01*
X143836428Y-63852990D02*
X143884047Y-63929180D01*
X143884047Y-63929180D02*
X143907857Y-64005371D01*
X143907857Y-64005371D02*
X143931666Y-64157752D01*
X143931666Y-64157752D02*
X143931666Y-64272038D01*
X143931666Y-64272038D02*
X143907857Y-64424419D01*
X143907857Y-64424419D02*
X143884047Y-64500609D01*
X143884047Y-64500609D02*
X143836428Y-64576800D01*
X143836428Y-64576800D02*
X143765000Y-64614895D01*
X143765000Y-64614895D02*
X143645952Y-64614895D01*
X144360238Y-63814895D02*
X144265000Y-63814895D01*
X144265000Y-63814895D02*
X144217381Y-63852990D01*
X144217381Y-63852990D02*
X144193571Y-63891085D01*
X144193571Y-63891085D02*
X144145952Y-64005371D01*
X144145952Y-64005371D02*
X144122143Y-64157752D01*
X144122143Y-64157752D02*
X144122143Y-64462514D01*
X144122143Y-64462514D02*
X144145952Y-64538704D01*
X144145952Y-64538704D02*
X144169762Y-64576800D01*
X144169762Y-64576800D02*
X144217381Y-64614895D01*
X144217381Y-64614895D02*
X144312619Y-64614895D01*
X144312619Y-64614895D02*
X144360238Y-64576800D01*
X144360238Y-64576800D02*
X144384047Y-64538704D01*
X144384047Y-64538704D02*
X144407857Y-64462514D01*
X144407857Y-64462514D02*
X144407857Y-64272038D01*
X144407857Y-64272038D02*
X144384047Y-64195847D01*
X144384047Y-64195847D02*
X144360238Y-64157752D01*
X144360238Y-64157752D02*
X144312619Y-64119657D01*
X144312619Y-64119657D02*
X144217381Y-64119657D01*
X144217381Y-64119657D02*
X144169762Y-64157752D01*
X144169762Y-64157752D02*
X144145952Y-64195847D01*
X144145952Y-64195847D02*
X144122143Y-64272038D01*
X152116666Y-89289895D02*
X151950000Y-88908942D01*
X151830952Y-89289895D02*
X151830952Y-88489895D01*
X151830952Y-88489895D02*
X152021428Y-88489895D01*
X152021428Y-88489895D02*
X152069047Y-88527990D01*
X152069047Y-88527990D02*
X152092857Y-88566085D01*
X152092857Y-88566085D02*
X152116666Y-88642276D01*
X152116666Y-88642276D02*
X152116666Y-88756561D01*
X152116666Y-88756561D02*
X152092857Y-88832752D01*
X152092857Y-88832752D02*
X152069047Y-88870847D01*
X152069047Y-88870847D02*
X152021428Y-88908942D01*
X152021428Y-88908942D02*
X151830952Y-88908942D01*
X152569047Y-88489895D02*
X152330952Y-88489895D01*
X152330952Y-88489895D02*
X152307143Y-88870847D01*
X152307143Y-88870847D02*
X152330952Y-88832752D01*
X152330952Y-88832752D02*
X152378571Y-88794657D01*
X152378571Y-88794657D02*
X152497619Y-88794657D01*
X152497619Y-88794657D02*
X152545238Y-88832752D01*
X152545238Y-88832752D02*
X152569047Y-88870847D01*
X152569047Y-88870847D02*
X152592857Y-88947038D01*
X152592857Y-88947038D02*
X152592857Y-89137514D01*
X152592857Y-89137514D02*
X152569047Y-89213704D01*
X152569047Y-89213704D02*
X152545238Y-89251800D01*
X152545238Y-89251800D02*
X152497619Y-89289895D01*
X152497619Y-89289895D02*
X152378571Y-89289895D01*
X152378571Y-89289895D02*
X152330952Y-89251800D01*
X152330952Y-89251800D02*
X152307143Y-89213704D01*
X168681666Y-73338704D02*
X168657857Y-73376800D01*
X168657857Y-73376800D02*
X168586428Y-73414895D01*
X168586428Y-73414895D02*
X168538809Y-73414895D01*
X168538809Y-73414895D02*
X168467381Y-73376800D01*
X168467381Y-73376800D02*
X168419762Y-73300609D01*
X168419762Y-73300609D02*
X168395952Y-73224419D01*
X168395952Y-73224419D02*
X168372143Y-73072038D01*
X168372143Y-73072038D02*
X168372143Y-72957752D01*
X168372143Y-72957752D02*
X168395952Y-72805371D01*
X168395952Y-72805371D02*
X168419762Y-72729180D01*
X168419762Y-72729180D02*
X168467381Y-72652990D01*
X168467381Y-72652990D02*
X168538809Y-72614895D01*
X168538809Y-72614895D02*
X168586428Y-72614895D01*
X168586428Y-72614895D02*
X168657857Y-72652990D01*
X168657857Y-72652990D02*
X168681666Y-72691085D01*
X168848333Y-72614895D02*
X169181666Y-72614895D01*
X169181666Y-72614895D02*
X168967381Y-73414895D01*
X137333334Y-108926800D02*
X137404762Y-108964895D01*
X137404762Y-108964895D02*
X137523810Y-108964895D01*
X137523810Y-108964895D02*
X137571429Y-108926800D01*
X137571429Y-108926800D02*
X137595238Y-108888704D01*
X137595238Y-108888704D02*
X137619048Y-108812514D01*
X137619048Y-108812514D02*
X137619048Y-108736323D01*
X137619048Y-108736323D02*
X137595238Y-108660133D01*
X137595238Y-108660133D02*
X137571429Y-108622038D01*
X137571429Y-108622038D02*
X137523810Y-108583942D01*
X137523810Y-108583942D02*
X137428572Y-108545847D01*
X137428572Y-108545847D02*
X137380953Y-108507752D01*
X137380953Y-108507752D02*
X137357143Y-108469657D01*
X137357143Y-108469657D02*
X137333334Y-108393466D01*
X137333334Y-108393466D02*
X137333334Y-108317276D01*
X137333334Y-108317276D02*
X137357143Y-108241085D01*
X137357143Y-108241085D02*
X137380953Y-108202990D01*
X137380953Y-108202990D02*
X137428572Y-108164895D01*
X137428572Y-108164895D02*
X137547619Y-108164895D01*
X137547619Y-108164895D02*
X137619048Y-108202990D01*
X137785714Y-108164895D02*
X137904762Y-108964895D01*
X137904762Y-108964895D02*
X138000000Y-108393466D01*
X138000000Y-108393466D02*
X138095238Y-108964895D01*
X138095238Y-108964895D02*
X138214286Y-108164895D01*
X138380953Y-108241085D02*
X138404762Y-108202990D01*
X138404762Y-108202990D02*
X138452381Y-108164895D01*
X138452381Y-108164895D02*
X138571429Y-108164895D01*
X138571429Y-108164895D02*
X138619048Y-108202990D01*
X138619048Y-108202990D02*
X138642857Y-108241085D01*
X138642857Y-108241085D02*
X138666667Y-108317276D01*
X138666667Y-108317276D02*
X138666667Y-108393466D01*
X138666667Y-108393466D02*
X138642857Y-108507752D01*
X138642857Y-108507752D02*
X138357143Y-108964895D01*
X138357143Y-108964895D02*
X138666667Y-108964895D01*
X132523704Y-70733333D02*
X132561800Y-70757142D01*
X132561800Y-70757142D02*
X132599895Y-70828571D01*
X132599895Y-70828571D02*
X132599895Y-70876190D01*
X132599895Y-70876190D02*
X132561800Y-70947618D01*
X132561800Y-70947618D02*
X132485609Y-70995237D01*
X132485609Y-70995237D02*
X132409419Y-71019047D01*
X132409419Y-71019047D02*
X132257038Y-71042856D01*
X132257038Y-71042856D02*
X132142752Y-71042856D01*
X132142752Y-71042856D02*
X131990371Y-71019047D01*
X131990371Y-71019047D02*
X131914180Y-70995237D01*
X131914180Y-70995237D02*
X131837990Y-70947618D01*
X131837990Y-70947618D02*
X131799895Y-70876190D01*
X131799895Y-70876190D02*
X131799895Y-70828571D01*
X131799895Y-70828571D02*
X131837990Y-70757142D01*
X131837990Y-70757142D02*
X131876085Y-70733333D01*
X131876085Y-70542856D02*
X131837990Y-70519047D01*
X131837990Y-70519047D02*
X131799895Y-70471428D01*
X131799895Y-70471428D02*
X131799895Y-70352380D01*
X131799895Y-70352380D02*
X131837990Y-70304761D01*
X131837990Y-70304761D02*
X131876085Y-70280952D01*
X131876085Y-70280952D02*
X131952276Y-70257142D01*
X131952276Y-70257142D02*
X132028466Y-70257142D01*
X132028466Y-70257142D02*
X132142752Y-70280952D01*
X132142752Y-70280952D02*
X132599895Y-70566666D01*
X132599895Y-70566666D02*
X132599895Y-70257142D01*
X166564895Y-102380952D02*
X167212514Y-102380952D01*
X167212514Y-102380952D02*
X167288704Y-102357142D01*
X167288704Y-102357142D02*
X167326800Y-102333333D01*
X167326800Y-102333333D02*
X167364895Y-102285714D01*
X167364895Y-102285714D02*
X167364895Y-102190476D01*
X167364895Y-102190476D02*
X167326800Y-102142857D01*
X167326800Y-102142857D02*
X167288704Y-102119047D01*
X167288704Y-102119047D02*
X167212514Y-102095238D01*
X167212514Y-102095238D02*
X166564895Y-102095238D01*
X166564895Y-101642856D02*
X166564895Y-101738094D01*
X166564895Y-101738094D02*
X166602990Y-101785713D01*
X166602990Y-101785713D02*
X166641085Y-101809523D01*
X166641085Y-101809523D02*
X166755371Y-101857142D01*
X166755371Y-101857142D02*
X166907752Y-101880951D01*
X166907752Y-101880951D02*
X167212514Y-101880951D01*
X167212514Y-101880951D02*
X167288704Y-101857142D01*
X167288704Y-101857142D02*
X167326800Y-101833332D01*
X167326800Y-101833332D02*
X167364895Y-101785713D01*
X167364895Y-101785713D02*
X167364895Y-101690475D01*
X167364895Y-101690475D02*
X167326800Y-101642856D01*
X167326800Y-101642856D02*
X167288704Y-101619047D01*
X167288704Y-101619047D02*
X167212514Y-101595237D01*
X167212514Y-101595237D02*
X167022038Y-101595237D01*
X167022038Y-101595237D02*
X166945847Y-101619047D01*
X166945847Y-101619047D02*
X166907752Y-101642856D01*
X166907752Y-101642856D02*
X166869657Y-101690475D01*
X166869657Y-101690475D02*
X166869657Y-101785713D01*
X166869657Y-101785713D02*
X166907752Y-101833332D01*
X166907752Y-101833332D02*
X166945847Y-101857142D01*
X166945847Y-101857142D02*
X167022038Y-101880951D01*
X135324895Y-82508333D02*
X134943942Y-82674999D01*
X135324895Y-82794047D02*
X134524895Y-82794047D01*
X134524895Y-82794047D02*
X134524895Y-82603571D01*
X134524895Y-82603571D02*
X134562990Y-82555952D01*
X134562990Y-82555952D02*
X134601085Y-82532142D01*
X134601085Y-82532142D02*
X134677276Y-82508333D01*
X134677276Y-82508333D02*
X134791561Y-82508333D01*
X134791561Y-82508333D02*
X134867752Y-82532142D01*
X134867752Y-82532142D02*
X134905847Y-82555952D01*
X134905847Y-82555952D02*
X134943942Y-82603571D01*
X134943942Y-82603571D02*
X134943942Y-82794047D01*
X135324895Y-82032142D02*
X135324895Y-82317856D01*
X135324895Y-82174999D02*
X134524895Y-82174999D01*
X134524895Y-82174999D02*
X134639180Y-82222618D01*
X134639180Y-82222618D02*
X134715371Y-82270237D01*
X134715371Y-82270237D02*
X134753466Y-82317856D01*
X166979895Y-78221428D02*
X166598942Y-78388094D01*
X166979895Y-78507142D02*
X166179895Y-78507142D01*
X166179895Y-78507142D02*
X166179895Y-78316666D01*
X166179895Y-78316666D02*
X166217990Y-78269047D01*
X166217990Y-78269047D02*
X166256085Y-78245237D01*
X166256085Y-78245237D02*
X166332276Y-78221428D01*
X166332276Y-78221428D02*
X166446561Y-78221428D01*
X166446561Y-78221428D02*
X166522752Y-78245237D01*
X166522752Y-78245237D02*
X166560847Y-78269047D01*
X166560847Y-78269047D02*
X166598942Y-78316666D01*
X166598942Y-78316666D02*
X166598942Y-78507142D01*
X166979895Y-77745237D02*
X166979895Y-78030951D01*
X166979895Y-77888094D02*
X166179895Y-77888094D01*
X166179895Y-77888094D02*
X166294180Y-77935713D01*
X166294180Y-77935713D02*
X166370371Y-77983332D01*
X166370371Y-77983332D02*
X166408466Y-78030951D01*
X166979895Y-77269047D02*
X166979895Y-77554761D01*
X166979895Y-77411904D02*
X166179895Y-77411904D01*
X166179895Y-77411904D02*
X166294180Y-77459523D01*
X166294180Y-77459523D02*
X166370371Y-77507142D01*
X166370371Y-77507142D02*
X166408466Y-77554761D01*
X154935714Y-106088704D02*
X154911905Y-106126800D01*
X154911905Y-106126800D02*
X154840476Y-106164895D01*
X154840476Y-106164895D02*
X154792857Y-106164895D01*
X154792857Y-106164895D02*
X154721429Y-106126800D01*
X154721429Y-106126800D02*
X154673810Y-106050609D01*
X154673810Y-106050609D02*
X154650000Y-105974419D01*
X154650000Y-105974419D02*
X154626191Y-105822038D01*
X154626191Y-105822038D02*
X154626191Y-105707752D01*
X154626191Y-105707752D02*
X154650000Y-105555371D01*
X154650000Y-105555371D02*
X154673810Y-105479180D01*
X154673810Y-105479180D02*
X154721429Y-105402990D01*
X154721429Y-105402990D02*
X154792857Y-105364895D01*
X154792857Y-105364895D02*
X154840476Y-105364895D01*
X154840476Y-105364895D02*
X154911905Y-105402990D01*
X154911905Y-105402990D02*
X154935714Y-105441085D01*
X155150000Y-106164895D02*
X155150000Y-105364895D01*
X155388095Y-106164895D02*
X155388095Y-105364895D01*
X155388095Y-105364895D02*
X155673809Y-106164895D01*
X155673809Y-106164895D02*
X155673809Y-105364895D01*
X155888096Y-105441085D02*
X155911905Y-105402990D01*
X155911905Y-105402990D02*
X155959524Y-105364895D01*
X155959524Y-105364895D02*
X156078572Y-105364895D01*
X156078572Y-105364895D02*
X156126191Y-105402990D01*
X156126191Y-105402990D02*
X156150000Y-105441085D01*
X156150000Y-105441085D02*
X156173810Y-105517276D01*
X156173810Y-105517276D02*
X156173810Y-105593466D01*
X156173810Y-105593466D02*
X156150000Y-105707752D01*
X156150000Y-105707752D02*
X155864286Y-106164895D01*
X155864286Y-106164895D02*
X156173810Y-106164895D01*
X138624895Y-87719047D02*
X137824895Y-87719047D01*
X137824895Y-87719047D02*
X137824895Y-87599999D01*
X137824895Y-87599999D02*
X137862990Y-87528571D01*
X137862990Y-87528571D02*
X137939180Y-87480952D01*
X137939180Y-87480952D02*
X138015371Y-87457142D01*
X138015371Y-87457142D02*
X138167752Y-87433333D01*
X138167752Y-87433333D02*
X138282038Y-87433333D01*
X138282038Y-87433333D02*
X138434419Y-87457142D01*
X138434419Y-87457142D02*
X138510609Y-87480952D01*
X138510609Y-87480952D02*
X138586800Y-87528571D01*
X138586800Y-87528571D02*
X138624895Y-87599999D01*
X138624895Y-87599999D02*
X138624895Y-87719047D01*
X137901085Y-87242856D02*
X137862990Y-87219047D01*
X137862990Y-87219047D02*
X137824895Y-87171428D01*
X137824895Y-87171428D02*
X137824895Y-87052380D01*
X137824895Y-87052380D02*
X137862990Y-87004761D01*
X137862990Y-87004761D02*
X137901085Y-86980952D01*
X137901085Y-86980952D02*
X137977276Y-86957142D01*
X137977276Y-86957142D02*
X138053466Y-86957142D01*
X138053466Y-86957142D02*
X138167752Y-86980952D01*
X138167752Y-86980952D02*
X138624895Y-87266666D01*
X138624895Y-87266666D02*
X138624895Y-86957142D01*
X166364895Y-115016666D02*
X166936323Y-115016666D01*
X166936323Y-115016666D02*
X167050609Y-115040475D01*
X167050609Y-115040475D02*
X167126800Y-115088094D01*
X167126800Y-115088094D02*
X167164895Y-115159523D01*
X167164895Y-115159523D02*
X167164895Y-115207142D01*
X167164895Y-114778571D02*
X166364895Y-114778571D01*
X166364895Y-114778571D02*
X166364895Y-114588095D01*
X166364895Y-114588095D02*
X166402990Y-114540476D01*
X166402990Y-114540476D02*
X166441085Y-114516666D01*
X166441085Y-114516666D02*
X166517276Y-114492857D01*
X166517276Y-114492857D02*
X166631561Y-114492857D01*
X166631561Y-114492857D02*
X166707752Y-114516666D01*
X166707752Y-114516666D02*
X166745847Y-114540476D01*
X166745847Y-114540476D02*
X166783942Y-114588095D01*
X166783942Y-114588095D02*
X166783942Y-114778571D01*
X166364895Y-114326190D02*
X166364895Y-114016666D01*
X166364895Y-114016666D02*
X166669657Y-114183333D01*
X166669657Y-114183333D02*
X166669657Y-114111904D01*
X166669657Y-114111904D02*
X166707752Y-114064285D01*
X166707752Y-114064285D02*
X166745847Y-114040476D01*
X166745847Y-114040476D02*
X166822038Y-114016666D01*
X166822038Y-114016666D02*
X167012514Y-114016666D01*
X167012514Y-114016666D02*
X167088704Y-114040476D01*
X167088704Y-114040476D02*
X167126800Y-114064285D01*
X167126800Y-114064285D02*
X167164895Y-114111904D01*
X167164895Y-114111904D02*
X167164895Y-114254761D01*
X167164895Y-114254761D02*
X167126800Y-114302380D01*
X167126800Y-114302380D02*
X167088704Y-114326190D01*
X166364895Y-108157142D02*
X166364895Y-108442856D01*
X166364895Y-108299999D02*
X165564895Y-108299999D01*
X165564895Y-108299999D02*
X165679180Y-108347618D01*
X165679180Y-108347618D02*
X165755371Y-108395237D01*
X165755371Y-108395237D02*
X165793466Y-108442856D01*
X165564895Y-113666666D02*
X165564895Y-113357142D01*
X165564895Y-113357142D02*
X165869657Y-113523809D01*
X165869657Y-113523809D02*
X165869657Y-113452380D01*
X165869657Y-113452380D02*
X165907752Y-113404761D01*
X165907752Y-113404761D02*
X165945847Y-113380952D01*
X165945847Y-113380952D02*
X166022038Y-113357142D01*
X166022038Y-113357142D02*
X166212514Y-113357142D01*
X166212514Y-113357142D02*
X166288704Y-113380952D01*
X166288704Y-113380952D02*
X166326800Y-113404761D01*
X166326800Y-113404761D02*
X166364895Y-113452380D01*
X166364895Y-113452380D02*
X166364895Y-113595237D01*
X166364895Y-113595237D02*
X166326800Y-113642856D01*
X166326800Y-113642856D02*
X166288704Y-113666666D01*
X143202380Y-110488704D02*
X143178571Y-110526800D01*
X143178571Y-110526800D02*
X143107142Y-110564895D01*
X143107142Y-110564895D02*
X143059523Y-110564895D01*
X143059523Y-110564895D02*
X142988095Y-110526800D01*
X142988095Y-110526800D02*
X142940476Y-110450609D01*
X142940476Y-110450609D02*
X142916666Y-110374419D01*
X142916666Y-110374419D02*
X142892857Y-110222038D01*
X142892857Y-110222038D02*
X142892857Y-110107752D01*
X142892857Y-110107752D02*
X142916666Y-109955371D01*
X142916666Y-109955371D02*
X142940476Y-109879180D01*
X142940476Y-109879180D02*
X142988095Y-109802990D01*
X142988095Y-109802990D02*
X143059523Y-109764895D01*
X143059523Y-109764895D02*
X143107142Y-109764895D01*
X143107142Y-109764895D02*
X143178571Y-109802990D01*
X143178571Y-109802990D02*
X143202380Y-109841085D01*
X143511904Y-109764895D02*
X143607142Y-109764895D01*
X143607142Y-109764895D02*
X143654761Y-109802990D01*
X143654761Y-109802990D02*
X143702380Y-109879180D01*
X143702380Y-109879180D02*
X143726190Y-110031561D01*
X143726190Y-110031561D02*
X143726190Y-110298228D01*
X143726190Y-110298228D02*
X143702380Y-110450609D01*
X143702380Y-110450609D02*
X143654761Y-110526800D01*
X143654761Y-110526800D02*
X143607142Y-110564895D01*
X143607142Y-110564895D02*
X143511904Y-110564895D01*
X143511904Y-110564895D02*
X143464285Y-110526800D01*
X143464285Y-110526800D02*
X143416666Y-110450609D01*
X143416666Y-110450609D02*
X143392857Y-110298228D01*
X143392857Y-110298228D02*
X143392857Y-110031561D01*
X143392857Y-110031561D02*
X143416666Y-109879180D01*
X143416666Y-109879180D02*
X143464285Y-109802990D01*
X143464285Y-109802990D02*
X143511904Y-109764895D01*
X143940476Y-109764895D02*
X143940476Y-110412514D01*
X143940476Y-110412514D02*
X143964286Y-110488704D01*
X143964286Y-110488704D02*
X143988095Y-110526800D01*
X143988095Y-110526800D02*
X144035714Y-110564895D01*
X144035714Y-110564895D02*
X144130952Y-110564895D01*
X144130952Y-110564895D02*
X144178571Y-110526800D01*
X144178571Y-110526800D02*
X144202381Y-110488704D01*
X144202381Y-110488704D02*
X144226190Y-110412514D01*
X144226190Y-110412514D02*
X144226190Y-109764895D01*
X144392858Y-109764895D02*
X144678572Y-109764895D01*
X144535715Y-110564895D02*
X144535715Y-109764895D01*
X145107143Y-110564895D02*
X144821429Y-110564895D01*
X144964286Y-110564895D02*
X144964286Y-109764895D01*
X144964286Y-109764895D02*
X144916667Y-109879180D01*
X144916667Y-109879180D02*
X144869048Y-109955371D01*
X144869048Y-109955371D02*
X144821429Y-109993466D01*
X132703704Y-65533333D02*
X132741800Y-65557142D01*
X132741800Y-65557142D02*
X132779895Y-65628571D01*
X132779895Y-65628571D02*
X132779895Y-65676190D01*
X132779895Y-65676190D02*
X132741800Y-65747618D01*
X132741800Y-65747618D02*
X132665609Y-65795237D01*
X132665609Y-65795237D02*
X132589419Y-65819047D01*
X132589419Y-65819047D02*
X132437038Y-65842856D01*
X132437038Y-65842856D02*
X132322752Y-65842856D01*
X132322752Y-65842856D02*
X132170371Y-65819047D01*
X132170371Y-65819047D02*
X132094180Y-65795237D01*
X132094180Y-65795237D02*
X132017990Y-65747618D01*
X132017990Y-65747618D02*
X131979895Y-65676190D01*
X131979895Y-65676190D02*
X131979895Y-65628571D01*
X131979895Y-65628571D02*
X132017990Y-65557142D01*
X132017990Y-65557142D02*
X132056085Y-65533333D01*
X132246561Y-65104761D02*
X132779895Y-65104761D01*
X131941800Y-65223809D02*
X132513228Y-65342856D01*
X132513228Y-65342856D02*
X132513228Y-65033333D01*
X125364895Y-82416666D02*
X125936323Y-82416666D01*
X125936323Y-82416666D02*
X126050609Y-82440475D01*
X126050609Y-82440475D02*
X126126800Y-82488094D01*
X126126800Y-82488094D02*
X126164895Y-82559523D01*
X126164895Y-82559523D02*
X126164895Y-82607142D01*
X126164895Y-81916666D02*
X126164895Y-82202380D01*
X126164895Y-82059523D02*
X125364895Y-82059523D01*
X125364895Y-82059523D02*
X125479180Y-82107142D01*
X125479180Y-82107142D02*
X125555371Y-82154761D01*
X125555371Y-82154761D02*
X125593466Y-82202380D01*
D11*
X127563595Y-89271428D02*
X128211214Y-89271428D01*
X128211214Y-89271428D02*
X128287404Y-89247618D01*
X128287404Y-89247618D02*
X128325500Y-89223809D01*
X128325500Y-89223809D02*
X128363595Y-89176190D01*
X128363595Y-89176190D02*
X128363595Y-89080952D01*
X128363595Y-89080952D02*
X128325500Y-89033333D01*
X128325500Y-89033333D02*
X128287404Y-89009523D01*
X128287404Y-89009523D02*
X128211214Y-88985714D01*
X128211214Y-88985714D02*
X127563595Y-88985714D01*
X128325500Y-88771427D02*
X128363595Y-88699999D01*
X128363595Y-88699999D02*
X128363595Y-88580951D01*
X128363595Y-88580951D02*
X128325500Y-88533332D01*
X128325500Y-88533332D02*
X128287404Y-88509523D01*
X128287404Y-88509523D02*
X128211214Y-88485713D01*
X128211214Y-88485713D02*
X128135023Y-88485713D01*
X128135023Y-88485713D02*
X128058833Y-88509523D01*
X128058833Y-88509523D02*
X128020738Y-88533332D01*
X128020738Y-88533332D02*
X127982642Y-88580951D01*
X127982642Y-88580951D02*
X127944547Y-88676189D01*
X127944547Y-88676189D02*
X127906452Y-88723808D01*
X127906452Y-88723808D02*
X127868357Y-88747618D01*
X127868357Y-88747618D02*
X127792166Y-88771427D01*
X127792166Y-88771427D02*
X127715976Y-88771427D01*
X127715976Y-88771427D02*
X127639785Y-88747618D01*
X127639785Y-88747618D02*
X127601690Y-88723808D01*
X127601690Y-88723808D02*
X127563595Y-88676189D01*
X127563595Y-88676189D02*
X127563595Y-88557142D01*
X127563595Y-88557142D02*
X127601690Y-88485713D01*
X127944547Y-88104761D02*
X127982642Y-88033333D01*
X127982642Y-88033333D02*
X128020738Y-88009523D01*
X128020738Y-88009523D02*
X128096928Y-87985714D01*
X128096928Y-87985714D02*
X128211214Y-87985714D01*
X128211214Y-87985714D02*
X128287404Y-88009523D01*
X128287404Y-88009523D02*
X128325500Y-88033333D01*
X128325500Y-88033333D02*
X128363595Y-88080952D01*
X128363595Y-88080952D02*
X128363595Y-88271428D01*
X128363595Y-88271428D02*
X127563595Y-88271428D01*
X127563595Y-88271428D02*
X127563595Y-88104761D01*
X127563595Y-88104761D02*
X127601690Y-88057142D01*
X127601690Y-88057142D02*
X127639785Y-88033333D01*
X127639785Y-88033333D02*
X127715976Y-88009523D01*
X127715976Y-88009523D02*
X127792166Y-88009523D01*
X127792166Y-88009523D02*
X127868357Y-88033333D01*
X127868357Y-88033333D02*
X127906452Y-88057142D01*
X127906452Y-88057142D02*
X127944547Y-88104761D01*
X127944547Y-88104761D02*
X127944547Y-88271428D01*
X128287404Y-87104762D02*
X128325500Y-87128571D01*
X128325500Y-87128571D02*
X128363595Y-87200000D01*
X128363595Y-87200000D02*
X128363595Y-87247619D01*
X128363595Y-87247619D02*
X128325500Y-87319047D01*
X128325500Y-87319047D02*
X128249309Y-87366666D01*
X128249309Y-87366666D02*
X128173119Y-87390476D01*
X128173119Y-87390476D02*
X128020738Y-87414285D01*
X128020738Y-87414285D02*
X127906452Y-87414285D01*
X127906452Y-87414285D02*
X127754071Y-87390476D01*
X127754071Y-87390476D02*
X127677880Y-87366666D01*
X127677880Y-87366666D02*
X127601690Y-87319047D01*
X127601690Y-87319047D02*
X127563595Y-87247619D01*
X127563595Y-87247619D02*
X127563595Y-87200000D01*
X127563595Y-87200000D02*
X127601690Y-87128571D01*
X127601690Y-87128571D02*
X127639785Y-87104762D01*
D10*
X173688704Y-108921428D02*
X173726800Y-108945237D01*
X173726800Y-108945237D02*
X173764895Y-109016666D01*
X173764895Y-109016666D02*
X173764895Y-109064285D01*
X173764895Y-109064285D02*
X173726800Y-109135713D01*
X173726800Y-109135713D02*
X173650609Y-109183332D01*
X173650609Y-109183332D02*
X173574419Y-109207142D01*
X173574419Y-109207142D02*
X173422038Y-109230951D01*
X173422038Y-109230951D02*
X173307752Y-109230951D01*
X173307752Y-109230951D02*
X173155371Y-109207142D01*
X173155371Y-109207142D02*
X173079180Y-109183332D01*
X173079180Y-109183332D02*
X173002990Y-109135713D01*
X173002990Y-109135713D02*
X172964895Y-109064285D01*
X172964895Y-109064285D02*
X172964895Y-109016666D01*
X172964895Y-109016666D02*
X173002990Y-108945237D01*
X173002990Y-108945237D02*
X173041085Y-108921428D01*
X173764895Y-108445237D02*
X173764895Y-108730951D01*
X173764895Y-108588094D02*
X172964895Y-108588094D01*
X172964895Y-108588094D02*
X173079180Y-108635713D01*
X173079180Y-108635713D02*
X173155371Y-108683332D01*
X173155371Y-108683332D02*
X173193466Y-108730951D01*
X173307752Y-108159523D02*
X173269657Y-108207142D01*
X173269657Y-108207142D02*
X173231561Y-108230952D01*
X173231561Y-108230952D02*
X173155371Y-108254761D01*
X173155371Y-108254761D02*
X173117276Y-108254761D01*
X173117276Y-108254761D02*
X173041085Y-108230952D01*
X173041085Y-108230952D02*
X173002990Y-108207142D01*
X173002990Y-108207142D02*
X172964895Y-108159523D01*
X172964895Y-108159523D02*
X172964895Y-108064285D01*
X172964895Y-108064285D02*
X173002990Y-108016666D01*
X173002990Y-108016666D02*
X173041085Y-107992857D01*
X173041085Y-107992857D02*
X173117276Y-107969047D01*
X173117276Y-107969047D02*
X173155371Y-107969047D01*
X173155371Y-107969047D02*
X173231561Y-107992857D01*
X173231561Y-107992857D02*
X173269657Y-108016666D01*
X173269657Y-108016666D02*
X173307752Y-108064285D01*
X173307752Y-108064285D02*
X173307752Y-108159523D01*
X173307752Y-108159523D02*
X173345847Y-108207142D01*
X173345847Y-108207142D02*
X173383942Y-108230952D01*
X173383942Y-108230952D02*
X173460133Y-108254761D01*
X173460133Y-108254761D02*
X173612514Y-108254761D01*
X173612514Y-108254761D02*
X173688704Y-108230952D01*
X173688704Y-108230952D02*
X173726800Y-108207142D01*
X173726800Y-108207142D02*
X173764895Y-108159523D01*
X173764895Y-108159523D02*
X173764895Y-108064285D01*
X173764895Y-108064285D02*
X173726800Y-108016666D01*
X173726800Y-108016666D02*
X173688704Y-107992857D01*
X173688704Y-107992857D02*
X173612514Y-107969047D01*
X173612514Y-107969047D02*
X173460133Y-107969047D01*
X173460133Y-107969047D02*
X173383942Y-107992857D01*
X173383942Y-107992857D02*
X173345847Y-108016666D01*
X173345847Y-108016666D02*
X173307752Y-108064285D01*
X143033333Y-123964895D02*
X143033333Y-124536323D01*
X143033333Y-124536323D02*
X143009524Y-124650609D01*
X143009524Y-124650609D02*
X142961905Y-124726800D01*
X142961905Y-124726800D02*
X142890476Y-124764895D01*
X142890476Y-124764895D02*
X142842857Y-124764895D01*
X143247619Y-124041085D02*
X143271428Y-124002990D01*
X143271428Y-124002990D02*
X143319047Y-123964895D01*
X143319047Y-123964895D02*
X143438095Y-123964895D01*
X143438095Y-123964895D02*
X143485714Y-124002990D01*
X143485714Y-124002990D02*
X143509523Y-124041085D01*
X143509523Y-124041085D02*
X143533333Y-124117276D01*
X143533333Y-124117276D02*
X143533333Y-124193466D01*
X143533333Y-124193466D02*
X143509523Y-124307752D01*
X143509523Y-124307752D02*
X143223809Y-124764895D01*
X143223809Y-124764895D02*
X143533333Y-124764895D01*
D11*
X138585714Y-128563595D02*
X138419048Y-128182642D01*
X138300000Y-128563595D02*
X138300000Y-127763595D01*
X138300000Y-127763595D02*
X138490476Y-127763595D01*
X138490476Y-127763595D02*
X138538095Y-127801690D01*
X138538095Y-127801690D02*
X138561905Y-127839785D01*
X138561905Y-127839785D02*
X138585714Y-127915976D01*
X138585714Y-127915976D02*
X138585714Y-128030261D01*
X138585714Y-128030261D02*
X138561905Y-128106452D01*
X138561905Y-128106452D02*
X138538095Y-128144547D01*
X138538095Y-128144547D02*
X138490476Y-128182642D01*
X138490476Y-128182642D02*
X138300000Y-128182642D01*
X139061905Y-127801690D02*
X139014286Y-127763595D01*
X139014286Y-127763595D02*
X138942857Y-127763595D01*
X138942857Y-127763595D02*
X138871429Y-127801690D01*
X138871429Y-127801690D02*
X138823810Y-127877880D01*
X138823810Y-127877880D02*
X138800000Y-127954071D01*
X138800000Y-127954071D02*
X138776191Y-128106452D01*
X138776191Y-128106452D02*
X138776191Y-128220738D01*
X138776191Y-128220738D02*
X138800000Y-128373119D01*
X138800000Y-128373119D02*
X138823810Y-128449309D01*
X138823810Y-128449309D02*
X138871429Y-128525500D01*
X138871429Y-128525500D02*
X138942857Y-128563595D01*
X138942857Y-128563595D02*
X138990476Y-128563595D01*
X138990476Y-128563595D02*
X139061905Y-128525500D01*
X139061905Y-128525500D02*
X139085714Y-128487404D01*
X139085714Y-128487404D02*
X139085714Y-128220738D01*
X139085714Y-128220738D02*
X138990476Y-128220738D01*
X139466667Y-128144547D02*
X139538095Y-128182642D01*
X139538095Y-128182642D02*
X139561905Y-128220738D01*
X139561905Y-128220738D02*
X139585714Y-128296928D01*
X139585714Y-128296928D02*
X139585714Y-128411214D01*
X139585714Y-128411214D02*
X139561905Y-128487404D01*
X139561905Y-128487404D02*
X139538095Y-128525500D01*
X139538095Y-128525500D02*
X139490476Y-128563595D01*
X139490476Y-128563595D02*
X139300000Y-128563595D01*
X139300000Y-128563595D02*
X139300000Y-127763595D01*
X139300000Y-127763595D02*
X139466667Y-127763595D01*
X139466667Y-127763595D02*
X139514286Y-127801690D01*
X139514286Y-127801690D02*
X139538095Y-127839785D01*
X139538095Y-127839785D02*
X139561905Y-127915976D01*
X139561905Y-127915976D02*
X139561905Y-127992166D01*
X139561905Y-127992166D02*
X139538095Y-128068357D01*
X139538095Y-128068357D02*
X139514286Y-128106452D01*
X139514286Y-128106452D02*
X139466667Y-128144547D01*
X139466667Y-128144547D02*
X139300000Y-128144547D01*
X140419047Y-128563595D02*
X140180952Y-128563595D01*
X140180952Y-128563595D02*
X140180952Y-127763595D01*
X140585714Y-128144547D02*
X140752381Y-128144547D01*
X140823809Y-128563595D02*
X140585714Y-128563595D01*
X140585714Y-128563595D02*
X140585714Y-127763595D01*
X140585714Y-127763595D02*
X140823809Y-127763595D01*
X141038095Y-128563595D02*
X141038095Y-127763595D01*
X141038095Y-127763595D02*
X141157143Y-127763595D01*
X141157143Y-127763595D02*
X141228571Y-127801690D01*
X141228571Y-127801690D02*
X141276190Y-127877880D01*
X141276190Y-127877880D02*
X141300000Y-127954071D01*
X141300000Y-127954071D02*
X141323809Y-128106452D01*
X141323809Y-128106452D02*
X141323809Y-128220738D01*
X141323809Y-128220738D02*
X141300000Y-128373119D01*
X141300000Y-128373119D02*
X141276190Y-128449309D01*
X141276190Y-128449309D02*
X141228571Y-128525500D01*
X141228571Y-128525500D02*
X141157143Y-128563595D01*
X141157143Y-128563595D02*
X141038095Y-128563595D01*
D10*
X135764895Y-95966666D02*
X136336323Y-95966666D01*
X136336323Y-95966666D02*
X136450609Y-95990475D01*
X136450609Y-95990475D02*
X136526800Y-96038094D01*
X136526800Y-96038094D02*
X136564895Y-96109523D01*
X136564895Y-96109523D02*
X136564895Y-96157142D01*
X135764895Y-95776190D02*
X135764895Y-95466666D01*
X135764895Y-95466666D02*
X136069657Y-95633333D01*
X136069657Y-95633333D02*
X136069657Y-95561904D01*
X136069657Y-95561904D02*
X136107752Y-95514285D01*
X136107752Y-95514285D02*
X136145847Y-95490476D01*
X136145847Y-95490476D02*
X136222038Y-95466666D01*
X136222038Y-95466666D02*
X136412514Y-95466666D01*
X136412514Y-95466666D02*
X136488704Y-95490476D01*
X136488704Y-95490476D02*
X136526800Y-95514285D01*
X136526800Y-95514285D02*
X136564895Y-95561904D01*
X136564895Y-95561904D02*
X136564895Y-95704761D01*
X136564895Y-95704761D02*
X136526800Y-95752380D01*
X136526800Y-95752380D02*
X136488704Y-95776190D01*
D11*
X135363595Y-98676190D02*
X135363595Y-98914285D01*
X135363595Y-98914285D02*
X134563595Y-98914285D01*
X134944547Y-98509523D02*
X134944547Y-98342856D01*
X135363595Y-98271428D02*
X135363595Y-98509523D01*
X135363595Y-98509523D02*
X134563595Y-98509523D01*
X134563595Y-98509523D02*
X134563595Y-98271428D01*
X135363595Y-98057142D02*
X134563595Y-98057142D01*
X134563595Y-98057142D02*
X134563595Y-97938094D01*
X134563595Y-97938094D02*
X134601690Y-97866666D01*
X134601690Y-97866666D02*
X134677880Y-97819047D01*
X134677880Y-97819047D02*
X134754071Y-97795237D01*
X134754071Y-97795237D02*
X134906452Y-97771428D01*
X134906452Y-97771428D02*
X135020738Y-97771428D01*
X135020738Y-97771428D02*
X135173119Y-97795237D01*
X135173119Y-97795237D02*
X135249309Y-97819047D01*
X135249309Y-97819047D02*
X135325500Y-97866666D01*
X135325500Y-97866666D02*
X135363595Y-97938094D01*
X135363595Y-97938094D02*
X135363595Y-98057142D01*
X135135023Y-97199999D02*
X135135023Y-96961904D01*
X135363595Y-97247618D02*
X134563595Y-97080952D01*
X134563595Y-97080952D02*
X135363595Y-96914285D01*
X135363595Y-96747619D02*
X134563595Y-96747619D01*
X134563595Y-96747619D02*
X134563595Y-96628571D01*
X134563595Y-96628571D02*
X134601690Y-96557143D01*
X134601690Y-96557143D02*
X134677880Y-96509524D01*
X134677880Y-96509524D02*
X134754071Y-96485714D01*
X134754071Y-96485714D02*
X134906452Y-96461905D01*
X134906452Y-96461905D02*
X135020738Y-96461905D01*
X135020738Y-96461905D02*
X135173119Y-96485714D01*
X135173119Y-96485714D02*
X135249309Y-96509524D01*
X135249309Y-96509524D02*
X135325500Y-96557143D01*
X135325500Y-96557143D02*
X135363595Y-96628571D01*
X135363595Y-96628571D02*
X135363595Y-96747619D01*
X135363595Y-96247619D02*
X134563595Y-96247619D01*
X134563595Y-96247619D02*
X134563595Y-96128571D01*
X134563595Y-96128571D02*
X134601690Y-96057143D01*
X134601690Y-96057143D02*
X134677880Y-96009524D01*
X134677880Y-96009524D02*
X134754071Y-95985714D01*
X134754071Y-95985714D02*
X134906452Y-95961905D01*
X134906452Y-95961905D02*
X135020738Y-95961905D01*
X135020738Y-95961905D02*
X135173119Y-95985714D01*
X135173119Y-95985714D02*
X135249309Y-96009524D01*
X135249309Y-96009524D02*
X135325500Y-96057143D01*
X135325500Y-96057143D02*
X135363595Y-96128571D01*
X135363595Y-96128571D02*
X135363595Y-96247619D01*
X135363595Y-95461905D02*
X134982642Y-95628571D01*
X135363595Y-95747619D02*
X134563595Y-95747619D01*
X134563595Y-95747619D02*
X134563595Y-95557143D01*
X134563595Y-95557143D02*
X134601690Y-95509524D01*
X134601690Y-95509524D02*
X134639785Y-95485714D01*
X134639785Y-95485714D02*
X134715976Y-95461905D01*
X134715976Y-95461905D02*
X134830261Y-95461905D01*
X134830261Y-95461905D02*
X134906452Y-95485714D01*
X134906452Y-95485714D02*
X134944547Y-95509524D01*
X134944547Y-95509524D02*
X134982642Y-95557143D01*
X134982642Y-95557143D02*
X134982642Y-95747619D01*
D10*
X144078571Y-104813704D02*
X144054762Y-104851800D01*
X144054762Y-104851800D02*
X143983333Y-104889895D01*
X143983333Y-104889895D02*
X143935714Y-104889895D01*
X143935714Y-104889895D02*
X143864286Y-104851800D01*
X143864286Y-104851800D02*
X143816667Y-104775609D01*
X143816667Y-104775609D02*
X143792857Y-104699419D01*
X143792857Y-104699419D02*
X143769048Y-104547038D01*
X143769048Y-104547038D02*
X143769048Y-104432752D01*
X143769048Y-104432752D02*
X143792857Y-104280371D01*
X143792857Y-104280371D02*
X143816667Y-104204180D01*
X143816667Y-104204180D02*
X143864286Y-104127990D01*
X143864286Y-104127990D02*
X143935714Y-104089895D01*
X143935714Y-104089895D02*
X143983333Y-104089895D01*
X143983333Y-104089895D02*
X144054762Y-104127990D01*
X144054762Y-104127990D02*
X144078571Y-104166085D01*
X144554762Y-104889895D02*
X144269048Y-104889895D01*
X144411905Y-104889895D02*
X144411905Y-104089895D01*
X144411905Y-104089895D02*
X144364286Y-104204180D01*
X144364286Y-104204180D02*
X144316667Y-104280371D01*
X144316667Y-104280371D02*
X144269048Y-104318466D01*
X145030952Y-104889895D02*
X144745238Y-104889895D01*
X144888095Y-104889895D02*
X144888095Y-104089895D01*
X144888095Y-104089895D02*
X144840476Y-104204180D01*
X144840476Y-104204180D02*
X144792857Y-104280371D01*
X144792857Y-104280371D02*
X144745238Y-104318466D01*
X139952380Y-119841085D02*
X139904761Y-119802990D01*
X139904761Y-119802990D02*
X139857142Y-119726800D01*
X139857142Y-119726800D02*
X139785714Y-119612514D01*
X139785714Y-119612514D02*
X139738095Y-119574419D01*
X139738095Y-119574419D02*
X139690476Y-119574419D01*
X139714285Y-119764895D02*
X139666666Y-119726800D01*
X139666666Y-119726800D02*
X139619047Y-119650609D01*
X139619047Y-119650609D02*
X139595238Y-119498228D01*
X139595238Y-119498228D02*
X139595238Y-119231561D01*
X139595238Y-119231561D02*
X139619047Y-119079180D01*
X139619047Y-119079180D02*
X139666666Y-119002990D01*
X139666666Y-119002990D02*
X139714285Y-118964895D01*
X139714285Y-118964895D02*
X139809523Y-118964895D01*
X139809523Y-118964895D02*
X139857142Y-119002990D01*
X139857142Y-119002990D02*
X139904761Y-119079180D01*
X139904761Y-119079180D02*
X139928571Y-119231561D01*
X139928571Y-119231561D02*
X139928571Y-119498228D01*
X139928571Y-119498228D02*
X139904761Y-119650609D01*
X139904761Y-119650609D02*
X139857142Y-119726800D01*
X139857142Y-119726800D02*
X139809523Y-119764895D01*
X139809523Y-119764895D02*
X139714285Y-119764895D01*
X140404762Y-119764895D02*
X140119048Y-119764895D01*
X140261905Y-119764895D02*
X140261905Y-118964895D01*
X140261905Y-118964895D02*
X140214286Y-119079180D01*
X140214286Y-119079180D02*
X140166667Y-119155371D01*
X140166667Y-119155371D02*
X140119048Y-119193466D01*
X140959895Y-93739047D02*
X140159895Y-93739047D01*
X140159895Y-93739047D02*
X140159895Y-93619999D01*
X140159895Y-93619999D02*
X140197990Y-93548571D01*
X140197990Y-93548571D02*
X140274180Y-93500952D01*
X140274180Y-93500952D02*
X140350371Y-93477142D01*
X140350371Y-93477142D02*
X140502752Y-93453333D01*
X140502752Y-93453333D02*
X140617038Y-93453333D01*
X140617038Y-93453333D02*
X140769419Y-93477142D01*
X140769419Y-93477142D02*
X140845609Y-93500952D01*
X140845609Y-93500952D02*
X140921800Y-93548571D01*
X140921800Y-93548571D02*
X140959895Y-93619999D01*
X140959895Y-93619999D02*
X140959895Y-93739047D01*
X140959895Y-92977142D02*
X140959895Y-93262856D01*
X140959895Y-93119999D02*
X140159895Y-93119999D01*
X140159895Y-93119999D02*
X140274180Y-93167618D01*
X140274180Y-93167618D02*
X140350371Y-93215237D01*
X140350371Y-93215237D02*
X140388466Y-93262856D01*
X163078571Y-106488704D02*
X163054762Y-106526800D01*
X163054762Y-106526800D02*
X162983333Y-106564895D01*
X162983333Y-106564895D02*
X162935714Y-106564895D01*
X162935714Y-106564895D02*
X162864286Y-106526800D01*
X162864286Y-106526800D02*
X162816667Y-106450609D01*
X162816667Y-106450609D02*
X162792857Y-106374419D01*
X162792857Y-106374419D02*
X162769048Y-106222038D01*
X162769048Y-106222038D02*
X162769048Y-106107752D01*
X162769048Y-106107752D02*
X162792857Y-105955371D01*
X162792857Y-105955371D02*
X162816667Y-105879180D01*
X162816667Y-105879180D02*
X162864286Y-105802990D01*
X162864286Y-105802990D02*
X162935714Y-105764895D01*
X162935714Y-105764895D02*
X162983333Y-105764895D01*
X162983333Y-105764895D02*
X163054762Y-105802990D01*
X163054762Y-105802990D02*
X163078571Y-105841085D01*
X163554762Y-106564895D02*
X163269048Y-106564895D01*
X163411905Y-106564895D02*
X163411905Y-105764895D01*
X163411905Y-105764895D02*
X163364286Y-105879180D01*
X163364286Y-105879180D02*
X163316667Y-105955371D01*
X163316667Y-105955371D02*
X163269048Y-105993466D01*
X163792857Y-106564895D02*
X163888095Y-106564895D01*
X163888095Y-106564895D02*
X163935714Y-106526800D01*
X163935714Y-106526800D02*
X163959523Y-106488704D01*
X163959523Y-106488704D02*
X164007142Y-106374419D01*
X164007142Y-106374419D02*
X164030952Y-106222038D01*
X164030952Y-106222038D02*
X164030952Y-105917276D01*
X164030952Y-105917276D02*
X164007142Y-105841085D01*
X164007142Y-105841085D02*
X163983333Y-105802990D01*
X163983333Y-105802990D02*
X163935714Y-105764895D01*
X163935714Y-105764895D02*
X163840476Y-105764895D01*
X163840476Y-105764895D02*
X163792857Y-105802990D01*
X163792857Y-105802990D02*
X163769047Y-105841085D01*
X163769047Y-105841085D02*
X163745238Y-105917276D01*
X163745238Y-105917276D02*
X163745238Y-106107752D01*
X163745238Y-106107752D02*
X163769047Y-106183942D01*
X163769047Y-106183942D02*
X163792857Y-106222038D01*
X163792857Y-106222038D02*
X163840476Y-106260133D01*
X163840476Y-106260133D02*
X163935714Y-106260133D01*
X163935714Y-106260133D02*
X163983333Y-106222038D01*
X163983333Y-106222038D02*
X164007142Y-106183942D01*
X164007142Y-106183942D02*
X164030952Y-106107752D01*
X147878571Y-104613704D02*
X147854762Y-104651800D01*
X147854762Y-104651800D02*
X147783333Y-104689895D01*
X147783333Y-104689895D02*
X147735714Y-104689895D01*
X147735714Y-104689895D02*
X147664286Y-104651800D01*
X147664286Y-104651800D02*
X147616667Y-104575609D01*
X147616667Y-104575609D02*
X147592857Y-104499419D01*
X147592857Y-104499419D02*
X147569048Y-104347038D01*
X147569048Y-104347038D02*
X147569048Y-104232752D01*
X147569048Y-104232752D02*
X147592857Y-104080371D01*
X147592857Y-104080371D02*
X147616667Y-104004180D01*
X147616667Y-104004180D02*
X147664286Y-103927990D01*
X147664286Y-103927990D02*
X147735714Y-103889895D01*
X147735714Y-103889895D02*
X147783333Y-103889895D01*
X147783333Y-103889895D02*
X147854762Y-103927990D01*
X147854762Y-103927990D02*
X147878571Y-103966085D01*
X148354762Y-104689895D02*
X148069048Y-104689895D01*
X148211905Y-104689895D02*
X148211905Y-103889895D01*
X148211905Y-103889895D02*
X148164286Y-104004180D01*
X148164286Y-104004180D02*
X148116667Y-104080371D01*
X148116667Y-104080371D02*
X148069048Y-104118466D01*
X148545238Y-103966085D02*
X148569047Y-103927990D01*
X148569047Y-103927990D02*
X148616666Y-103889895D01*
X148616666Y-103889895D02*
X148735714Y-103889895D01*
X148735714Y-103889895D02*
X148783333Y-103927990D01*
X148783333Y-103927990D02*
X148807142Y-103966085D01*
X148807142Y-103966085D02*
X148830952Y-104042276D01*
X148830952Y-104042276D02*
X148830952Y-104118466D01*
X148830952Y-104118466D02*
X148807142Y-104232752D01*
X148807142Y-104232752D02*
X148521428Y-104689895D01*
X148521428Y-104689895D02*
X148830952Y-104689895D01*
X128633333Y-107694895D02*
X128633333Y-108266323D01*
X128633333Y-108266323D02*
X128609524Y-108380609D01*
X128609524Y-108380609D02*
X128561905Y-108456800D01*
X128561905Y-108456800D02*
X128490476Y-108494895D01*
X128490476Y-108494895D02*
X128442857Y-108494895D01*
X129085714Y-107694895D02*
X128990476Y-107694895D01*
X128990476Y-107694895D02*
X128942857Y-107732990D01*
X128942857Y-107732990D02*
X128919047Y-107771085D01*
X128919047Y-107771085D02*
X128871428Y-107885371D01*
X128871428Y-107885371D02*
X128847619Y-108037752D01*
X128847619Y-108037752D02*
X128847619Y-108342514D01*
X128847619Y-108342514D02*
X128871428Y-108418704D01*
X128871428Y-108418704D02*
X128895238Y-108456800D01*
X128895238Y-108456800D02*
X128942857Y-108494895D01*
X128942857Y-108494895D02*
X129038095Y-108494895D01*
X129038095Y-108494895D02*
X129085714Y-108456800D01*
X129085714Y-108456800D02*
X129109523Y-108418704D01*
X129109523Y-108418704D02*
X129133333Y-108342514D01*
X129133333Y-108342514D02*
X129133333Y-108152038D01*
X129133333Y-108152038D02*
X129109523Y-108075847D01*
X129109523Y-108075847D02*
X129085714Y-108037752D01*
X129085714Y-108037752D02*
X129038095Y-107999657D01*
X129038095Y-107999657D02*
X128942857Y-107999657D01*
X128942857Y-107999657D02*
X128895238Y-108037752D01*
X128895238Y-108037752D02*
X128871428Y-108075847D01*
X128871428Y-108075847D02*
X128847619Y-108152038D01*
D11*
X127216668Y-120735500D02*
X127288096Y-120773595D01*
X127288096Y-120773595D02*
X127407144Y-120773595D01*
X127407144Y-120773595D02*
X127454763Y-120735500D01*
X127454763Y-120735500D02*
X127478572Y-120697404D01*
X127478572Y-120697404D02*
X127502382Y-120621214D01*
X127502382Y-120621214D02*
X127502382Y-120545023D01*
X127502382Y-120545023D02*
X127478572Y-120468833D01*
X127478572Y-120468833D02*
X127454763Y-120430738D01*
X127454763Y-120430738D02*
X127407144Y-120392642D01*
X127407144Y-120392642D02*
X127311906Y-120354547D01*
X127311906Y-120354547D02*
X127264287Y-120316452D01*
X127264287Y-120316452D02*
X127240477Y-120278357D01*
X127240477Y-120278357D02*
X127216668Y-120202166D01*
X127216668Y-120202166D02*
X127216668Y-120125976D01*
X127216668Y-120125976D02*
X127240477Y-120049785D01*
X127240477Y-120049785D02*
X127264287Y-120011690D01*
X127264287Y-120011690D02*
X127311906Y-119973595D01*
X127311906Y-119973595D02*
X127430953Y-119973595D01*
X127430953Y-119973595D02*
X127502382Y-120011690D01*
X127692858Y-120735500D02*
X127764286Y-120773595D01*
X127764286Y-120773595D02*
X127883334Y-120773595D01*
X127883334Y-120773595D02*
X127930953Y-120735500D01*
X127930953Y-120735500D02*
X127954762Y-120697404D01*
X127954762Y-120697404D02*
X127978572Y-120621214D01*
X127978572Y-120621214D02*
X127978572Y-120545023D01*
X127978572Y-120545023D02*
X127954762Y-120468833D01*
X127954762Y-120468833D02*
X127930953Y-120430738D01*
X127930953Y-120430738D02*
X127883334Y-120392642D01*
X127883334Y-120392642D02*
X127788096Y-120354547D01*
X127788096Y-120354547D02*
X127740477Y-120316452D01*
X127740477Y-120316452D02*
X127716667Y-120278357D01*
X127716667Y-120278357D02*
X127692858Y-120202166D01*
X127692858Y-120202166D02*
X127692858Y-120125976D01*
X127692858Y-120125976D02*
X127716667Y-120049785D01*
X127716667Y-120049785D02*
X127740477Y-120011690D01*
X127740477Y-120011690D02*
X127788096Y-119973595D01*
X127788096Y-119973595D02*
X127907143Y-119973595D01*
X127907143Y-119973595D02*
X127978572Y-120011690D01*
X128192857Y-120773595D02*
X128192857Y-119973595D01*
X128192857Y-119973595D02*
X128311905Y-119973595D01*
X128311905Y-119973595D02*
X128383333Y-120011690D01*
X128383333Y-120011690D02*
X128430952Y-120087880D01*
X128430952Y-120087880D02*
X128454762Y-120164071D01*
X128454762Y-120164071D02*
X128478571Y-120316452D01*
X128478571Y-120316452D02*
X128478571Y-120430738D01*
X128478571Y-120430738D02*
X128454762Y-120583119D01*
X128454762Y-120583119D02*
X128430952Y-120659309D01*
X128430952Y-120659309D02*
X128383333Y-120735500D01*
X128383333Y-120735500D02*
X128311905Y-120773595D01*
X128311905Y-120773595D02*
X128192857Y-120773595D01*
X128954762Y-120773595D02*
X128669048Y-120773595D01*
X128811905Y-120773595D02*
X128811905Y-119973595D01*
X128811905Y-119973595D02*
X128764286Y-120087880D01*
X128764286Y-120087880D02*
X128716667Y-120164071D01*
X128716667Y-120164071D02*
X128669048Y-120202166D01*
X129121428Y-119973595D02*
X129430952Y-119973595D01*
X129430952Y-119973595D02*
X129264285Y-120278357D01*
X129264285Y-120278357D02*
X129335714Y-120278357D01*
X129335714Y-120278357D02*
X129383333Y-120316452D01*
X129383333Y-120316452D02*
X129407142Y-120354547D01*
X129407142Y-120354547D02*
X129430952Y-120430738D01*
X129430952Y-120430738D02*
X129430952Y-120621214D01*
X129430952Y-120621214D02*
X129407142Y-120697404D01*
X129407142Y-120697404D02*
X129383333Y-120735500D01*
X129383333Y-120735500D02*
X129335714Y-120773595D01*
X129335714Y-120773595D02*
X129192857Y-120773595D01*
X129192857Y-120773595D02*
X129145238Y-120735500D01*
X129145238Y-120735500D02*
X129121428Y-120697404D01*
X129740475Y-119973595D02*
X129788094Y-119973595D01*
X129788094Y-119973595D02*
X129835713Y-120011690D01*
X129835713Y-120011690D02*
X129859523Y-120049785D01*
X129859523Y-120049785D02*
X129883332Y-120125976D01*
X129883332Y-120125976D02*
X129907142Y-120278357D01*
X129907142Y-120278357D02*
X129907142Y-120468833D01*
X129907142Y-120468833D02*
X129883332Y-120621214D01*
X129883332Y-120621214D02*
X129859523Y-120697404D01*
X129859523Y-120697404D02*
X129835713Y-120735500D01*
X129835713Y-120735500D02*
X129788094Y-120773595D01*
X129788094Y-120773595D02*
X129740475Y-120773595D01*
X129740475Y-120773595D02*
X129692856Y-120735500D01*
X129692856Y-120735500D02*
X129669047Y-120697404D01*
X129669047Y-120697404D02*
X129645237Y-120621214D01*
X129645237Y-120621214D02*
X129621428Y-120468833D01*
X129621428Y-120468833D02*
X129621428Y-120278357D01*
X129621428Y-120278357D02*
X129645237Y-120125976D01*
X129645237Y-120125976D02*
X129669047Y-120049785D01*
X129669047Y-120049785D02*
X129692856Y-120011690D01*
X129692856Y-120011690D02*
X129740475Y-119973595D01*
X130335713Y-119973595D02*
X130240475Y-119973595D01*
X130240475Y-119973595D02*
X130192856Y-120011690D01*
X130192856Y-120011690D02*
X130169046Y-120049785D01*
X130169046Y-120049785D02*
X130121427Y-120164071D01*
X130121427Y-120164071D02*
X130097618Y-120316452D01*
X130097618Y-120316452D02*
X130097618Y-120621214D01*
X130097618Y-120621214D02*
X130121427Y-120697404D01*
X130121427Y-120697404D02*
X130145237Y-120735500D01*
X130145237Y-120735500D02*
X130192856Y-120773595D01*
X130192856Y-120773595D02*
X130288094Y-120773595D01*
X130288094Y-120773595D02*
X130335713Y-120735500D01*
X130335713Y-120735500D02*
X130359522Y-120697404D01*
X130359522Y-120697404D02*
X130383332Y-120621214D01*
X130383332Y-120621214D02*
X130383332Y-120430738D01*
X130383332Y-120430738D02*
X130359522Y-120354547D01*
X130359522Y-120354547D02*
X130335713Y-120316452D01*
X130335713Y-120316452D02*
X130288094Y-120278357D01*
X130288094Y-120278357D02*
X130192856Y-120278357D01*
X130192856Y-120278357D02*
X130145237Y-120316452D01*
X130145237Y-120316452D02*
X130121427Y-120354547D01*
X130121427Y-120354547D02*
X130097618Y-120430738D01*
D10*
X144516666Y-89489895D02*
X144350000Y-89108942D01*
X144230952Y-89489895D02*
X144230952Y-88689895D01*
X144230952Y-88689895D02*
X144421428Y-88689895D01*
X144421428Y-88689895D02*
X144469047Y-88727990D01*
X144469047Y-88727990D02*
X144492857Y-88766085D01*
X144492857Y-88766085D02*
X144516666Y-88842276D01*
X144516666Y-88842276D02*
X144516666Y-88956561D01*
X144516666Y-88956561D02*
X144492857Y-89032752D01*
X144492857Y-89032752D02*
X144469047Y-89070847D01*
X144469047Y-89070847D02*
X144421428Y-89108942D01*
X144421428Y-89108942D02*
X144230952Y-89108942D01*
X144945238Y-88689895D02*
X144850000Y-88689895D01*
X144850000Y-88689895D02*
X144802381Y-88727990D01*
X144802381Y-88727990D02*
X144778571Y-88766085D01*
X144778571Y-88766085D02*
X144730952Y-88880371D01*
X144730952Y-88880371D02*
X144707143Y-89032752D01*
X144707143Y-89032752D02*
X144707143Y-89337514D01*
X144707143Y-89337514D02*
X144730952Y-89413704D01*
X144730952Y-89413704D02*
X144754762Y-89451800D01*
X144754762Y-89451800D02*
X144802381Y-89489895D01*
X144802381Y-89489895D02*
X144897619Y-89489895D01*
X144897619Y-89489895D02*
X144945238Y-89451800D01*
X144945238Y-89451800D02*
X144969047Y-89413704D01*
X144969047Y-89413704D02*
X144992857Y-89337514D01*
X144992857Y-89337514D02*
X144992857Y-89147038D01*
X144992857Y-89147038D02*
X144969047Y-89070847D01*
X144969047Y-89070847D02*
X144945238Y-89032752D01*
X144945238Y-89032752D02*
X144897619Y-88994657D01*
X144897619Y-88994657D02*
X144802381Y-88994657D01*
X144802381Y-88994657D02*
X144754762Y-89032752D01*
X144754762Y-89032752D02*
X144730952Y-89070847D01*
X144730952Y-89070847D02*
X144707143Y-89147038D01*
X166979895Y-75021428D02*
X166598942Y-75188094D01*
X166979895Y-75307142D02*
X166179895Y-75307142D01*
X166179895Y-75307142D02*
X166179895Y-75116666D01*
X166179895Y-75116666D02*
X166217990Y-75069047D01*
X166217990Y-75069047D02*
X166256085Y-75045237D01*
X166256085Y-75045237D02*
X166332276Y-75021428D01*
X166332276Y-75021428D02*
X166446561Y-75021428D01*
X166446561Y-75021428D02*
X166522752Y-75045237D01*
X166522752Y-75045237D02*
X166560847Y-75069047D01*
X166560847Y-75069047D02*
X166598942Y-75116666D01*
X166598942Y-75116666D02*
X166598942Y-75307142D01*
X166979895Y-74545237D02*
X166979895Y-74830951D01*
X166979895Y-74688094D02*
X166179895Y-74688094D01*
X166179895Y-74688094D02*
X166294180Y-74735713D01*
X166294180Y-74735713D02*
X166370371Y-74783332D01*
X166370371Y-74783332D02*
X166408466Y-74830951D01*
X166179895Y-74116666D02*
X166179895Y-74211904D01*
X166179895Y-74211904D02*
X166217990Y-74259523D01*
X166217990Y-74259523D02*
X166256085Y-74283333D01*
X166256085Y-74283333D02*
X166370371Y-74330952D01*
X166370371Y-74330952D02*
X166522752Y-74354761D01*
X166522752Y-74354761D02*
X166827514Y-74354761D01*
X166827514Y-74354761D02*
X166903704Y-74330952D01*
X166903704Y-74330952D02*
X166941800Y-74307142D01*
X166941800Y-74307142D02*
X166979895Y-74259523D01*
X166979895Y-74259523D02*
X166979895Y-74164285D01*
X166979895Y-74164285D02*
X166941800Y-74116666D01*
X166941800Y-74116666D02*
X166903704Y-74092857D01*
X166903704Y-74092857D02*
X166827514Y-74069047D01*
X166827514Y-74069047D02*
X166637038Y-74069047D01*
X166637038Y-74069047D02*
X166560847Y-74092857D01*
X166560847Y-74092857D02*
X166522752Y-74116666D01*
X166522752Y-74116666D02*
X166484657Y-74164285D01*
X166484657Y-74164285D02*
X166484657Y-74259523D01*
X166484657Y-74259523D02*
X166522752Y-74307142D01*
X166522752Y-74307142D02*
X166560847Y-74330952D01*
X166560847Y-74330952D02*
X166637038Y-74354761D01*
X138381666Y-63384895D02*
X138215000Y-63003942D01*
X138095952Y-63384895D02*
X138095952Y-62584895D01*
X138095952Y-62584895D02*
X138286428Y-62584895D01*
X138286428Y-62584895D02*
X138334047Y-62622990D01*
X138334047Y-62622990D02*
X138357857Y-62661085D01*
X138357857Y-62661085D02*
X138381666Y-62737276D01*
X138381666Y-62737276D02*
X138381666Y-62851561D01*
X138381666Y-62851561D02*
X138357857Y-62927752D01*
X138357857Y-62927752D02*
X138334047Y-62965847D01*
X138334047Y-62965847D02*
X138286428Y-63003942D01*
X138286428Y-63003942D02*
X138095952Y-63003942D01*
X138548333Y-62584895D02*
X138857857Y-62584895D01*
X138857857Y-62584895D02*
X138691190Y-62889657D01*
X138691190Y-62889657D02*
X138762619Y-62889657D01*
X138762619Y-62889657D02*
X138810238Y-62927752D01*
X138810238Y-62927752D02*
X138834047Y-62965847D01*
X138834047Y-62965847D02*
X138857857Y-63042038D01*
X138857857Y-63042038D02*
X138857857Y-63232514D01*
X138857857Y-63232514D02*
X138834047Y-63308704D01*
X138834047Y-63308704D02*
X138810238Y-63346800D01*
X138810238Y-63346800D02*
X138762619Y-63384895D01*
X138762619Y-63384895D02*
X138619762Y-63384895D01*
X138619762Y-63384895D02*
X138572143Y-63346800D01*
X138572143Y-63346800D02*
X138548333Y-63308704D01*
X166979895Y-81371428D02*
X166598942Y-81538094D01*
X166979895Y-81657142D02*
X166179895Y-81657142D01*
X166179895Y-81657142D02*
X166179895Y-81466666D01*
X166179895Y-81466666D02*
X166217990Y-81419047D01*
X166217990Y-81419047D02*
X166256085Y-81395237D01*
X166256085Y-81395237D02*
X166332276Y-81371428D01*
X166332276Y-81371428D02*
X166446561Y-81371428D01*
X166446561Y-81371428D02*
X166522752Y-81395237D01*
X166522752Y-81395237D02*
X166560847Y-81419047D01*
X166560847Y-81419047D02*
X166598942Y-81466666D01*
X166598942Y-81466666D02*
X166598942Y-81657142D01*
X166979895Y-80895237D02*
X166979895Y-81180951D01*
X166979895Y-81038094D02*
X166179895Y-81038094D01*
X166179895Y-81038094D02*
X166294180Y-81085713D01*
X166294180Y-81085713D02*
X166370371Y-81133332D01*
X166370371Y-81133332D02*
X166408466Y-81180951D01*
X166179895Y-80585714D02*
X166179895Y-80538095D01*
X166179895Y-80538095D02*
X166217990Y-80490476D01*
X166217990Y-80490476D02*
X166256085Y-80466666D01*
X166256085Y-80466666D02*
X166332276Y-80442857D01*
X166332276Y-80442857D02*
X166484657Y-80419047D01*
X166484657Y-80419047D02*
X166675133Y-80419047D01*
X166675133Y-80419047D02*
X166827514Y-80442857D01*
X166827514Y-80442857D02*
X166903704Y-80466666D01*
X166903704Y-80466666D02*
X166941800Y-80490476D01*
X166941800Y-80490476D02*
X166979895Y-80538095D01*
X166979895Y-80538095D02*
X166979895Y-80585714D01*
X166979895Y-80585714D02*
X166941800Y-80633333D01*
X166941800Y-80633333D02*
X166903704Y-80657142D01*
X166903704Y-80657142D02*
X166827514Y-80680952D01*
X166827514Y-80680952D02*
X166675133Y-80704761D01*
X166675133Y-80704761D02*
X166484657Y-80704761D01*
X166484657Y-80704761D02*
X166332276Y-80680952D01*
X166332276Y-80680952D02*
X166256085Y-80657142D01*
X166256085Y-80657142D02*
X166217990Y-80633333D01*
X166217990Y-80633333D02*
X166179895Y-80585714D01*
X145079895Y-81880952D02*
X145727514Y-81880952D01*
X145727514Y-81880952D02*
X145803704Y-81857142D01*
X145803704Y-81857142D02*
X145841800Y-81833333D01*
X145841800Y-81833333D02*
X145879895Y-81785714D01*
X145879895Y-81785714D02*
X145879895Y-81690476D01*
X145879895Y-81690476D02*
X145841800Y-81642857D01*
X145841800Y-81642857D02*
X145803704Y-81619047D01*
X145803704Y-81619047D02*
X145727514Y-81595238D01*
X145727514Y-81595238D02*
X145079895Y-81595238D01*
X145156085Y-81380951D02*
X145117990Y-81357142D01*
X145117990Y-81357142D02*
X145079895Y-81309523D01*
X145079895Y-81309523D02*
X145079895Y-81190475D01*
X145079895Y-81190475D02*
X145117990Y-81142856D01*
X145117990Y-81142856D02*
X145156085Y-81119047D01*
X145156085Y-81119047D02*
X145232276Y-81095237D01*
X145232276Y-81095237D02*
X145308466Y-81095237D01*
X145308466Y-81095237D02*
X145422752Y-81119047D01*
X145422752Y-81119047D02*
X145879895Y-81404761D01*
X145879895Y-81404761D02*
X145879895Y-81095237D01*
D11*
X151955476Y-84644547D02*
X152122143Y-84644547D01*
X152193571Y-85063595D02*
X151955476Y-85063595D01*
X151955476Y-85063595D02*
X151955476Y-84263595D01*
X151955476Y-84263595D02*
X152193571Y-84263595D01*
X152384048Y-85025500D02*
X152455476Y-85063595D01*
X152455476Y-85063595D02*
X152574524Y-85063595D01*
X152574524Y-85063595D02*
X152622143Y-85025500D01*
X152622143Y-85025500D02*
X152645952Y-84987404D01*
X152645952Y-84987404D02*
X152669762Y-84911214D01*
X152669762Y-84911214D02*
X152669762Y-84835023D01*
X152669762Y-84835023D02*
X152645952Y-84758833D01*
X152645952Y-84758833D02*
X152622143Y-84720738D01*
X152622143Y-84720738D02*
X152574524Y-84682642D01*
X152574524Y-84682642D02*
X152479286Y-84644547D01*
X152479286Y-84644547D02*
X152431667Y-84606452D01*
X152431667Y-84606452D02*
X152407857Y-84568357D01*
X152407857Y-84568357D02*
X152384048Y-84492166D01*
X152384048Y-84492166D02*
X152384048Y-84415976D01*
X152384048Y-84415976D02*
X152407857Y-84339785D01*
X152407857Y-84339785D02*
X152431667Y-84301690D01*
X152431667Y-84301690D02*
X152479286Y-84263595D01*
X152479286Y-84263595D02*
X152598333Y-84263595D01*
X152598333Y-84263595D02*
X152669762Y-84301690D01*
X152884047Y-85063595D02*
X152884047Y-84263595D01*
X152884047Y-84263595D02*
X153074523Y-84263595D01*
X153074523Y-84263595D02*
X153122142Y-84301690D01*
X153122142Y-84301690D02*
X153145952Y-84339785D01*
X153145952Y-84339785D02*
X153169761Y-84415976D01*
X153169761Y-84415976D02*
X153169761Y-84530261D01*
X153169761Y-84530261D02*
X153145952Y-84606452D01*
X153145952Y-84606452D02*
X153122142Y-84644547D01*
X153122142Y-84644547D02*
X153074523Y-84682642D01*
X153074523Y-84682642D02*
X152884047Y-84682642D01*
X153336428Y-84263595D02*
X153645952Y-84263595D01*
X153645952Y-84263595D02*
X153479285Y-84568357D01*
X153479285Y-84568357D02*
X153550714Y-84568357D01*
X153550714Y-84568357D02*
X153598333Y-84606452D01*
X153598333Y-84606452D02*
X153622142Y-84644547D01*
X153622142Y-84644547D02*
X153645952Y-84720738D01*
X153645952Y-84720738D02*
X153645952Y-84911214D01*
X153645952Y-84911214D02*
X153622142Y-84987404D01*
X153622142Y-84987404D02*
X153598333Y-85025500D01*
X153598333Y-85025500D02*
X153550714Y-85063595D01*
X153550714Y-85063595D02*
X153407857Y-85063595D01*
X153407857Y-85063595D02*
X153360238Y-85025500D01*
X153360238Y-85025500D02*
X153336428Y-84987404D01*
X153836428Y-84339785D02*
X153860237Y-84301690D01*
X153860237Y-84301690D02*
X153907856Y-84263595D01*
X153907856Y-84263595D02*
X154026904Y-84263595D01*
X154026904Y-84263595D02*
X154074523Y-84301690D01*
X154074523Y-84301690D02*
X154098332Y-84339785D01*
X154098332Y-84339785D02*
X154122142Y-84415976D01*
X154122142Y-84415976D02*
X154122142Y-84492166D01*
X154122142Y-84492166D02*
X154098332Y-84606452D01*
X154098332Y-84606452D02*
X153812618Y-85063595D01*
X153812618Y-85063595D02*
X154122142Y-85063595D01*
X154336427Y-84758833D02*
X154717380Y-84758833D01*
X154931666Y-85025500D02*
X155003094Y-85063595D01*
X155003094Y-85063595D02*
X155122142Y-85063595D01*
X155122142Y-85063595D02*
X155169761Y-85025500D01*
X155169761Y-85025500D02*
X155193570Y-84987404D01*
X155193570Y-84987404D02*
X155217380Y-84911214D01*
X155217380Y-84911214D02*
X155217380Y-84835023D01*
X155217380Y-84835023D02*
X155193570Y-84758833D01*
X155193570Y-84758833D02*
X155169761Y-84720738D01*
X155169761Y-84720738D02*
X155122142Y-84682642D01*
X155122142Y-84682642D02*
X155026904Y-84644547D01*
X155026904Y-84644547D02*
X154979285Y-84606452D01*
X154979285Y-84606452D02*
X154955475Y-84568357D01*
X154955475Y-84568357D02*
X154931666Y-84492166D01*
X154931666Y-84492166D02*
X154931666Y-84415976D01*
X154931666Y-84415976D02*
X154955475Y-84339785D01*
X154955475Y-84339785D02*
X154979285Y-84301690D01*
X154979285Y-84301690D02*
X155026904Y-84263595D01*
X155026904Y-84263595D02*
X155145951Y-84263595D01*
X155145951Y-84263595D02*
X155217380Y-84301690D01*
X155384046Y-84263595D02*
X155693570Y-84263595D01*
X155693570Y-84263595D02*
X155526903Y-84568357D01*
X155526903Y-84568357D02*
X155598332Y-84568357D01*
X155598332Y-84568357D02*
X155645951Y-84606452D01*
X155645951Y-84606452D02*
X155669760Y-84644547D01*
X155669760Y-84644547D02*
X155693570Y-84720738D01*
X155693570Y-84720738D02*
X155693570Y-84911214D01*
X155693570Y-84911214D02*
X155669760Y-84987404D01*
X155669760Y-84987404D02*
X155645951Y-85025500D01*
X155645951Y-85025500D02*
X155598332Y-85063595D01*
X155598332Y-85063595D02*
X155455475Y-85063595D01*
X155455475Y-85063595D02*
X155407856Y-85025500D01*
X155407856Y-85025500D02*
X155384046Y-84987404D01*
X155907855Y-84758833D02*
X156288808Y-84758833D01*
X156479284Y-84263595D02*
X156598332Y-85063595D01*
X156598332Y-85063595D02*
X156693570Y-84492166D01*
X156693570Y-84492166D02*
X156788808Y-85063595D01*
X156788808Y-85063595D02*
X156907856Y-84263595D01*
X157384046Y-85063595D02*
X157217380Y-84682642D01*
X157098332Y-85063595D02*
X157098332Y-84263595D01*
X157098332Y-84263595D02*
X157288808Y-84263595D01*
X157288808Y-84263595D02*
X157336427Y-84301690D01*
X157336427Y-84301690D02*
X157360237Y-84339785D01*
X157360237Y-84339785D02*
X157384046Y-84415976D01*
X157384046Y-84415976D02*
X157384046Y-84530261D01*
X157384046Y-84530261D02*
X157360237Y-84606452D01*
X157360237Y-84606452D02*
X157336427Y-84644547D01*
X157336427Y-84644547D02*
X157288808Y-84682642D01*
X157288808Y-84682642D02*
X157098332Y-84682642D01*
X157693570Y-84263595D02*
X157788808Y-84263595D01*
X157788808Y-84263595D02*
X157836427Y-84301690D01*
X157836427Y-84301690D02*
X157884046Y-84377880D01*
X157884046Y-84377880D02*
X157907856Y-84530261D01*
X157907856Y-84530261D02*
X157907856Y-84796928D01*
X157907856Y-84796928D02*
X157884046Y-84949309D01*
X157884046Y-84949309D02*
X157836427Y-85025500D01*
X157836427Y-85025500D02*
X157788808Y-85063595D01*
X157788808Y-85063595D02*
X157693570Y-85063595D01*
X157693570Y-85063595D02*
X157645951Y-85025500D01*
X157645951Y-85025500D02*
X157598332Y-84949309D01*
X157598332Y-84949309D02*
X157574523Y-84796928D01*
X157574523Y-84796928D02*
X157574523Y-84530261D01*
X157574523Y-84530261D02*
X157598332Y-84377880D01*
X157598332Y-84377880D02*
X157645951Y-84301690D01*
X157645951Y-84301690D02*
X157693570Y-84263595D01*
X158217380Y-84263595D02*
X158312618Y-84263595D01*
X158312618Y-84263595D02*
X158360237Y-84301690D01*
X158360237Y-84301690D02*
X158407856Y-84377880D01*
X158407856Y-84377880D02*
X158431666Y-84530261D01*
X158431666Y-84530261D02*
X158431666Y-84796928D01*
X158431666Y-84796928D02*
X158407856Y-84949309D01*
X158407856Y-84949309D02*
X158360237Y-85025500D01*
X158360237Y-85025500D02*
X158312618Y-85063595D01*
X158312618Y-85063595D02*
X158217380Y-85063595D01*
X158217380Y-85063595D02*
X158169761Y-85025500D01*
X158169761Y-85025500D02*
X158122142Y-84949309D01*
X158122142Y-84949309D02*
X158098333Y-84796928D01*
X158098333Y-84796928D02*
X158098333Y-84530261D01*
X158098333Y-84530261D02*
X158122142Y-84377880D01*
X158122142Y-84377880D02*
X158169761Y-84301690D01*
X158169761Y-84301690D02*
X158217380Y-84263595D01*
X158645952Y-85063595D02*
X158645952Y-84263595D01*
X158645952Y-84263595D02*
X158812619Y-84835023D01*
X158812619Y-84835023D02*
X158979285Y-84263595D01*
X158979285Y-84263595D02*
X158979285Y-85063595D01*
X159217381Y-84758833D02*
X159598334Y-84758833D01*
X160098334Y-85063595D02*
X159812620Y-85063595D01*
X159955477Y-85063595D02*
X159955477Y-84263595D01*
X159955477Y-84263595D02*
X159907858Y-84377880D01*
X159907858Y-84377880D02*
X159860239Y-84454071D01*
X159860239Y-84454071D02*
X159812620Y-84492166D01*
D10*
X156478571Y-97288704D02*
X156454762Y-97326800D01*
X156454762Y-97326800D02*
X156383333Y-97364895D01*
X156383333Y-97364895D02*
X156335714Y-97364895D01*
X156335714Y-97364895D02*
X156264286Y-97326800D01*
X156264286Y-97326800D02*
X156216667Y-97250609D01*
X156216667Y-97250609D02*
X156192857Y-97174419D01*
X156192857Y-97174419D02*
X156169048Y-97022038D01*
X156169048Y-97022038D02*
X156169048Y-96907752D01*
X156169048Y-96907752D02*
X156192857Y-96755371D01*
X156192857Y-96755371D02*
X156216667Y-96679180D01*
X156216667Y-96679180D02*
X156264286Y-96602990D01*
X156264286Y-96602990D02*
X156335714Y-96564895D01*
X156335714Y-96564895D02*
X156383333Y-96564895D01*
X156383333Y-96564895D02*
X156454762Y-96602990D01*
X156454762Y-96602990D02*
X156478571Y-96641085D01*
X156954762Y-97364895D02*
X156669048Y-97364895D01*
X156811905Y-97364895D02*
X156811905Y-96564895D01*
X156811905Y-96564895D02*
X156764286Y-96679180D01*
X156764286Y-96679180D02*
X156716667Y-96755371D01*
X156716667Y-96755371D02*
X156669048Y-96793466D01*
X157121428Y-96564895D02*
X157454761Y-96564895D01*
X157454761Y-96564895D02*
X157240476Y-97364895D01*
X147878571Y-89413704D02*
X147854762Y-89451800D01*
X147854762Y-89451800D02*
X147783333Y-89489895D01*
X147783333Y-89489895D02*
X147735714Y-89489895D01*
X147735714Y-89489895D02*
X147664286Y-89451800D01*
X147664286Y-89451800D02*
X147616667Y-89375609D01*
X147616667Y-89375609D02*
X147592857Y-89299419D01*
X147592857Y-89299419D02*
X147569048Y-89147038D01*
X147569048Y-89147038D02*
X147569048Y-89032752D01*
X147569048Y-89032752D02*
X147592857Y-88880371D01*
X147592857Y-88880371D02*
X147616667Y-88804180D01*
X147616667Y-88804180D02*
X147664286Y-88727990D01*
X147664286Y-88727990D02*
X147735714Y-88689895D01*
X147735714Y-88689895D02*
X147783333Y-88689895D01*
X147783333Y-88689895D02*
X147854762Y-88727990D01*
X147854762Y-88727990D02*
X147878571Y-88766085D01*
X148354762Y-89489895D02*
X148069048Y-89489895D01*
X148211905Y-89489895D02*
X148211905Y-88689895D01*
X148211905Y-88689895D02*
X148164286Y-88804180D01*
X148164286Y-88804180D02*
X148116667Y-88880371D01*
X148116667Y-88880371D02*
X148069048Y-88918466D01*
X148664285Y-88689895D02*
X148711904Y-88689895D01*
X148711904Y-88689895D02*
X148759523Y-88727990D01*
X148759523Y-88727990D02*
X148783333Y-88766085D01*
X148783333Y-88766085D02*
X148807142Y-88842276D01*
X148807142Y-88842276D02*
X148830952Y-88994657D01*
X148830952Y-88994657D02*
X148830952Y-89185133D01*
X148830952Y-89185133D02*
X148807142Y-89337514D01*
X148807142Y-89337514D02*
X148783333Y-89413704D01*
X148783333Y-89413704D02*
X148759523Y-89451800D01*
X148759523Y-89451800D02*
X148711904Y-89489895D01*
X148711904Y-89489895D02*
X148664285Y-89489895D01*
X148664285Y-89489895D02*
X148616666Y-89451800D01*
X148616666Y-89451800D02*
X148592857Y-89413704D01*
X148592857Y-89413704D02*
X148569047Y-89337514D01*
X148569047Y-89337514D02*
X148545238Y-89185133D01*
X148545238Y-89185133D02*
X148545238Y-88994657D01*
X148545238Y-88994657D02*
X148569047Y-88842276D01*
X148569047Y-88842276D02*
X148592857Y-88766085D01*
X148592857Y-88766085D02*
X148616666Y-88727990D01*
X148616666Y-88727990D02*
X148664285Y-88689895D01*
X161735714Y-114088704D02*
X161711905Y-114126800D01*
X161711905Y-114126800D02*
X161640476Y-114164895D01*
X161640476Y-114164895D02*
X161592857Y-114164895D01*
X161592857Y-114164895D02*
X161521429Y-114126800D01*
X161521429Y-114126800D02*
X161473810Y-114050609D01*
X161473810Y-114050609D02*
X161450000Y-113974419D01*
X161450000Y-113974419D02*
X161426191Y-113822038D01*
X161426191Y-113822038D02*
X161426191Y-113707752D01*
X161426191Y-113707752D02*
X161450000Y-113555371D01*
X161450000Y-113555371D02*
X161473810Y-113479180D01*
X161473810Y-113479180D02*
X161521429Y-113402990D01*
X161521429Y-113402990D02*
X161592857Y-113364895D01*
X161592857Y-113364895D02*
X161640476Y-113364895D01*
X161640476Y-113364895D02*
X161711905Y-113402990D01*
X161711905Y-113402990D02*
X161735714Y-113441085D01*
X161950000Y-114164895D02*
X161950000Y-113364895D01*
X162188095Y-114164895D02*
X162188095Y-113364895D01*
X162188095Y-113364895D02*
X162473809Y-114164895D01*
X162473809Y-114164895D02*
X162473809Y-113364895D01*
X162973810Y-114164895D02*
X162688096Y-114164895D01*
X162830953Y-114164895D02*
X162830953Y-113364895D01*
X162830953Y-113364895D02*
X162783334Y-113479180D01*
X162783334Y-113479180D02*
X162735715Y-113555371D01*
X162735715Y-113555371D02*
X162688096Y-113593466D01*
X142063704Y-104696428D02*
X142101800Y-104720237D01*
X142101800Y-104720237D02*
X142139895Y-104791666D01*
X142139895Y-104791666D02*
X142139895Y-104839285D01*
X142139895Y-104839285D02*
X142101800Y-104910713D01*
X142101800Y-104910713D02*
X142025609Y-104958332D01*
X142025609Y-104958332D02*
X141949419Y-104982142D01*
X141949419Y-104982142D02*
X141797038Y-105005951D01*
X141797038Y-105005951D02*
X141682752Y-105005951D01*
X141682752Y-105005951D02*
X141530371Y-104982142D01*
X141530371Y-104982142D02*
X141454180Y-104958332D01*
X141454180Y-104958332D02*
X141377990Y-104910713D01*
X141377990Y-104910713D02*
X141339895Y-104839285D01*
X141339895Y-104839285D02*
X141339895Y-104791666D01*
X141339895Y-104791666D02*
X141377990Y-104720237D01*
X141377990Y-104720237D02*
X141416085Y-104696428D01*
X142139895Y-104220237D02*
X142139895Y-104505951D01*
X142139895Y-104363094D02*
X141339895Y-104363094D01*
X141339895Y-104363094D02*
X141454180Y-104410713D01*
X141454180Y-104410713D02*
X141530371Y-104458332D01*
X141530371Y-104458332D02*
X141568466Y-104505951D01*
X141339895Y-104053571D02*
X141339895Y-103744047D01*
X141339895Y-103744047D02*
X141644657Y-103910714D01*
X141644657Y-103910714D02*
X141644657Y-103839285D01*
X141644657Y-103839285D02*
X141682752Y-103791666D01*
X141682752Y-103791666D02*
X141720847Y-103767857D01*
X141720847Y-103767857D02*
X141797038Y-103744047D01*
X141797038Y-103744047D02*
X141987514Y-103744047D01*
X141987514Y-103744047D02*
X142063704Y-103767857D01*
X142063704Y-103767857D02*
X142101800Y-103791666D01*
X142101800Y-103791666D02*
X142139895Y-103839285D01*
X142139895Y-103839285D02*
X142139895Y-103982142D01*
X142139895Y-103982142D02*
X142101800Y-104029761D01*
X142101800Y-104029761D02*
X142063704Y-104053571D01*
X135283704Y-92453333D02*
X135321800Y-92477142D01*
X135321800Y-92477142D02*
X135359895Y-92548571D01*
X135359895Y-92548571D02*
X135359895Y-92596190D01*
X135359895Y-92596190D02*
X135321800Y-92667618D01*
X135321800Y-92667618D02*
X135245609Y-92715237D01*
X135245609Y-92715237D02*
X135169419Y-92739047D01*
X135169419Y-92739047D02*
X135017038Y-92762856D01*
X135017038Y-92762856D02*
X134902752Y-92762856D01*
X134902752Y-92762856D02*
X134750371Y-92739047D01*
X134750371Y-92739047D02*
X134674180Y-92715237D01*
X134674180Y-92715237D02*
X134597990Y-92667618D01*
X134597990Y-92667618D02*
X134559895Y-92596190D01*
X134559895Y-92596190D02*
X134559895Y-92548571D01*
X134559895Y-92548571D02*
X134597990Y-92477142D01*
X134597990Y-92477142D02*
X134636085Y-92453333D01*
X135359895Y-91977142D02*
X135359895Y-92262856D01*
X135359895Y-92119999D02*
X134559895Y-92119999D01*
X134559895Y-92119999D02*
X134674180Y-92167618D01*
X134674180Y-92167618D02*
X134750371Y-92215237D01*
X134750371Y-92215237D02*
X134788466Y-92262856D01*
X166979895Y-84821428D02*
X166598942Y-84988094D01*
X166979895Y-85107142D02*
X166179895Y-85107142D01*
X166179895Y-85107142D02*
X166179895Y-84916666D01*
X166179895Y-84916666D02*
X166217990Y-84869047D01*
X166217990Y-84869047D02*
X166256085Y-84845237D01*
X166256085Y-84845237D02*
X166332276Y-84821428D01*
X166332276Y-84821428D02*
X166446561Y-84821428D01*
X166446561Y-84821428D02*
X166522752Y-84845237D01*
X166522752Y-84845237D02*
X166560847Y-84869047D01*
X166560847Y-84869047D02*
X166598942Y-84916666D01*
X166598942Y-84916666D02*
X166598942Y-85107142D01*
X166979895Y-84345237D02*
X166979895Y-84630951D01*
X166979895Y-84488094D02*
X166179895Y-84488094D01*
X166179895Y-84488094D02*
X166294180Y-84535713D01*
X166294180Y-84535713D02*
X166370371Y-84583332D01*
X166370371Y-84583332D02*
X166408466Y-84630951D01*
X166179895Y-83892857D02*
X166179895Y-84130952D01*
X166179895Y-84130952D02*
X166560847Y-84154761D01*
X166560847Y-84154761D02*
X166522752Y-84130952D01*
X166522752Y-84130952D02*
X166484657Y-84083333D01*
X166484657Y-84083333D02*
X166484657Y-83964285D01*
X166484657Y-83964285D02*
X166522752Y-83916666D01*
X166522752Y-83916666D02*
X166560847Y-83892857D01*
X166560847Y-83892857D02*
X166637038Y-83869047D01*
X166637038Y-83869047D02*
X166827514Y-83869047D01*
X166827514Y-83869047D02*
X166903704Y-83892857D01*
X166903704Y-83892857D02*
X166941800Y-83916666D01*
X166941800Y-83916666D02*
X166979895Y-83964285D01*
X166979895Y-83964285D02*
X166979895Y-84083333D01*
X166979895Y-84083333D02*
X166941800Y-84130952D01*
X166941800Y-84130952D02*
X166903704Y-84154761D01*
X164364895Y-107921428D02*
X163983942Y-108088094D01*
X164364895Y-108207142D02*
X163564895Y-108207142D01*
X163564895Y-108207142D02*
X163564895Y-108016666D01*
X163564895Y-108016666D02*
X163602990Y-107969047D01*
X163602990Y-107969047D02*
X163641085Y-107945237D01*
X163641085Y-107945237D02*
X163717276Y-107921428D01*
X163717276Y-107921428D02*
X163831561Y-107921428D01*
X163831561Y-107921428D02*
X163907752Y-107945237D01*
X163907752Y-107945237D02*
X163945847Y-107969047D01*
X163945847Y-107969047D02*
X163983942Y-108016666D01*
X163983942Y-108016666D02*
X163983942Y-108207142D01*
X164364895Y-107445237D02*
X164364895Y-107730951D01*
X164364895Y-107588094D02*
X163564895Y-107588094D01*
X163564895Y-107588094D02*
X163679180Y-107635713D01*
X163679180Y-107635713D02*
X163755371Y-107683332D01*
X163755371Y-107683332D02*
X163793466Y-107730951D01*
X163641085Y-107254761D02*
X163602990Y-107230952D01*
X163602990Y-107230952D02*
X163564895Y-107183333D01*
X163564895Y-107183333D02*
X163564895Y-107064285D01*
X163564895Y-107064285D02*
X163602990Y-107016666D01*
X163602990Y-107016666D02*
X163641085Y-106992857D01*
X163641085Y-106992857D02*
X163717276Y-106969047D01*
X163717276Y-106969047D02*
X163793466Y-106969047D01*
X163793466Y-106969047D02*
X163907752Y-106992857D01*
X163907752Y-106992857D02*
X164364895Y-107278571D01*
X164364895Y-107278571D02*
X164364895Y-106969047D01*
X143331666Y-75338704D02*
X143307857Y-75376800D01*
X143307857Y-75376800D02*
X143236428Y-75414895D01*
X143236428Y-75414895D02*
X143188809Y-75414895D01*
X143188809Y-75414895D02*
X143117381Y-75376800D01*
X143117381Y-75376800D02*
X143069762Y-75300609D01*
X143069762Y-75300609D02*
X143045952Y-75224419D01*
X143045952Y-75224419D02*
X143022143Y-75072038D01*
X143022143Y-75072038D02*
X143022143Y-74957752D01*
X143022143Y-74957752D02*
X143045952Y-74805371D01*
X143045952Y-74805371D02*
X143069762Y-74729180D01*
X143069762Y-74729180D02*
X143117381Y-74652990D01*
X143117381Y-74652990D02*
X143188809Y-74614895D01*
X143188809Y-74614895D02*
X143236428Y-74614895D01*
X143236428Y-74614895D02*
X143307857Y-74652990D01*
X143307857Y-74652990D02*
X143331666Y-74691085D01*
X143617381Y-74957752D02*
X143569762Y-74919657D01*
X143569762Y-74919657D02*
X143545952Y-74881561D01*
X143545952Y-74881561D02*
X143522143Y-74805371D01*
X143522143Y-74805371D02*
X143522143Y-74767276D01*
X143522143Y-74767276D02*
X143545952Y-74691085D01*
X143545952Y-74691085D02*
X143569762Y-74652990D01*
X143569762Y-74652990D02*
X143617381Y-74614895D01*
X143617381Y-74614895D02*
X143712619Y-74614895D01*
X143712619Y-74614895D02*
X143760238Y-74652990D01*
X143760238Y-74652990D02*
X143784047Y-74691085D01*
X143784047Y-74691085D02*
X143807857Y-74767276D01*
X143807857Y-74767276D02*
X143807857Y-74805371D01*
X143807857Y-74805371D02*
X143784047Y-74881561D01*
X143784047Y-74881561D02*
X143760238Y-74919657D01*
X143760238Y-74919657D02*
X143712619Y-74957752D01*
X143712619Y-74957752D02*
X143617381Y-74957752D01*
X143617381Y-74957752D02*
X143569762Y-74995847D01*
X143569762Y-74995847D02*
X143545952Y-75033942D01*
X143545952Y-75033942D02*
X143522143Y-75110133D01*
X143522143Y-75110133D02*
X143522143Y-75262514D01*
X143522143Y-75262514D02*
X143545952Y-75338704D01*
X143545952Y-75338704D02*
X143569762Y-75376800D01*
X143569762Y-75376800D02*
X143617381Y-75414895D01*
X143617381Y-75414895D02*
X143712619Y-75414895D01*
X143712619Y-75414895D02*
X143760238Y-75376800D01*
X143760238Y-75376800D02*
X143784047Y-75338704D01*
X143784047Y-75338704D02*
X143807857Y-75262514D01*
X143807857Y-75262514D02*
X143807857Y-75110133D01*
X143807857Y-75110133D02*
X143784047Y-75033942D01*
X143784047Y-75033942D02*
X143760238Y-74995847D01*
X143760238Y-74995847D02*
X143712619Y-74957752D01*
X136752380Y-119841085D02*
X136704761Y-119802990D01*
X136704761Y-119802990D02*
X136657142Y-119726800D01*
X136657142Y-119726800D02*
X136585714Y-119612514D01*
X136585714Y-119612514D02*
X136538095Y-119574419D01*
X136538095Y-119574419D02*
X136490476Y-119574419D01*
X136514285Y-119764895D02*
X136466666Y-119726800D01*
X136466666Y-119726800D02*
X136419047Y-119650609D01*
X136419047Y-119650609D02*
X136395238Y-119498228D01*
X136395238Y-119498228D02*
X136395238Y-119231561D01*
X136395238Y-119231561D02*
X136419047Y-119079180D01*
X136419047Y-119079180D02*
X136466666Y-119002990D01*
X136466666Y-119002990D02*
X136514285Y-118964895D01*
X136514285Y-118964895D02*
X136609523Y-118964895D01*
X136609523Y-118964895D02*
X136657142Y-119002990D01*
X136657142Y-119002990D02*
X136704761Y-119079180D01*
X136704761Y-119079180D02*
X136728571Y-119231561D01*
X136728571Y-119231561D02*
X136728571Y-119498228D01*
X136728571Y-119498228D02*
X136704761Y-119650609D01*
X136704761Y-119650609D02*
X136657142Y-119726800D01*
X136657142Y-119726800D02*
X136609523Y-119764895D01*
X136609523Y-119764895D02*
X136514285Y-119764895D01*
X136919048Y-119041085D02*
X136942857Y-119002990D01*
X136942857Y-119002990D02*
X136990476Y-118964895D01*
X136990476Y-118964895D02*
X137109524Y-118964895D01*
X137109524Y-118964895D02*
X137157143Y-119002990D01*
X137157143Y-119002990D02*
X137180952Y-119041085D01*
X137180952Y-119041085D02*
X137204762Y-119117276D01*
X137204762Y-119117276D02*
X137204762Y-119193466D01*
X137204762Y-119193466D02*
X137180952Y-119307752D01*
X137180952Y-119307752D02*
X136895238Y-119764895D01*
X136895238Y-119764895D02*
X137204762Y-119764895D01*
X137308334Y-102501800D02*
X137379762Y-102539895D01*
X137379762Y-102539895D02*
X137498810Y-102539895D01*
X137498810Y-102539895D02*
X137546429Y-102501800D01*
X137546429Y-102501800D02*
X137570238Y-102463704D01*
X137570238Y-102463704D02*
X137594048Y-102387514D01*
X137594048Y-102387514D02*
X137594048Y-102311323D01*
X137594048Y-102311323D02*
X137570238Y-102235133D01*
X137570238Y-102235133D02*
X137546429Y-102197038D01*
X137546429Y-102197038D02*
X137498810Y-102158942D01*
X137498810Y-102158942D02*
X137403572Y-102120847D01*
X137403572Y-102120847D02*
X137355953Y-102082752D01*
X137355953Y-102082752D02*
X137332143Y-102044657D01*
X137332143Y-102044657D02*
X137308334Y-101968466D01*
X137308334Y-101968466D02*
X137308334Y-101892276D01*
X137308334Y-101892276D02*
X137332143Y-101816085D01*
X137332143Y-101816085D02*
X137355953Y-101777990D01*
X137355953Y-101777990D02*
X137403572Y-101739895D01*
X137403572Y-101739895D02*
X137522619Y-101739895D01*
X137522619Y-101739895D02*
X137594048Y-101777990D01*
X137760714Y-101739895D02*
X137879762Y-102539895D01*
X137879762Y-102539895D02*
X137975000Y-101968466D01*
X137975000Y-101968466D02*
X138070238Y-102539895D01*
X138070238Y-102539895D02*
X138189286Y-101739895D01*
X138641667Y-102539895D02*
X138355953Y-102539895D01*
X138498810Y-102539895D02*
X138498810Y-101739895D01*
X138498810Y-101739895D02*
X138451191Y-101854180D01*
X138451191Y-101854180D02*
X138403572Y-101930371D01*
X138403572Y-101930371D02*
X138355953Y-101968466D01*
D11*
X137273809Y-99963595D02*
X137107143Y-99582642D01*
X136988095Y-99963595D02*
X136988095Y-99163595D01*
X136988095Y-99163595D02*
X137178571Y-99163595D01*
X137178571Y-99163595D02*
X137226190Y-99201690D01*
X137226190Y-99201690D02*
X137250000Y-99239785D01*
X137250000Y-99239785D02*
X137273809Y-99315976D01*
X137273809Y-99315976D02*
X137273809Y-99430261D01*
X137273809Y-99430261D02*
X137250000Y-99506452D01*
X137250000Y-99506452D02*
X137226190Y-99544547D01*
X137226190Y-99544547D02*
X137178571Y-99582642D01*
X137178571Y-99582642D02*
X136988095Y-99582642D01*
X137488095Y-99544547D02*
X137654762Y-99544547D01*
X137726190Y-99963595D02*
X137488095Y-99963595D01*
X137488095Y-99963595D02*
X137488095Y-99163595D01*
X137488095Y-99163595D02*
X137726190Y-99163595D01*
X137916667Y-99925500D02*
X137988095Y-99963595D01*
X137988095Y-99963595D02*
X138107143Y-99963595D01*
X138107143Y-99963595D02*
X138154762Y-99925500D01*
X138154762Y-99925500D02*
X138178571Y-99887404D01*
X138178571Y-99887404D02*
X138202381Y-99811214D01*
X138202381Y-99811214D02*
X138202381Y-99735023D01*
X138202381Y-99735023D02*
X138178571Y-99658833D01*
X138178571Y-99658833D02*
X138154762Y-99620738D01*
X138154762Y-99620738D02*
X138107143Y-99582642D01*
X138107143Y-99582642D02*
X138011905Y-99544547D01*
X138011905Y-99544547D02*
X137964286Y-99506452D01*
X137964286Y-99506452D02*
X137940476Y-99468357D01*
X137940476Y-99468357D02*
X137916667Y-99392166D01*
X137916667Y-99392166D02*
X137916667Y-99315976D01*
X137916667Y-99315976D02*
X137940476Y-99239785D01*
X137940476Y-99239785D02*
X137964286Y-99201690D01*
X137964286Y-99201690D02*
X138011905Y-99163595D01*
X138011905Y-99163595D02*
X138130952Y-99163595D01*
X138130952Y-99163595D02*
X138202381Y-99201690D01*
X138416666Y-99544547D02*
X138583333Y-99544547D01*
X138654761Y-99963595D02*
X138416666Y-99963595D01*
X138416666Y-99963595D02*
X138416666Y-99163595D01*
X138416666Y-99163595D02*
X138654761Y-99163595D01*
X138797619Y-99163595D02*
X139083333Y-99163595D01*
X138940476Y-99963595D02*
X138940476Y-99163595D01*
D10*
X144819047Y-113764895D02*
X144819047Y-114412514D01*
X144819047Y-114412514D02*
X144842857Y-114488704D01*
X144842857Y-114488704D02*
X144866666Y-114526800D01*
X144866666Y-114526800D02*
X144914285Y-114564895D01*
X144914285Y-114564895D02*
X145009523Y-114564895D01*
X145009523Y-114564895D02*
X145057142Y-114526800D01*
X145057142Y-114526800D02*
X145080952Y-114488704D01*
X145080952Y-114488704D02*
X145104761Y-114412514D01*
X145104761Y-114412514D02*
X145104761Y-113764895D01*
X145295238Y-113764895D02*
X145604762Y-113764895D01*
X145604762Y-113764895D02*
X145438095Y-114069657D01*
X145438095Y-114069657D02*
X145509524Y-114069657D01*
X145509524Y-114069657D02*
X145557143Y-114107752D01*
X145557143Y-114107752D02*
X145580952Y-114145847D01*
X145580952Y-114145847D02*
X145604762Y-114222038D01*
X145604762Y-114222038D02*
X145604762Y-114412514D01*
X145604762Y-114412514D02*
X145580952Y-114488704D01*
X145580952Y-114488704D02*
X145557143Y-114526800D01*
X145557143Y-114526800D02*
X145509524Y-114564895D01*
X145509524Y-114564895D02*
X145366667Y-114564895D01*
X145366667Y-114564895D02*
X145319048Y-114526800D01*
X145319048Y-114526800D02*
X145295238Y-114488704D01*
X143288704Y-109121428D02*
X143326800Y-109145237D01*
X143326800Y-109145237D02*
X143364895Y-109216666D01*
X143364895Y-109216666D02*
X143364895Y-109264285D01*
X143364895Y-109264285D02*
X143326800Y-109335713D01*
X143326800Y-109335713D02*
X143250609Y-109383332D01*
X143250609Y-109383332D02*
X143174419Y-109407142D01*
X143174419Y-109407142D02*
X143022038Y-109430951D01*
X143022038Y-109430951D02*
X142907752Y-109430951D01*
X142907752Y-109430951D02*
X142755371Y-109407142D01*
X142755371Y-109407142D02*
X142679180Y-109383332D01*
X142679180Y-109383332D02*
X142602990Y-109335713D01*
X142602990Y-109335713D02*
X142564895Y-109264285D01*
X142564895Y-109264285D02*
X142564895Y-109216666D01*
X142564895Y-109216666D02*
X142602990Y-109145237D01*
X142602990Y-109145237D02*
X142641085Y-109121428D01*
X143364895Y-108645237D02*
X143364895Y-108930951D01*
X143364895Y-108788094D02*
X142564895Y-108788094D01*
X142564895Y-108788094D02*
X142679180Y-108835713D01*
X142679180Y-108835713D02*
X142755371Y-108883332D01*
X142755371Y-108883332D02*
X142793466Y-108930951D01*
X142831561Y-108216666D02*
X143364895Y-108216666D01*
X142526800Y-108335714D02*
X143098228Y-108454761D01*
X143098228Y-108454761D02*
X143098228Y-108145238D01*
X133164895Y-119483333D02*
X133164895Y-119721428D01*
X133164895Y-119721428D02*
X132364895Y-119721428D01*
X133164895Y-119054761D02*
X133164895Y-119340475D01*
X133164895Y-119197618D02*
X132364895Y-119197618D01*
X132364895Y-119197618D02*
X132479180Y-119245237D01*
X132479180Y-119245237D02*
X132555371Y-119292856D01*
X132555371Y-119292856D02*
X132593466Y-119340475D01*
X159745238Y-88364895D02*
X159745238Y-87564895D01*
X159745238Y-87564895D02*
X159911905Y-88136323D01*
X159911905Y-88136323D02*
X160078571Y-87564895D01*
X160078571Y-87564895D02*
X160078571Y-88364895D01*
X160316667Y-88364895D02*
X160316667Y-87564895D01*
X160602381Y-88364895D02*
X160388096Y-87907752D01*
X160602381Y-87564895D02*
X160316667Y-88022038D01*
X161078572Y-88364895D02*
X160792858Y-88364895D01*
X160935715Y-88364895D02*
X160935715Y-87564895D01*
X160935715Y-87564895D02*
X160888096Y-87679180D01*
X160888096Y-87679180D02*
X160840477Y-87755371D01*
X160840477Y-87755371D02*
X160792858Y-87793466D01*
X169233333Y-99164895D02*
X169233333Y-99736323D01*
X169233333Y-99736323D02*
X169209524Y-99850609D01*
X169209524Y-99850609D02*
X169161905Y-99926800D01*
X169161905Y-99926800D02*
X169090476Y-99964895D01*
X169090476Y-99964895D02*
X169042857Y-99964895D01*
X169423809Y-99164895D02*
X169757142Y-99164895D01*
X169757142Y-99164895D02*
X169542857Y-99964895D01*
D11*
X168852382Y-121363595D02*
X169138096Y-121363595D01*
X168995239Y-122163595D02*
X168995239Y-121363595D01*
X169471429Y-121744547D02*
X169304762Y-121744547D01*
X169304762Y-122163595D02*
X169304762Y-121363595D01*
X169304762Y-121363595D02*
X169542857Y-121363595D01*
X169661905Y-121363595D02*
X169947619Y-121363595D01*
X169804762Y-122163595D02*
X169804762Y-121363595D01*
D10*
X151941666Y-104613704D02*
X151917857Y-104651800D01*
X151917857Y-104651800D02*
X151846428Y-104689895D01*
X151846428Y-104689895D02*
X151798809Y-104689895D01*
X151798809Y-104689895D02*
X151727381Y-104651800D01*
X151727381Y-104651800D02*
X151679762Y-104575609D01*
X151679762Y-104575609D02*
X151655952Y-104499419D01*
X151655952Y-104499419D02*
X151632143Y-104347038D01*
X151632143Y-104347038D02*
X151632143Y-104232752D01*
X151632143Y-104232752D02*
X151655952Y-104080371D01*
X151655952Y-104080371D02*
X151679762Y-104004180D01*
X151679762Y-104004180D02*
X151727381Y-103927990D01*
X151727381Y-103927990D02*
X151798809Y-103889895D01*
X151798809Y-103889895D02*
X151846428Y-103889895D01*
X151846428Y-103889895D02*
X151917857Y-103927990D01*
X151917857Y-103927990D02*
X151941666Y-103966085D01*
X152179762Y-104689895D02*
X152275000Y-104689895D01*
X152275000Y-104689895D02*
X152322619Y-104651800D01*
X152322619Y-104651800D02*
X152346428Y-104613704D01*
X152346428Y-104613704D02*
X152394047Y-104499419D01*
X152394047Y-104499419D02*
X152417857Y-104347038D01*
X152417857Y-104347038D02*
X152417857Y-104042276D01*
X152417857Y-104042276D02*
X152394047Y-103966085D01*
X152394047Y-103966085D02*
X152370238Y-103927990D01*
X152370238Y-103927990D02*
X152322619Y-103889895D01*
X152322619Y-103889895D02*
X152227381Y-103889895D01*
X152227381Y-103889895D02*
X152179762Y-103927990D01*
X152179762Y-103927990D02*
X152155952Y-103966085D01*
X152155952Y-103966085D02*
X152132143Y-104042276D01*
X152132143Y-104042276D02*
X152132143Y-104232752D01*
X152132143Y-104232752D02*
X152155952Y-104308942D01*
X152155952Y-104308942D02*
X152179762Y-104347038D01*
X152179762Y-104347038D02*
X152227381Y-104385133D01*
X152227381Y-104385133D02*
X152322619Y-104385133D01*
X152322619Y-104385133D02*
X152370238Y-104347038D01*
X152370238Y-104347038D02*
X152394047Y-104308942D01*
X152394047Y-104308942D02*
X152417857Y-104232752D01*
X138116666Y-74164895D02*
X137950000Y-73783942D01*
X137830952Y-74164895D02*
X137830952Y-73364895D01*
X137830952Y-73364895D02*
X138021428Y-73364895D01*
X138021428Y-73364895D02*
X138069047Y-73402990D01*
X138069047Y-73402990D02*
X138092857Y-73441085D01*
X138092857Y-73441085D02*
X138116666Y-73517276D01*
X138116666Y-73517276D02*
X138116666Y-73631561D01*
X138116666Y-73631561D02*
X138092857Y-73707752D01*
X138092857Y-73707752D02*
X138069047Y-73745847D01*
X138069047Y-73745847D02*
X138021428Y-73783942D01*
X138021428Y-73783942D02*
X137830952Y-73783942D01*
X138545238Y-73631561D02*
X138545238Y-74164895D01*
X138426190Y-73326800D02*
X138307143Y-73898228D01*
X138307143Y-73898228D02*
X138616666Y-73898228D01*
X140752380Y-116441085D02*
X140704761Y-116402990D01*
X140704761Y-116402990D02*
X140657142Y-116326800D01*
X140657142Y-116326800D02*
X140585714Y-116212514D01*
X140585714Y-116212514D02*
X140538095Y-116174419D01*
X140538095Y-116174419D02*
X140490476Y-116174419D01*
X140514285Y-116364895D02*
X140466666Y-116326800D01*
X140466666Y-116326800D02*
X140419047Y-116250609D01*
X140419047Y-116250609D02*
X140395238Y-116098228D01*
X140395238Y-116098228D02*
X140395238Y-115831561D01*
X140395238Y-115831561D02*
X140419047Y-115679180D01*
X140419047Y-115679180D02*
X140466666Y-115602990D01*
X140466666Y-115602990D02*
X140514285Y-115564895D01*
X140514285Y-115564895D02*
X140609523Y-115564895D01*
X140609523Y-115564895D02*
X140657142Y-115602990D01*
X140657142Y-115602990D02*
X140704761Y-115679180D01*
X140704761Y-115679180D02*
X140728571Y-115831561D01*
X140728571Y-115831561D02*
X140728571Y-116098228D01*
X140728571Y-116098228D02*
X140704761Y-116250609D01*
X140704761Y-116250609D02*
X140657142Y-116326800D01*
X140657142Y-116326800D02*
X140609523Y-116364895D01*
X140609523Y-116364895D02*
X140514285Y-116364895D01*
X140895238Y-115564895D02*
X141204762Y-115564895D01*
X141204762Y-115564895D02*
X141038095Y-115869657D01*
X141038095Y-115869657D02*
X141109524Y-115869657D01*
X141109524Y-115869657D02*
X141157143Y-115907752D01*
X141157143Y-115907752D02*
X141180952Y-115945847D01*
X141180952Y-115945847D02*
X141204762Y-116022038D01*
X141204762Y-116022038D02*
X141204762Y-116212514D01*
X141204762Y-116212514D02*
X141180952Y-116288704D01*
X141180952Y-116288704D02*
X141157143Y-116326800D01*
X141157143Y-116326800D02*
X141109524Y-116364895D01*
X141109524Y-116364895D02*
X140966667Y-116364895D01*
X140966667Y-116364895D02*
X140919048Y-116326800D01*
X140919048Y-116326800D02*
X140895238Y-116288704D01*
X160278571Y-102288704D02*
X160254762Y-102326800D01*
X160254762Y-102326800D02*
X160183333Y-102364895D01*
X160183333Y-102364895D02*
X160135714Y-102364895D01*
X160135714Y-102364895D02*
X160064286Y-102326800D01*
X160064286Y-102326800D02*
X160016667Y-102250609D01*
X160016667Y-102250609D02*
X159992857Y-102174419D01*
X159992857Y-102174419D02*
X159969048Y-102022038D01*
X159969048Y-102022038D02*
X159969048Y-101907752D01*
X159969048Y-101907752D02*
X159992857Y-101755371D01*
X159992857Y-101755371D02*
X160016667Y-101679180D01*
X160016667Y-101679180D02*
X160064286Y-101602990D01*
X160064286Y-101602990D02*
X160135714Y-101564895D01*
X160135714Y-101564895D02*
X160183333Y-101564895D01*
X160183333Y-101564895D02*
X160254762Y-101602990D01*
X160254762Y-101602990D02*
X160278571Y-101641085D01*
X160754762Y-102364895D02*
X160469048Y-102364895D01*
X160611905Y-102364895D02*
X160611905Y-101564895D01*
X160611905Y-101564895D02*
X160564286Y-101679180D01*
X160564286Y-101679180D02*
X160516667Y-101755371D01*
X160516667Y-101755371D02*
X160469048Y-101793466D01*
X161183333Y-101564895D02*
X161088095Y-101564895D01*
X161088095Y-101564895D02*
X161040476Y-101602990D01*
X161040476Y-101602990D02*
X161016666Y-101641085D01*
X161016666Y-101641085D02*
X160969047Y-101755371D01*
X160969047Y-101755371D02*
X160945238Y-101907752D01*
X160945238Y-101907752D02*
X160945238Y-102212514D01*
X160945238Y-102212514D02*
X160969047Y-102288704D01*
X160969047Y-102288704D02*
X160992857Y-102326800D01*
X160992857Y-102326800D02*
X161040476Y-102364895D01*
X161040476Y-102364895D02*
X161135714Y-102364895D01*
X161135714Y-102364895D02*
X161183333Y-102326800D01*
X161183333Y-102326800D02*
X161207142Y-102288704D01*
X161207142Y-102288704D02*
X161230952Y-102212514D01*
X161230952Y-102212514D02*
X161230952Y-102022038D01*
X161230952Y-102022038D02*
X161207142Y-101945847D01*
X161207142Y-101945847D02*
X161183333Y-101907752D01*
X161183333Y-101907752D02*
X161135714Y-101869657D01*
X161135714Y-101869657D02*
X161040476Y-101869657D01*
X161040476Y-101869657D02*
X160992857Y-101907752D01*
X160992857Y-101907752D02*
X160969047Y-101945847D01*
X160969047Y-101945847D02*
X160945238Y-102022038D01*
X131716666Y-108564895D02*
X131550000Y-108183942D01*
X131430952Y-108564895D02*
X131430952Y-107764895D01*
X131430952Y-107764895D02*
X131621428Y-107764895D01*
X131621428Y-107764895D02*
X131669047Y-107802990D01*
X131669047Y-107802990D02*
X131692857Y-107841085D01*
X131692857Y-107841085D02*
X131716666Y-107917276D01*
X131716666Y-107917276D02*
X131716666Y-108031561D01*
X131716666Y-108031561D02*
X131692857Y-108107752D01*
X131692857Y-108107752D02*
X131669047Y-108145847D01*
X131669047Y-108145847D02*
X131621428Y-108183942D01*
X131621428Y-108183942D02*
X131430952Y-108183942D01*
X132002381Y-108107752D02*
X131954762Y-108069657D01*
X131954762Y-108069657D02*
X131930952Y-108031561D01*
X131930952Y-108031561D02*
X131907143Y-107955371D01*
X131907143Y-107955371D02*
X131907143Y-107917276D01*
X131907143Y-107917276D02*
X131930952Y-107841085D01*
X131930952Y-107841085D02*
X131954762Y-107802990D01*
X131954762Y-107802990D02*
X132002381Y-107764895D01*
X132002381Y-107764895D02*
X132097619Y-107764895D01*
X132097619Y-107764895D02*
X132145238Y-107802990D01*
X132145238Y-107802990D02*
X132169047Y-107841085D01*
X132169047Y-107841085D02*
X132192857Y-107917276D01*
X132192857Y-107917276D02*
X132192857Y-107955371D01*
X132192857Y-107955371D02*
X132169047Y-108031561D01*
X132169047Y-108031561D02*
X132145238Y-108069657D01*
X132145238Y-108069657D02*
X132097619Y-108107752D01*
X132097619Y-108107752D02*
X132002381Y-108107752D01*
X132002381Y-108107752D02*
X131954762Y-108145847D01*
X131954762Y-108145847D02*
X131930952Y-108183942D01*
X131930952Y-108183942D02*
X131907143Y-108260133D01*
X131907143Y-108260133D02*
X131907143Y-108412514D01*
X131907143Y-108412514D02*
X131930952Y-108488704D01*
X131930952Y-108488704D02*
X131954762Y-108526800D01*
X131954762Y-108526800D02*
X132002381Y-108564895D01*
X132002381Y-108564895D02*
X132097619Y-108564895D01*
X132097619Y-108564895D02*
X132145238Y-108526800D01*
X132145238Y-108526800D02*
X132169047Y-108488704D01*
X132169047Y-108488704D02*
X132192857Y-108412514D01*
X132192857Y-108412514D02*
X132192857Y-108260133D01*
X132192857Y-108260133D02*
X132169047Y-108183942D01*
X132169047Y-108183942D02*
X132145238Y-108145847D01*
X132145238Y-108145847D02*
X132097619Y-108107752D01*
X140091666Y-105139895D02*
X139925000Y-104758942D01*
X139805952Y-105139895D02*
X139805952Y-104339895D01*
X139805952Y-104339895D02*
X139996428Y-104339895D01*
X139996428Y-104339895D02*
X140044047Y-104377990D01*
X140044047Y-104377990D02*
X140067857Y-104416085D01*
X140067857Y-104416085D02*
X140091666Y-104492276D01*
X140091666Y-104492276D02*
X140091666Y-104606561D01*
X140091666Y-104606561D02*
X140067857Y-104682752D01*
X140067857Y-104682752D02*
X140044047Y-104720847D01*
X140044047Y-104720847D02*
X139996428Y-104758942D01*
X139996428Y-104758942D02*
X139805952Y-104758942D01*
X140258333Y-104339895D02*
X140591666Y-104339895D01*
X140591666Y-104339895D02*
X140377381Y-105139895D01*
X156564895Y-103121428D02*
X156183942Y-103288094D01*
X156564895Y-103407142D02*
X155764895Y-103407142D01*
X155764895Y-103407142D02*
X155764895Y-103216666D01*
X155764895Y-103216666D02*
X155802990Y-103169047D01*
X155802990Y-103169047D02*
X155841085Y-103145237D01*
X155841085Y-103145237D02*
X155917276Y-103121428D01*
X155917276Y-103121428D02*
X156031561Y-103121428D01*
X156031561Y-103121428D02*
X156107752Y-103145237D01*
X156107752Y-103145237D02*
X156145847Y-103169047D01*
X156145847Y-103169047D02*
X156183942Y-103216666D01*
X156183942Y-103216666D02*
X156183942Y-103407142D01*
X156564895Y-102645237D02*
X156564895Y-102930951D01*
X156564895Y-102788094D02*
X155764895Y-102788094D01*
X155764895Y-102788094D02*
X155879180Y-102835713D01*
X155879180Y-102835713D02*
X155955371Y-102883332D01*
X155955371Y-102883332D02*
X155993466Y-102930951D01*
X155764895Y-102478571D02*
X155764895Y-102169047D01*
X155764895Y-102169047D02*
X156069657Y-102335714D01*
X156069657Y-102335714D02*
X156069657Y-102264285D01*
X156069657Y-102264285D02*
X156107752Y-102216666D01*
X156107752Y-102216666D02*
X156145847Y-102192857D01*
X156145847Y-102192857D02*
X156222038Y-102169047D01*
X156222038Y-102169047D02*
X156412514Y-102169047D01*
X156412514Y-102169047D02*
X156488704Y-102192857D01*
X156488704Y-102192857D02*
X156526800Y-102216666D01*
X156526800Y-102216666D02*
X156564895Y-102264285D01*
X156564895Y-102264285D02*
X156564895Y-102407142D01*
X156564895Y-102407142D02*
X156526800Y-102454761D01*
X156526800Y-102454761D02*
X156488704Y-102478571D01*
X140884047Y-68614895D02*
X140884047Y-69262514D01*
X140884047Y-69262514D02*
X140907857Y-69338704D01*
X140907857Y-69338704D02*
X140931666Y-69376800D01*
X140931666Y-69376800D02*
X140979285Y-69414895D01*
X140979285Y-69414895D02*
X141074523Y-69414895D01*
X141074523Y-69414895D02*
X141122142Y-69376800D01*
X141122142Y-69376800D02*
X141145952Y-69338704D01*
X141145952Y-69338704D02*
X141169761Y-69262514D01*
X141169761Y-69262514D02*
X141169761Y-68614895D01*
X141622143Y-68881561D02*
X141622143Y-69414895D01*
X141503095Y-68576800D02*
X141384048Y-69148228D01*
X141384048Y-69148228D02*
X141693571Y-69148228D01*
X173888704Y-70383333D02*
X173926800Y-70407142D01*
X173926800Y-70407142D02*
X173964895Y-70478571D01*
X173964895Y-70478571D02*
X173964895Y-70526190D01*
X173964895Y-70526190D02*
X173926800Y-70597618D01*
X173926800Y-70597618D02*
X173850609Y-70645237D01*
X173850609Y-70645237D02*
X173774419Y-70669047D01*
X173774419Y-70669047D02*
X173622038Y-70692856D01*
X173622038Y-70692856D02*
X173507752Y-70692856D01*
X173507752Y-70692856D02*
X173355371Y-70669047D01*
X173355371Y-70669047D02*
X173279180Y-70645237D01*
X173279180Y-70645237D02*
X173202990Y-70597618D01*
X173202990Y-70597618D02*
X173164895Y-70526190D01*
X173164895Y-70526190D02*
X173164895Y-70478571D01*
X173164895Y-70478571D02*
X173202990Y-70407142D01*
X173202990Y-70407142D02*
X173241085Y-70383333D01*
X173164895Y-69954761D02*
X173164895Y-70049999D01*
X173164895Y-70049999D02*
X173202990Y-70097618D01*
X173202990Y-70097618D02*
X173241085Y-70121428D01*
X173241085Y-70121428D02*
X173355371Y-70169047D01*
X173355371Y-70169047D02*
X173507752Y-70192856D01*
X173507752Y-70192856D02*
X173812514Y-70192856D01*
X173812514Y-70192856D02*
X173888704Y-70169047D01*
X173888704Y-70169047D02*
X173926800Y-70145237D01*
X173926800Y-70145237D02*
X173964895Y-70097618D01*
X173964895Y-70097618D02*
X173964895Y-70002380D01*
X173964895Y-70002380D02*
X173926800Y-69954761D01*
X173926800Y-69954761D02*
X173888704Y-69930952D01*
X173888704Y-69930952D02*
X173812514Y-69907142D01*
X173812514Y-69907142D02*
X173622038Y-69907142D01*
X173622038Y-69907142D02*
X173545847Y-69930952D01*
X173545847Y-69930952D02*
X173507752Y-69954761D01*
X173507752Y-69954761D02*
X173469657Y-70002380D01*
X173469657Y-70002380D02*
X173469657Y-70097618D01*
X173469657Y-70097618D02*
X173507752Y-70145237D01*
X173507752Y-70145237D02*
X173545847Y-70169047D01*
X173545847Y-70169047D02*
X173622038Y-70192856D01*
D12*
%TO.C,J4*%
X169140000Y-89690000D02*
X169140000Y-90740000D01*
X169140000Y-95860000D02*
X168150000Y-95860000D01*
X169140000Y-96910000D02*
X169140000Y-95860000D01*
X171640000Y-89690000D02*
X169140000Y-89690000D01*
X171640000Y-96910000D02*
X169140000Y-96910000D01*
X173610000Y-95740000D02*
X173610000Y-90860000D01*
%TO.C,JP2*%
X172000000Y-101800000D02*
X172000000Y-99000000D01*
X172700000Y-98350000D02*
X173300000Y-98350000D01*
X173300000Y-102450000D02*
X172700000Y-102450000D01*
X174000000Y-99000000D02*
X174000000Y-101800000D01*
X172000000Y-99050000D02*
G75*
G02*
X172700000Y-98350000I700000J0D01*
G01*
X172700000Y-102450000D02*
G75*
G02*
X172000000Y-101750000I-1J699999D01*
G01*
X173300000Y-98350000D02*
G75*
G02*
X174000000Y-99050000I0J-700000D01*
G01*
X174000000Y-101750000D02*
G75*
G02*
X173300000Y-102450000I-699999J-1D01*
G01*
%TO.C,C5*%
X135355000Y-66934420D02*
X135355000Y-67215580D01*
X136375000Y-66934420D02*
X136375000Y-67215580D01*
%TO.C,J5*%
X156580000Y-115230000D02*
X156580000Y-129970000D01*
X156580000Y-129970000D02*
X165820000Y-129970000D01*
X158250000Y-115230000D02*
X156580000Y-115230000D01*
X165820000Y-115230000D02*
X164150000Y-115230000D01*
X165820000Y-116450000D02*
X165820000Y-115230000D01*
X165820000Y-129970000D02*
X165820000Y-121850000D01*
%TO.C,R14*%
X171877500Y-111012258D02*
X171877500Y-110537742D01*
X172922500Y-111012258D02*
X172922500Y-110537742D01*
%TO.C,D3*%
X132350000Y-123290000D02*
X132350000Y-128800000D01*
X135650000Y-123290000D02*
X132350000Y-123290000D01*
X135650000Y-123290000D02*
X135650000Y-128800000D01*
%TO.C,C15*%
X157440000Y-102865000D02*
X157440000Y-104735000D01*
X157440000Y-104735000D02*
X161350000Y-104735000D01*
X161350000Y-102865000D02*
X157440000Y-102865000D01*
%TO.C,JP1*%
X171600000Y-117000000D02*
X171600000Y-114200000D01*
X172300000Y-113550000D02*
X172900000Y-113550000D01*
X172900000Y-117650000D02*
X172300000Y-117650000D01*
X173600000Y-114200000D02*
X173600000Y-117000000D01*
X171600000Y-114250000D02*
G75*
G02*
X172300000Y-113550000I700000J0D01*
G01*
X172300000Y-117650000D02*
G75*
G02*
X171600000Y-116950000I-1J699999D01*
G01*
X172900000Y-113550000D02*
G75*
G02*
X173600000Y-114250000I0J-700000D01*
G01*
X173600000Y-116950000D02*
G75*
G02*
X172900000Y-117650000I-699999J-1D01*
G01*
%TO.C,U1*%
X143990000Y-91595000D02*
X143990000Y-101875000D01*
X143990000Y-101875000D02*
X154390000Y-101875000D01*
X144050000Y-94085000D02*
X144050000Y-99385000D01*
X144050000Y-99385000D02*
X154330000Y-99385000D01*
X154330000Y-94085000D02*
X144050000Y-94085000D01*
X154330000Y-95735000D02*
X154330000Y-94085000D01*
X154330000Y-99385000D02*
X154330000Y-97735000D01*
X154390000Y-91595000D02*
X143990000Y-91595000D01*
X154390000Y-101875000D02*
X154390000Y-91595000D01*
X154330000Y-97735000D02*
G75*
G02*
X154330000Y-95735000I0J1000000D01*
G01*
%TO.C,D5*%
X136160000Y-89450000D02*
X136160000Y-91410000D01*
X136160000Y-91410000D02*
X137360000Y-91410000D01*
X137360000Y-89450000D02*
X137360000Y-91410000D01*
%TO.C,C3*%
X135355000Y-70815580D02*
X135355000Y-70534420D01*
X136375000Y-70815580D02*
X136375000Y-70534420D01*
%TO.C,SW3*%
X170505000Y-74790000D02*
X170505000Y-75840000D01*
X170505000Y-75840000D02*
X169515000Y-75840000D01*
X170505000Y-84010000D02*
X170505000Y-82960000D01*
X171655000Y-74790000D02*
X170505000Y-74790000D01*
X171655000Y-84010000D02*
X170505000Y-84010000D01*
X173625000Y-75960000D02*
X173625000Y-82840000D01*
%TO.C,R2*%
X139477500Y-84637258D02*
X139477500Y-84162742D01*
X140522500Y-84637258D02*
X140522500Y-84162742D01*
%TO.C,D4*%
X136360000Y-85050000D02*
X136360000Y-83090000D01*
X137560000Y-83090000D02*
X136360000Y-83090000D01*
X137560000Y-85050000D02*
X137560000Y-83090000D01*
%TO.C,D6*%
X141077500Y-65185000D02*
X143362500Y-65185000D01*
X143362500Y-63715000D02*
X141077500Y-63715000D01*
X143362500Y-65185000D02*
X143362500Y-63715000D01*
%TO.C,R5*%
X153412258Y-89802500D02*
X152937742Y-89802500D01*
X153412258Y-90847500D02*
X152937742Y-90847500D01*
%TO.C,C7*%
X170930580Y-72540000D02*
X170649420Y-72540000D01*
X170930580Y-73560000D02*
X170649420Y-73560000D01*
%TO.C,SW2*%
X135800000Y-108650000D02*
X135800000Y-108550000D01*
X135800000Y-110150000D02*
X140200000Y-110150000D01*
X140200000Y-107050000D02*
X135800000Y-107050000D01*
X140200000Y-108650000D02*
X140200000Y-108550000D01*
%TO.C,C2*%
X133155000Y-70790580D02*
X133155000Y-70509420D01*
X134175000Y-70790580D02*
X134175000Y-70509420D01*
%TO.C,U6*%
X162977500Y-101550000D02*
X162977500Y-98550000D01*
X166197500Y-101550000D02*
X166197500Y-98550000D01*
X163077500Y-102540000D02*
X162597500Y-102060000D01*
X163077500Y-102060000D01*
X163077500Y-102540000D01*
G36*
X163077500Y-102540000D02*
G01*
X162597500Y-102060000D01*
X163077500Y-102060000D01*
X163077500Y-102540000D01*
G37*
%TO.C,R1*%
X134637500Y-84662258D02*
X134637500Y-84187742D01*
X135682500Y-84662258D02*
X135682500Y-84187742D01*
%TO.C,R11*%
X167492500Y-78437742D02*
X167492500Y-78912258D01*
X168537500Y-78437742D02*
X168537500Y-78912258D01*
%TO.C,CIN2*%
X145477500Y-105890000D02*
X145477500Y-112110000D01*
X145477500Y-112110000D02*
X153537500Y-112110000D01*
X153537500Y-105890000D02*
X145477500Y-105890000D01*
%TO.C,D2*%
X136360000Y-88050000D02*
X136360000Y-86090000D01*
X137560000Y-86090000D02*
X136360000Y-86090000D01*
X137560000Y-88050000D02*
X137560000Y-86090000D01*
%TO.C,JP3*%
X165000000Y-112300000D02*
X165000000Y-109500000D01*
X165700000Y-108850000D02*
X166300000Y-108850000D01*
X166300000Y-112950000D02*
X165700000Y-112950000D01*
X167000000Y-109500000D02*
X167000000Y-112300000D01*
X165000000Y-109550000D02*
G75*
G02*
X165700000Y-108850000I699999J1D01*
G01*
X165700000Y-112950000D02*
G75*
G02*
X165000000Y-112250000I0J700000D01*
G01*
X166300000Y-108850000D02*
G75*
G02*
X167000000Y-109550000I1J-699999D01*
G01*
X167000000Y-112250000D02*
G75*
G02*
X166300000Y-112950000I-700000J0D01*
G01*
%TO.C,COUT1*%
X139840000Y-110865000D02*
X139840000Y-112735000D01*
X139840000Y-112735000D02*
X143750000Y-112735000D01*
X143750000Y-110865000D02*
X139840000Y-110865000D01*
%TO.C,C4*%
X133355000Y-66959420D02*
X133355000Y-67240580D01*
X134375000Y-66959420D02*
X134375000Y-67240580D01*
%TO.C,J1*%
X125630000Y-83700000D02*
X127090000Y-83700000D01*
X125630000Y-92640000D02*
X125630000Y-83700000D01*
X125630000Y-92640000D02*
X127090000Y-92640000D01*
X131140000Y-83700000D02*
X129340000Y-83700000D01*
X131140000Y-92640000D02*
X129340000Y-92640000D01*
%TO.C,C18*%
X171465000Y-103640000D02*
X171465000Y-107550000D01*
X173335000Y-103640000D02*
X171465000Y-103640000D01*
X173335000Y-107550000D02*
X173335000Y-103640000D01*
%TO.C,J2*%
X136690000Y-125140000D02*
X137740000Y-125140000D01*
X136690000Y-127640000D02*
X136690000Y-125140000D01*
X137740000Y-125140000D02*
X137740000Y-124150000D01*
X137860000Y-129610000D02*
X141740000Y-129610000D01*
X142910000Y-125140000D02*
X141860000Y-125140000D01*
X142910000Y-127640000D02*
X142910000Y-125140000D01*
%TO.C,J3*%
X125590000Y-94240000D02*
X134010000Y-94240000D01*
X125590000Y-106960000D02*
X125590000Y-94240000D01*
X126810000Y-94240000D02*
X126810000Y-95460000D01*
X126810000Y-95460000D02*
X131810000Y-95460000D01*
X126810000Y-105740000D02*
X131810000Y-105740000D01*
X126810000Y-106960000D02*
X126810000Y-105740000D01*
X127310000Y-96850000D02*
X127390000Y-96530000D01*
X127310000Y-99350000D02*
X127390000Y-99030000D01*
X127310000Y-101850000D02*
X127390000Y-101530000D01*
X127310000Y-104350000D02*
X127390000Y-104030000D01*
X127390000Y-96530000D02*
X130810000Y-96530000D01*
X127390000Y-97170000D02*
X127310000Y-96850000D01*
X127390000Y-99030000D02*
X130810000Y-99030000D01*
X127390000Y-99670000D02*
X127310000Y-99350000D01*
X127390000Y-101530000D02*
X130810000Y-101530000D01*
X127390000Y-102170000D02*
X127310000Y-101850000D01*
X127390000Y-104030000D02*
X130810000Y-104030000D01*
X127390000Y-104670000D02*
X127310000Y-104350000D01*
X130810000Y-96530000D02*
X130810000Y-96850000D01*
X130810000Y-96850000D02*
X130810000Y-97170000D01*
X130810000Y-97170000D02*
X127390000Y-97170000D01*
X130810000Y-99030000D02*
X130810000Y-99350000D01*
X130810000Y-99350000D02*
X130810000Y-99670000D01*
X130810000Y-99670000D02*
X127390000Y-99670000D01*
X130810000Y-101530000D02*
X130810000Y-101850000D01*
X130810000Y-101850000D02*
X130810000Y-102170000D01*
X130810000Y-102170000D02*
X127390000Y-102170000D01*
X130810000Y-104030000D02*
X130810000Y-104350000D01*
X130810000Y-104350000D02*
X130810000Y-104670000D01*
X130810000Y-104670000D02*
X127390000Y-104670000D01*
X130810000Y-105740000D02*
X130810000Y-95460000D01*
X131810000Y-95460000D02*
X131810000Y-94240000D01*
X131810000Y-98180000D02*
X131810000Y-98020000D01*
X131810000Y-100680000D02*
X131810000Y-100520000D01*
X131810000Y-103180000D02*
X131810000Y-103020000D01*
X131810000Y-105740000D02*
X131810000Y-106960000D01*
X131810000Y-105740000D02*
X134010000Y-105740000D01*
X133900000Y-104350000D02*
X134500000Y-104650000D01*
X134010000Y-94240000D02*
X134010000Y-95460000D01*
X134010000Y-95460000D02*
X131810000Y-95460000D01*
X134010000Y-105740000D02*
X134010000Y-106960000D01*
X134010000Y-106960000D02*
X125590000Y-106960000D01*
X134500000Y-104050000D02*
X133900000Y-104350000D01*
X134500000Y-104650000D02*
X134500000Y-104050000D01*
%TO.C,C11*%
X145565580Y-102415000D02*
X145284420Y-102415000D01*
X145565580Y-103435000D02*
X145284420Y-103435000D01*
%TO.C,Q1*%
X141662500Y-120040000D02*
X141012500Y-120040000D01*
X141662500Y-120040000D02*
X142312500Y-120040000D01*
X141662500Y-123160000D02*
X141012500Y-123160000D01*
X141662500Y-123160000D02*
X142312500Y-123160000D01*
X143065000Y-123440000D02*
X142585000Y-123440000D01*
X142825000Y-123110000D01*
X143065000Y-123440000D01*
G36*
X143065000Y-123440000D02*
G01*
X142585000Y-123440000D01*
X142825000Y-123110000D01*
X143065000Y-123440000D01*
G37*
%TO.C,D1*%
X137760000Y-88890000D02*
X137760000Y-92900000D01*
X139760000Y-88890000D02*
X137760000Y-88890000D01*
X139760000Y-88890000D02*
X139760000Y-92900000D01*
%TO.C,C19*%
X162850000Y-105335000D02*
X166760000Y-105335000D01*
X166760000Y-103465000D02*
X162850000Y-103465000D01*
X166760000Y-105335000D02*
X166760000Y-103465000D01*
%TO.C,C12*%
X149084420Y-102415000D02*
X149365580Y-102415000D01*
X149084420Y-103435000D02*
X149365580Y-103435000D01*
%TO.C,J6*%
X127470000Y-109130000D02*
X128800000Y-109130000D01*
X127470000Y-110460000D02*
X127470000Y-109130000D01*
X127470000Y-111730000D02*
X127470000Y-119410000D01*
X127470000Y-111730000D02*
X130130000Y-111730000D01*
X127470000Y-119410000D02*
X130130000Y-119410000D01*
X130130000Y-111730000D02*
X130130000Y-119410000D01*
%TO.C,R6*%
X145137742Y-90002500D02*
X145612258Y-90002500D01*
X145137742Y-91047500D02*
X145612258Y-91047500D01*
%TO.C,R16*%
X167492500Y-75237742D02*
X167492500Y-75712258D01*
X168537500Y-75237742D02*
X168537500Y-75712258D01*
%TO.C,R3*%
X138227742Y-63927500D02*
X138702258Y-63927500D01*
X138227742Y-64972500D02*
X138702258Y-64972500D01*
%TO.C,R10*%
X167492500Y-81587742D02*
X167492500Y-82062258D01*
X168537500Y-81587742D02*
X168537500Y-82062258D01*
%TO.C,U2*%
X146815000Y-57200000D02*
X146815000Y-63400000D01*
X146815000Y-57200000D02*
X165215000Y-57200000D01*
X146815000Y-82050000D02*
X146815000Y-83050000D01*
X146815000Y-83050000D02*
X148315000Y-83050000D01*
X165215000Y-57200000D02*
X165215000Y-63400000D01*
X165215000Y-83050000D02*
X163715000Y-83050000D01*
X165215000Y-83050000D02*
X165215000Y-82050000D01*
X146815000Y-64075000D02*
X146315000Y-64075000D01*
X146815000Y-63575000D01*
X146815000Y-64075000D01*
G36*
X146815000Y-64075000D02*
G01*
X146315000Y-64075000D01*
X146815000Y-63575000D01*
X146815000Y-64075000D01*
G37*
%TO.C,C17*%
X158350000Y-98535000D02*
X162260000Y-98535000D01*
X162260000Y-96665000D02*
X158350000Y-96665000D01*
X162260000Y-98535000D02*
X162260000Y-96665000D01*
%TO.C,C10*%
X149165580Y-90015000D02*
X148884420Y-90015000D01*
X149165580Y-91035000D02*
X148884420Y-91035000D01*
%TO.C,CIN1*%
X154590000Y-106690000D02*
X154590000Y-112910000D01*
X154590000Y-112910000D02*
X162650000Y-112910000D01*
X162650000Y-106690000D02*
X154590000Y-106690000D01*
%TO.C,C13*%
X141265000Y-102140580D02*
X141265000Y-101859420D01*
X142285000Y-102140580D02*
X142285000Y-101859420D01*
%TO.C,C1*%
X134685000Y-90204420D02*
X134685000Y-90485580D01*
X135705000Y-90204420D02*
X135705000Y-90485580D01*
D13*
%TO.C,*%
G36*
X140710781Y-78659931D02*
G01*
X140740001Y-78737661D01*
X140690289Y-78829756D01*
X140565612Y-78905573D01*
X140562482Y-78906678D01*
X140416740Y-78995672D01*
X140325402Y-79151403D01*
X140281421Y-79390320D01*
X140274830Y-79577902D01*
X140266561Y-79783872D01*
X140236103Y-79893266D01*
X140174984Y-79923881D01*
X140116440Y-79910557D01*
X140080457Y-79855890D01*
X140057457Y-79715245D01*
X140046151Y-79477486D01*
X140044444Y-79288169D01*
X140052440Y-78964116D01*
X140077309Y-78750395D01*
X140120377Y-78643200D01*
X140182968Y-78638723D01*
X140247187Y-78705445D01*
X140311360Y-78769657D01*
X140370710Y-78736061D01*
X140389493Y-78714244D01*
X140501661Y-78644836D01*
X140598662Y-78627211D01*
X140710781Y-78659931D01*
G37*
G36*
X128224504Y-75292438D02*
G01*
X128255929Y-75321486D01*
X128276265Y-75391166D01*
X128287912Y-75518879D01*
X128293272Y-75722023D01*
X128294743Y-76017998D01*
X128294785Y-76121769D01*
X128293982Y-76447385D01*
X128289976Y-76675212D01*
X128280365Y-76822648D01*
X128262749Y-76907093D01*
X128234729Y-76945948D01*
X128193905Y-76956612D01*
X128179592Y-76956916D01*
X128134679Y-76951100D01*
X128103255Y-76922052D01*
X128082919Y-76852371D01*
X128071271Y-76724659D01*
X128065912Y-76521515D01*
X128064441Y-76225539D01*
X128064399Y-76121769D01*
X128065201Y-75796152D01*
X128069208Y-75568326D01*
X128078819Y-75420890D01*
X128096435Y-75336444D01*
X128124454Y-75297590D01*
X128165279Y-75286925D01*
X128179592Y-75286621D01*
X128224504Y-75292438D01*
G37*
G36*
X130945130Y-75702266D02*
G01*
X130974181Y-75739983D01*
X130991253Y-75832636D01*
X130999424Y-75999118D01*
X131001772Y-76258319D01*
X131001814Y-76319133D01*
X130999147Y-76605814D01*
X130989617Y-76794993D01*
X130970936Y-76904273D01*
X130940811Y-76951254D01*
X130918819Y-76956916D01*
X130820692Y-76921713D01*
X130800130Y-76899164D01*
X130723636Y-76872743D01*
X130656527Y-76899164D01*
X130459406Y-76954263D01*
X130258959Y-76931377D01*
X130104883Y-76837096D01*
X130049502Y-76753995D01*
X130016036Y-76636416D01*
X129999552Y-76456593D01*
X129995162Y-76219299D01*
X129997521Y-75974838D01*
X130009030Y-75822876D01*
X130034029Y-75740820D01*
X130076859Y-75706078D01*
X130094671Y-75701336D01*
X130151241Y-75705148D01*
X130181836Y-75761150D01*
X130193950Y-75893325D01*
X130195465Y-76023952D01*
X130210875Y-76369830D01*
X130258557Y-76607934D01*
X130340685Y-76741678D01*
X130459437Y-76774479D01*
X130616988Y-76709753D01*
X130627830Y-76702772D01*
X130699341Y-76644079D01*
X130743075Y-76564116D01*
X130767506Y-76433643D01*
X130781107Y-76223417D01*
X130783400Y-76165854D01*
X130796267Y-75934577D01*
X130817278Y-75795247D01*
X130852303Y-75724643D01*
X130901020Y-75700597D01*
X130945130Y-75702266D01*
G37*
G36*
X133368799Y-75716972D02*
G01*
X133531032Y-75840487D01*
X133531874Y-75841554D01*
X133593437Y-75939786D01*
X133629921Y-76061922D01*
X133647216Y-76239231D01*
X133651247Y-76475114D01*
X133649038Y-76710897D01*
X133638792Y-76854210D01*
X133615084Y-76927747D01*
X133572489Y-76954202D01*
X133536054Y-76956916D01*
X133476899Y-76946610D01*
X133442319Y-76899697D01*
X133425846Y-76792186D01*
X133421011Y-76600085D01*
X133420862Y-76529654D01*
X133416012Y-76256233D01*
X133396587Y-76078183D01*
X133355267Y-75975911D01*
X133284735Y-75929823D01*
X133193241Y-75920182D01*
X133032133Y-75950121D01*
X132925442Y-76048962D01*
X132865611Y-76230236D01*
X132845081Y-76507475D01*
X132844898Y-76543878D01*
X132840209Y-76765035D01*
X132823073Y-76892825D01*
X132788886Y-76948810D01*
X132756696Y-76956916D01*
X132660978Y-76914001D01*
X132639208Y-76880600D01*
X132628087Y-76792193D01*
X132622660Y-76618731D01*
X132623540Y-76390241D01*
X132626617Y-76262097D01*
X132637414Y-76004286D01*
X132653588Y-75840265D01*
X132679616Y-75748636D01*
X132719977Y-75708000D01*
X132744104Y-75700630D01*
X132829805Y-75723182D01*
X132844898Y-75775233D01*
X132854945Y-75835967D01*
X132905567Y-75824196D01*
X132972906Y-75779457D01*
X133174168Y-75695675D01*
X133368799Y-75716972D01*
G37*
G36*
X141729389Y-78705254D02*
G01*
X141887021Y-78841549D01*
X141975327Y-79036780D01*
X141988645Y-79185854D01*
X141939133Y-79278111D01*
X141811638Y-79323108D01*
X141591009Y-79330403D01*
X141514860Y-79327218D01*
X141316654Y-79319042D01*
X141209636Y-79325886D01*
X141170003Y-79355974D01*
X141173952Y-79417532D01*
X141179968Y-79442924D01*
X141236850Y-79603943D01*
X141326017Y-79688123D01*
X141475983Y-79711292D01*
X141640767Y-79698711D01*
X141822194Y-79683460D01*
X141915323Y-79695283D01*
X141944699Y-79738127D01*
X141945125Y-79747617D01*
X141893476Y-79820619D01*
X141761598Y-79878654D01*
X141584092Y-79915875D01*
X141395561Y-79926432D01*
X141230607Y-79904475D01*
X141167157Y-79879126D01*
X141035581Y-79745903D01*
X140949304Y-79540730D01*
X140915097Y-79300217D01*
X140936030Y-79096894D01*
X141169334Y-79096894D01*
X141195309Y-79130877D01*
X141295935Y-79143733D01*
X141448137Y-79145578D01*
X141627140Y-79141815D01*
X141716006Y-79123436D01*
X141739724Y-79079811D01*
X141730171Y-79025580D01*
X141649364Y-78896261D01*
X141517447Y-78844361D01*
X141368257Y-78869492D01*
X141235627Y-78971266D01*
X141195665Y-79031706D01*
X141169334Y-79096894D01*
X140936030Y-79096894D01*
X140939728Y-79060972D01*
X140990465Y-78923546D01*
X141135260Y-78747991D01*
X141325411Y-78655245D01*
X141532820Y-78642076D01*
X141729389Y-78705254D01*
G37*
G36*
X132041032Y-75742855D02*
G01*
X132143702Y-75823100D01*
X132205807Y-75903879D01*
X132243471Y-76003447D01*
X132262502Y-76151180D01*
X132268705Y-76376451D01*
X132268934Y-76456660D01*
X132261421Y-76728702D01*
X132236086Y-76894998D01*
X132188739Y-76964187D01*
X132115187Y-76944906D01*
X132056569Y-76894301D01*
X131987045Y-76862835D01*
X131955256Y-76894301D01*
X131877460Y-76934616D01*
X131733232Y-76955918D01*
X131692837Y-76956916D01*
X131511240Y-76933220D01*
X131396128Y-76851008D01*
X131379456Y-76828908D01*
X131300440Y-76642545D01*
X131310763Y-76581943D01*
X131520181Y-76581943D01*
X131568134Y-76701060D01*
X131684783Y-76772350D01*
X131829317Y-76783725D01*
X131960924Y-76723095D01*
X131969433Y-76715011D01*
X132025231Y-76604682D01*
X132038549Y-76513424D01*
X132016624Y-76417271D01*
X131928622Y-76383120D01*
X131869874Y-76380953D01*
X131733623Y-76409095D01*
X131604094Y-76476154D01*
X131526615Y-76556077D01*
X131520181Y-76581943D01*
X131310763Y-76581943D01*
X131328642Y-76476978D01*
X131456474Y-76343605D01*
X131676345Y-76253826D01*
X131775213Y-76234574D01*
X131944814Y-76197816D01*
X132023865Y-76145341D01*
X132038549Y-76088457D01*
X131989896Y-75966328D01*
X131864117Y-75898415D01*
X131691483Y-75897272D01*
X131622697Y-75915970D01*
X131458760Y-75966373D01*
X131375484Y-75968541D01*
X131348303Y-75921107D01*
X131347392Y-75900628D01*
X131399349Y-75816096D01*
X131532720Y-75743670D01*
X131713758Y-75698105D01*
X131829632Y-75689796D01*
X132041032Y-75742855D01*
G37*
G36*
X134690465Y-75742855D02*
G01*
X134793135Y-75823100D01*
X134855240Y-75903879D01*
X134892904Y-76003447D01*
X134911935Y-76151180D01*
X134918138Y-76376451D01*
X134918367Y-76456660D01*
X134910854Y-76728702D01*
X134885519Y-76894998D01*
X134838172Y-76964187D01*
X134764620Y-76944906D01*
X134706002Y-76894301D01*
X134636478Y-76862835D01*
X134604689Y-76894301D01*
X134526893Y-76934616D01*
X134382665Y-76955918D01*
X134342270Y-76956916D01*
X134160673Y-76933220D01*
X134045561Y-76851008D01*
X134028889Y-76828908D01*
X133949873Y-76642545D01*
X133960196Y-76581943D01*
X134169614Y-76581943D01*
X134217567Y-76701060D01*
X134334216Y-76772350D01*
X134478750Y-76783725D01*
X134610357Y-76723095D01*
X134618866Y-76715011D01*
X134674664Y-76604682D01*
X134687982Y-76513424D01*
X134666057Y-76417271D01*
X134578055Y-76383120D01*
X134519307Y-76380953D01*
X134383056Y-76409095D01*
X134253527Y-76476154D01*
X134176048Y-76556077D01*
X134169614Y-76581943D01*
X133960196Y-76581943D01*
X133978075Y-76476978D01*
X134105907Y-76343605D01*
X134325778Y-76253826D01*
X134424646Y-76234574D01*
X134594247Y-76197816D01*
X134673298Y-76145341D01*
X134687982Y-76088457D01*
X134639329Y-75966328D01*
X134513550Y-75898415D01*
X134340916Y-75897272D01*
X134272130Y-75915970D01*
X134108193Y-75966373D01*
X134024917Y-75968541D01*
X133997736Y-75921107D01*
X133996825Y-75900628D01*
X134048782Y-75816096D01*
X134182153Y-75743670D01*
X134363191Y-75698105D01*
X134479065Y-75689796D01*
X134690465Y-75742855D01*
G37*
G36*
X129527190Y-75700654D02*
G01*
X129664725Y-75726868D01*
X129711296Y-75756130D01*
X129705153Y-75838434D01*
X129657099Y-75892071D01*
X129587843Y-75996979D01*
X129561905Y-76133591D01*
X129511896Y-76326376D01*
X129371809Y-76459303D01*
X129156553Y-76519920D01*
X129096533Y-76522325D01*
X128933677Y-76538024D01*
X128875048Y-76576696D01*
X128915324Y-76625704D01*
X129049181Y-76672414D01*
X129168693Y-76693618D01*
X129420634Y-76738283D01*
X129576590Y-76799010D01*
X129655694Y-76887795D01*
X129677097Y-77012359D01*
X129625357Y-77195983D01*
X129479776Y-77330318D01*
X129254810Y-77405324D01*
X129093366Y-77417687D01*
X128874947Y-77397814D01*
X128730444Y-77331319D01*
X128697959Y-77302494D01*
X128598141Y-77162656D01*
X128603718Y-77028084D01*
X128625876Y-76990155D01*
X128848216Y-76990155D01*
X128849159Y-77113771D01*
X128876807Y-77165804D01*
X128983599Y-77222148D01*
X129145567Y-77242644D01*
X129307451Y-77224205D01*
X129380384Y-77193917D01*
X129436199Y-77102724D01*
X129437462Y-77036409D01*
X129371462Y-76960038D01*
X129236518Y-76913439D01*
X129075815Y-76900004D01*
X128932538Y-76923121D01*
X128849873Y-76986182D01*
X128848216Y-76990155D01*
X128625876Y-76990155D01*
X128662435Y-76927576D01*
X128711493Y-76811890D01*
X128677379Y-76714980D01*
X128643348Y-76595730D01*
X128683403Y-76498050D01*
X128723136Y-76332625D01*
X128704610Y-76253265D01*
X128692068Y-76101016D01*
X128888324Y-76101016D01*
X128907848Y-76232049D01*
X128992322Y-76324292D01*
X129031845Y-76338382D01*
X129195078Y-76328009D01*
X129302569Y-76226844D01*
X129331519Y-76097106D01*
X129289256Y-75945703D01*
X129173965Y-75878001D01*
X129040744Y-75892270D01*
X128932905Y-75973615D01*
X128888324Y-76101016D01*
X128692068Y-76101016D01*
X128689212Y-76066343D01*
X128759277Y-75878588D01*
X128857887Y-75768849D01*
X128967721Y-75726965D01*
X129141005Y-75701264D01*
X129340056Y-75692306D01*
X129527190Y-75700654D01*
G37*
G36*
X139938708Y-75063265D02*
G01*
X140125684Y-75105870D01*
X140184676Y-75134871D01*
X140319677Y-75288203D01*
X140366256Y-75507565D01*
X140322707Y-75783160D01*
X140306466Y-75834167D01*
X140179733Y-76161207D01*
X140047375Y-76399754D01*
X139894064Y-76576100D01*
X139853362Y-76611338D01*
X139686893Y-76754542D01*
X139525186Y-76902707D01*
X139519708Y-76907965D01*
X139254410Y-77086057D01*
X138940248Y-77165010D01*
X138748526Y-77163335D01*
X138544001Y-77164983D01*
X138349660Y-77198620D01*
X138330952Y-77204520D01*
X138197109Y-77270837D01*
X138147198Y-77367479D01*
X138143764Y-77421490D01*
X138179501Y-77581356D01*
X138251034Y-77712301D01*
X138345030Y-77858917D01*
X138398906Y-77979252D01*
X138449817Y-78085530D01*
X138520854Y-78093834D01*
X138636280Y-78006934D01*
X138636872Y-78006390D01*
X138755443Y-77932387D01*
X138856067Y-77922049D01*
X138908507Y-77969524D01*
X138890279Y-78055430D01*
X138810347Y-78144900D01*
X138752662Y-78166440D01*
X138677439Y-78201090D01*
X138636280Y-78273164D01*
X138648912Y-78334847D01*
X138678338Y-78346580D01*
X138791830Y-78358671D01*
X138870286Y-78367138D01*
X139035476Y-78410874D01*
X139105855Y-78490657D01*
X139099838Y-78546642D01*
X139110269Y-78603590D01*
X139211641Y-78626006D01*
X139264521Y-78627211D01*
X139447560Y-78657984D01*
X139575800Y-78758043D01*
X139655663Y-78939000D01*
X139693570Y-79212466D01*
X139698866Y-79412495D01*
X139698866Y-79894262D01*
X139511678Y-79891979D01*
X139311483Y-79898655D01*
X139131936Y-79915446D01*
X138939319Y-79895184D01*
X138799177Y-79796274D01*
X138726070Y-79647380D01*
X138728386Y-79600935D01*
X138977320Y-79600935D01*
X139049853Y-79689580D01*
X139170534Y-79721788D01*
X139307896Y-79684588D01*
X139377972Y-79631034D01*
X139442043Y-79528855D01*
X139467849Y-79414674D01*
X139449661Y-79333133D01*
X139418084Y-79318368D01*
X139253760Y-79338128D01*
X139098418Y-79386857D01*
X138997690Y-79448724D01*
X138984401Y-79468822D01*
X138977320Y-79600935D01*
X138728386Y-79600935D01*
X138734557Y-79477169D01*
X138830769Y-79322519D01*
X138955332Y-79245944D01*
X139136341Y-79185482D01*
X139208599Y-79171471D01*
X139374873Y-79136540D01*
X139443855Y-79091683D01*
X139443136Y-79047416D01*
X139414349Y-78960252D01*
X139410884Y-78941307D01*
X139366923Y-78900505D01*
X139295147Y-78857305D01*
X139204237Y-78828575D01*
X139147768Y-78885053D01*
X139123784Y-78941673D01*
X139051201Y-79057585D01*
X138949825Y-79075441D01*
X138806050Y-78995325D01*
X138743085Y-78944061D01*
X138666774Y-78886395D01*
X138950113Y-78886395D01*
X138978912Y-78915193D01*
X139007710Y-78886395D01*
X138978912Y-78857597D01*
X138950113Y-78886395D01*
X138666774Y-78886395D01*
X138600647Y-78836425D01*
X138514854Y-78803186D01*
X138496551Y-78847615D01*
X138504075Y-78871996D01*
X138569132Y-79065906D01*
X138583143Y-79171602D01*
X138548794Y-79203175D01*
X138514215Y-79233543D01*
X138546939Y-79318368D01*
X138578284Y-79405818D01*
X138525914Y-79432671D01*
X138495250Y-79433560D01*
X138386103Y-79382615D01*
X138339727Y-79303968D01*
X138312417Y-79251824D01*
X138279816Y-79273588D01*
X138233190Y-79382436D01*
X138177455Y-79548753D01*
X138107538Y-79750335D01*
X138049400Y-79864027D01*
X137986571Y-79913615D01*
X137918178Y-79923129D01*
X137854689Y-79916719D01*
X137803078Y-79886217D01*
X137755229Y-79814714D01*
X137703023Y-79685304D01*
X137638345Y-79481077D01*
X137553078Y-79185127D01*
X137537633Y-79130439D01*
X137481400Y-78960303D01*
X137429240Y-78851360D01*
X137397325Y-78827368D01*
X137363863Y-78892644D01*
X137313104Y-79043548D01*
X137253561Y-79253445D01*
X137222885Y-79373282D01*
X137152828Y-79634504D01*
X137092562Y-79801440D01*
X137033559Y-79893535D01*
X136980085Y-79926859D01*
X136891354Y-79941059D01*
X136822318Y-79907088D01*
X136761160Y-79807707D01*
X136696059Y-79625676D01*
X136638790Y-79429037D01*
X136575757Y-79218093D01*
X136518020Y-79050388D01*
X136476534Y-78957277D01*
X136471752Y-78950979D01*
X136398995Y-78948324D01*
X136283202Y-79011560D01*
X136268222Y-79022974D01*
X136148461Y-79106138D01*
X136064626Y-79145163D01*
X136059765Y-79145578D01*
X135987552Y-79184028D01*
X135885066Y-79277061D01*
X135880344Y-79282106D01*
X135769729Y-79362799D01*
X135595676Y-79450551D01*
X135390852Y-79533500D01*
X135187922Y-79599781D01*
X135019554Y-79637530D01*
X134918413Y-79634883D01*
X134914633Y-79632839D01*
X134837475Y-79642706D01*
X134776777Y-79699201D01*
X134702600Y-79768593D01*
X134625339Y-79740920D01*
X134612948Y-79730970D01*
X134523075Y-79691723D01*
X134487992Y-79718957D01*
X134410320Y-79752590D01*
X134310076Y-79744308D01*
X134216018Y-79732038D01*
X134177159Y-79779034D01*
X134169614Y-79909644D01*
X134188612Y-80103283D01*
X134235049Y-80311009D01*
X134242030Y-80333462D01*
X134306365Y-80637784D01*
X134300754Y-80913840D01*
X134230779Y-81141853D01*
X134102022Y-81302048D01*
X133949355Y-81370342D01*
X133810488Y-81415359D01*
X133730805Y-81476471D01*
X133728232Y-81481985D01*
X133655821Y-81547675D01*
X133531243Y-81594481D01*
X133412837Y-81631896D01*
X133364147Y-81669996D01*
X133418345Y-81782845D01*
X133552097Y-81868391D01*
X133573033Y-81875551D01*
X133667364Y-81941055D01*
X133733157Y-82043903D01*
X133743696Y-82136848D01*
X133731705Y-82156126D01*
X133665188Y-82164452D01*
X133539138Y-82153328D01*
X133384790Y-82088891D01*
X133312971Y-81976067D01*
X133273349Y-81878509D01*
X133257010Y-81884789D01*
X133252620Y-81949221D01*
X133292008Y-82075215D01*
X133380374Y-82179607D01*
X133524459Y-82315306D01*
X133568381Y-82420075D01*
X133525328Y-82501009D01*
X133390653Y-82575332D01*
X133269973Y-82538275D01*
X133171931Y-82393524D01*
X133152296Y-82341898D01*
X133095986Y-82177991D01*
X133052367Y-82053447D01*
X133044712Y-82032242D01*
X132997328Y-82004287D01*
X132925871Y-82053814D01*
X132852654Y-82152865D01*
X132799991Y-82273480D01*
X132787302Y-82354776D01*
X132754865Y-82540743D01*
X132670247Y-82671409D01*
X132561586Y-82716553D01*
X132489013Y-82693516D01*
X132468824Y-82604276D01*
X132473541Y-82529365D01*
X132487367Y-82387258D01*
X132495497Y-82300672D01*
X132495643Y-82298980D01*
X132546157Y-82260504D01*
X132585714Y-82255782D01*
X132666361Y-82232013D01*
X132678547Y-82212585D01*
X132706956Y-81967135D01*
X132703401Y-81828074D01*
X132678651Y-81795011D01*
X132597665Y-81812821D01*
X132453412Y-81857538D01*
X132391368Y-81878851D01*
X132248669Y-81918135D01*
X132163968Y-81920026D01*
X132153741Y-81907649D01*
X132107052Y-81858805D01*
X132067347Y-81852608D01*
X131993284Y-81811299D01*
X131992218Y-81711518D01*
X132025032Y-81645424D01*
X132101978Y-81604217D01*
X132254970Y-81565377D01*
X132384127Y-81545651D01*
X132625949Y-81495333D01*
X132777713Y-81403920D01*
X132857220Y-81270142D01*
X132920163Y-81225517D01*
X133017687Y-81198434D01*
X133120978Y-81160806D01*
X133149100Y-81115838D01*
X133182702Y-81047018D01*
X133221095Y-81024731D01*
X133294140Y-81024458D01*
X133305669Y-81048066D01*
X133352347Y-81097570D01*
X133392063Y-81103855D01*
X133452943Y-81076372D01*
X133473344Y-80985378D01*
X133452544Y-80818053D01*
X133389818Y-80561580D01*
X133354388Y-80436525D01*
X133271742Y-80187624D01*
X133198627Y-80046023D01*
X133138401Y-80004436D01*
X133027626Y-79997117D01*
X132854870Y-79984558D01*
X132772902Y-79978348D01*
X132613829Y-79976439D01*
X132515163Y-79995087D01*
X132499320Y-80012234D01*
X132451709Y-80059198D01*
X132398526Y-80067959D01*
X132283957Y-80086828D01*
X132116042Y-80133222D01*
X132049122Y-80155388D01*
X131890314Y-80201426D01*
X131777362Y-80217338D01*
X131752874Y-80212537D01*
X131673751Y-80212114D01*
X131531460Y-80245983D01*
X131468718Y-80266544D01*
X131326553Y-80306684D01*
X131242215Y-80311141D01*
X131232200Y-80300432D01*
X131181804Y-80276344D01*
X131055701Y-80275922D01*
X131001814Y-80281772D01*
X130840897Y-80290545D01*
X130774807Y-80258124D01*
X130771429Y-80240441D01*
X130749485Y-80198530D01*
X130695824Y-80230954D01*
X130591758Y-80262600D01*
X130424820Y-80266051D01*
X130242748Y-80245294D01*
X130093274Y-80204316D01*
X130044529Y-80176550D01*
X129955559Y-80135076D01*
X129927945Y-80136391D01*
X129832896Y-80128398D01*
X129673377Y-80079349D01*
X129478524Y-80002462D01*
X129277472Y-79910955D01*
X129099358Y-79818046D01*
X128973315Y-79736953D01*
X128928345Y-79682899D01*
X128880308Y-79620801D01*
X128813152Y-79606349D01*
X128719339Y-79570336D01*
X128697959Y-79519955D01*
X128651712Y-79444028D01*
X128609757Y-79433560D01*
X128513654Y-79386964D01*
X128488402Y-79347166D01*
X128423855Y-79270478D01*
X128389416Y-79260274D01*
X128317098Y-79219912D01*
X128194087Y-79115446D01*
X128043851Y-78970916D01*
X127889856Y-78810365D01*
X127755570Y-78657833D01*
X127664459Y-78537362D01*
X127641425Y-78493969D01*
X127586825Y-78424001D01*
X127546438Y-78425372D01*
X127497995Y-78411114D01*
X127488435Y-78363377D01*
X127446258Y-78245018D01*
X127406462Y-78201588D01*
X127348104Y-78115653D01*
X127276978Y-77954763D01*
X127215106Y-77774524D01*
X127152484Y-77591306D01*
X127094472Y-77463304D01*
X127054560Y-77418747D01*
X127000617Y-77375908D01*
X126946408Y-77262311D01*
X126905330Y-77121576D01*
X126890780Y-76997325D01*
X126907248Y-76939101D01*
X126938360Y-76843637D01*
X126930607Y-76805907D01*
X126929826Y-76736293D01*
X126949507Y-76727070D01*
X126988389Y-76778357D01*
X127046825Y-76913728D01*
X127113534Y-77106277D01*
X127127766Y-77152211D01*
X127243147Y-77460502D01*
X127376175Y-77696234D01*
X127430147Y-77762525D01*
X127536029Y-77887158D01*
X127597432Y-77981277D01*
X127603628Y-78002173D01*
X127645223Y-78096498D01*
X127755136Y-78239414D01*
X127911057Y-78408403D01*
X128090678Y-78580950D01*
X128271689Y-78734537D01*
X128431782Y-78846649D01*
X128451407Y-78857836D01*
X128662667Y-78983453D01*
X128862497Y-79118592D01*
X129021308Y-79241888D01*
X129109514Y-79331976D01*
X129110774Y-79333966D01*
X129170254Y-79372710D01*
X129191327Y-79362566D01*
X129258422Y-79366786D01*
X129396500Y-79415446D01*
X129571124Y-79495810D01*
X129752503Y-79578657D01*
X129895603Y-79628095D01*
X129967368Y-79633733D01*
X130018909Y-79637309D01*
X130022676Y-79655066D01*
X130073444Y-79683723D01*
X130203337Y-79685147D01*
X130253061Y-79679680D01*
X130413978Y-79670907D01*
X130480068Y-79703328D01*
X130483447Y-79721011D01*
X130501771Y-79764058D01*
X130567077Y-79723836D01*
X130687972Y-79681614D01*
X130761057Y-79689452D01*
X130897281Y-79696091D01*
X131020966Y-79667613D01*
X131154087Y-79640587D01*
X131204631Y-79665935D01*
X131276033Y-79681584D01*
X131408537Y-79633311D01*
X131409949Y-79632583D01*
X131543007Y-79581893D01*
X131635560Y-79578090D01*
X131639816Y-79580296D01*
X131722984Y-79582112D01*
X131882318Y-79550672D01*
X132087613Y-79495571D01*
X132308667Y-79426403D01*
X132515276Y-79352764D01*
X132677237Y-79284248D01*
X132764347Y-79230450D01*
X132770663Y-79221055D01*
X132846262Y-79153264D01*
X132887908Y-79145578D01*
X133003664Y-79094636D01*
X133094337Y-78968302D01*
X133131048Y-78810613D01*
X133148633Y-78713606D01*
X136531066Y-78713606D01*
X136559864Y-78742404D01*
X136588662Y-78713606D01*
X136584063Y-78709007D01*
X136732419Y-78709007D01*
X136761792Y-78946127D01*
X136797861Y-79101791D01*
X136852536Y-79294335D01*
X136901097Y-79433532D01*
X136933535Y-79490934D01*
X136934812Y-79491157D01*
X136963918Y-79439375D01*
X137008935Y-79302022D01*
X137061286Y-79106088D01*
X137074186Y-79052510D01*
X137150450Y-78732249D01*
X137207790Y-78507370D01*
X137253230Y-78361027D01*
X137293798Y-78276369D01*
X137336520Y-78236550D01*
X137388422Y-78224720D01*
X137419679Y-78224036D01*
X137506946Y-78242515D01*
X137565456Y-78316504D01*
X137615763Y-78473836D01*
X137621727Y-78497619D01*
X137705071Y-78817339D01*
X137784428Y-79089720D01*
X137854788Y-79300418D01*
X137911141Y-79435088D01*
X137948478Y-79479384D01*
X137958627Y-79462358D01*
X138007714Y-79329676D01*
X138041822Y-79275170D01*
X138062874Y-79215790D01*
X138006826Y-79203175D01*
X137925741Y-79175106D01*
X137913379Y-79147532D01*
X137942032Y-79033446D01*
X138011462Y-78888607D01*
X138096868Y-78755947D01*
X138173453Y-78678401D01*
X138187586Y-78672796D01*
X138190201Y-78671037D01*
X138802305Y-78671037D01*
X138858919Y-78680260D01*
X138933622Y-78669671D01*
X138934514Y-78650010D01*
X138857428Y-78636260D01*
X138824121Y-78645463D01*
X138802305Y-78671037D01*
X138190201Y-78671037D01*
X138231505Y-78643251D01*
X138200646Y-78570185D01*
X138157749Y-78512018D01*
X138074628Y-78373102D01*
X137987253Y-78178751D01*
X137946038Y-78065646D01*
X137863503Y-77866472D01*
X137777866Y-77776313D01*
X137679647Y-77789167D01*
X137604827Y-77849660D01*
X137522692Y-77919510D01*
X137488709Y-77936055D01*
X137436590Y-77974057D01*
X137327590Y-78073992D01*
X137184664Y-78214754D01*
X137175511Y-78224036D01*
X137026608Y-78367293D01*
X136904373Y-78470418D01*
X136834347Y-78511942D01*
X136832906Y-78512018D01*
X136756244Y-78562278D01*
X136732419Y-78709007D01*
X136584063Y-78709007D01*
X136559864Y-78684807D01*
X136531066Y-78713606D01*
X133148633Y-78713606D01*
X133160680Y-78647146D01*
X133195812Y-78559645D01*
X133230027Y-78436648D01*
X133175734Y-78378274D01*
X133043632Y-78390602D01*
X132955889Y-78423345D01*
X132713848Y-78551564D01*
X132582116Y-78674269D01*
X132556916Y-78751633D01*
X132518184Y-78861159D01*
X132432623Y-78951027D01*
X132372608Y-78972789D01*
X132331045Y-78926313D01*
X132326531Y-78891194D01*
X132283268Y-78800556D01*
X132254535Y-78783201D01*
X132211423Y-78744741D01*
X132254535Y-78680488D01*
X132321366Y-78583509D01*
X132291573Y-78543044D01*
X132211338Y-78552926D01*
X132116707Y-78556952D01*
X132090136Y-78533135D01*
X132071038Y-78252586D01*
X132074072Y-78224036D01*
X132211338Y-78224036D01*
X132255167Y-78279959D01*
X132268934Y-78281633D01*
X133190476Y-78281633D01*
X133234306Y-78337555D01*
X133248073Y-78339229D01*
X133303995Y-78295400D01*
X133305669Y-78281633D01*
X133261840Y-78225710D01*
X133248073Y-78224036D01*
X133192150Y-78267866D01*
X133190476Y-78281633D01*
X132268934Y-78281633D01*
X132324857Y-78237803D01*
X132326531Y-78224036D01*
X132282701Y-78168114D01*
X132268934Y-78166440D01*
X132213012Y-78210269D01*
X132211338Y-78224036D01*
X132074072Y-78224036D01*
X132091090Y-78063899D01*
X132133559Y-77986500D01*
X132183763Y-77907353D01*
X132178506Y-77871932D01*
X132184835Y-77823529D01*
X132200106Y-77820862D01*
X132261259Y-77777349D01*
X132357127Y-77666657D01*
X132412925Y-77590476D01*
X132514781Y-77456290D01*
X132594893Y-77373240D01*
X132619638Y-77360091D01*
X132666244Y-77410075D01*
X132712356Y-77530638D01*
X132746438Y-77677696D01*
X132756954Y-77807168D01*
X132748885Y-77853957D01*
X132743594Y-77926651D01*
X132804115Y-77922961D01*
X132915263Y-77848415D01*
X133014982Y-77757109D01*
X133186869Y-77630297D01*
X133415810Y-77516922D01*
X133650087Y-77439223D01*
X133804392Y-77417687D01*
X133863745Y-77467080D01*
X133881633Y-77558279D01*
X133902956Y-77680294D01*
X133939453Y-77734606D01*
X133969678Y-77808138D01*
X133982789Y-77956204D01*
X133980632Y-78059037D01*
X133979874Y-78230361D01*
X133996331Y-78348645D01*
X134012159Y-78377504D01*
X134086174Y-78356397D01*
X134214157Y-78238199D01*
X134393044Y-78025903D01*
X134457596Y-77942451D01*
X134654712Y-77704453D01*
X134825254Y-77551315D01*
X134992831Y-77464208D01*
X135090025Y-77438072D01*
X135211732Y-77390975D01*
X135263913Y-77325643D01*
X135263946Y-77324093D01*
X135310343Y-77254421D01*
X135352148Y-77244898D01*
X135448170Y-77198287D01*
X135473627Y-77158179D01*
X135547590Y-77093998D01*
X135689230Y-77043629D01*
X135729799Y-77035818D01*
X135934327Y-76983648D01*
X136069022Y-76909836D01*
X136115225Y-76826548D01*
X136103912Y-76791925D01*
X136038597Y-76747826D01*
X136015127Y-76753828D01*
X135958064Y-76729809D01*
X135867101Y-76641844D01*
X135769903Y-76523351D01*
X135767007Y-76518932D01*
X136134823Y-76518932D01*
X136170427Y-76561720D01*
X136209075Y-76665554D01*
X136201072Y-76711398D01*
X136198435Y-76768573D01*
X136273737Y-76764407D01*
X136306367Y-76755009D01*
X136449081Y-76703615D01*
X136528265Y-76667586D01*
X136554145Y-76626455D01*
X136483901Y-76572779D01*
X136389829Y-76529806D01*
X136227152Y-76474822D01*
X136137967Y-76471806D01*
X136134823Y-76518932D01*
X135767007Y-76518932D01*
X135694132Y-76407745D01*
X135667120Y-76333443D01*
X135618541Y-76283677D01*
X135505965Y-76233703D01*
X135379135Y-76201557D01*
X135301080Y-76200736D01*
X135205173Y-76172673D01*
X135122458Y-76075728D01*
X135091156Y-75964008D01*
X135095350Y-75902176D01*
X135124448Y-75876065D01*
X135203227Y-75885361D01*
X135356464Y-75929752D01*
X135451134Y-75959463D01*
X135536342Y-75962405D01*
X135538155Y-75899547D01*
X135457491Y-75783575D01*
X135436735Y-75760661D01*
X135334873Y-75597150D01*
X135347199Y-75447225D01*
X135407497Y-75365227D01*
X135464741Y-75325820D01*
X135513604Y-75347833D01*
X135564820Y-75446583D01*
X135629123Y-75637387D01*
X135652608Y-75714994D01*
X135718850Y-75862563D01*
X135793354Y-75896041D01*
X135872907Y-75814969D01*
X135905098Y-75751097D01*
X136004772Y-75594413D01*
X136115883Y-75531426D01*
X136190685Y-75549017D01*
X136240496Y-75638792D01*
X136194195Y-75780606D01*
X136123711Y-75883616D01*
X136048427Y-75987406D01*
X136021639Y-76041238D01*
X136022917Y-76042801D01*
X136087739Y-76052383D01*
X136185487Y-76061406D01*
X136486725Y-76091537D01*
X136746343Y-76130255D01*
X136942017Y-76173316D01*
X137051425Y-76216476D01*
X137063832Y-76228409D01*
X137116885Y-76259494D01*
X137157435Y-76216399D01*
X137252629Y-76165834D01*
X137333417Y-76178096D01*
X137421663Y-76182637D01*
X137528016Y-76132137D01*
X137676062Y-76013301D01*
X137756709Y-75939475D01*
X137901038Y-75800973D01*
X138002691Y-75696670D01*
X138041442Y-75647409D01*
X138041147Y-75646380D01*
X138052904Y-75587743D01*
X138115537Y-75498219D01*
X138193049Y-75422567D01*
X138237851Y-75401814D01*
X138316322Y-75356149D01*
X138333194Y-75326333D01*
X138418540Y-75246791D01*
X138593748Y-75176908D01*
X138833703Y-75119280D01*
X139113291Y-75076505D01*
X139407398Y-75051179D01*
X139690908Y-75045900D01*
X139938708Y-75063265D01*
G37*
D12*
%TO.C,R15*%
X167492500Y-84837742D02*
X167492500Y-85312258D01*
X168537500Y-84837742D02*
X168537500Y-85312258D01*
%TO.C,R12*%
X166012258Y-106877500D02*
X165537742Y-106877500D01*
X166012258Y-107922500D02*
X165537742Y-107922500D01*
%TO.C,C8*%
X144380580Y-73140000D02*
X144099420Y-73140000D01*
X144380580Y-74160000D02*
X144099420Y-74160000D01*
%TO.C,Q2*%
X137662500Y-120040000D02*
X137012500Y-120040000D01*
X137662500Y-120040000D02*
X138312500Y-120040000D01*
X137662500Y-123160000D02*
X137012500Y-123160000D01*
X137662500Y-123160000D02*
X138312500Y-123160000D01*
X139065000Y-123440000D02*
X138585000Y-123440000D01*
X138825000Y-123110000D01*
X139065000Y-123440000D01*
G36*
X139065000Y-123440000D02*
G01*
X138585000Y-123440000D01*
X138825000Y-123110000D01*
X139065000Y-123440000D01*
G37*
%TO.C,SW1*%
X135775000Y-102225000D02*
X135775000Y-102125000D01*
X135775000Y-103725000D02*
X140175000Y-103725000D01*
X140175000Y-100625000D02*
X135775000Y-100625000D01*
X140175000Y-102225000D02*
X140175000Y-102125000D01*
%TO.C,U3*%
X144800000Y-118875000D02*
X145750000Y-118875000D01*
X144800000Y-120375000D02*
X144800000Y-118875000D01*
X155200000Y-118875000D02*
X154250000Y-118875000D01*
X155200000Y-120375000D02*
X155200000Y-118875000D01*
X154580000Y-116552500D02*
X154250000Y-116312500D01*
X154580000Y-116072500D01*
X154580000Y-116552500D01*
G36*
X154580000Y-116552500D02*
G01*
X154250000Y-116312500D01*
X154580000Y-116072500D01*
X154580000Y-116552500D01*
G37*
%TO.C,C14*%
X141140000Y-108565580D02*
X141140000Y-108284420D01*
X142160000Y-108565580D02*
X142160000Y-108284420D01*
%TO.C,L1*%
X130940000Y-110490000D02*
X131690000Y-110490000D01*
X130940000Y-118710000D02*
X130940000Y-110490000D01*
X130940000Y-118710000D02*
X131690000Y-118710000D01*
X139460000Y-110490000D02*
X138710000Y-110490000D01*
X139460000Y-118710000D02*
X138710000Y-118710000D01*
X139460000Y-118710000D02*
X139460000Y-110490000D01*
D14*
%TO.C,MK1*%
X165450000Y-91270000D02*
G75*
G02*
X155750000Y-91270000I-4850000J0D01*
G01*
X155750000Y-91270000D02*
G75*
G02*
X165450000Y-91270000I4850000J0D01*
G01*
D15*
X166143000Y-93011000D02*
G75*
G02*
X165943000Y-93011000I-100000J0D01*
G01*
X165943000Y-93011000D02*
G75*
G02*
X166143000Y-93011000I100000J0D01*
G01*
D12*
%TO.C,J7*%
X168070000Y-100290000D02*
X169400000Y-100290000D01*
X168070000Y-101620000D02*
X168070000Y-100290000D01*
X168070000Y-102890000D02*
X168070000Y-120730000D01*
X168070000Y-102890000D02*
X170730000Y-102890000D01*
X168070000Y-120730000D02*
X170730000Y-120730000D01*
X170730000Y-102890000D02*
X170730000Y-120730000D01*
%TO.C,C9*%
X152884420Y-102415000D02*
X153165580Y-102415000D01*
X152884420Y-103435000D02*
X153165580Y-103435000D01*
%TO.C,R4*%
X140202742Y-73127500D02*
X140677258Y-73127500D01*
X140202742Y-74172500D02*
X140677258Y-74172500D01*
%TO.C,Q3*%
X142262500Y-115490000D02*
X141612500Y-115490000D01*
X142262500Y-115490000D02*
X142912500Y-115490000D01*
X142262500Y-118610000D02*
X141612500Y-118610000D01*
X142262500Y-118610000D02*
X142912500Y-118610000D01*
X143665000Y-118890000D02*
X143185000Y-118890000D01*
X143425000Y-118560000D01*
X143665000Y-118890000D01*
G36*
X143665000Y-118890000D02*
G01*
X143185000Y-118890000D01*
X143425000Y-118560000D01*
X143665000Y-118890000D01*
G37*
%TO.C,C16*%
X158450000Y-101135000D02*
X162360000Y-101135000D01*
X162360000Y-99265000D02*
X158450000Y-99265000D01*
X162360000Y-101135000D02*
X162360000Y-99265000D01*
%TO.C,R8*%
X132812258Y-109077500D02*
X132337742Y-109077500D01*
X132812258Y-110122500D02*
X132337742Y-110122500D01*
%TO.C,R7*%
X138187258Y-104252500D02*
X137712742Y-104252500D01*
X138187258Y-105297500D02*
X137712742Y-105297500D01*
%TO.C,R13*%
X155652500Y-100662258D02*
X155652500Y-100187742D01*
X156697500Y-100662258D02*
X156697500Y-100187742D01*
%TO.C,U4*%
X139415000Y-65640000D02*
X143175000Y-65640000D01*
X139415000Y-72460000D02*
X143175000Y-72460000D01*
X143175000Y-65640000D02*
X143175000Y-66900000D01*
X143175000Y-72460000D02*
X143175000Y-71200000D01*
X138135000Y-65740000D02*
X137895000Y-65410000D01*
X138375000Y-65410000D01*
X138135000Y-65740000D01*
G36*
X138135000Y-65740000D02*
G01*
X137895000Y-65410000D01*
X138375000Y-65410000D01*
X138135000Y-65740000D01*
G37*
%TO.C,C6*%
X172905000Y-72565580D02*
X172905000Y-72284420D01*
X173925000Y-72565580D02*
X173925000Y-72284420D01*
%TD*%
%LPC*%
D16*
%TO.C,J4*%
X168925000Y-95300000D03*
X168925000Y-94300000D03*
X168925000Y-93300000D03*
X168925000Y-92300000D03*
X168925000Y-91300000D03*
D17*
X172800000Y-96600000D03*
X172800000Y-90000000D03*
%TD*%
D18*
%TO.C,JP2*%
X173000000Y-101700000D03*
D19*
X173000000Y-100400000D03*
D20*
X173000000Y-99100000D03*
%TD*%
D21*
%TO.C,C5*%
X135865000Y-66300000D03*
X135865000Y-67850000D03*
%TD*%
D22*
%TO.C,J5*%
X161200000Y-115950000D03*
D23*
X161200000Y-122150000D03*
D24*
X165900000Y-119150000D03*
%TD*%
D25*
%TO.C,R14*%
X172400000Y-111600000D03*
X172400000Y-109950000D03*
%TD*%
D26*
%TO.C,H3*%
X128600000Y-67950000D03*
%TD*%
D27*
%TO.C,D3*%
X134000000Y-124800000D03*
X134000000Y-128800000D03*
%TD*%
D28*
%TO.C,C15*%
X158400000Y-103800000D03*
X161100000Y-103800000D03*
%TD*%
D18*
%TO.C,JP1*%
X172600000Y-116900000D03*
D19*
X172600000Y-115600000D03*
D20*
X172600000Y-114300000D03*
%TD*%
D29*
%TO.C,U1*%
X153000000Y-92925000D03*
D30*
X150460000Y-92925000D03*
X147920000Y-92925000D03*
X145380000Y-92925000D03*
X145380000Y-100545000D03*
X147920000Y-100545000D03*
X150460000Y-100545000D03*
X153000000Y-100545000D03*
%TD*%
D31*
%TO.C,D5*%
X136760000Y-90850000D03*
X136760000Y-89450000D03*
%TD*%
D32*
%TO.C,C3*%
X135865000Y-71450000D03*
X135865000Y-69900000D03*
%TD*%
D33*
%TO.C,SW3*%
X172815000Y-75100000D03*
X172815000Y-83700000D03*
D34*
X170290000Y-82400000D03*
X170290000Y-76400000D03*
X170290000Y-77400000D03*
X170290000Y-81400000D03*
X170290000Y-78400000D03*
X170290000Y-79400000D03*
X170290000Y-80400000D03*
%TD*%
D25*
%TO.C,R2*%
X140000000Y-85225000D03*
X140000000Y-83575000D03*
%TD*%
D35*
%TO.C,D4*%
X136960000Y-83650000D03*
X136960000Y-85050000D03*
%TD*%
D36*
%TO.C,D6*%
X142665000Y-64450000D03*
X141090000Y-64450000D03*
%TD*%
D37*
%TO.C,R5*%
X154000000Y-90325000D03*
X152350000Y-90325000D03*
%TD*%
D38*
%TO.C,C7*%
X171565000Y-73050000D03*
X170015000Y-73050000D03*
%TD*%
D39*
%TO.C,SW2*%
X135950000Y-107800000D03*
X140050000Y-107800000D03*
X135950000Y-109400000D03*
X140050000Y-109400000D03*
%TD*%
D32*
%TO.C,C2*%
X133665000Y-71425000D03*
X133665000Y-69875000D03*
%TD*%
D40*
%TO.C,U6*%
X163387500Y-101525000D03*
X163787500Y-101525000D03*
X164187500Y-101525000D03*
X164587500Y-101525000D03*
X164987500Y-101525000D03*
X165387500Y-101525000D03*
X165787500Y-101525000D03*
X165787500Y-98575000D03*
X165387500Y-98575000D03*
X164987500Y-98575000D03*
X164587500Y-98575000D03*
X164187500Y-98575000D03*
X163787500Y-98575000D03*
X163387500Y-98575000D03*
D41*
X164587500Y-100050000D03*
%TD*%
D25*
%TO.C,R1*%
X135160000Y-85250000D03*
X135160000Y-83600000D03*
%TD*%
D42*
%TO.C,R11*%
X168015000Y-77850000D03*
X168015000Y-79500000D03*
%TD*%
D43*
%TO.C,CIN2*%
X146775000Y-109000000D03*
X153000000Y-109000000D03*
%TD*%
D35*
%TO.C,D2*%
X136960000Y-86650000D03*
X136960000Y-88050000D03*
%TD*%
D44*
%TO.C,JP3*%
X166000000Y-109600000D03*
D19*
X166000000Y-110900000D03*
D45*
X166000000Y-112200000D03*
%TD*%
D28*
%TO.C,COUT1*%
X140800000Y-111800000D03*
X143500000Y-111800000D03*
%TD*%
D21*
%TO.C,C4*%
X133865000Y-66325000D03*
X133865000Y-67875000D03*
%TD*%
D46*
%TO.C,J1*%
X131920000Y-85280000D03*
X131920000Y-91060000D03*
D47*
X132980000Y-84970000D03*
X132980000Y-85770000D03*
D48*
X132980000Y-86920000D03*
X132980000Y-87920000D03*
X132980000Y-88420000D03*
X132980000Y-89420000D03*
D47*
X132980000Y-90570000D03*
X132980000Y-91370000D03*
X132980000Y-91370000D03*
X132980000Y-90570000D03*
D48*
X132980000Y-89920000D03*
X132980000Y-88920000D03*
X132980000Y-87420000D03*
X132980000Y-86420000D03*
D47*
X132980000Y-85770000D03*
X132980000Y-84970000D03*
D49*
X132400000Y-83850000D03*
D50*
X128230000Y-83850000D03*
D49*
X132400000Y-92490000D03*
D50*
X128230000Y-92490000D03*
%TD*%
D51*
%TO.C,C18*%
X172400000Y-104600000D03*
X172400000Y-107300000D03*
%TD*%
D52*
%TO.C,J2*%
X138300000Y-124925000D03*
X139300000Y-124925000D03*
X140300000Y-124925000D03*
X141300000Y-124925000D03*
D53*
X137000000Y-128800000D03*
X142600000Y-128800000D03*
%TD*%
D54*
%TO.C,J3*%
X132400000Y-104350000D03*
D55*
X132400000Y-101850000D03*
X132400000Y-99350000D03*
X132400000Y-96850000D03*
%TD*%
D26*
%TO.C,H4*%
X128875000Y-126000000D03*
%TD*%
D38*
%TO.C,C11*%
X146200000Y-102925000D03*
X144650000Y-102925000D03*
%TD*%
D56*
%TO.C,Q1*%
X142600000Y-122550000D03*
X142600000Y-120650000D03*
X140725000Y-121600000D03*
%TD*%
D57*
%TO.C,D1*%
X138760000Y-89600000D03*
X138760000Y-92900000D03*
%TD*%
D58*
%TO.C,C19*%
X165800000Y-104400000D03*
X163100000Y-104400000D03*
%TD*%
D59*
%TO.C,C12*%
X148450000Y-102925000D03*
X150000000Y-102925000D03*
%TD*%
D60*
%TO.C,J6*%
X128800000Y-110460000D03*
D61*
X128800000Y-113000000D03*
X128800000Y-115540000D03*
X128800000Y-118080000D03*
%TD*%
D62*
%TO.C,R6*%
X144550000Y-90525000D03*
X146200000Y-90525000D03*
%TD*%
D42*
%TO.C,R16*%
X168015000Y-74650000D03*
X168015000Y-76300000D03*
%TD*%
D62*
%TO.C,R3*%
X137640000Y-64450000D03*
X139290000Y-64450000D03*
%TD*%
D42*
%TO.C,R10*%
X168015000Y-81000000D03*
X168015000Y-82650000D03*
%TD*%
D63*
%TO.C,U2*%
X147265000Y-64840000D03*
X147265000Y-66110000D03*
X147265000Y-67380000D03*
X147265000Y-68650000D03*
X147265000Y-69920000D03*
X147265000Y-71190000D03*
X147265000Y-72460000D03*
X147265000Y-73730000D03*
X147265000Y-75000000D03*
X147265000Y-76270000D03*
X147265000Y-77540000D03*
X147265000Y-78810000D03*
X147265000Y-80080000D03*
X147265000Y-81350000D03*
D64*
X149030000Y-82600000D03*
X150300000Y-82600000D03*
X151570000Y-82600000D03*
X152840000Y-82600000D03*
X154110000Y-82600000D03*
X155380000Y-82600000D03*
X156650000Y-82600000D03*
X157920000Y-82600000D03*
X159190000Y-82600000D03*
X160460000Y-82600000D03*
X161730000Y-82600000D03*
X163000000Y-82600000D03*
D63*
X164765000Y-81350000D03*
X164765000Y-80080000D03*
X164765000Y-78810000D03*
X164765000Y-77540000D03*
X164765000Y-76270000D03*
X164765000Y-75000000D03*
X164765000Y-73730000D03*
X164765000Y-72460000D03*
X164765000Y-71190000D03*
X164765000Y-69920000D03*
X164765000Y-68650000D03*
X164765000Y-67380000D03*
X164765000Y-66110000D03*
X164765000Y-64840000D03*
D46*
X153115000Y-71860000D03*
X153115000Y-73260000D03*
X153815000Y-71160000D03*
X153815000Y-72560000D03*
X153815000Y-73960000D03*
X154515000Y-71860000D03*
D65*
X154515000Y-72560000D03*
D46*
X154515000Y-73260000D03*
X155215000Y-71160000D03*
X155215000Y-72560000D03*
X155215000Y-73960000D03*
X155915000Y-71860000D03*
X155915000Y-73260000D03*
%TD*%
D58*
%TO.C,C17*%
X161300000Y-97600000D03*
X158600000Y-97600000D03*
%TD*%
D38*
%TO.C,C10*%
X149800000Y-90525000D03*
X148250000Y-90525000D03*
%TD*%
D43*
%TO.C,CIN1*%
X155887500Y-109800000D03*
X162112500Y-109800000D03*
%TD*%
D32*
%TO.C,C13*%
X141775000Y-102775000D03*
X141775000Y-101225000D03*
%TD*%
D21*
%TO.C,C1*%
X135195000Y-89570000D03*
X135195000Y-91120000D03*
%TD*%
D42*
%TO.C,R15*%
X168015000Y-84250000D03*
X168015000Y-85900000D03*
%TD*%
D37*
%TO.C,R12*%
X166600000Y-107400000D03*
X164950000Y-107400000D03*
%TD*%
D38*
%TO.C,C8*%
X145015000Y-73650000D03*
X143465000Y-73650000D03*
%TD*%
D56*
%TO.C,Q2*%
X138600000Y-122550000D03*
X138600000Y-120650000D03*
X136725000Y-121600000D03*
%TD*%
D39*
%TO.C,SW1*%
X135925000Y-101375000D03*
X140025000Y-101375000D03*
X135925000Y-102975000D03*
X140025000Y-102975000D03*
%TD*%
D66*
%TO.C,U3*%
X153400000Y-116050000D03*
X151700000Y-116050000D03*
X150000000Y-116050000D03*
D67*
X150000000Y-125200000D03*
D66*
X148300000Y-116050000D03*
X146600000Y-116050000D03*
%TD*%
D32*
%TO.C,C14*%
X141650000Y-109200000D03*
X141650000Y-107650000D03*
%TD*%
D68*
%TO.C,L1*%
X135200000Y-117010000D03*
X135200000Y-112190000D03*
%TD*%
D69*
%TO.C,MK1*%
X162600000Y-92540000D03*
D70*
X162600000Y-90000000D03*
%TD*%
D60*
%TO.C,J7*%
X169400000Y-101620000D03*
D61*
X169400000Y-104160000D03*
X169400000Y-106700000D03*
X169400000Y-109240000D03*
X169400000Y-111780000D03*
X169400000Y-114320000D03*
X169400000Y-116860000D03*
X169400000Y-119400000D03*
%TD*%
D59*
%TO.C,C9*%
X152250000Y-102925000D03*
X153800000Y-102925000D03*
%TD*%
D26*
%TO.C,H2*%
X170600000Y-126000000D03*
%TD*%
D62*
%TO.C,R4*%
X139615000Y-73650000D03*
X141265000Y-73650000D03*
%TD*%
D56*
%TO.C,Q3*%
X143200000Y-118000000D03*
X143200000Y-116100000D03*
X141325000Y-117050000D03*
%TD*%
D58*
%TO.C,C16*%
X161400000Y-100200000D03*
X158700000Y-100200000D03*
%TD*%
D37*
%TO.C,R8*%
X133400000Y-109600000D03*
X131750000Y-109600000D03*
%TD*%
%TO.C,R7*%
X138775000Y-104775000D03*
X137125000Y-104775000D03*
%TD*%
D25*
%TO.C,R13*%
X156175000Y-101250000D03*
X156175000Y-99600000D03*
%TD*%
D71*
%TO.C,U4*%
X138115000Y-66750000D03*
X138115000Y-69050000D03*
D72*
X144415000Y-69050000D03*
D71*
X138115000Y-71350000D03*
%TD*%
D32*
%TO.C,C6*%
X173415000Y-73200000D03*
X173415000Y-71650000D03*
%TD*%
D26*
%TO.C,H1*%
X170875000Y-67950000D03*
%TD*%
%LPD*%
M02*
