%TF.GenerationSoftware,KiCad,Pcbnew,9.0.0*%
%TF.CreationDate,2025-03-15T13:55:50+00:00*%
%TF.ProjectId,LEDStrip,4c454453-7472-4697-902e-6b696361645f,rev?*%
%TF.SameCoordinates,Original*%
%TF.FileFunction,Soldermask,Top*%
%TF.FilePolarity,Negative*%
%FSLAX46Y46*%
G04 Gerber Fmt 4.6, Leading zero omitted, Abs format (unit mm)*
G04 Created by KiCad (PCBNEW 9.0.0) date 2025-03-15 13:55:50*
%MOMM*%
%LPD*%
G01*
G04 APERTURE LIST*
G04 Aperture macros list*
%AMRoundRect*
0 Rectangle with rounded corners*
0 $1 Rounding radius*
0 $2 $3 $4 $5 $6 $7 $8 $9 X,Y pos of 4 corners*
0 Add a 4 corners polygon primitive as box body*
4,1,4,$2,$3,$4,$5,$6,$7,$8,$9,$2,$3,0*
0 Add four circle primitives for the rounded corners*
1,1,$1+$1,$2,$3*
1,1,$1+$1,$4,$5*
1,1,$1+$1,$6,$7*
1,1,$1+$1,$8,$9*
0 Add four rect primitives between the rounded corners*
20,1,$1+$1,$2,$3,$4,$5,0*
20,1,$1+$1,$4,$5,$6,$7,0*
20,1,$1+$1,$6,$7,$8,$9,0*
20,1,$1+$1,$8,$9,$2,$3,0*%
%AMFreePoly0*
4,1,23,0.550000,-0.750000,0.000000,-0.750000,0.000000,-0.745722,-0.065263,-0.745722,-0.191342,-0.711940,-0.304381,-0.646677,-0.396677,-0.554381,-0.461940,-0.441342,-0.495722,-0.315263,-0.495722,-0.250000,-0.500000,-0.250000,-0.500000,0.250000,-0.495722,0.250000,-0.495722,0.315263,-0.461940,0.441342,-0.396677,0.554381,-0.304381,0.646677,-0.191342,0.711940,-0.065263,0.745722,0.000000,0.745722,
0.000000,0.750000,0.550000,0.750000,0.550000,-0.750000,0.550000,-0.750000,$1*%
%AMFreePoly1*
4,1,23,0.000000,0.745722,0.065263,0.745722,0.191342,0.711940,0.304381,0.646677,0.396677,0.554381,0.461940,0.441342,0.495722,0.315263,0.495722,0.250000,0.500000,0.250000,0.500000,-0.250000,0.495722,-0.250000,0.495722,-0.315263,0.461940,-0.441342,0.396677,-0.554381,0.304381,-0.646677,0.191342,-0.711940,0.065263,-0.745722,0.000000,-0.745722,0.000000,-0.750000,-0.550000,-0.750000,
-0.550000,0.750000,0.000000,0.750000,0.000000,0.745722,0.000000,0.745722,$1*%
G04 Aperture macros list end*
%ADD10RoundRect,0.150000X0.625000X-0.150000X0.625000X0.150000X-0.625000X0.150000X-0.625000X-0.150000X0*%
%ADD11RoundRect,0.250000X0.650000X-0.350000X0.650000X0.350000X-0.650000X0.350000X-0.650000X-0.350000X0*%
%ADD12FreePoly0,90.000000*%
%ADD13R,1.500000X1.000000*%
%ADD14FreePoly1,90.000000*%
%ADD15RoundRect,0.225000X-0.250000X0.225000X-0.250000X-0.225000X0.250000X-0.225000X0.250000X0.225000X0*%
%ADD16R,4.500000X2.000000*%
%ADD17O,4.000000X2.000000*%
%ADD18O,2.000000X4.000000*%
%ADD19RoundRect,0.200000X0.275000X-0.200000X0.275000X0.200000X-0.275000X0.200000X-0.275000X-0.200000X0*%
%ADD20C,5.700000*%
%ADD21RoundRect,0.250000X-0.650000X1.000000X-0.650000X-1.000000X0.650000X-1.000000X0.650000X1.000000X0*%
%ADD22RoundRect,0.250000X-0.450000X-0.425000X0.450000X-0.425000X0.450000X0.425000X-0.450000X0.425000X0*%
%ADD23R,1.600000X1.600000*%
%ADD24O,1.600000X1.600000*%
%ADD25RoundRect,0.150000X-0.200000X0.150000X-0.200000X-0.150000X0.200000X-0.150000X0.200000X0.150000X0*%
%ADD26RoundRect,0.225000X0.250000X-0.225000X0.250000X0.225000X-0.250000X0.225000X-0.250000X-0.225000X0*%
%ADD27RoundRect,0.250000X-0.650000X0.350000X-0.650000X-0.350000X0.650000X-0.350000X0.650000X0.350000X0*%
%ADD28RoundRect,0.150000X-0.625000X0.150000X-0.625000X-0.150000X0.625000X-0.150000X0.625000X0.150000X0*%
%ADD29RoundRect,0.150000X0.200000X-0.150000X0.200000X0.150000X-0.200000X0.150000X-0.200000X-0.150000X0*%
%ADD30RoundRect,0.218750X0.218750X0.256250X-0.218750X0.256250X-0.218750X-0.256250X0.218750X-0.256250X0*%
%ADD31RoundRect,0.200000X0.200000X0.275000X-0.200000X0.275000X-0.200000X-0.275000X0.200000X-0.275000X0*%
%ADD32RoundRect,0.225000X0.225000X0.250000X-0.225000X0.250000X-0.225000X-0.250000X0.225000X-0.250000X0*%
%ADD33R,0.900000X1.000000*%
%ADD34R,0.250000X0.700000*%
%ADD35R,2.350000X1.780000*%
%ADD36RoundRect,0.200000X-0.275000X0.200000X-0.275000X-0.200000X0.275000X-0.200000X0.275000X0.200000X0*%
%ADD37RoundRect,0.250000X-0.787500X-1.875000X0.787500X-1.875000X0.787500X1.875000X-0.787500X1.875000X0*%
%ADD38FreePoly0,270.000000*%
%ADD39FreePoly1,270.000000*%
%ADD40R,1.160000X0.600000*%
%ADD41R,1.160000X0.300000*%
%ADD42O,2.000000X0.900000*%
%ADD43O,1.700000X0.900000*%
%ADD44RoundRect,0.250000X-0.425000X0.450000X-0.425000X-0.450000X0.425000X-0.450000X0.425000X0.450000X0*%
%ADD45RoundRect,0.150000X-0.150000X-0.625000X0.150000X-0.625000X0.150000X0.625000X-0.150000X0.625000X0*%
%ADD46RoundRect,0.250000X-0.350000X-0.650000X0.350000X-0.650000X0.350000X0.650000X-0.350000X0.650000X0*%
%ADD47RoundRect,0.250000X0.725000X-0.600000X0.725000X0.600000X-0.725000X0.600000X-0.725000X-0.600000X0*%
%ADD48O,1.950000X1.700000*%
%ADD49RoundRect,0.150000X0.587500X0.150000X-0.587500X0.150000X-0.587500X-0.150000X0.587500X-0.150000X0*%
%ADD50RoundRect,0.225000X-0.375000X0.225000X-0.375000X-0.225000X0.375000X-0.225000X0.375000X0.225000X0*%
%ADD51RoundRect,0.250000X0.450000X0.425000X-0.450000X0.425000X-0.450000X-0.425000X0.450000X-0.425000X0*%
%ADD52RoundRect,0.225000X-0.225000X-0.250000X0.225000X-0.250000X0.225000X0.250000X-0.225000X0.250000X0*%
%ADD53R,1.700000X1.700000*%
%ADD54O,1.700000X1.700000*%
%ADD55RoundRect,0.200000X-0.200000X-0.275000X0.200000X-0.275000X0.200000X0.275000X-0.200000X0.275000X0*%
%ADD56R,1.500000X0.900000*%
%ADD57R,0.900000X1.500000*%
%ADD58C,0.600000*%
%ADD59R,3.900000X3.900000*%
%ADD60RoundRect,0.250000X-0.300000X2.050000X-0.300000X-2.050000X0.300000X-2.050000X0.300000X2.050000X0*%
%ADD61RoundRect,0.250002X-5.149998X4.449998X-5.149998X-4.449998X5.149998X-4.449998X5.149998X4.449998X0*%
%ADD62R,6.500000X1.920000*%
%ADD63RoundRect,0.102000X-0.689000X-0.689000X0.689000X-0.689000X0.689000X0.689000X-0.689000X0.689000X0*%
%ADD64C,1.582000*%
%ADD65RoundRect,0.375000X-0.625000X-0.375000X0.625000X-0.375000X0.625000X0.375000X-0.625000X0.375000X0*%
%ADD66RoundRect,0.500000X-0.500000X-1.400000X0.500000X-1.400000X0.500000X1.400000X-0.500000X1.400000X0*%
G04 APERTURE END LIST*
D10*
%TO.C,J4*%
X168925000Y-95300000D03*
X168925000Y-94300000D03*
X168925000Y-93300000D03*
X168925000Y-92300000D03*
X168925000Y-91300000D03*
D11*
X172800000Y-96600000D03*
X172800000Y-90000000D03*
%TD*%
D12*
%TO.C,JP2*%
X173000000Y-101700000D03*
D13*
X173000000Y-100400000D03*
D14*
X173000000Y-99100000D03*
%TD*%
D15*
%TO.C,C5*%
X135865000Y-66300000D03*
X135865000Y-67850000D03*
%TD*%
D16*
%TO.C,J5*%
X161200000Y-115950000D03*
D17*
X161200000Y-122150000D03*
D18*
X165900000Y-119150000D03*
%TD*%
D19*
%TO.C,R14*%
X172400000Y-111600000D03*
X172400000Y-109950000D03*
%TD*%
D20*
%TO.C,H3*%
X128600000Y-67950000D03*
%TD*%
D21*
%TO.C,D3*%
X134000000Y-124800000D03*
X134000000Y-128800000D03*
%TD*%
D22*
%TO.C,C15*%
X158400000Y-103800000D03*
X161100000Y-103800000D03*
%TD*%
D12*
%TO.C,JP1*%
X172600000Y-116900000D03*
D13*
X172600000Y-115600000D03*
D14*
X172600000Y-114300000D03*
%TD*%
D23*
%TO.C,U1*%
X153000000Y-92925000D03*
D24*
X150460000Y-92925000D03*
X147920000Y-92925000D03*
X145380000Y-92925000D03*
X145380000Y-100545000D03*
X147920000Y-100545000D03*
X150460000Y-100545000D03*
X153000000Y-100545000D03*
%TD*%
D25*
%TO.C,D5*%
X136760000Y-90850000D03*
X136760000Y-89450000D03*
%TD*%
D26*
%TO.C,C3*%
X135865000Y-71450000D03*
X135865000Y-69900000D03*
%TD*%
D27*
%TO.C,SW3*%
X172815000Y-75100000D03*
X172815000Y-83700000D03*
D28*
X170290000Y-82400000D03*
X170290000Y-76400000D03*
X170290000Y-77400000D03*
X170290000Y-81400000D03*
X170290000Y-78400000D03*
X170290000Y-79400000D03*
X170290000Y-80400000D03*
%TD*%
D19*
%TO.C,R2*%
X140000000Y-85225000D03*
X140000000Y-83575000D03*
%TD*%
D29*
%TO.C,D4*%
X136960000Y-83650000D03*
X136960000Y-85050000D03*
%TD*%
D30*
%TO.C,D6*%
X142665000Y-64450000D03*
X141090000Y-64450000D03*
%TD*%
D31*
%TO.C,R5*%
X154000000Y-90325000D03*
X152350000Y-90325000D03*
%TD*%
D32*
%TO.C,C7*%
X171565000Y-73050000D03*
X170015000Y-73050000D03*
%TD*%
D33*
%TO.C,SW2*%
X135950000Y-107800000D03*
X140050000Y-107800000D03*
X135950000Y-109400000D03*
X140050000Y-109400000D03*
%TD*%
D26*
%TO.C,C2*%
X133665000Y-71425000D03*
X133665000Y-69875000D03*
%TD*%
D34*
%TO.C,U6*%
X163387500Y-101525000D03*
X163787500Y-101525000D03*
X164187500Y-101525000D03*
X164587500Y-101525000D03*
X164987500Y-101525000D03*
X165387500Y-101525000D03*
X165787500Y-101525000D03*
X165787500Y-98575000D03*
X165387500Y-98575000D03*
X164987500Y-98575000D03*
X164587500Y-98575000D03*
X164187500Y-98575000D03*
X163787500Y-98575000D03*
X163387500Y-98575000D03*
D35*
X164587500Y-100050000D03*
%TD*%
D19*
%TO.C,R1*%
X135160000Y-85250000D03*
X135160000Y-83600000D03*
%TD*%
D36*
%TO.C,R11*%
X168015000Y-77850000D03*
X168015000Y-79500000D03*
%TD*%
D37*
%TO.C,CIN2*%
X146775000Y-109000000D03*
X153000000Y-109000000D03*
%TD*%
D29*
%TO.C,D2*%
X136960000Y-86650000D03*
X136960000Y-88050000D03*
%TD*%
D38*
%TO.C,JP3*%
X166000000Y-109600000D03*
D13*
X166000000Y-110900000D03*
D39*
X166000000Y-112200000D03*
%TD*%
D22*
%TO.C,COUT1*%
X140800000Y-111800000D03*
X143500000Y-111800000D03*
%TD*%
D15*
%TO.C,C4*%
X133865000Y-66325000D03*
X133865000Y-67875000D03*
%TD*%
D40*
%TO.C,J1*%
X132980000Y-84970000D03*
X132980000Y-85770000D03*
D41*
X132980000Y-86920000D03*
X132980000Y-87920000D03*
X132980000Y-88420000D03*
X132980000Y-89420000D03*
D40*
X132980000Y-90570000D03*
X132980000Y-91370000D03*
X132980000Y-91370000D03*
X132980000Y-90570000D03*
D41*
X132980000Y-89920000D03*
X132980000Y-88920000D03*
X132980000Y-87420000D03*
X132980000Y-86420000D03*
D40*
X132980000Y-85770000D03*
X132980000Y-84970000D03*
D42*
X132400000Y-83850000D03*
D43*
X128230000Y-83850000D03*
D42*
X132400000Y-92490000D03*
D43*
X128230000Y-92490000D03*
%TD*%
D44*
%TO.C,C18*%
X172400000Y-104600000D03*
X172400000Y-107300000D03*
%TD*%
D45*
%TO.C,J2*%
X138300000Y-124925000D03*
X139300000Y-124925000D03*
X140300000Y-124925000D03*
X141300000Y-124925000D03*
D46*
X137000000Y-128800000D03*
X142600000Y-128800000D03*
%TD*%
D47*
%TO.C,J3*%
X132400000Y-104350000D03*
D48*
X132400000Y-101850000D03*
X132400000Y-99350000D03*
X132400000Y-96850000D03*
%TD*%
D20*
%TO.C,H4*%
X128875000Y-126000000D03*
%TD*%
D32*
%TO.C,C11*%
X146200000Y-102925000D03*
X144650000Y-102925000D03*
%TD*%
D49*
%TO.C,Q1*%
X142600000Y-122550000D03*
X142600000Y-120650000D03*
X140725000Y-121600000D03*
%TD*%
D50*
%TO.C,D1*%
X138760000Y-89600000D03*
X138760000Y-92900000D03*
%TD*%
D51*
%TO.C,C19*%
X165800000Y-104400000D03*
X163100000Y-104400000D03*
%TD*%
D52*
%TO.C,C12*%
X148450000Y-102925000D03*
X150000000Y-102925000D03*
%TD*%
D53*
%TO.C,J6*%
X128800000Y-110460000D03*
D54*
X128800000Y-113000000D03*
X128800000Y-115540000D03*
X128800000Y-118080000D03*
%TD*%
D55*
%TO.C,R6*%
X144550000Y-90525000D03*
X146200000Y-90525000D03*
%TD*%
D36*
%TO.C,R16*%
X168015000Y-74650000D03*
X168015000Y-76300000D03*
%TD*%
D55*
%TO.C,R3*%
X137640000Y-64450000D03*
X139290000Y-64450000D03*
%TD*%
D36*
%TO.C,R10*%
X168015000Y-81000000D03*
X168015000Y-82650000D03*
%TD*%
D56*
%TO.C,U2*%
X147265000Y-64840000D03*
X147265000Y-66110000D03*
X147265000Y-67380000D03*
X147265000Y-68650000D03*
X147265000Y-69920000D03*
X147265000Y-71190000D03*
X147265000Y-72460000D03*
X147265000Y-73730000D03*
X147265000Y-75000000D03*
X147265000Y-76270000D03*
X147265000Y-77540000D03*
X147265000Y-78810000D03*
X147265000Y-80080000D03*
X147265000Y-81350000D03*
D57*
X149030000Y-82600000D03*
X150300000Y-82600000D03*
X151570000Y-82600000D03*
X152840000Y-82600000D03*
X154110000Y-82600000D03*
X155380000Y-82600000D03*
X156650000Y-82600000D03*
X157920000Y-82600000D03*
X159190000Y-82600000D03*
X160460000Y-82600000D03*
X161730000Y-82600000D03*
X163000000Y-82600000D03*
D56*
X164765000Y-81350000D03*
X164765000Y-80080000D03*
X164765000Y-78810000D03*
X164765000Y-77540000D03*
X164765000Y-76270000D03*
X164765000Y-75000000D03*
X164765000Y-73730000D03*
X164765000Y-72460000D03*
X164765000Y-71190000D03*
X164765000Y-69920000D03*
X164765000Y-68650000D03*
X164765000Y-67380000D03*
X164765000Y-66110000D03*
X164765000Y-64840000D03*
D58*
X153115000Y-71860000D03*
X153115000Y-73260000D03*
X153815000Y-71160000D03*
X153815000Y-72560000D03*
X153815000Y-73960000D03*
X154515000Y-71860000D03*
D59*
X154515000Y-72560000D03*
D58*
X154515000Y-73260000D03*
X155215000Y-71160000D03*
X155215000Y-72560000D03*
X155215000Y-73960000D03*
X155915000Y-71860000D03*
X155915000Y-73260000D03*
%TD*%
D51*
%TO.C,C17*%
X161300000Y-97600000D03*
X158600000Y-97600000D03*
%TD*%
D32*
%TO.C,C10*%
X149800000Y-90525000D03*
X148250000Y-90525000D03*
%TD*%
D37*
%TO.C,CIN1*%
X155887500Y-109800000D03*
X162112500Y-109800000D03*
%TD*%
D26*
%TO.C,C13*%
X141775000Y-102775000D03*
X141775000Y-101225000D03*
%TD*%
D15*
%TO.C,C1*%
X135195000Y-89570000D03*
X135195000Y-91120000D03*
%TD*%
D36*
%TO.C,R15*%
X168015000Y-84250000D03*
X168015000Y-85900000D03*
%TD*%
D31*
%TO.C,R12*%
X166600000Y-107400000D03*
X164950000Y-107400000D03*
%TD*%
D32*
%TO.C,C8*%
X145015000Y-73650000D03*
X143465000Y-73650000D03*
%TD*%
D49*
%TO.C,Q2*%
X138600000Y-122550000D03*
X138600000Y-120650000D03*
X136725000Y-121600000D03*
%TD*%
D33*
%TO.C,SW1*%
X135925000Y-101375000D03*
X140025000Y-101375000D03*
X135925000Y-102975000D03*
X140025000Y-102975000D03*
%TD*%
D60*
%TO.C,U3*%
X153400000Y-116050000D03*
X151700000Y-116050000D03*
X150000000Y-116050000D03*
D61*
X150000000Y-125200000D03*
D60*
X148300000Y-116050000D03*
X146600000Y-116050000D03*
%TD*%
D26*
%TO.C,C14*%
X141650000Y-109200000D03*
X141650000Y-107650000D03*
%TD*%
D62*
%TO.C,L1*%
X135200000Y-117010000D03*
X135200000Y-112190000D03*
%TD*%
D63*
%TO.C,MK1*%
X162600000Y-92540000D03*
D64*
X162600000Y-90000000D03*
%TD*%
D53*
%TO.C,J7*%
X169400000Y-101620000D03*
D54*
X169400000Y-104160000D03*
X169400000Y-106700000D03*
X169400000Y-109240000D03*
X169400000Y-111780000D03*
X169400000Y-114320000D03*
X169400000Y-116860000D03*
X169400000Y-119400000D03*
%TD*%
D52*
%TO.C,C9*%
X152250000Y-102925000D03*
X153800000Y-102925000D03*
%TD*%
D20*
%TO.C,H2*%
X170600000Y-126000000D03*
%TD*%
D55*
%TO.C,R4*%
X139615000Y-73650000D03*
X141265000Y-73650000D03*
%TD*%
D49*
%TO.C,Q3*%
X143200000Y-118000000D03*
X143200000Y-116100000D03*
X141325000Y-117050000D03*
%TD*%
D51*
%TO.C,C16*%
X161400000Y-100200000D03*
X158700000Y-100200000D03*
%TD*%
D31*
%TO.C,R8*%
X133400000Y-109600000D03*
X131750000Y-109600000D03*
%TD*%
%TO.C,R7*%
X138775000Y-104775000D03*
X137125000Y-104775000D03*
%TD*%
D19*
%TO.C,R13*%
X156175000Y-101250000D03*
X156175000Y-99600000D03*
%TD*%
D65*
%TO.C,U4*%
X138115000Y-66750000D03*
X138115000Y-69050000D03*
D66*
X144415000Y-69050000D03*
D65*
X138115000Y-71350000D03*
%TD*%
D26*
%TO.C,C6*%
X173415000Y-73200000D03*
X173415000Y-71650000D03*
%TD*%
D20*
%TO.C,H1*%
X170875000Y-67950000D03*
%TD*%
M02*
