M48
; DRILL file {KiCad 9.0.0} date 2025-03-15T13:55:50+0000
; FORMAT={-:-/ absolute / inch / decimal}
; #@! TF.CreationDate,2025-03-15T13:55:50+00:00
; #@! TF.GenerationSoftware,Kicad,Pcbnew,9.0.0
; #@! TF.FileFunction,Plated,1,2,PTH
FMAT,2
INCH
; #@! TA.AperFunction,Plated,PTH,ComponentDrill
T1C0.0079
; #@! TA.AperFunction,Plated,PTH,ViaDrill
T2C0.0118
; #@! TA.AperFunction,Plated,PTH,ComponentDrill
T3C0.0236
; #@! TA.AperFunction,Plated,PTH,ComponentDrill
T4C0.0315
; #@! TA.AperFunction,Plated,PTH,ComponentDrill
T5C0.0343
; #@! TA.AperFunction,Plated,PTH,ComponentDrill
T6C0.0374
; #@! TA.AperFunction,Plated,PTH,ComponentDrill
T7C0.0394
; #@! TA.AperFunction,Plated,PTH,ComponentDrill
T8C0.1260
%
G90
G05
T1
X6.0281Y-2.8291
X6.0281Y-2.8843
X6.0557Y-2.8016
X6.0557Y-2.8567
X6.0557Y-2.9118
X6.0833Y-2.8291
X6.0833Y-2.8843
X6.1108Y-2.8016
X6.1108Y-2.8567
X6.1108Y-2.9118
X6.1384Y-2.8291
X6.1384Y-2.8843
T2
X5.2598Y-2.8661
X5.2819Y-3.5374
X5.2819Y-3.5689
X5.315Y-3.7441
X5.3937Y-4.8561
X5.4Y-3.624
X5.4409Y-3.3228
X5.4472Y-3.4665
X5.4567Y-4.7087
X5.4724Y-3.4094
X5.4724Y-4.2441
X5.5039Y-3.4567
X5.5276Y-4.1732
X5.5669Y-4.4567
X5.6142Y-3.378
X5.622Y-3.0
X5.622Y-4.7087
X5.6693Y-4.2756
X5.6772Y-3.4331
X5.6929Y-4.5846
X5.7402Y-3.1575
X5.7795Y-3.3228
X5.8189Y-4.4567
X5.8504Y-2.5591
X5.8583Y-2.7795
X5.8819Y-4.189
X5.8898Y-3.3465
X5.9291Y-3.4016
X5.9528Y-2.6535
X5.9551Y-3.8855
X5.9803Y-2.5659
X6.0394Y-2.5433
X6.0437Y-3.378
X6.1339Y-3.8268
X6.1417Y-3.0315
X6.2362Y-4.0315
X6.2598Y-3.748
X6.3465Y-3.3228
X6.3543Y-3.5906
X6.3858Y-4.1811
X6.4016Y-4.0
X6.4094Y-3.8268
X6.4173Y-2.8583
X6.4252Y-2.6772
X6.4365Y-4.0393
X6.4734Y-4.3474
X6.4803Y-3.4331
X6.4845Y-3.814
X6.4934Y-3.7195
X6.5039Y-3.3937
X6.5197Y-4.0394
X6.5217Y-3.8266
X6.5354Y-3.4724
X6.5433Y-3.8504
X6.5433Y-4.1839
X6.5531Y-4.0472
X6.5591Y-2.6378
X6.5669Y-3.2598
X6.5748Y-3.1417
X6.5827Y-3.6299
X6.6142Y-3.4252
X6.6384Y-3.0965
X6.662Y-3.1909
X6.685Y-2.937
X6.7087Y-3.9134
X6.7373Y-3.872
X6.748Y-4.6457
X6.7717Y-4.4331
X6.7874Y-4.1732
T4
X5.7236Y-3.6585
X5.7236Y-3.9585
X5.8236Y-3.6585
X5.8236Y-3.9585
X5.9236Y-3.6585
X5.9236Y-3.9585
X6.0236Y-3.6585
X6.0236Y-3.9585
T5
X6.4016Y-3.5433
X6.4016Y-3.6433
T6
X5.2126Y-3.813
X5.2126Y-3.9114
X5.2126Y-4.0098
X5.2126Y-4.1083
T7
X5.0709Y-4.3488
X5.0709Y-4.4488
X5.0709Y-4.5488
X5.0709Y-4.6488
X6.6693Y-4.0008
X6.6693Y-4.1008
X6.6693Y-4.2008
X6.6693Y-4.3008
X6.6693Y-4.4008
X6.6693Y-4.5008
X6.6693Y-4.6008
X6.6693Y-4.7008
T8
X5.063Y-2.6752
X5.0738Y-4.9606
X6.7165Y-4.9606
X6.7274Y-2.6752
T3
G00X5.0327Y-3.3012
M15
G01X5.0642Y-3.3012
M16
G05
G00X5.0327Y-3.6413
M15
G01X5.0642Y-3.6413
M16
G05
G00X5.1909Y-3.3012
M15
G01X5.2343Y-3.3012
M16
G05
G00X5.1909Y-3.6413
M15
G01X5.2343Y-3.6413
M16
G05
T7
G00X6.2972Y-4.565
M15
G01X6.3957Y-4.565
M16
G05
G00X6.3071Y-4.8091
M15
G01X6.3858Y-4.8091
M16
G05
G00X6.5315Y-4.7303
M15
G01X6.5315Y-4.6516
M16
G05
M30
