%TF.GenerationSoftware,KiCad,Pcbnew,8.0.3*%
%TF.CreationDate,2024-07-09T19:18:37+01:00*%
%TF.ProjectId,LEDStrip,4c454453-7472-4697-902e-6b696361645f,rev?*%
%TF.SameCoordinates,Original*%
%TF.FileFunction,Copper,L2,Bot*%
%TF.FilePolarity,Positive*%
%FSLAX46Y46*%
G04 Gerber Fmt 4.6, Leading zero omitted, Abs format (unit mm)*
G04 Created by KiCad (PCBNEW 8.0.3) date 2024-07-09 19:18:37*
%MOMM*%
%LPD*%
G01*
G04 APERTURE LIST*
G04 Aperture macros list*
%AMRoundRect*
0 Rectangle with rounded corners*
0 $1 Rounding radius*
0 $2 $3 $4 $5 $6 $7 $8 $9 X,Y pos of 4 corners*
0 Add a 4 corners polygon primitive as box body*
4,1,4,$2,$3,$4,$5,$6,$7,$8,$9,$2,$3,0*
0 Add four circle primitives for the rounded corners*
1,1,$1+$1,$2,$3*
1,1,$1+$1,$4,$5*
1,1,$1+$1,$6,$7*
1,1,$1+$1,$8,$9*
0 Add four rect primitives between the rounded corners*
20,1,$1+$1,$2,$3,$4,$5,0*
20,1,$1+$1,$4,$5,$6,$7,0*
20,1,$1+$1,$6,$7,$8,$9,0*
20,1,$1+$1,$8,$9,$2,$3,0*%
G04 Aperture macros list end*
%TA.AperFunction,ComponentPad*%
%ADD10R,4.500000X2.000000*%
%TD*%
%TA.AperFunction,ComponentPad*%
%ADD11O,4.000000X2.000000*%
%TD*%
%TA.AperFunction,ComponentPad*%
%ADD12O,2.000000X4.000000*%
%TD*%
%TA.AperFunction,ComponentPad*%
%ADD13C,5.700000*%
%TD*%
%TA.AperFunction,ComponentPad*%
%ADD14R,1.600000X1.600000*%
%TD*%
%TA.AperFunction,ComponentPad*%
%ADD15O,1.600000X1.600000*%
%TD*%
%TA.AperFunction,ComponentPad*%
%ADD16O,2.000000X0.900000*%
%TD*%
%TA.AperFunction,ComponentPad*%
%ADD17O,1.700000X0.900000*%
%TD*%
%TA.AperFunction,ComponentPad*%
%ADD18RoundRect,0.250000X0.725000X-0.600000X0.725000X0.600000X-0.725000X0.600000X-0.725000X-0.600000X0*%
%TD*%
%TA.AperFunction,ComponentPad*%
%ADD19O,1.950000X1.700000*%
%TD*%
%TA.AperFunction,ComponentPad*%
%ADD20R,1.700000X1.700000*%
%TD*%
%TA.AperFunction,ComponentPad*%
%ADD21O,1.700000X1.700000*%
%TD*%
%TA.AperFunction,HeatsinkPad*%
%ADD22C,0.600000*%
%TD*%
%TA.AperFunction,ComponentPad*%
%ADD23R,1.378000X1.378000*%
%TD*%
%TA.AperFunction,ComponentPad*%
%ADD24C,1.378000*%
%TD*%
%TA.AperFunction,ViaPad*%
%ADD25C,0.600000*%
%TD*%
%TA.AperFunction,Conductor*%
%ADD26C,0.200000*%
%TD*%
%TA.AperFunction,Conductor*%
%ADD27C,0.150000*%
%TD*%
%TA.AperFunction,Conductor*%
%ADD28C,2.000000*%
%TD*%
%TA.AperFunction,Conductor*%
%ADD29C,1.000000*%
%TD*%
G04 APERTURE END LIST*
D10*
%TO.P,J5,1*%
%TO.N,VCC_12V*%
X161200000Y-115950000D03*
D11*
%TO.P,J5,2*%
%TO.N,unconnected-(J5-Pad2)*%
X161200000Y-122150000D03*
D12*
%TO.P,J5,3*%
%TO.N,GND*%
X165900000Y-119150000D03*
%TD*%
D13*
%TO.P,H3,1,1*%
%TO.N,GND*%
X128600000Y-67950000D03*
%TD*%
D14*
%TO.P,U1,1,VDD*%
%TO.N,VDD_EQ*%
X153000000Y-92925000D03*
D15*
%TO.P,U1,2,VSS*%
%TO.N,GND*%
X150460000Y-92925000D03*
%TO.P,U1,3,OUT*%
%TO.N,EQ_DATA*%
X147920000Y-92925000D03*
%TO.P,U1,4,STROBE*%
%TO.N,EQ_STROBE*%
X145380000Y-92925000D03*
%TO.P,U1,5,IN*%
%TO.N,Net-(U1-IN)*%
X145380000Y-100545000D03*
%TO.P,U1,6,GND*%
%TO.N,Net-(U1-GND)*%
X147920000Y-100545000D03*
%TO.P,U1,7,RESET*%
%TO.N,EQ_RESET*%
X150460000Y-100545000D03*
%TO.P,U1,8,CKIN*%
%TO.N,Net-(U1-CKIN)*%
X153000000Y-100545000D03*
%TD*%
D16*
%TO.P,J1,S1,SHIELD*%
%TO.N,GND*%
X132400000Y-83850000D03*
D17*
X128230000Y-83850000D03*
D16*
X132400000Y-92490000D03*
D17*
X128230000Y-92490000D03*
%TD*%
D18*
%TO.P,J3,1,Pin_1*%
%TO.N,VCC_12V*%
X132400000Y-104350000D03*
D19*
%TO.P,J3,2,Pin_2*%
%TO.N,LED_ADDR*%
X132400000Y-101850000D03*
%TO.P,J3,3,Pin_3*%
%TO.N,GND*%
X132400000Y-99350000D03*
%TO.P,J3,4,Pin_4*%
X132400000Y-96850000D03*
%TD*%
D13*
%TO.P,H4,1,1*%
%TO.N,GND*%
X128875000Y-126000000D03*
%TD*%
D20*
%TO.P,J6,1,Pin_1*%
%TO.N,DISP_SDA*%
X128800000Y-110460000D03*
D21*
%TO.P,J6,2,Pin_2*%
%TO.N,DISP_SCL*%
X128800000Y-113000000D03*
%TO.P,J6,3,Pin_3*%
%TO.N,ESP_3V3*%
X128800000Y-115540000D03*
%TO.P,J6,4,Pin_4*%
%TO.N,GND*%
X128800000Y-118080000D03*
%TD*%
D22*
%TO.P,U2,41,GND*%
%TO.N,GND*%
X153115000Y-71860000D03*
X153115000Y-73260000D03*
X153815000Y-71160000D03*
X153815000Y-72560000D03*
X153815000Y-73960000D03*
X154515000Y-71860000D03*
X154515000Y-73260000D03*
X155215000Y-71160000D03*
X155215000Y-72560000D03*
X155215000Y-73960000D03*
X155915000Y-71860000D03*
X155915000Y-73260000D03*
%TD*%
D23*
%TO.P,MK1,1*%
%TO.N,Net-(C18-Pad2)*%
X162600000Y-92540000D03*
D24*
%TO.P,MK1,2*%
%TO.N,<NO NET>*%
X162600000Y-90000000D03*
%TD*%
D20*
%TO.P,J7,1,Pin_1*%
%TO.N,Net-(J7-Pin_1)*%
X169400000Y-101620000D03*
D21*
%TO.P,J7,2,Pin_2*%
%TO.N,TFT_CS*%
X169400000Y-104160000D03*
%TO.P,J7,3,Pin_3*%
%TO.N,TFT_DC*%
X169400000Y-106700000D03*
%TO.P,J7,4,Pin_4*%
%TO.N,TFT_RST*%
X169400000Y-109240000D03*
%TO.P,J7,5,Pin_5*%
%TO.N,TFT_MOSI*%
X169400000Y-111780000D03*
%TO.P,J7,6,Pin_6*%
%TO.N,TFT_SCLK*%
X169400000Y-114320000D03*
%TO.P,J7,7,Pin_7*%
%TO.N,ESP_3V3*%
X169400000Y-116860000D03*
%TO.P,J7,8,Pin_8*%
%TO.N,GND*%
X169400000Y-119400000D03*
%TD*%
D13*
%TO.P,H2,1,1*%
%TO.N,GND*%
X170600000Y-126000000D03*
%TD*%
%TO.P,H1,1,1*%
%TO.N,GND*%
X170875000Y-67950000D03*
%TD*%
D25*
%TO.N,ESP_3V3*%
X163486893Y-102598892D03*
X169800000Y-74600000D03*
X170400000Y-99400000D03*
X153400000Y-64600000D03*
X166450000Y-102800000D03*
%TO.N,CHIP_PU*%
X135000000Y-95100000D03*
X142800000Y-76200000D03*
%TO.N,GPIO0*%
X144000000Y-108600000D03*
X164600000Y-87200000D03*
%TO.N,Net-(U6-CT)*%
X162600000Y-101600000D03*
X158400000Y-102400000D03*
%TO.N,Net-(U6-MICIN)*%
X172400000Y-106000000D03*
X166200000Y-97800000D03*
%TO.N,MAT_CS*%
X161200000Y-84400000D03*
X165200000Y-86200000D03*
%TO.N,TFT_MOSI*%
X153510000Y-85800000D03*
%TO.N,Net-(J1-CC2)*%
X139000000Y-86600000D03*
X134160000Y-89850000D03*
%TO.N,<NO NET>*%
X140400000Y-106000000D03*
X171400000Y-118000000D03*
X172000000Y-112600000D03*
X159000000Y-95200000D03*
X139000000Y-107800000D03*
X161400000Y-91200000D03*
%TO.N,VCC_5V*%
X133600000Y-72800000D03*
X147800000Y-113200000D03*
X139800000Y-87800000D03*
X166000000Y-88200000D03*
X141400000Y-113200000D03*
%TO.N,RGB_R*%
X166800000Y-82800000D03*
X142800000Y-119600000D03*
%TO.N,Net-(D1-A)*%
X134160000Y-90650000D03*
X138360000Y-88050000D03*
X137160000Y-92050000D03*
%TO.N,D-*%
X138200000Y-84400000D03*
X145800000Y-80200000D03*
%TO.N,D+*%
X146800000Y-84400000D03*
X142600000Y-85800000D03*
%TO.N,RGB_G*%
X167000000Y-79800000D03*
X138600000Y-119600000D03*
%TO.N,RGB_B*%
X168000000Y-87000000D03*
X144600000Y-116450000D03*
%TO.N,GAIN*%
X171127818Y-98350000D03*
X164706587Y-96875000D03*
%TO.N,EQ_DATA*%
X156000000Y-77000000D03*
%TO.N,EQ_STROBE*%
X150600000Y-86400000D03*
X163200000Y-68000000D03*
%TO.N,EQ_RESET*%
X148800000Y-70600000D03*
X149600000Y-85000000D03*
%TO.N,AR*%
X164424265Y-110424265D03*
X165649941Y-97195529D03*
%TO.N,AUDIO*%
X151259396Y-98692074D03*
X165600000Y-102600000D03*
%TO.N,LED_ADDR*%
X144200000Y-87200000D03*
X163000000Y-72600000D03*
%TO.N,CMD_BTN*%
X166600000Y-67000000D03*
X151900000Y-65175000D03*
%TO.N,Net-(U6-TH)*%
X162200000Y-106200000D03*
X166200773Y-106270459D03*
%TO.N,Net-(U6-MICBIAS)*%
X164932559Y-94475000D03*
X155800000Y-97200000D03*
X162800000Y-97200000D03*
%TO.N,VCC_12V*%
X137000000Y-123345534D03*
X149400000Y-106400000D03*
%TO.N,Net-(R11-Pad1)*%
X168615000Y-78650000D03*
X169215000Y-81050000D03*
%TO.N,GND*%
X151200000Y-67400000D03*
X148600000Y-65000000D03*
X167200000Y-92200000D03*
%TD*%
D26*
%TO.N,ESP_3V3*%
X128800000Y-115540000D02*
X126600000Y-113340000D01*
X149463529Y-64250000D02*
X151013529Y-65800000D01*
D27*
X166075000Y-103175000D02*
X166450000Y-102800000D01*
X163486893Y-102598892D02*
X164063001Y-103175000D01*
D26*
X126600000Y-113340000D02*
X126600000Y-78951471D01*
X171300000Y-100300000D02*
X171300000Y-114960000D01*
X141301471Y-64250000D02*
X149463529Y-64250000D01*
X171300000Y-114960000D02*
X169400000Y-116860000D01*
D27*
X164063001Y-103175000D02*
X166075000Y-103175000D01*
X162200000Y-64600000D02*
X153400000Y-64600000D01*
D26*
X151013529Y-65800000D02*
X152200000Y-65800000D01*
X126600000Y-78951471D02*
X141301471Y-64250000D01*
X170400000Y-99400000D02*
X171300000Y-100300000D01*
D27*
X169800000Y-72200000D02*
X162200000Y-64600000D01*
X169800000Y-74600000D02*
X169800000Y-72200000D01*
D26*
X152200000Y-65800000D02*
X153400000Y-64600000D01*
%TO.N,CHIP_PU*%
X130200000Y-79400000D02*
X133400000Y-76200000D01*
X130200000Y-93334314D02*
X130200000Y-79400000D01*
X135000000Y-95100000D02*
X131965686Y-95100000D01*
X131965686Y-95100000D02*
X130200000Y-93334314D01*
X133400000Y-76200000D02*
X142800000Y-76200000D01*
%TO.N,GPIO0*%
X162400000Y-87200000D02*
X160200000Y-85000000D01*
X153461471Y-85000000D02*
X152400000Y-86061471D01*
X150000000Y-108600000D02*
X144000000Y-108600000D01*
X149200000Y-96000000D02*
X149200000Y-100840635D01*
X149200000Y-100840635D02*
X151600000Y-103240635D01*
X151800000Y-93400000D02*
X149200000Y-96000000D01*
X151600000Y-103240635D02*
X151600000Y-107000000D01*
X151800000Y-91925000D02*
X151800000Y-93400000D01*
X152400000Y-91325000D02*
X151800000Y-91925000D01*
X160200000Y-85000000D02*
X153461471Y-85000000D01*
X164600000Y-87200000D02*
X162400000Y-87200000D01*
X152400000Y-86061471D02*
X152400000Y-91325000D01*
X151600000Y-107000000D02*
X150000000Y-108600000D01*
%TO.N,Net-(U6-CT)*%
X158400000Y-102400000D02*
X159233732Y-101566268D01*
X159233732Y-101566268D02*
X162566268Y-101566268D01*
X162566268Y-101566268D02*
X162600000Y-101600000D01*
%TO.N,Net-(U6-MICIN)*%
X169800000Y-97800000D02*
X166200000Y-97800000D01*
X169800000Y-97800000D02*
X172400000Y-100400000D01*
X172400000Y-100400000D02*
X172400000Y-106000000D01*
%TO.N,MAT_CS*%
X163400000Y-84400000D02*
X161200000Y-84400000D01*
X165200000Y-86200000D02*
X163400000Y-84400000D01*
%TO.N,TFT_MOSI*%
X150659396Y-99188761D02*
X150659396Y-98340604D01*
X169400000Y-111780000D02*
X168550000Y-112630000D01*
X154200000Y-94800000D02*
X154200000Y-86490000D01*
X150659396Y-98340604D02*
X154200000Y-94800000D01*
X168550000Y-112630000D02*
X163430000Y-112630000D01*
X151560000Y-100760000D02*
X151560000Y-100089365D01*
X163430000Y-112630000D02*
X151560000Y-100760000D01*
X154200000Y-86490000D02*
X153510000Y-85800000D01*
X151560000Y-100089365D02*
X150659396Y-99188761D01*
%TO.N,Net-(J1-CC2)*%
X134210000Y-89800000D02*
X134160000Y-89850000D01*
X138150000Y-87450000D02*
X138111471Y-87450000D01*
X138111471Y-87450000D02*
X135761471Y-89800000D01*
X135761471Y-89800000D02*
X134210000Y-89800000D01*
X139000000Y-86600000D02*
X138150000Y-87450000D01*
%TO.N,<NO NET>*%
X140400000Y-106000000D02*
X139000000Y-107400000D01*
X161400000Y-91200000D02*
X161400000Y-92800000D01*
X171600000Y-118000000D02*
X171400000Y-118000000D01*
X171400000Y-118200000D02*
X171400000Y-118200000D01*
X172000000Y-117600000D02*
X171600000Y-118000000D01*
X171400000Y-118000000D02*
X171400000Y-118200000D01*
X172000000Y-112600000D02*
X172000000Y-117600000D01*
X139000000Y-107400000D02*
X139000000Y-107800000D01*
X161400000Y-92800000D02*
X159000000Y-95200000D01*
%TO.N,VCC_5V*%
X146800000Y-95600000D02*
X139900000Y-95600000D01*
X131500000Y-95700000D02*
X133001346Y-95700000D01*
X131592244Y-106800000D02*
X130800000Y-106007756D01*
X139800000Y-87800000D02*
X139800000Y-95700000D01*
X152000000Y-89410685D02*
X149360000Y-92050686D01*
X130800000Y-106007756D02*
X130800000Y-96400000D01*
X129800000Y-93500000D02*
X129800000Y-76600000D01*
X163648529Y-83800000D02*
X154095785Y-83800000D01*
X147800000Y-113200000D02*
X141400000Y-113200000D01*
X130800000Y-96400000D02*
X131500000Y-95700000D01*
X139800000Y-95700000D02*
X139900000Y-95600000D01*
X133675000Y-96373654D02*
X133675000Y-96450000D01*
X166000000Y-86151471D02*
X163648529Y-83800000D01*
X166000000Y-88200000D02*
X166000000Y-86151471D01*
X152000000Y-85895785D02*
X152000000Y-89410685D01*
X149360000Y-92050686D02*
X149360000Y-93040000D01*
X141400000Y-113200000D02*
X135000000Y-106800000D01*
X129800000Y-76600000D02*
X133600000Y-72800000D01*
X133001346Y-95700000D02*
X133675000Y-96373654D01*
X132000000Y-95700000D02*
X129800000Y-93500000D01*
X139050000Y-96450000D02*
X139800000Y-95700000D01*
X135000000Y-106800000D02*
X131592244Y-106800000D01*
X133675000Y-96450000D02*
X139050000Y-96450000D01*
X154095785Y-83800000D02*
X152000000Y-85895785D01*
X149360000Y-93040000D02*
X146800000Y-95600000D01*
%TO.N,RGB_R*%
X145415686Y-115850000D02*
X153365686Y-123800000D01*
X144351471Y-115850000D02*
X145415686Y-115850000D01*
X142800000Y-117401471D02*
X144351471Y-115850000D01*
X173000000Y-117426346D02*
X173000000Y-92848529D01*
X173000000Y-92848529D02*
X166800000Y-86648529D01*
X165834314Y-123800000D02*
X169084314Y-120550000D01*
X166800000Y-86648529D02*
X166800000Y-82800000D01*
X153365686Y-123800000D02*
X165834314Y-123800000D01*
X142800000Y-119600000D02*
X142800000Y-117401471D01*
X169876346Y-120550000D02*
X173000000Y-117426346D01*
X169084314Y-120550000D02*
X169876346Y-120550000D01*
%TO.N,Net-(D1-A)*%
X138360000Y-90850000D02*
X138360000Y-88050000D01*
X134160000Y-90650000D02*
X135760000Y-90650000D01*
X137160000Y-92050000D02*
X138360000Y-90850000D01*
X135760000Y-90650000D02*
X138360000Y-88050000D01*
%TO.N,D-*%
X140800000Y-84400000D02*
X138200000Y-84400000D01*
X145800000Y-80200000D02*
X145000000Y-80200000D01*
X145000000Y-80200000D02*
X140800000Y-84400000D01*
%TO.N,D+*%
X142600000Y-85800000D02*
X145400000Y-85800000D01*
X145400000Y-85800000D02*
X146800000Y-84400000D01*
%TO.N,RGB_G*%
X169495227Y-122250000D02*
X170350000Y-122250000D01*
X166400000Y-124600000D02*
X167200000Y-123800000D01*
X173927500Y-119072500D02*
X173927500Y-86727500D01*
X144400000Y-124600000D02*
X166400000Y-124600000D01*
X167200000Y-123800000D02*
X167945227Y-123800000D01*
X170350000Y-122250000D02*
X170800000Y-121800000D01*
X173927500Y-86727500D02*
X167000000Y-79800000D01*
X171200000Y-121800000D02*
X173927500Y-119072500D01*
X139400000Y-119600000D02*
X144400000Y-124600000D01*
X138600000Y-119600000D02*
X139400000Y-119600000D01*
X170800000Y-121800000D02*
X171200000Y-121800000D01*
X167945227Y-123800000D02*
X169495227Y-122250000D01*
%TO.N,RGB_B*%
X168350000Y-121850000D02*
X170184314Y-121850000D01*
X170184314Y-121850000D02*
X170634314Y-121400000D01*
X170855000Y-121400000D02*
X173527500Y-118727500D01*
X144600000Y-116450000D02*
X145450000Y-116450000D01*
X166000000Y-124200000D02*
X168350000Y-121850000D01*
X145450000Y-116450000D02*
X153200000Y-124200000D01*
X173527500Y-118727500D02*
X173527500Y-92527500D01*
X173527500Y-92527500D02*
X168000000Y-87000000D01*
X153200000Y-124200000D02*
X166000000Y-124200000D01*
X170634314Y-121400000D02*
X170855000Y-121400000D01*
D27*
%TO.N,GAIN*%
X171127818Y-98350000D02*
X169177818Y-96400000D01*
X165181587Y-96400000D02*
X164706587Y-96875000D01*
X169177818Y-96400000D02*
X165181587Y-96400000D01*
D26*
%TO.N,EQ_DATA*%
X151600000Y-89245000D02*
X147965000Y-92880000D01*
X151600000Y-81400000D02*
X151600000Y-89245000D01*
X147965000Y-92880000D02*
X147920000Y-92880000D01*
X156000000Y-77000000D02*
X151600000Y-81400000D01*
%TO.N,EQ_STROBE*%
X150600000Y-86400000D02*
X150600000Y-80600000D01*
X150600000Y-80600000D02*
X163200000Y-68000000D01*
%TO.N,EQ_RESET*%
X148800000Y-84200000D02*
X149600000Y-85000000D01*
X148800000Y-70600000D02*
X148800000Y-84200000D01*
%TO.N,AR*%
X164424265Y-108975735D02*
X164424265Y-110424265D01*
X165649941Y-98449941D02*
X168200000Y-101000000D01*
X168200000Y-105200000D02*
X164424265Y-108975735D01*
X165649941Y-97195529D02*
X165649941Y-98449941D01*
X168200000Y-101000000D02*
X168200000Y-105200000D01*
%TO.N,AUDIO*%
X165600000Y-102600000D02*
X164800000Y-102600000D01*
X151967322Y-99400000D02*
X151259396Y-98692074D01*
X161600000Y-99400000D02*
X151967322Y-99400000D01*
X164800000Y-102600000D02*
X161600000Y-99400000D01*
%TO.N,LED_ADDR*%
X144400000Y-87000000D02*
X150848529Y-87000000D01*
X144200000Y-87200000D02*
X144400000Y-87000000D01*
X151200000Y-80565686D02*
X159165686Y-72600000D01*
X150848529Y-87000000D02*
X151200000Y-86648529D01*
X151200000Y-86648529D02*
X151200000Y-80565686D01*
X159165686Y-72600000D02*
X163000000Y-72600000D01*
%TO.N,CMD_BTN*%
X151900000Y-65175000D02*
X153075000Y-64000000D01*
X153075000Y-64000000D02*
X163600000Y-64000000D01*
X163600000Y-64000000D02*
X166600000Y-67000000D01*
%TO.N,Net-(U6-TH)*%
X162270459Y-106270459D02*
X166200773Y-106270459D01*
D27*
X162200000Y-106200000D02*
X162270459Y-106270459D01*
D26*
%TO.N,Net-(U6-MICBIAS)*%
X156400000Y-96600000D02*
X162600000Y-96600000D01*
X164725000Y-94475000D02*
X164932559Y-94475000D01*
X155800000Y-97200000D02*
X156400000Y-96600000D01*
X162600000Y-96600000D02*
X164725000Y-94475000D01*
X162600000Y-97000000D02*
X162600000Y-96600000D01*
X162800000Y-97200000D02*
X162600000Y-97000000D01*
D28*
%TO.N,VCC_12V*%
X147204164Y-115800000D02*
X161200000Y-115800000D01*
X137978679Y-118100000D02*
X138600000Y-118100000D01*
D29*
X137000000Y-123345534D02*
X136854466Y-123345534D01*
X136854466Y-123345534D02*
X136800000Y-123400000D01*
D28*
X142150000Y-114550000D02*
X145954164Y-114550000D01*
X149400000Y-106400000D02*
X147350000Y-104350000D01*
X136800000Y-119278679D02*
X137978679Y-118100000D01*
X147350000Y-104350000D02*
X132532500Y-104350000D01*
X145954164Y-114550000D02*
X147204164Y-115800000D01*
X136800000Y-123400000D02*
X136800000Y-119278679D01*
X138600000Y-118100000D02*
X142150000Y-114550000D01*
D26*
%TO.N,Net-(R11-Pad1)*%
X169215000Y-79250000D02*
X169215000Y-81050000D01*
X168615000Y-78650000D02*
X169215000Y-79250000D01*
%TO.N,GND*%
X167200000Y-92200000D02*
X167200000Y-87614214D01*
X150460000Y-92925000D02*
X146535000Y-96850000D01*
X166400000Y-83248529D02*
X166200000Y-83048529D01*
X148600000Y-65000000D02*
X151000000Y-67400000D01*
X166200000Y-83048529D02*
X166200000Y-79200000D01*
X170800000Y-126000000D02*
X170800000Y-125400000D01*
X166200000Y-79200000D02*
X170415000Y-74985000D01*
X165900000Y-119000000D02*
X169000000Y-119000000D01*
X169000000Y-119000000D02*
X169400000Y-119400000D01*
X128875000Y-126000000D02*
X170800000Y-126000000D01*
X167200000Y-87614214D02*
X166400000Y-86814214D01*
X151000000Y-67400000D02*
X151200000Y-67400000D01*
X146535000Y-96850000D02*
X132532500Y-96850000D01*
X170415000Y-74985000D02*
X170415000Y-67950000D01*
X166400000Y-86814214D02*
X166400000Y-83248529D01*
%TD*%
%TA.AperFunction,Conductor*%
%TO.N,GND*%
G36*
X131958039Y-57120185D02*
G01*
X132003794Y-57172989D01*
X132015000Y-57224500D01*
X132015000Y-63350000D01*
X152576402Y-63350000D01*
X152643441Y-63369685D01*
X152689196Y-63422489D01*
X152699140Y-63491647D01*
X152670115Y-63555203D01*
X152664083Y-63561681D01*
X152594478Y-63631286D01*
X151881465Y-64344298D01*
X151820142Y-64377783D01*
X151807668Y-64379837D01*
X151720750Y-64389630D01*
X151550478Y-64449210D01*
X151397737Y-64545184D01*
X151270184Y-64672737D01*
X151174211Y-64825476D01*
X151165263Y-64851050D01*
X151124541Y-64907826D01*
X151059588Y-64933573D01*
X150991027Y-64920117D01*
X150960540Y-64897776D01*
X149951119Y-63888355D01*
X149951117Y-63888352D01*
X149832246Y-63769481D01*
X149832245Y-63769480D01*
X149745433Y-63719360D01*
X149745433Y-63719359D01*
X149745429Y-63719358D01*
X149695314Y-63690423D01*
X149542586Y-63649499D01*
X149384472Y-63649499D01*
X149376876Y-63649499D01*
X149376860Y-63649500D01*
X141388141Y-63649500D01*
X141388125Y-63649499D01*
X141380529Y-63649499D01*
X141222414Y-63649499D01*
X141146050Y-63669961D01*
X141069685Y-63690423D01*
X141069680Y-63690426D01*
X140932761Y-63769475D01*
X140932753Y-63769481D01*
X126119481Y-78582753D01*
X126119480Y-78582755D01*
X126080657Y-78650000D01*
X126069361Y-78669565D01*
X126069359Y-78669567D01*
X126040425Y-78719680D01*
X126040424Y-78719681D01*
X126024544Y-78778943D01*
X125999499Y-78872414D01*
X125999499Y-78872416D01*
X125999499Y-79040517D01*
X125999500Y-79040530D01*
X125999500Y-113253330D01*
X125999499Y-113253348D01*
X125999499Y-113419054D01*
X125999498Y-113419054D01*
X126040423Y-113571785D01*
X126069358Y-113621900D01*
X126069359Y-113621904D01*
X126069360Y-113621904D01*
X126119479Y-113708714D01*
X126119481Y-113708717D01*
X126238349Y-113827585D01*
X126238355Y-113827590D01*
X127467233Y-115056468D01*
X127500718Y-115117791D01*
X127499327Y-115176241D01*
X127464939Y-115304583D01*
X127464936Y-115304596D01*
X127444341Y-115539999D01*
X127444341Y-115540000D01*
X127464936Y-115775403D01*
X127464938Y-115775413D01*
X127526094Y-116003655D01*
X127526096Y-116003659D01*
X127526097Y-116003663D01*
X127581740Y-116122989D01*
X127625965Y-116217830D01*
X127625967Y-116217834D01*
X127761501Y-116411395D01*
X127761506Y-116411402D01*
X127928597Y-116578493D01*
X127928603Y-116578498D01*
X128114594Y-116708730D01*
X128158219Y-116763307D01*
X128165413Y-116832805D01*
X128133890Y-116895160D01*
X128114595Y-116911880D01*
X127928922Y-117041890D01*
X127928920Y-117041891D01*
X127761891Y-117208920D01*
X127761886Y-117208926D01*
X127626400Y-117402420D01*
X127626399Y-117402422D01*
X127526570Y-117616507D01*
X127526567Y-117616513D01*
X127469364Y-117829999D01*
X127469364Y-117830000D01*
X128366988Y-117830000D01*
X128334075Y-117887007D01*
X128300000Y-118014174D01*
X128300000Y-118145826D01*
X128334075Y-118272993D01*
X128366988Y-118330000D01*
X127469364Y-118330000D01*
X127526567Y-118543486D01*
X127526570Y-118543492D01*
X127626399Y-118757578D01*
X127761894Y-118951082D01*
X127928917Y-119118105D01*
X128122421Y-119253600D01*
X128336507Y-119353429D01*
X128336516Y-119353433D01*
X128550000Y-119410634D01*
X128550000Y-118513012D01*
X128607007Y-118545925D01*
X128734174Y-118580000D01*
X128865826Y-118580000D01*
X128992993Y-118545925D01*
X129050000Y-118513012D01*
X129050000Y-119410633D01*
X129263483Y-119353433D01*
X129263492Y-119353429D01*
X129477578Y-119253600D01*
X129671082Y-119118105D01*
X129838105Y-118951082D01*
X129973600Y-118757578D01*
X130073429Y-118543492D01*
X130073432Y-118543486D01*
X130130636Y-118330000D01*
X129233012Y-118330000D01*
X129265925Y-118272993D01*
X129300000Y-118145826D01*
X129300000Y-118014174D01*
X129265925Y-117887007D01*
X129233012Y-117830000D01*
X130130636Y-117830000D01*
X130130635Y-117829999D01*
X130073432Y-117616513D01*
X130073429Y-117616507D01*
X129973600Y-117402422D01*
X129973599Y-117402420D01*
X129838113Y-117208926D01*
X129838108Y-117208920D01*
X129671078Y-117041890D01*
X129485405Y-116911879D01*
X129441780Y-116857302D01*
X129434588Y-116787804D01*
X129466110Y-116725449D01*
X129485406Y-116708730D01*
X129588638Y-116636446D01*
X129671401Y-116578495D01*
X129838495Y-116411401D01*
X129974035Y-116217830D01*
X130073903Y-116003663D01*
X130135063Y-115775408D01*
X130155659Y-115540000D01*
X130135063Y-115304592D01*
X130073903Y-115076337D01*
X129974035Y-114862171D01*
X129960274Y-114842517D01*
X129838494Y-114668597D01*
X129671402Y-114501506D01*
X129671396Y-114501501D01*
X129485842Y-114371575D01*
X129442217Y-114316998D01*
X129435023Y-114247500D01*
X129466546Y-114185145D01*
X129485842Y-114168425D01*
X129605562Y-114084596D01*
X129671401Y-114038495D01*
X129838495Y-113871401D01*
X129974035Y-113677830D01*
X130073903Y-113463663D01*
X130135063Y-113235408D01*
X130155659Y-113000000D01*
X130135063Y-112764592D01*
X130073903Y-112536337D01*
X129974035Y-112322171D01*
X129919063Y-112243663D01*
X129838496Y-112128600D01*
X129838495Y-112128599D01*
X129716567Y-112006671D01*
X129683084Y-111945351D01*
X129688068Y-111875659D01*
X129729939Y-111819725D01*
X129760915Y-111802810D01*
X129892331Y-111753796D01*
X130007546Y-111667546D01*
X130093796Y-111552331D01*
X130144091Y-111417483D01*
X130150500Y-111357873D01*
X130150499Y-109562128D01*
X130144091Y-109502517D01*
X130107930Y-109405565D01*
X130093797Y-109367671D01*
X130093793Y-109367664D01*
X130007547Y-109252455D01*
X130007544Y-109252452D01*
X129892335Y-109166206D01*
X129892328Y-109166202D01*
X129757482Y-109115908D01*
X129757483Y-109115908D01*
X129697883Y-109109501D01*
X129697881Y-109109500D01*
X129697873Y-109109500D01*
X129697864Y-109109500D01*
X127902129Y-109109500D01*
X127902123Y-109109501D01*
X127842516Y-109115908D01*
X127707671Y-109166202D01*
X127707664Y-109166206D01*
X127592455Y-109252452D01*
X127592452Y-109252455D01*
X127506206Y-109367664D01*
X127506202Y-109367671D01*
X127455908Y-109502517D01*
X127449501Y-109562116D01*
X127449501Y-109562123D01*
X127449500Y-109562135D01*
X127449500Y-111357870D01*
X127449501Y-111357876D01*
X127455908Y-111417483D01*
X127506202Y-111552328D01*
X127506206Y-111552335D01*
X127592452Y-111667544D01*
X127592455Y-111667547D01*
X127707664Y-111753793D01*
X127707671Y-111753797D01*
X127839081Y-111802810D01*
X127895015Y-111844681D01*
X127919432Y-111910145D01*
X127904580Y-111978418D01*
X127883430Y-112006673D01*
X127761503Y-112128600D01*
X127625965Y-112322169D01*
X127625964Y-112322171D01*
X127526098Y-112536335D01*
X127526094Y-112536344D01*
X127464938Y-112764586D01*
X127464936Y-112764596D01*
X127448028Y-112957858D01*
X127422575Y-113022926D01*
X127365984Y-113063905D01*
X127296222Y-113067783D01*
X127235438Y-113033329D01*
X127202931Y-112971482D01*
X127200500Y-112947050D01*
X127200500Y-93442812D01*
X127220185Y-93375773D01*
X127272989Y-93330018D01*
X127342147Y-93320074D01*
X127373977Y-93330515D01*
X127374378Y-93329548D01*
X127552894Y-93403491D01*
X127552902Y-93403493D01*
X127736428Y-93439999D01*
X127736431Y-93440000D01*
X127980000Y-93440000D01*
X127980000Y-92790000D01*
X128480000Y-92790000D01*
X128480000Y-93440000D01*
X128723569Y-93440000D01*
X128723571Y-93439999D01*
X128907097Y-93403493D01*
X128907105Y-93403491D01*
X129028046Y-93353396D01*
X129097515Y-93345927D01*
X129159995Y-93377202D01*
X129195647Y-93437291D01*
X129199499Y-93467957D01*
X129199499Y-93579054D01*
X129199498Y-93579054D01*
X129240423Y-93731785D01*
X129269358Y-93781900D01*
X129269359Y-93781904D01*
X129269360Y-93781904D01*
X129297446Y-93830552D01*
X129319479Y-93868714D01*
X129319481Y-93868717D01*
X129438349Y-93987585D01*
X129438355Y-93987590D01*
X130813083Y-95362318D01*
X130846568Y-95423641D01*
X130841584Y-95493333D01*
X130813083Y-95537680D01*
X130431286Y-95919478D01*
X130319481Y-96031282D01*
X130319479Y-96031284D01*
X130310617Y-96046635D01*
X130291054Y-96080520D01*
X130240423Y-96168215D01*
X130199499Y-96320943D01*
X130199499Y-96320945D01*
X130199499Y-96489046D01*
X130199500Y-96489059D01*
X130199500Y-105921086D01*
X130199499Y-105921104D01*
X130199499Y-106086810D01*
X130199498Y-106086810D01*
X130229828Y-106200003D01*
X130240423Y-106239541D01*
X130258273Y-106270458D01*
X130258274Y-106270460D01*
X130258275Y-106270460D01*
X130315642Y-106369824D01*
X130319479Y-106376470D01*
X130319481Y-106376473D01*
X130438349Y-106495341D01*
X130438355Y-106495346D01*
X131107383Y-107164374D01*
X131107393Y-107164385D01*
X131111723Y-107168715D01*
X131111724Y-107168716D01*
X131223528Y-107280520D01*
X131310339Y-107330639D01*
X131310341Y-107330641D01*
X131360457Y-107359576D01*
X131360459Y-107359577D01*
X131513186Y-107400500D01*
X131513187Y-107400500D01*
X134699903Y-107400500D01*
X134766942Y-107420185D01*
X134787584Y-107436819D01*
X140569298Y-113218534D01*
X140602783Y-113279857D01*
X140604837Y-113292331D01*
X140614630Y-113379249D01*
X140674210Y-113549521D01*
X140758293Y-113683338D01*
X140777293Y-113750575D01*
X140756925Y-113817410D01*
X140740980Y-113836991D01*
X138014792Y-116563181D01*
X137953469Y-116596666D01*
X137927111Y-116599500D01*
X137860582Y-116599500D01*
X137627310Y-116636446D01*
X137402682Y-116709433D01*
X137192242Y-116816659D01*
X137001175Y-116955476D01*
X137001170Y-116955480D01*
X135655485Y-118301166D01*
X135655484Y-118301167D01*
X135516655Y-118492246D01*
X135423035Y-118675990D01*
X135423034Y-118675992D01*
X135409432Y-118702687D01*
X135403020Y-118722421D01*
X135336446Y-118927310D01*
X135299500Y-119160581D01*
X135299500Y-123518097D01*
X135336446Y-123751368D01*
X135409433Y-123975996D01*
X135507628Y-124168713D01*
X135516657Y-124186433D01*
X135655483Y-124377510D01*
X135822490Y-124544517D01*
X136013567Y-124683343D01*
X136112991Y-124734002D01*
X136224003Y-124790566D01*
X136224005Y-124790566D01*
X136224008Y-124790568D01*
X136344412Y-124829689D01*
X136448631Y-124863553D01*
X136681903Y-124900500D01*
X136681908Y-124900500D01*
X136918097Y-124900500D01*
X137151368Y-124863553D01*
X137375992Y-124790568D01*
X137586433Y-124683343D01*
X137777510Y-124544517D01*
X137944517Y-124377510D01*
X138083343Y-124186433D01*
X138190568Y-123975992D01*
X138263553Y-123751368D01*
X138300500Y-123518097D01*
X138300500Y-120510576D01*
X138320185Y-120443537D01*
X138372989Y-120397782D01*
X138438383Y-120387356D01*
X138599996Y-120405565D01*
X138600000Y-120405565D01*
X138600004Y-120405565D01*
X138779249Y-120385369D01*
X138779252Y-120385368D01*
X138779255Y-120385368D01*
X138949522Y-120325789D01*
X139066631Y-120252203D01*
X139133864Y-120233204D01*
X139200700Y-120253571D01*
X139220282Y-120269517D01*
X143915139Y-124964374D01*
X143915149Y-124964385D01*
X143919479Y-124968715D01*
X143919480Y-124968716D01*
X144031284Y-125080520D01*
X144118095Y-125130639D01*
X144118097Y-125130641D01*
X144156151Y-125152611D01*
X144168215Y-125159577D01*
X144320943Y-125200501D01*
X144320946Y-125200501D01*
X144486653Y-125200501D01*
X144486669Y-125200500D01*
X166313331Y-125200500D01*
X166313347Y-125200501D01*
X166320943Y-125200501D01*
X166479054Y-125200501D01*
X166479057Y-125200501D01*
X166631785Y-125159577D01*
X166681904Y-125130639D01*
X166768716Y-125080520D01*
X166880520Y-124968716D01*
X166880520Y-124968714D01*
X166890728Y-124958507D01*
X166890729Y-124958504D01*
X167326305Y-124522928D01*
X167387625Y-124489446D01*
X167457317Y-124494430D01*
X167513250Y-124536302D01*
X167537667Y-124601766D01*
X167529176Y-124656509D01*
X167420697Y-124928772D01*
X167420695Y-124928779D01*
X167323519Y-125278777D01*
X167323517Y-125278785D01*
X167264746Y-125637271D01*
X167245080Y-125999997D01*
X167245080Y-126000002D01*
X167264746Y-126362728D01*
X167323517Y-126721214D01*
X167323519Y-126721222D01*
X167420695Y-127071220D01*
X167420697Y-127071227D01*
X167555152Y-127408684D01*
X167555161Y-127408702D01*
X167725316Y-127729647D01*
X167725318Y-127729651D01*
X167929170Y-128030309D01*
X167929177Y-128030319D01*
X168060969Y-128185475D01*
X168060970Y-128185475D01*
X169305747Y-126940698D01*
X169379588Y-127042330D01*
X169557670Y-127220412D01*
X169659300Y-127294251D01*
X168411888Y-128541662D01*
X168411888Y-128541664D01*
X168428070Y-128556992D01*
X168428071Y-128556993D01*
X168717266Y-128776832D01*
X168717282Y-128776843D01*
X169028522Y-128964109D01*
X169028535Y-128964116D01*
X169358205Y-129116639D01*
X169358210Y-129116640D01*
X169702461Y-129232632D01*
X170057235Y-129310724D01*
X170418366Y-129349999D01*
X170418374Y-129350000D01*
X170781626Y-129350000D01*
X170781633Y-129349999D01*
X171142764Y-129310724D01*
X171497538Y-129232632D01*
X171841789Y-129116640D01*
X171841794Y-129116639D01*
X172171464Y-128964116D01*
X172171477Y-128964109D01*
X172482717Y-128776843D01*
X172482733Y-128776832D01*
X172771929Y-128556992D01*
X172788110Y-128541664D01*
X172788110Y-128541663D01*
X171540698Y-127294251D01*
X171642330Y-127220412D01*
X171820412Y-127042330D01*
X171894251Y-126940698D01*
X173139028Y-128185475D01*
X173139029Y-128185475D01*
X173270827Y-128030311D01*
X173270838Y-128030297D01*
X173474681Y-127729651D01*
X173474683Y-127729647D01*
X173644838Y-127408702D01*
X173644847Y-127408684D01*
X173779302Y-127071227D01*
X173779304Y-127071220D01*
X173783520Y-127056038D01*
X173820422Y-126996708D01*
X173883541Y-126966747D01*
X173952839Y-126975668D01*
X174006314Y-127020638D01*
X174026986Y-127087379D01*
X174027000Y-127089211D01*
X174027000Y-129955500D01*
X174007315Y-130022539D01*
X173954511Y-130068294D01*
X173903000Y-130079500D01*
X125497000Y-130079500D01*
X125429961Y-130059815D01*
X125384206Y-130007011D01*
X125373000Y-129955500D01*
X125373000Y-126819084D01*
X125392685Y-126752045D01*
X125445489Y-126706290D01*
X125514647Y-126696346D01*
X125578203Y-126725371D01*
X125615977Y-126784149D01*
X125616480Y-126785911D01*
X125695695Y-127071220D01*
X125695697Y-127071227D01*
X125830152Y-127408684D01*
X125830161Y-127408702D01*
X126000316Y-127729647D01*
X126000318Y-127729651D01*
X126204170Y-128030309D01*
X126204177Y-128030319D01*
X126335969Y-128185475D01*
X126335970Y-128185475D01*
X127580748Y-126940698D01*
X127654588Y-127042330D01*
X127832670Y-127220412D01*
X127934300Y-127294251D01*
X126686888Y-128541662D01*
X126686888Y-128541664D01*
X126703070Y-128556992D01*
X126703071Y-128556993D01*
X126992266Y-128776832D01*
X126992282Y-128776843D01*
X127303522Y-128964109D01*
X127303535Y-128964116D01*
X127633205Y-129116639D01*
X127633210Y-129116640D01*
X127977461Y-129232632D01*
X128332235Y-129310724D01*
X128693366Y-129349999D01*
X128693374Y-129350000D01*
X129056626Y-129350000D01*
X129056633Y-129349999D01*
X129417764Y-129310724D01*
X129772538Y-129232632D01*
X130116789Y-129116640D01*
X130116794Y-129116639D01*
X130446464Y-128964116D01*
X130446477Y-128964109D01*
X130757717Y-128776843D01*
X130757733Y-128776832D01*
X131046929Y-128556992D01*
X131063110Y-128541664D01*
X131063110Y-128541663D01*
X129815698Y-127294251D01*
X129917330Y-127220412D01*
X130095412Y-127042330D01*
X130169251Y-126940698D01*
X131414028Y-128185475D01*
X131414029Y-128185475D01*
X131545827Y-128030311D01*
X131545838Y-128030297D01*
X131749681Y-127729651D01*
X131749683Y-127729647D01*
X131919838Y-127408702D01*
X131919847Y-127408684D01*
X132054302Y-127071227D01*
X132054304Y-127071220D01*
X132151480Y-126721222D01*
X132151482Y-126721214D01*
X132210253Y-126362728D01*
X132229920Y-126000002D01*
X132229920Y-125999997D01*
X132210253Y-125637271D01*
X132151482Y-125278785D01*
X132151480Y-125278777D01*
X132054304Y-124928779D01*
X132054302Y-124928772D01*
X131919847Y-124591315D01*
X131919838Y-124591297D01*
X131749683Y-124270352D01*
X131749681Y-124270348D01*
X131545829Y-123969690D01*
X131545822Y-123969680D01*
X131414029Y-123814523D01*
X131414028Y-123814523D01*
X130169251Y-125059300D01*
X130095412Y-124957670D01*
X129917330Y-124779588D01*
X129815698Y-124705748D01*
X131063110Y-123458336D01*
X131063110Y-123458334D01*
X131046929Y-123443007D01*
X131046928Y-123443006D01*
X130757733Y-123223167D01*
X130757717Y-123223156D01*
X130446477Y-123035890D01*
X130446464Y-123035883D01*
X130116794Y-122883360D01*
X130116789Y-122883359D01*
X129772538Y-122767367D01*
X129417764Y-122689275D01*
X129056633Y-122650000D01*
X128693366Y-122650000D01*
X128332235Y-122689275D01*
X127977461Y-122767367D01*
X127633210Y-122883359D01*
X127633205Y-122883360D01*
X127303535Y-123035883D01*
X127303522Y-123035890D01*
X126992282Y-123223156D01*
X126992266Y-123223167D01*
X126703075Y-123443002D01*
X126686888Y-123458335D01*
X126686887Y-123458335D01*
X127934301Y-124705748D01*
X127832670Y-124779588D01*
X127654588Y-124957670D01*
X127580748Y-125059300D01*
X126335970Y-123814522D01*
X126335969Y-123814523D01*
X126204177Y-123969680D01*
X126204170Y-123969690D01*
X126000318Y-124270348D01*
X126000316Y-124270352D01*
X125830161Y-124591297D01*
X125830152Y-124591315D01*
X125695697Y-124928772D01*
X125695695Y-124928779D01*
X125616480Y-125214088D01*
X125579578Y-125273418D01*
X125516458Y-125303379D01*
X125447160Y-125294458D01*
X125393686Y-125249488D01*
X125373014Y-125182747D01*
X125373000Y-125180915D01*
X125373000Y-69513724D01*
X125392685Y-69446685D01*
X125445489Y-69400930D01*
X125514647Y-69390986D01*
X125578203Y-69420011D01*
X125606555Y-69455641D01*
X125725316Y-69679647D01*
X125725318Y-69679651D01*
X125929170Y-69980309D01*
X125929177Y-69980319D01*
X126060969Y-70135475D01*
X126060970Y-70135475D01*
X127305748Y-68890698D01*
X127379588Y-68992330D01*
X127557670Y-69170412D01*
X127659300Y-69244251D01*
X126411888Y-70491662D01*
X126411888Y-70491664D01*
X126428070Y-70506992D01*
X126428071Y-70506993D01*
X126717266Y-70726832D01*
X126717282Y-70726843D01*
X127028522Y-70914109D01*
X127028535Y-70914116D01*
X127358205Y-71066639D01*
X127358210Y-71066640D01*
X127702461Y-71182632D01*
X128057235Y-71260724D01*
X128418366Y-71299999D01*
X128418374Y-71300000D01*
X128781626Y-71300000D01*
X128781633Y-71299999D01*
X129142764Y-71260724D01*
X129497538Y-71182632D01*
X129841789Y-71066640D01*
X129841794Y-71066639D01*
X130171464Y-70914116D01*
X130171477Y-70914109D01*
X130482717Y-70726843D01*
X130482733Y-70726832D01*
X130771929Y-70506992D01*
X130788110Y-70491664D01*
X130788110Y-70491663D01*
X129540698Y-69244251D01*
X129642330Y-69170412D01*
X129820412Y-68992330D01*
X129894251Y-68890698D01*
X131139028Y-70135475D01*
X131139029Y-70135475D01*
X131270827Y-69980311D01*
X131270838Y-69980297D01*
X131474681Y-69679651D01*
X131474683Y-69679647D01*
X131644838Y-69358702D01*
X131644847Y-69358684D01*
X131779302Y-69021227D01*
X131779304Y-69021220D01*
X131876480Y-68671222D01*
X131876482Y-68671214D01*
X131935253Y-68312728D01*
X131954920Y-67950002D01*
X131954920Y-67949997D01*
X131935253Y-67587271D01*
X131876482Y-67228785D01*
X131876480Y-67228777D01*
X131779304Y-66878779D01*
X131779302Y-66878772D01*
X131644847Y-66541315D01*
X131644838Y-66541297D01*
X131474683Y-66220352D01*
X131474681Y-66220348D01*
X131270829Y-65919690D01*
X131270822Y-65919680D01*
X131139029Y-65764523D01*
X131139028Y-65764523D01*
X129894251Y-67009300D01*
X129820412Y-66907670D01*
X129642330Y-66729588D01*
X129540698Y-66655748D01*
X130788110Y-65408336D01*
X130788110Y-65408334D01*
X130771929Y-65393007D01*
X130771928Y-65393006D01*
X130482733Y-65173167D01*
X130482717Y-65173156D01*
X130171477Y-64985890D01*
X130171464Y-64985883D01*
X129841794Y-64833360D01*
X129841789Y-64833359D01*
X129497538Y-64717367D01*
X129142764Y-64639275D01*
X128781633Y-64600000D01*
X128418366Y-64600000D01*
X128057235Y-64639275D01*
X127702461Y-64717367D01*
X127358210Y-64833359D01*
X127358205Y-64833360D01*
X127028535Y-64985883D01*
X127028522Y-64985890D01*
X126717282Y-65173156D01*
X126717266Y-65173167D01*
X126428075Y-65393002D01*
X126411888Y-65408335D01*
X126411887Y-65408335D01*
X127659301Y-66655748D01*
X127557670Y-66729588D01*
X127379588Y-66907670D01*
X127305748Y-67009300D01*
X126060970Y-65764522D01*
X126060969Y-65764523D01*
X125929177Y-65919680D01*
X125929170Y-65919690D01*
X125725318Y-66220348D01*
X125725315Y-66220352D01*
X125606555Y-66444358D01*
X125557762Y-66494368D01*
X125489677Y-66510059D01*
X125423917Y-66486449D01*
X125381360Y-66431035D01*
X125373000Y-66386275D01*
X125373000Y-57224500D01*
X125392685Y-57157461D01*
X125445489Y-57111706D01*
X125497000Y-57100500D01*
X131891000Y-57100500D01*
X131958039Y-57120185D01*
G37*
%TD.AperFunction*%
%TA.AperFunction,Conductor*%
G36*
X173946334Y-120005414D02*
G01*
X174002267Y-120047286D01*
X174026684Y-120112750D01*
X174027000Y-120121596D01*
X174027000Y-124910788D01*
X174007315Y-124977827D01*
X173954511Y-125023582D01*
X173885353Y-125033526D01*
X173821797Y-125004501D01*
X173784023Y-124945723D01*
X173783520Y-124943963D01*
X173779302Y-124928771D01*
X173644847Y-124591315D01*
X173644838Y-124591297D01*
X173474683Y-124270352D01*
X173474681Y-124270348D01*
X173270829Y-123969690D01*
X173270822Y-123969680D01*
X173139029Y-123814523D01*
X173139028Y-123814523D01*
X171894251Y-125059300D01*
X171820412Y-124957670D01*
X171642330Y-124779588D01*
X171540698Y-124705748D01*
X172788110Y-123458336D01*
X172788110Y-123458334D01*
X172771929Y-123443007D01*
X172771928Y-123443006D01*
X172482733Y-123223167D01*
X172482717Y-123223156D01*
X172171477Y-123035890D01*
X172171464Y-123035883D01*
X171841794Y-122883360D01*
X171841789Y-122883359D01*
X171497538Y-122767367D01*
X171142764Y-122689275D01*
X171054758Y-122679704D01*
X170990240Y-122652886D01*
X170950462Y-122595445D01*
X170948055Y-122525617D01*
X170980482Y-122468751D01*
X171012418Y-122436815D01*
X171073741Y-122403333D01*
X171100097Y-122400500D01*
X171113331Y-122400500D01*
X171113347Y-122400501D01*
X171120943Y-122400501D01*
X171279054Y-122400501D01*
X171279057Y-122400501D01*
X171431785Y-122359577D01*
X171484647Y-122329057D01*
X171484648Y-122329057D01*
X171568709Y-122280524D01*
X171568708Y-122280524D01*
X171568716Y-122280520D01*
X171680520Y-122168716D01*
X171680520Y-122168714D01*
X171690724Y-122158511D01*
X171690727Y-122158506D01*
X173815321Y-120033913D01*
X173876642Y-120000430D01*
X173946334Y-120005414D01*
G37*
%TD.AperFunction*%
%TA.AperFunction,Conductor*%
G36*
X151440805Y-101505889D02*
G01*
X151485156Y-101534391D01*
X162945139Y-112994374D01*
X162945149Y-112994385D01*
X162949479Y-112998715D01*
X162949480Y-112998716D01*
X163061284Y-113110520D01*
X163146003Y-113159432D01*
X163198215Y-113189577D01*
X163350943Y-113230501D01*
X163350946Y-113230501D01*
X163516653Y-113230501D01*
X163516669Y-113230500D01*
X168280241Y-113230500D01*
X168347280Y-113250185D01*
X168393035Y-113302989D01*
X168402979Y-113372147D01*
X168373954Y-113435703D01*
X168367922Y-113442181D01*
X168361505Y-113448597D01*
X168225965Y-113642169D01*
X168225964Y-113642171D01*
X168126098Y-113856335D01*
X168126094Y-113856344D01*
X168064938Y-114084586D01*
X168064936Y-114084596D01*
X168044341Y-114319999D01*
X168044341Y-114320000D01*
X168064936Y-114555403D01*
X168064938Y-114555413D01*
X168126094Y-114783655D01*
X168126096Y-114783659D01*
X168126097Y-114783663D01*
X168181339Y-114902129D01*
X168225965Y-114997830D01*
X168225967Y-114997834D01*
X168361501Y-115191395D01*
X168361506Y-115191402D01*
X168528597Y-115358493D01*
X168528603Y-115358498D01*
X168714158Y-115488425D01*
X168757783Y-115543002D01*
X168764977Y-115612500D01*
X168733454Y-115674855D01*
X168714158Y-115691575D01*
X168528597Y-115821505D01*
X168361505Y-115988597D01*
X168225965Y-116182169D01*
X168225964Y-116182171D01*
X168126098Y-116396335D01*
X168126094Y-116396344D01*
X168064938Y-116624586D01*
X168064936Y-116624596D01*
X168044341Y-116859999D01*
X168044341Y-116860000D01*
X168064936Y-117095403D01*
X168064938Y-117095413D01*
X168126094Y-117323655D01*
X168126096Y-117323659D01*
X168126097Y-117323663D01*
X168185242Y-117450499D01*
X168225965Y-117537830D01*
X168225967Y-117537834D01*
X168361501Y-117731395D01*
X168361506Y-117731402D01*
X168528597Y-117898493D01*
X168528603Y-117898498D01*
X168714594Y-118028730D01*
X168758219Y-118083307D01*
X168765413Y-118152805D01*
X168733890Y-118215160D01*
X168714595Y-118231880D01*
X168528922Y-118361890D01*
X168528920Y-118361891D01*
X168361891Y-118528920D01*
X168361886Y-118528926D01*
X168226400Y-118722420D01*
X168226399Y-118722422D01*
X168126570Y-118936507D01*
X168126567Y-118936513D01*
X168069364Y-119149999D01*
X168069364Y-119150000D01*
X168966988Y-119150000D01*
X168934075Y-119207007D01*
X168900000Y-119334174D01*
X168900000Y-119465826D01*
X168934075Y-119592993D01*
X168966988Y-119650000D01*
X168069364Y-119650000D01*
X168126567Y-119863486D01*
X168126570Y-119863492D01*
X168226399Y-120077578D01*
X168364855Y-120275311D01*
X168387182Y-120341517D01*
X168370172Y-120409285D01*
X168350961Y-120434116D01*
X165621898Y-123163181D01*
X165560575Y-123196666D01*
X165534217Y-123199500D01*
X163535577Y-123199500D01*
X163468538Y-123179815D01*
X163422783Y-123127011D01*
X163412839Y-123057853D01*
X163435258Y-123002615D01*
X163483343Y-122936433D01*
X163590568Y-122725992D01*
X163663553Y-122501368D01*
X163700500Y-122268097D01*
X163700500Y-122031902D01*
X163663553Y-121798631D01*
X163608469Y-121629101D01*
X163590568Y-121574008D01*
X163590566Y-121574005D01*
X163590566Y-121574003D01*
X163483342Y-121363566D01*
X163344517Y-121172490D01*
X163177510Y-121005483D01*
X162986433Y-120866657D01*
X162775996Y-120759433D01*
X162551368Y-120686446D01*
X162318097Y-120649500D01*
X162318092Y-120649500D01*
X160081908Y-120649500D01*
X160081903Y-120649500D01*
X159848631Y-120686446D01*
X159624003Y-120759433D01*
X159413566Y-120866657D01*
X159317889Y-120936171D01*
X159222490Y-121005483D01*
X159222488Y-121005485D01*
X159222487Y-121005485D01*
X159055485Y-121172487D01*
X159055485Y-121172488D01*
X159055483Y-121172490D01*
X158999532Y-121249500D01*
X158916657Y-121363566D01*
X158809433Y-121574003D01*
X158736446Y-121798631D01*
X158699500Y-122031902D01*
X158699500Y-122268097D01*
X158736446Y-122501368D01*
X158809433Y-122725996D01*
X158872872Y-122850500D01*
X158916657Y-122936433D01*
X158964741Y-123002615D01*
X158988221Y-123068420D01*
X158972396Y-123136474D01*
X158922290Y-123185169D01*
X158864423Y-123199500D01*
X153665783Y-123199500D01*
X153598744Y-123179815D01*
X153578102Y-123163181D01*
X148446868Y-118031947D01*
X164400000Y-118031947D01*
X164400000Y-118900000D01*
X165400000Y-118900000D01*
X165400000Y-119400000D01*
X164400000Y-119400000D01*
X164400000Y-120268052D01*
X164436934Y-120501247D01*
X164509897Y-120725802D01*
X164617085Y-120936171D01*
X164755866Y-121127186D01*
X164922813Y-121294133D01*
X165113828Y-121432914D01*
X165324195Y-121540102D01*
X165548744Y-121613063D01*
X165548750Y-121613065D01*
X165650000Y-121629101D01*
X165650000Y-120583012D01*
X165707007Y-120615925D01*
X165834174Y-120650000D01*
X165965826Y-120650000D01*
X166092993Y-120615925D01*
X166150000Y-120583012D01*
X166150000Y-121629100D01*
X166251249Y-121613065D01*
X166251255Y-121613063D01*
X166475804Y-121540102D01*
X166686171Y-121432914D01*
X166877186Y-121294133D01*
X167044133Y-121127186D01*
X167182914Y-120936171D01*
X167290102Y-120725802D01*
X167363065Y-120501247D01*
X167400000Y-120268052D01*
X167400000Y-119400000D01*
X166400000Y-119400000D01*
X166400000Y-118900000D01*
X167400000Y-118900000D01*
X167400000Y-118031947D01*
X167363065Y-117798752D01*
X167290102Y-117574197D01*
X167182914Y-117363828D01*
X167044133Y-117172813D01*
X166877186Y-117005866D01*
X166686171Y-116867085D01*
X166475802Y-116759897D01*
X166251247Y-116686934D01*
X166150000Y-116670897D01*
X166150000Y-117716988D01*
X166092993Y-117684075D01*
X165965826Y-117650000D01*
X165834174Y-117650000D01*
X165707007Y-117684075D01*
X165650000Y-117716988D01*
X165650000Y-116670897D01*
X165548752Y-116686934D01*
X165324197Y-116759897D01*
X165113828Y-116867085D01*
X164922813Y-117005866D01*
X164755866Y-117172813D01*
X164617085Y-117363828D01*
X164509897Y-117574197D01*
X164436934Y-117798752D01*
X164400000Y-118031947D01*
X148446868Y-118031947D01*
X147927102Y-117512181D01*
X147893617Y-117450858D01*
X147898601Y-117381166D01*
X147940473Y-117325233D01*
X148005937Y-117300816D01*
X148014783Y-117300500D01*
X158541769Y-117300500D01*
X158608808Y-117320185D01*
X158616080Y-117325233D01*
X158707668Y-117393795D01*
X158707671Y-117393797D01*
X158842517Y-117444091D01*
X158842516Y-117444091D01*
X158849444Y-117444835D01*
X158902127Y-117450500D01*
X163497872Y-117450499D01*
X163557483Y-117444091D01*
X163692331Y-117393796D01*
X163807546Y-117307546D01*
X163893796Y-117192331D01*
X163944091Y-117057483D01*
X163950500Y-116997873D01*
X163950499Y-114902128D01*
X163944091Y-114842517D01*
X163922140Y-114783664D01*
X163893797Y-114707671D01*
X163893793Y-114707664D01*
X163807547Y-114592455D01*
X163807544Y-114592452D01*
X163692335Y-114506206D01*
X163692328Y-114506202D01*
X163557482Y-114455908D01*
X163557483Y-114455908D01*
X163497883Y-114449501D01*
X163497881Y-114449500D01*
X163497873Y-114449500D01*
X163497865Y-114449500D01*
X161884400Y-114449500D01*
X161828105Y-114435985D01*
X161775996Y-114409433D01*
X161551368Y-114336446D01*
X161318097Y-114299500D01*
X161318092Y-114299500D01*
X147877053Y-114299500D01*
X147810014Y-114279815D01*
X147789372Y-114263181D01*
X147740991Y-114214800D01*
X147707506Y-114153477D01*
X147712490Y-114083785D01*
X147754362Y-114027852D01*
X147814789Y-114003899D01*
X147979249Y-113985369D01*
X147979252Y-113985368D01*
X147979255Y-113985368D01*
X148149522Y-113925789D01*
X148302262Y-113829816D01*
X148429816Y-113702262D01*
X148525789Y-113549522D01*
X148585368Y-113379255D01*
X148596382Y-113281501D01*
X148605565Y-113200003D01*
X148605565Y-113199996D01*
X148585369Y-113020750D01*
X148585368Y-113020745D01*
X148525788Y-112850476D01*
X148429815Y-112697737D01*
X148302262Y-112570184D01*
X148149523Y-112474211D01*
X147979254Y-112414631D01*
X147979249Y-112414630D01*
X147800004Y-112394435D01*
X147799996Y-112394435D01*
X147620750Y-112414630D01*
X147620745Y-112414631D01*
X147450476Y-112474211D01*
X147297736Y-112570185D01*
X147294903Y-112572445D01*
X147292724Y-112573334D01*
X147291842Y-112573889D01*
X147291744Y-112573734D01*
X147230217Y-112598855D01*
X147217588Y-112599500D01*
X141982412Y-112599500D01*
X141915373Y-112579815D01*
X141905097Y-112572445D01*
X141902263Y-112570185D01*
X141902262Y-112570184D01*
X141825892Y-112522197D01*
X141749521Y-112474210D01*
X141579249Y-112414630D01*
X141492331Y-112404837D01*
X141427917Y-112377770D01*
X141418534Y-112369298D01*
X135487590Y-106438355D01*
X135487588Y-106438352D01*
X135368717Y-106319481D01*
X135368716Y-106319480D01*
X135281904Y-106269360D01*
X135281904Y-106269359D01*
X135281900Y-106269358D01*
X135231785Y-106240423D01*
X135079057Y-106199499D01*
X134920943Y-106199499D01*
X134913347Y-106199499D01*
X134913331Y-106199500D01*
X131892341Y-106199500D01*
X131825302Y-106179815D01*
X131804660Y-106163181D01*
X131553659Y-105912180D01*
X131520174Y-105850857D01*
X131525158Y-105781165D01*
X131567030Y-105725232D01*
X131632494Y-105700815D01*
X131641313Y-105700499D01*
X131848099Y-105700499D01*
X131904393Y-105714014D01*
X131956508Y-105740568D01*
X132137559Y-105799395D01*
X132181131Y-105813553D01*
X132414403Y-105850500D01*
X132414408Y-105850500D01*
X139400902Y-105850500D01*
X139467941Y-105870185D01*
X139513696Y-105922989D01*
X139523640Y-105992147D01*
X139494615Y-106055703D01*
X139488583Y-106062181D01*
X138519481Y-107031282D01*
X138519479Y-107031285D01*
X138469361Y-107118094D01*
X138469359Y-107118096D01*
X138440425Y-107168209D01*
X138440422Y-107168216D01*
X138427321Y-107217108D01*
X138395230Y-107272690D01*
X138387402Y-107280520D01*
X138370183Y-107297739D01*
X138274211Y-107450476D01*
X138214631Y-107620745D01*
X138214630Y-107620750D01*
X138194435Y-107799996D01*
X138194435Y-107800003D01*
X138214630Y-107979249D01*
X138214631Y-107979254D01*
X138274211Y-108149523D01*
X138337646Y-108250478D01*
X138370184Y-108302262D01*
X138497738Y-108429816D01*
X138650478Y-108525789D01*
X138754446Y-108562169D01*
X138820745Y-108585368D01*
X138820750Y-108585369D01*
X138999996Y-108605565D01*
X139000000Y-108605565D01*
X139000004Y-108605565D01*
X139179249Y-108585369D01*
X139179252Y-108585368D01*
X139179255Y-108585368D01*
X139349522Y-108525789D01*
X139502262Y-108429816D01*
X139629816Y-108302262D01*
X139725789Y-108149522D01*
X139785368Y-107979255D01*
X139785369Y-107979249D01*
X139805565Y-107800003D01*
X139805565Y-107799996D01*
X139785369Y-107620750D01*
X139785366Y-107620737D01*
X139770437Y-107578072D01*
X139766875Y-107508293D01*
X139799795Y-107449438D01*
X140418535Y-106830698D01*
X140479856Y-106797215D01*
X140492311Y-106795163D01*
X140579255Y-106785368D01*
X140749522Y-106725789D01*
X140902262Y-106629816D01*
X141029816Y-106502262D01*
X141125789Y-106349522D01*
X141185368Y-106179255D01*
X141205565Y-106000000D01*
X141204256Y-105988384D01*
X141216309Y-105919564D01*
X141263657Y-105868184D01*
X141327476Y-105850500D01*
X146677111Y-105850500D01*
X146744150Y-105870185D01*
X146764791Y-105886818D01*
X147603305Y-106725333D01*
X148422491Y-107544519D01*
X148422496Y-107544523D01*
X148589155Y-107665606D01*
X148613567Y-107683343D01*
X148721805Y-107738493D01*
X148773857Y-107765015D01*
X148824653Y-107812990D01*
X148841448Y-107880811D01*
X148818911Y-107946946D01*
X148764195Y-107990397D01*
X148717562Y-107999500D01*
X144582412Y-107999500D01*
X144515373Y-107979815D01*
X144505097Y-107972445D01*
X144502263Y-107970185D01*
X144502262Y-107970184D01*
X144445496Y-107934515D01*
X144349523Y-107874211D01*
X144179254Y-107814631D01*
X144179249Y-107814630D01*
X144000004Y-107794435D01*
X143999996Y-107794435D01*
X143820750Y-107814630D01*
X143820745Y-107814631D01*
X143650476Y-107874211D01*
X143497737Y-107970184D01*
X143370184Y-108097737D01*
X143274211Y-108250476D01*
X143214631Y-108420745D01*
X143214630Y-108420750D01*
X143194435Y-108599996D01*
X143194435Y-108600003D01*
X143214630Y-108779249D01*
X143214631Y-108779254D01*
X143274211Y-108949523D01*
X143370184Y-109102262D01*
X143497738Y-109229816D01*
X143650478Y-109325789D01*
X143770150Y-109367664D01*
X143820745Y-109385368D01*
X143820750Y-109385369D01*
X143999996Y-109405565D01*
X144000000Y-109405565D01*
X144000004Y-109405565D01*
X144179249Y-109385369D01*
X144179252Y-109385368D01*
X144179255Y-109385368D01*
X144349522Y-109325789D01*
X144502262Y-109229816D01*
X144502267Y-109229810D01*
X144505097Y-109227555D01*
X144507275Y-109226665D01*
X144508158Y-109226111D01*
X144508255Y-109226265D01*
X144569783Y-109201145D01*
X144582412Y-109200500D01*
X149913331Y-109200500D01*
X149913347Y-109200501D01*
X149920943Y-109200501D01*
X150079054Y-109200501D01*
X150079057Y-109200501D01*
X150231785Y-109159577D01*
X150281904Y-109130639D01*
X150368716Y-109080520D01*
X150480520Y-108968716D01*
X150480520Y-108968714D01*
X150490728Y-108958507D01*
X150490729Y-108958504D01*
X152080520Y-107368716D01*
X152159577Y-107231784D01*
X152200501Y-107079057D01*
X152200501Y-106920942D01*
X152200501Y-106913347D01*
X152200500Y-106913329D01*
X152200500Y-103329695D01*
X152200501Y-103329682D01*
X152200501Y-103161579D01*
X152197271Y-103149523D01*
X152159577Y-103008851D01*
X152142489Y-102979254D01*
X152080524Y-102871925D01*
X152080518Y-102871917D01*
X151082077Y-101873476D01*
X151048592Y-101812153D01*
X151053576Y-101742461D01*
X151095448Y-101686528D01*
X151108356Y-101678819D01*
X151108043Y-101678276D01*
X151112725Y-101675572D01*
X151112734Y-101675568D01*
X151299139Y-101545047D01*
X151309792Y-101534392D01*
X151371113Y-101500907D01*
X151440805Y-101505889D01*
G37*
%TD.AperFunction*%
%TA.AperFunction,Conductor*%
G36*
X159966942Y-85620185D02*
G01*
X159987584Y-85636819D01*
X161915139Y-87564374D01*
X161915149Y-87564385D01*
X161919479Y-87568715D01*
X161919480Y-87568716D01*
X162031284Y-87680520D01*
X162109693Y-87725789D01*
X162168215Y-87759577D01*
X162320943Y-87800501D01*
X162320946Y-87800501D01*
X162486653Y-87800501D01*
X162486669Y-87800500D01*
X164017588Y-87800500D01*
X164084627Y-87820185D01*
X164094903Y-87827555D01*
X164097736Y-87829814D01*
X164097738Y-87829816D01*
X164250478Y-87925789D01*
X164403258Y-87979249D01*
X164420745Y-87985368D01*
X164420750Y-87985369D01*
X164599996Y-88005565D01*
X164600000Y-88005565D01*
X164600004Y-88005565D01*
X164779249Y-87985369D01*
X164779252Y-87985368D01*
X164779255Y-87985368D01*
X164949522Y-87925789D01*
X165031884Y-87874037D01*
X165099118Y-87855037D01*
X165165954Y-87875404D01*
X165211168Y-87928671D01*
X165220407Y-87997928D01*
X165214899Y-88019977D01*
X165214634Y-88020731D01*
X165214630Y-88020750D01*
X165194435Y-88199996D01*
X165194435Y-88200003D01*
X165214630Y-88379249D01*
X165214631Y-88379254D01*
X165274211Y-88549523D01*
X165294353Y-88581578D01*
X165370184Y-88702262D01*
X165497738Y-88829816D01*
X165650478Y-88925789D01*
X165705100Y-88944902D01*
X165820745Y-88985368D01*
X165820750Y-88985369D01*
X165999996Y-89005565D01*
X166000000Y-89005565D01*
X166000004Y-89005565D01*
X166179249Y-88985369D01*
X166179252Y-88985368D01*
X166179255Y-88985368D01*
X166349522Y-88925789D01*
X166502262Y-88829816D01*
X166629816Y-88702262D01*
X166725789Y-88549522D01*
X166785368Y-88379255D01*
X166805565Y-88200000D01*
X166785368Y-88020745D01*
X166725789Y-87850478D01*
X166629816Y-87697738D01*
X166629814Y-87697736D01*
X166629813Y-87697734D01*
X166627550Y-87694896D01*
X166626659Y-87692715D01*
X166626111Y-87691842D01*
X166626264Y-87691745D01*
X166601144Y-87630209D01*
X166600500Y-87617587D01*
X166600500Y-87597626D01*
X166620185Y-87530587D01*
X166672989Y-87484832D01*
X166742147Y-87474888D01*
X166805703Y-87503913D01*
X166812181Y-87509945D01*
X172363181Y-93060945D01*
X172396666Y-93122268D01*
X172399500Y-93148626D01*
X172399500Y-99250903D01*
X172379815Y-99317942D01*
X172327011Y-99363697D01*
X172257853Y-99373641D01*
X172194297Y-99344616D01*
X172187819Y-99338584D01*
X171805895Y-98956660D01*
X171772410Y-98895337D01*
X171777394Y-98825645D01*
X171788580Y-98803010D01*
X171848128Y-98708242D01*
X171853606Y-98699524D01*
X171859832Y-98681731D01*
X171913186Y-98529255D01*
X171913215Y-98528998D01*
X171933383Y-98350003D01*
X171933383Y-98349996D01*
X171913187Y-98170750D01*
X171913186Y-98170745D01*
X171888877Y-98101275D01*
X171853607Y-98000478D01*
X171845286Y-97987236D01*
X171777734Y-97879727D01*
X171757634Y-97847738D01*
X171630080Y-97720184D01*
X171596665Y-97699188D01*
X171477339Y-97624210D01*
X171307067Y-97564630D01*
X171180303Y-97550347D01*
X171115889Y-97523280D01*
X171106506Y-97514808D01*
X169531185Y-95939487D01*
X169531183Y-95939485D01*
X169465568Y-95901602D01*
X169399954Y-95863719D01*
X169326768Y-95844109D01*
X169253584Y-95824500D01*
X165257353Y-95824500D01*
X165105820Y-95824500D01*
X164959450Y-95863719D01*
X164828222Y-95939485D01*
X164828219Y-95939487D01*
X164828214Y-95939493D01*
X164727896Y-96039810D01*
X164666572Y-96073294D01*
X164654099Y-96075348D01*
X164527337Y-96089630D01*
X164357065Y-96149210D01*
X164204324Y-96245184D01*
X164076771Y-96372737D01*
X163980798Y-96525476D01*
X163921218Y-96695745D01*
X163921217Y-96695750D01*
X163901022Y-96874996D01*
X163901022Y-96875003D01*
X163921217Y-97054249D01*
X163921218Y-97054254D01*
X163980798Y-97224523D01*
X164071088Y-97368217D01*
X164076771Y-97377262D01*
X164204325Y-97504816D01*
X164269057Y-97545490D01*
X164299521Y-97564632D01*
X164357065Y-97600789D01*
X164518536Y-97657290D01*
X164527332Y-97660368D01*
X164527337Y-97660369D01*
X164706583Y-97680565D01*
X164706587Y-97680565D01*
X164706591Y-97680565D01*
X164885838Y-97660369D01*
X164892624Y-97658820D01*
X164892989Y-97660420D01*
X164954219Y-97657290D01*
X165014849Y-97692015D01*
X165021185Y-97699143D01*
X165021222Y-97699188D01*
X165048594Y-97763473D01*
X165049441Y-97777941D01*
X165049441Y-98363271D01*
X165049440Y-98363289D01*
X165049440Y-98528995D01*
X165049439Y-98528995D01*
X165090365Y-98681730D01*
X165090366Y-98681731D01*
X165105672Y-98708241D01*
X165105673Y-98708242D01*
X165169418Y-98818653D01*
X165169422Y-98818658D01*
X165288290Y-98937526D01*
X165288296Y-98937531D01*
X167563181Y-101212416D01*
X167596666Y-101273739D01*
X167599500Y-101300097D01*
X167599500Y-104899902D01*
X167579815Y-104966941D01*
X167563181Y-104987583D01*
X166894259Y-105656505D01*
X166832936Y-105689990D01*
X166763244Y-105685006D01*
X166718897Y-105656505D01*
X166703035Y-105640643D01*
X166550296Y-105544670D01*
X166380027Y-105485090D01*
X166380022Y-105485089D01*
X166200777Y-105464894D01*
X166200769Y-105464894D01*
X166021523Y-105485089D01*
X166021518Y-105485090D01*
X165851249Y-105544670D01*
X165698509Y-105640644D01*
X165695676Y-105642904D01*
X165693497Y-105643793D01*
X165692615Y-105644348D01*
X165692517Y-105644193D01*
X165630990Y-105669314D01*
X165618361Y-105669959D01*
X162853399Y-105669959D01*
X162786360Y-105650274D01*
X162765718Y-105633640D01*
X162702262Y-105570184D01*
X162549523Y-105474211D01*
X162379254Y-105414631D01*
X162379249Y-105414630D01*
X162200004Y-105394435D01*
X162199996Y-105394435D01*
X162020750Y-105414630D01*
X162020745Y-105414631D01*
X161850476Y-105474211D01*
X161697737Y-105570184D01*
X161570184Y-105697737D01*
X161474211Y-105850476D01*
X161414631Y-106020745D01*
X161414630Y-106020750D01*
X161394435Y-106199996D01*
X161394435Y-106200003D01*
X161414630Y-106379249D01*
X161414631Y-106379254D01*
X161474211Y-106549523D01*
X161524662Y-106629815D01*
X161570184Y-106702262D01*
X161697738Y-106829816D01*
X161774040Y-106877760D01*
X161842757Y-106920938D01*
X161850478Y-106925789D01*
X162020745Y-106985368D01*
X162020750Y-106985369D01*
X162199996Y-107005565D01*
X162200000Y-107005565D01*
X162200004Y-107005565D01*
X162379249Y-106985369D01*
X162379252Y-106985368D01*
X162379255Y-106985368D01*
X162549522Y-106925789D01*
X162557243Y-106920938D01*
X162606534Y-106889966D01*
X162672507Y-106870959D01*
X165380443Y-106870959D01*
X165447482Y-106890644D01*
X165493237Y-106943448D01*
X165503181Y-107012606D01*
X165474156Y-107076162D01*
X165468124Y-107082640D01*
X163943746Y-108607017D01*
X163943740Y-108607025D01*
X163902154Y-108679056D01*
X163902154Y-108679057D01*
X163864688Y-108743950D01*
X163823764Y-108896678D01*
X163823764Y-108896680D01*
X163823764Y-109064781D01*
X163823765Y-109064794D01*
X163823765Y-109841852D01*
X163804080Y-109908891D01*
X163796715Y-109919161D01*
X163794451Y-109921999D01*
X163698476Y-110074741D01*
X163638896Y-110245010D01*
X163638895Y-110245015D01*
X163618700Y-110424261D01*
X163618700Y-110424268D01*
X163638895Y-110603514D01*
X163638896Y-110603519D01*
X163698476Y-110773788D01*
X163770287Y-110888074D01*
X163794449Y-110926527D01*
X163922003Y-111054081D01*
X164074743Y-111150054D01*
X164245010Y-111209633D01*
X164245015Y-111209634D01*
X164424261Y-111229830D01*
X164424265Y-111229830D01*
X164424269Y-111229830D01*
X164603514Y-111209634D01*
X164603517Y-111209633D01*
X164603520Y-111209633D01*
X164773787Y-111150054D01*
X164926527Y-111054081D01*
X165054081Y-110926527D01*
X165150054Y-110773787D01*
X165209633Y-110603520D01*
X165209634Y-110603514D01*
X165229830Y-110424268D01*
X165229830Y-110424261D01*
X165209634Y-110245015D01*
X165209633Y-110245010D01*
X165170063Y-110131925D01*
X165150054Y-110074743D01*
X165054081Y-109922003D01*
X165054079Y-109922001D01*
X165054078Y-109921999D01*
X165051815Y-109919161D01*
X165050924Y-109916980D01*
X165050376Y-109916107D01*
X165050529Y-109916010D01*
X165025409Y-109854474D01*
X165024765Y-109841852D01*
X165024765Y-109275831D01*
X165044450Y-109208792D01*
X165061079Y-109188155D01*
X167850910Y-106398323D01*
X167912231Y-106364840D01*
X167981923Y-106369824D01*
X168037856Y-106411696D01*
X168062273Y-106477160D01*
X168062117Y-106496813D01*
X168044341Y-106699997D01*
X168044341Y-106700000D01*
X168064936Y-106935403D01*
X168064938Y-106935413D01*
X168126094Y-107163655D01*
X168126096Y-107163659D01*
X168126097Y-107163663D01*
X168221712Y-107368709D01*
X168225965Y-107377830D01*
X168225967Y-107377834D01*
X168312564Y-107501506D01*
X168361501Y-107571396D01*
X168361506Y-107571402D01*
X168528597Y-107738493D01*
X168528603Y-107738498D01*
X168714158Y-107868425D01*
X168757783Y-107923002D01*
X168764977Y-107992500D01*
X168733454Y-108054855D01*
X168714158Y-108071575D01*
X168528597Y-108201505D01*
X168361505Y-108368597D01*
X168225965Y-108562169D01*
X168225964Y-108562171D01*
X168126098Y-108776335D01*
X168126094Y-108776344D01*
X168064938Y-109004586D01*
X168064936Y-109004596D01*
X168044341Y-109239999D01*
X168044341Y-109240000D01*
X168064936Y-109475403D01*
X168064938Y-109475413D01*
X168126094Y-109703655D01*
X168126096Y-109703659D01*
X168126097Y-109703663D01*
X168190536Y-109841852D01*
X168225965Y-109917830D01*
X168225967Y-109917834D01*
X168312564Y-110041506D01*
X168361501Y-110111396D01*
X168361506Y-110111402D01*
X168528597Y-110278493D01*
X168528603Y-110278498D01*
X168714158Y-110408425D01*
X168757783Y-110463002D01*
X168764977Y-110532500D01*
X168733454Y-110594855D01*
X168714158Y-110611575D01*
X168528597Y-110741505D01*
X168361505Y-110908597D01*
X168225965Y-111102169D01*
X168225964Y-111102171D01*
X168126098Y-111316335D01*
X168126094Y-111316344D01*
X168064938Y-111544586D01*
X168064936Y-111544596D01*
X168045342Y-111768563D01*
X168044341Y-111780000D01*
X168054375Y-111894693D01*
X168040610Y-111963192D01*
X167991995Y-112013375D01*
X167930848Y-112029500D01*
X163730097Y-112029500D01*
X163663058Y-112009815D01*
X163642416Y-111993181D01*
X153554311Y-101905076D01*
X153520826Y-101843753D01*
X153525810Y-101774061D01*
X153567682Y-101718128D01*
X153589575Y-101705019D01*
X153652734Y-101675568D01*
X153839139Y-101545047D01*
X154000047Y-101384139D01*
X154130568Y-101197734D01*
X154226739Y-100991496D01*
X154285635Y-100771692D01*
X154305468Y-100545000D01*
X154285635Y-100318308D01*
X154250014Y-100185368D01*
X154242304Y-100156593D01*
X154243967Y-100086743D01*
X154283130Y-100028881D01*
X154347358Y-100001377D01*
X154362079Y-100000500D01*
X161299903Y-100000500D01*
X161366942Y-100020185D01*
X161387584Y-100036819D01*
X162104852Y-100754087D01*
X162138337Y-100815410D01*
X162133353Y-100885102D01*
X162091481Y-100941035D01*
X162026017Y-100965452D01*
X162017171Y-100965768D01*
X159312789Y-100965768D01*
X159154675Y-100965768D01*
X159001947Y-101006691D01*
X159001946Y-101006691D01*
X159001944Y-101006692D01*
X159001941Y-101006693D01*
X158951828Y-101035627D01*
X158951827Y-101035628D01*
X158908421Y-101060688D01*
X158865017Y-101085747D01*
X158865014Y-101085749D01*
X158753210Y-101197554D01*
X158381465Y-101569298D01*
X158320142Y-101602783D01*
X158307668Y-101604837D01*
X158220750Y-101614630D01*
X158050478Y-101674210D01*
X157897737Y-101770184D01*
X157770184Y-101897737D01*
X157674211Y-102050476D01*
X157614631Y-102220745D01*
X157614630Y-102220750D01*
X157594435Y-102399996D01*
X157594435Y-102400003D01*
X157614630Y-102579249D01*
X157614631Y-102579254D01*
X157674211Y-102749523D01*
X157760246Y-102886446D01*
X157770184Y-102902262D01*
X157897738Y-103029816D01*
X158050478Y-103125789D01*
X158118306Y-103149523D01*
X158220745Y-103185368D01*
X158220750Y-103185369D01*
X158399996Y-103205565D01*
X158400000Y-103205565D01*
X158400004Y-103205565D01*
X158579249Y-103185369D01*
X158579252Y-103185368D01*
X158579255Y-103185368D01*
X158749522Y-103125789D01*
X158902262Y-103029816D01*
X159029816Y-102902262D01*
X159125789Y-102749522D01*
X159185368Y-102579255D01*
X159195161Y-102492329D01*
X159222226Y-102427918D01*
X159230680Y-102418553D01*
X159446149Y-102203084D01*
X159507471Y-102169602D01*
X159533829Y-102166768D01*
X161983328Y-102166768D01*
X162050367Y-102186453D01*
X162071008Y-102203086D01*
X162097738Y-102229816D01*
X162188080Y-102286582D01*
X162205833Y-102297737D01*
X162250478Y-102325789D01*
X162372288Y-102368412D01*
X162420745Y-102385368D01*
X162420749Y-102385369D01*
X162504702Y-102394827D01*
X162578598Y-102403153D01*
X162643011Y-102430219D01*
X162682566Y-102487813D01*
X162687934Y-102540256D01*
X162681328Y-102598888D01*
X162681328Y-102598895D01*
X162701523Y-102778141D01*
X162701524Y-102778146D01*
X162761104Y-102948415D01*
X162835401Y-103066657D01*
X162857077Y-103101154D01*
X162984631Y-103228708D01*
X163047282Y-103268074D01*
X163129432Y-103319693D01*
X163137371Y-103324681D01*
X163243414Y-103361787D01*
X163307638Y-103384260D01*
X163307643Y-103384261D01*
X163434405Y-103398543D01*
X163498819Y-103425609D01*
X163508203Y-103434082D01*
X163602486Y-103528365D01*
X163709636Y-103635515D01*
X163840866Y-103711281D01*
X163987235Y-103750500D01*
X163987237Y-103750500D01*
X166150764Y-103750500D01*
X166150766Y-103750500D01*
X166297135Y-103711281D01*
X166428365Y-103635515D01*
X166428679Y-103635200D01*
X166429009Y-103635020D01*
X166434816Y-103630565D01*
X166435509Y-103631469D01*
X166489993Y-103601708D01*
X166502455Y-103599654D01*
X166629255Y-103585368D01*
X166799522Y-103525789D01*
X166952262Y-103429816D01*
X167079816Y-103302262D01*
X167175789Y-103149522D01*
X167235368Y-102979255D01*
X167237221Y-102962810D01*
X167255565Y-102800003D01*
X167255565Y-102799996D01*
X167235369Y-102620750D01*
X167235368Y-102620745D01*
X167220848Y-102579249D01*
X167175789Y-102450478D01*
X167174995Y-102449215D01*
X167124223Y-102368412D01*
X167079816Y-102297738D01*
X166952262Y-102170184D01*
X166951336Y-102169602D01*
X166799523Y-102074211D01*
X166629254Y-102014631D01*
X166629249Y-102014630D01*
X166450004Y-101994435D01*
X166449996Y-101994435D01*
X166270746Y-102014631D01*
X166270745Y-102014631D01*
X166252401Y-102021050D01*
X166182622Y-102024611D01*
X166123767Y-101991689D01*
X166102262Y-101970184D01*
X165949523Y-101874211D01*
X165779254Y-101814631D01*
X165779249Y-101814630D01*
X165600004Y-101794435D01*
X165599996Y-101794435D01*
X165420750Y-101814630D01*
X165420745Y-101814631D01*
X165250476Y-101874211D01*
X165133370Y-101947795D01*
X165066134Y-101966795D01*
X164999298Y-101946427D01*
X164979717Y-101930482D01*
X162087590Y-99038355D01*
X162087588Y-99038352D01*
X161968717Y-98919481D01*
X161968709Y-98919475D01*
X161866936Y-98860717D01*
X161866934Y-98860716D01*
X161831790Y-98840425D01*
X161831789Y-98840424D01*
X161819263Y-98837067D01*
X161679057Y-98799499D01*
X161520943Y-98799499D01*
X161513347Y-98799499D01*
X161513331Y-98799500D01*
X152267421Y-98799500D01*
X152200382Y-98779815D01*
X152179740Y-98763182D01*
X152090096Y-98673539D01*
X152056611Y-98612216D01*
X152054558Y-98599757D01*
X152044764Y-98512819D01*
X151985185Y-98342552D01*
X151889212Y-98189812D01*
X151861998Y-98162598D01*
X151828513Y-98101275D01*
X151833497Y-98031583D01*
X151861998Y-97987236D01*
X152649238Y-97199996D01*
X154994435Y-97199996D01*
X154994435Y-97200003D01*
X155014630Y-97379249D01*
X155014631Y-97379254D01*
X155074211Y-97549523D01*
X155143860Y-97660368D01*
X155170184Y-97702262D01*
X155297738Y-97829816D01*
X155450478Y-97925789D01*
X155620745Y-97985368D01*
X155620750Y-97985369D01*
X155799996Y-98005565D01*
X155800000Y-98005565D01*
X155800004Y-98005565D01*
X155979249Y-97985369D01*
X155979252Y-97985368D01*
X155979255Y-97985368D01*
X156149522Y-97925789D01*
X156302262Y-97829816D01*
X156429816Y-97702262D01*
X156525789Y-97549522D01*
X156585368Y-97379255D01*
X156593101Y-97310616D01*
X156620166Y-97246204D01*
X156677760Y-97206648D01*
X156716321Y-97200500D01*
X161883678Y-97200500D01*
X161950717Y-97220185D01*
X161996472Y-97272989D01*
X162006898Y-97310617D01*
X162014630Y-97379249D01*
X162074210Y-97549521D01*
X162143860Y-97660368D01*
X162170184Y-97702262D01*
X162297738Y-97829816D01*
X162450478Y-97925789D01*
X162620745Y-97985368D01*
X162620750Y-97985369D01*
X162799996Y-98005565D01*
X162800000Y-98005565D01*
X162800004Y-98005565D01*
X162979249Y-97985369D01*
X162979252Y-97985368D01*
X162979255Y-97985368D01*
X163149522Y-97925789D01*
X163302262Y-97829816D01*
X163429816Y-97702262D01*
X163525789Y-97549522D01*
X163585368Y-97379255D01*
X163591481Y-97325000D01*
X163605565Y-97200003D01*
X163605565Y-97199996D01*
X163585369Y-97020750D01*
X163585368Y-97020745D01*
X163553797Y-96930520D01*
X163525789Y-96850478D01*
X163525788Y-96850476D01*
X163525787Y-96850473D01*
X163452205Y-96733369D01*
X163433204Y-96666133D01*
X163453571Y-96599298D01*
X163469512Y-96579721D01*
X164743041Y-95306192D01*
X164804362Y-95272709D01*
X164844604Y-95270655D01*
X164932556Y-95280565D01*
X164932559Y-95280565D01*
X164932563Y-95280565D01*
X165111808Y-95260369D01*
X165111811Y-95260368D01*
X165111814Y-95260368D01*
X165282081Y-95200789D01*
X165434821Y-95104816D01*
X165562375Y-94977262D01*
X165658348Y-94824522D01*
X165717927Y-94654255D01*
X165725439Y-94587583D01*
X165738124Y-94475003D01*
X165738124Y-94474996D01*
X165717928Y-94295750D01*
X165717927Y-94295745D01*
X165699204Y-94242237D01*
X165658348Y-94125478D01*
X165562375Y-93972738D01*
X165434821Y-93845184D01*
X165334112Y-93781904D01*
X165282082Y-93749211D01*
X165111813Y-93689631D01*
X165111808Y-93689630D01*
X164932563Y-93669435D01*
X164932555Y-93669435D01*
X164753309Y-93689630D01*
X164753304Y-93689631D01*
X164583035Y-93749211D01*
X164430296Y-93845184D01*
X164302743Y-93972737D01*
X164206770Y-94125478D01*
X164206768Y-94125483D01*
X164206148Y-94127255D01*
X164205149Y-94128843D01*
X164203747Y-94131756D01*
X164203418Y-94131597D01*
X164176790Y-94173973D01*
X162387584Y-95963181D01*
X162326261Y-95996666D01*
X162299903Y-95999500D01*
X159631940Y-95999500D01*
X159564901Y-95979815D01*
X159519146Y-95927011D01*
X159509202Y-95857853D01*
X159538227Y-95794297D01*
X159544259Y-95787819D01*
X159563865Y-95768213D01*
X159629816Y-95702262D01*
X159725789Y-95549522D01*
X159785368Y-95379255D01*
X159795161Y-95292329D01*
X159822226Y-95227918D01*
X159830690Y-95218543D01*
X161425572Y-93623662D01*
X161486893Y-93590179D01*
X161556585Y-93595163D01*
X161587558Y-93612076D01*
X161668665Y-93672793D01*
X161668668Y-93672795D01*
X161668671Y-93672797D01*
X161803517Y-93723091D01*
X161803516Y-93723091D01*
X161810444Y-93723835D01*
X161863127Y-93729500D01*
X163336872Y-93729499D01*
X163396483Y-93723091D01*
X163531331Y-93672796D01*
X163646546Y-93586546D01*
X163732796Y-93471331D01*
X163783091Y-93336483D01*
X163789500Y-93276873D01*
X163789499Y-91803128D01*
X163783091Y-91743517D01*
X163768761Y-91705097D01*
X163732797Y-91608671D01*
X163732793Y-91608664D01*
X163646547Y-91493455D01*
X163646544Y-91493452D01*
X163531335Y-91407206D01*
X163531328Y-91407202D01*
X163396482Y-91356908D01*
X163396483Y-91356908D01*
X163336883Y-91350501D01*
X163336881Y-91350500D01*
X163336873Y-91350500D01*
X163336865Y-91350500D01*
X163070108Y-91350500D01*
X163003069Y-91330815D01*
X162957314Y-91278011D01*
X162947370Y-91208853D01*
X162976395Y-91145297D01*
X163025312Y-91110874D01*
X163132477Y-91069358D01*
X163319905Y-90953308D01*
X163482817Y-90804794D01*
X163615666Y-90628874D01*
X163713928Y-90431538D01*
X163774256Y-90219506D01*
X163794596Y-90000000D01*
X163774256Y-89780494D01*
X163713928Y-89568462D01*
X163679706Y-89499735D01*
X163615669Y-89371131D01*
X163615664Y-89371123D01*
X163482815Y-89195203D01*
X163319905Y-89046692D01*
X163319903Y-89046690D01*
X163132480Y-88930643D01*
X163132474Y-88930640D01*
X163046366Y-88897282D01*
X162926917Y-88851007D01*
X162710223Y-88810500D01*
X162489777Y-88810500D01*
X162273083Y-88851007D01*
X162223701Y-88870137D01*
X162067525Y-88930640D01*
X162067519Y-88930643D01*
X161880096Y-89046690D01*
X161880094Y-89046692D01*
X161717184Y-89195203D01*
X161584335Y-89371123D01*
X161584330Y-89371131D01*
X161486073Y-89568458D01*
X161425743Y-89780498D01*
X161405404Y-89999999D01*
X161405404Y-90000000D01*
X161425743Y-90219504D01*
X161433118Y-90245424D01*
X161432530Y-90315291D01*
X161394262Y-90373749D01*
X161330464Y-90402238D01*
X161327735Y-90402576D01*
X161220749Y-90414630D01*
X161220745Y-90414631D01*
X161050476Y-90474211D01*
X160897737Y-90570184D01*
X160770184Y-90697737D01*
X160674211Y-90850476D01*
X160614631Y-91020745D01*
X160614630Y-91020750D01*
X160594435Y-91199996D01*
X160594435Y-91200003D01*
X160614630Y-91379249D01*
X160614631Y-91379254D01*
X160674211Y-91549523D01*
X160730663Y-91639365D01*
X160769214Y-91700719D01*
X160770185Y-91702263D01*
X160772445Y-91705097D01*
X160773334Y-91707275D01*
X160773889Y-91708158D01*
X160773734Y-91708255D01*
X160798855Y-91769783D01*
X160799500Y-91782412D01*
X160799500Y-92499902D01*
X160779815Y-92566941D01*
X160763181Y-92587583D01*
X158981465Y-94369298D01*
X158920142Y-94402783D01*
X158907668Y-94404837D01*
X158820750Y-94414630D01*
X158650478Y-94474210D01*
X158497737Y-94570184D01*
X158370184Y-94697737D01*
X158274211Y-94850476D01*
X158214631Y-95020745D01*
X158214630Y-95020750D01*
X158194435Y-95199996D01*
X158194435Y-95200003D01*
X158214630Y-95379249D01*
X158214631Y-95379254D01*
X158274211Y-95549523D01*
X158370184Y-95702262D01*
X158455741Y-95787819D01*
X158489226Y-95849142D01*
X158484242Y-95918834D01*
X158442370Y-95974767D01*
X158376906Y-95999184D01*
X158368060Y-95999500D01*
X156320943Y-95999500D01*
X156168214Y-96040423D01*
X156157458Y-96046634D01*
X156157455Y-96046635D01*
X156031290Y-96119475D01*
X156031284Y-96119480D01*
X155919480Y-96231284D01*
X155919478Y-96231286D01*
X155850264Y-96300500D01*
X155781465Y-96369299D01*
X155720142Y-96402783D01*
X155707668Y-96404837D01*
X155620750Y-96414630D01*
X155450478Y-96474210D01*
X155297737Y-96570184D01*
X155170184Y-96697737D01*
X155074211Y-96850476D01*
X155014631Y-97020745D01*
X155014630Y-97020750D01*
X154994435Y-97199996D01*
X152649238Y-97199996D01*
X153200499Y-96648735D01*
X154558506Y-95290728D01*
X154558511Y-95290724D01*
X154568714Y-95280520D01*
X154568716Y-95280520D01*
X154680520Y-95168716D01*
X154684127Y-95162468D01*
X154734338Y-95075501D01*
X154734339Y-95075499D01*
X154759574Y-95031790D01*
X154759573Y-95031790D01*
X154759577Y-95031785D01*
X154800500Y-94879058D01*
X154800500Y-94720943D01*
X154800500Y-86410943D01*
X154759577Y-86258216D01*
X154734414Y-86214632D01*
X154680524Y-86121290D01*
X154680521Y-86121286D01*
X154680520Y-86121284D01*
X154568716Y-86009480D01*
X154568715Y-86009479D01*
X154564385Y-86005149D01*
X154564374Y-86005139D01*
X154371416Y-85812181D01*
X154337931Y-85750858D01*
X154342915Y-85681166D01*
X154384787Y-85625233D01*
X154450251Y-85600816D01*
X154459097Y-85600500D01*
X159899903Y-85600500D01*
X159966942Y-85620185D01*
G37*
%TD.AperFunction*%
%TA.AperFunction,Conductor*%
G36*
X149516212Y-93835536D02*
G01*
X149560559Y-93864037D01*
X149621179Y-93924657D01*
X149807518Y-94055134D01*
X149807520Y-94055135D01*
X149979904Y-94135519D01*
X150032344Y-94181691D01*
X150051496Y-94248884D01*
X150031280Y-94315766D01*
X150015181Y-94335582D01*
X148831286Y-95519478D01*
X148719481Y-95631282D01*
X148719475Y-95631290D01*
X148678501Y-95702261D01*
X148678501Y-95702262D01*
X148640423Y-95768215D01*
X148599499Y-95920943D01*
X148599499Y-95920945D01*
X148599499Y-96089046D01*
X148599500Y-96089059D01*
X148599500Y-99232271D01*
X148579815Y-99299310D01*
X148527011Y-99345065D01*
X148457853Y-99355009D01*
X148423096Y-99344654D01*
X148403096Y-99335328D01*
X148366496Y-99318261D01*
X148366493Y-99318260D01*
X148366488Y-99318258D01*
X148146697Y-99259366D01*
X148146693Y-99259365D01*
X148146692Y-99259365D01*
X148146691Y-99259364D01*
X148146686Y-99259364D01*
X147920002Y-99239532D01*
X147919998Y-99239532D01*
X147693313Y-99259364D01*
X147693302Y-99259366D01*
X147473511Y-99318258D01*
X147473502Y-99318261D01*
X147267267Y-99414431D01*
X147267265Y-99414432D01*
X147080858Y-99544954D01*
X146919954Y-99705858D01*
X146789432Y-99892265D01*
X146789431Y-99892267D01*
X146762382Y-99950275D01*
X146716209Y-100002714D01*
X146649016Y-100021866D01*
X146582135Y-100001650D01*
X146537618Y-99950275D01*
X146510568Y-99892267D01*
X146510567Y-99892265D01*
X146380045Y-99705858D01*
X146219141Y-99544954D01*
X146032734Y-99414432D01*
X146032732Y-99414431D01*
X145826497Y-99318261D01*
X145826488Y-99318258D01*
X145606697Y-99259366D01*
X145606693Y-99259365D01*
X145606692Y-99259365D01*
X145606691Y-99259364D01*
X145606686Y-99259364D01*
X145380002Y-99239532D01*
X145379998Y-99239532D01*
X145153313Y-99259364D01*
X145153302Y-99259366D01*
X144933511Y-99318258D01*
X144933502Y-99318261D01*
X144727267Y-99414431D01*
X144727265Y-99414432D01*
X144540858Y-99544954D01*
X144379954Y-99705858D01*
X144249432Y-99892265D01*
X144249431Y-99892267D01*
X144153261Y-100098502D01*
X144153258Y-100098511D01*
X144094366Y-100318302D01*
X144094364Y-100318313D01*
X144074532Y-100544998D01*
X144074532Y-100545001D01*
X144094364Y-100771686D01*
X144094366Y-100771697D01*
X144153258Y-100991488D01*
X144153261Y-100991497D01*
X144249431Y-101197732D01*
X144249432Y-101197734D01*
X144379954Y-101384141D01*
X144540858Y-101545045D01*
X144540861Y-101545047D01*
X144727266Y-101675568D01*
X144933504Y-101771739D01*
X144933509Y-101771740D01*
X144933511Y-101771741D01*
X144953631Y-101777132D01*
X145153308Y-101830635D01*
X145315230Y-101844801D01*
X145379998Y-101850468D01*
X145380000Y-101850468D01*
X145380002Y-101850468D01*
X145436673Y-101845509D01*
X145606692Y-101830635D01*
X145826496Y-101771739D01*
X146032734Y-101675568D01*
X146219139Y-101545047D01*
X146380047Y-101384139D01*
X146510568Y-101197734D01*
X146537618Y-101139724D01*
X146583790Y-101087285D01*
X146650983Y-101068133D01*
X146717865Y-101088348D01*
X146762381Y-101139724D01*
X146776517Y-101170038D01*
X146789429Y-101197728D01*
X146789432Y-101197734D01*
X146919954Y-101384141D01*
X147080858Y-101545045D01*
X147080861Y-101545047D01*
X147267266Y-101675568D01*
X147473504Y-101771739D01*
X147473509Y-101771740D01*
X147473511Y-101771741D01*
X147493631Y-101777132D01*
X147693308Y-101830635D01*
X147855230Y-101844801D01*
X147919998Y-101850468D01*
X147920000Y-101850468D01*
X147920002Y-101850468D01*
X147976673Y-101845509D01*
X148146692Y-101830635D01*
X148366496Y-101771739D01*
X148572734Y-101675568D01*
X148759139Y-101545047D01*
X148819478Y-101484707D01*
X148880798Y-101451224D01*
X148950490Y-101456208D01*
X148994838Y-101484709D01*
X150963181Y-103453051D01*
X150996666Y-103514374D01*
X150999500Y-103540732D01*
X150999500Y-105717562D01*
X150979815Y-105784601D01*
X150927011Y-105830356D01*
X150857853Y-105840300D01*
X150794297Y-105811275D01*
X150765015Y-105773857D01*
X150727798Y-105700815D01*
X150683343Y-105613567D01*
X150619697Y-105525965D01*
X150544523Y-105422496D01*
X150544519Y-105422491D01*
X148327512Y-103205485D01*
X148327511Y-103205484D01*
X148299825Y-103185369D01*
X148136434Y-103066657D01*
X147925996Y-102959433D01*
X147701368Y-102886446D01*
X147468097Y-102849500D01*
X147468092Y-102849500D01*
X133711495Y-102849500D01*
X133644456Y-102829815D01*
X133598701Y-102777011D01*
X133588757Y-102707853D01*
X133611177Y-102652615D01*
X133680048Y-102557820D01*
X133680047Y-102557820D01*
X133680051Y-102557816D01*
X133776557Y-102368412D01*
X133842246Y-102166243D01*
X133875500Y-101956287D01*
X133875500Y-101743713D01*
X133842246Y-101533757D01*
X133776557Y-101331588D01*
X133680051Y-101142184D01*
X133680049Y-101142181D01*
X133680048Y-101142179D01*
X133555109Y-100970213D01*
X133404790Y-100819894D01*
X133404785Y-100819890D01*
X133239781Y-100700008D01*
X133197115Y-100644678D01*
X133191136Y-100575065D01*
X133223741Y-100513270D01*
X133239781Y-100499371D01*
X133404466Y-100379721D01*
X133554723Y-100229464D01*
X133554727Y-100229459D01*
X133679620Y-100057557D01*
X133776095Y-99868217D01*
X133841757Y-99666129D01*
X133841757Y-99666126D01*
X133852231Y-99600000D01*
X132804146Y-99600000D01*
X132842630Y-99533343D01*
X132875000Y-99412535D01*
X132875000Y-99287465D01*
X132842630Y-99166657D01*
X132804146Y-99100000D01*
X133852231Y-99100000D01*
X133841757Y-99033873D01*
X133841757Y-99033870D01*
X133776095Y-98831782D01*
X133679620Y-98642442D01*
X133554727Y-98470540D01*
X133554723Y-98470535D01*
X133404460Y-98320272D01*
X133239355Y-98200318D01*
X133196689Y-98144989D01*
X133190710Y-98075375D01*
X133223315Y-98013580D01*
X133239355Y-97999682D01*
X133404460Y-97879727D01*
X133554723Y-97729464D01*
X133554727Y-97729459D01*
X133679620Y-97557557D01*
X133776095Y-97368217D01*
X133841755Y-97166134D01*
X133843503Y-97155103D01*
X133873432Y-97091968D01*
X133932743Y-97055037D01*
X133965977Y-97050500D01*
X138963331Y-97050500D01*
X138963347Y-97050501D01*
X138970943Y-97050501D01*
X139129054Y-97050501D01*
X139129057Y-97050501D01*
X139281785Y-97009577D01*
X139331904Y-96980639D01*
X139418716Y-96930520D01*
X139530520Y-96818716D01*
X139530520Y-96818714D01*
X139540728Y-96808507D01*
X139540729Y-96808504D01*
X140112416Y-96236819D01*
X140173739Y-96203334D01*
X140200097Y-96200500D01*
X146713331Y-96200500D01*
X146713347Y-96200501D01*
X146720943Y-96200501D01*
X146879054Y-96200501D01*
X146879057Y-96200501D01*
X147031785Y-96159577D01*
X147101233Y-96119481D01*
X147168716Y-96080520D01*
X147280520Y-95968716D01*
X147280520Y-95968714D01*
X147290724Y-95958511D01*
X147290727Y-95958506D01*
X149385200Y-93864035D01*
X149446520Y-93830552D01*
X149516212Y-93835536D01*
G37*
%TD.AperFunction*%
%TA.AperFunction,Conductor*%
G36*
X132650000Y-98945854D02*
G01*
X132583343Y-98907370D01*
X132462535Y-98875000D01*
X132337465Y-98875000D01*
X132216657Y-98907370D01*
X132150000Y-98945854D01*
X132150000Y-97254145D01*
X132216657Y-97292630D01*
X132337465Y-97325000D01*
X132462535Y-97325000D01*
X132583343Y-97292630D01*
X132650000Y-97254145D01*
X132650000Y-98945854D01*
G37*
%TD.AperFunction*%
%TA.AperFunction,Conductor*%
G36*
X149230471Y-64870185D02*
G01*
X149251113Y-64886819D01*
X150528668Y-66164374D01*
X150528678Y-66164385D01*
X150533008Y-66168715D01*
X150533009Y-66168716D01*
X150644813Y-66280520D01*
X150699080Y-66311850D01*
X150731624Y-66330639D01*
X150731626Y-66330641D01*
X150765157Y-66350000D01*
X150781744Y-66359577D01*
X150934472Y-66400501D01*
X150934475Y-66400501D01*
X151100182Y-66400501D01*
X151100198Y-66400500D01*
X152113331Y-66400500D01*
X152113347Y-66400501D01*
X152120943Y-66400501D01*
X152279054Y-66400501D01*
X152279057Y-66400501D01*
X152431785Y-66359577D01*
X152481904Y-66330639D01*
X152568716Y-66280520D01*
X152680520Y-66168716D01*
X152680520Y-66168714D01*
X152690728Y-66158507D01*
X152690730Y-66158504D01*
X153418535Y-65430698D01*
X153479856Y-65397215D01*
X153492311Y-65395163D01*
X153579255Y-65385368D01*
X153749522Y-65325789D01*
X153902262Y-65229816D01*
X153920259Y-65211819D01*
X153981582Y-65178334D01*
X154007940Y-65175500D01*
X161910258Y-65175500D01*
X161977297Y-65195185D01*
X161997939Y-65211819D01*
X169188181Y-72402061D01*
X169221666Y-72463384D01*
X169224500Y-72489742D01*
X169224500Y-73992060D01*
X169204815Y-74059099D01*
X169188181Y-74079741D01*
X169170184Y-74097737D01*
X169074211Y-74250476D01*
X169014631Y-74420745D01*
X169014630Y-74420750D01*
X168994435Y-74599996D01*
X168994435Y-74600003D01*
X169014630Y-74779249D01*
X169014631Y-74779254D01*
X169074211Y-74949523D01*
X169086178Y-74968568D01*
X169170184Y-75102262D01*
X169297738Y-75229816D01*
X169450478Y-75325789D01*
X169620745Y-75385368D01*
X169620750Y-75385369D01*
X169799996Y-75405565D01*
X169800000Y-75405565D01*
X169800004Y-75405565D01*
X169979249Y-75385369D01*
X169979252Y-75385368D01*
X169979255Y-75385368D01*
X170149522Y-75325789D01*
X170302262Y-75229816D01*
X170429816Y-75102262D01*
X170525789Y-74949522D01*
X170585368Y-74779255D01*
X170585369Y-74779249D01*
X170605565Y-74600003D01*
X170605565Y-74599996D01*
X170585369Y-74420750D01*
X170585368Y-74420745D01*
X170525788Y-74250476D01*
X170429815Y-74097737D01*
X170411819Y-74079741D01*
X170378334Y-74018418D01*
X170375500Y-73992060D01*
X170375500Y-72124237D01*
X170375499Y-72124230D01*
X170374226Y-72119481D01*
X170374223Y-72119470D01*
X170352699Y-72039141D01*
X170336281Y-71977865D01*
X170260515Y-71846635D01*
X169777064Y-71363184D01*
X169743579Y-71301861D01*
X169748563Y-71232169D01*
X169790435Y-71176236D01*
X169855899Y-71151819D01*
X169904339Y-71157994D01*
X169977464Y-71182633D01*
X170332235Y-71260724D01*
X170693366Y-71299999D01*
X170693374Y-71300000D01*
X171056626Y-71300000D01*
X171056633Y-71299999D01*
X171417764Y-71260724D01*
X171772538Y-71182632D01*
X172116789Y-71066640D01*
X172116794Y-71066639D01*
X172446464Y-70914116D01*
X172446477Y-70914109D01*
X172757717Y-70726843D01*
X172757733Y-70726832D01*
X173046929Y-70506992D01*
X173063110Y-70491664D01*
X173063110Y-70491663D01*
X171815698Y-69244251D01*
X171917330Y-69170412D01*
X172095412Y-68992330D01*
X172169251Y-68890698D01*
X173414028Y-70135475D01*
X173414029Y-70135475D01*
X173545827Y-69980311D01*
X173545838Y-69980297D01*
X173749680Y-69679652D01*
X173793444Y-69597106D01*
X173842238Y-69547096D01*
X173910322Y-69531404D01*
X173976082Y-69555013D01*
X174018639Y-69610427D01*
X174027000Y-69655188D01*
X174027000Y-85678403D01*
X174007315Y-85745442D01*
X173954511Y-85791197D01*
X173885353Y-85801141D01*
X173821797Y-85772116D01*
X173815319Y-85766084D01*
X169810837Y-81761602D01*
X169777352Y-81700279D01*
X169782336Y-81630587D01*
X169810836Y-81586241D01*
X169844816Y-81552262D01*
X169940789Y-81399522D01*
X170000368Y-81229255D01*
X170020565Y-81050000D01*
X170015558Y-81005565D01*
X170000369Y-80870750D01*
X170000368Y-80870745D01*
X169940788Y-80700476D01*
X169907645Y-80647730D01*
X169844816Y-80547738D01*
X169844814Y-80547736D01*
X169844813Y-80547734D01*
X169842550Y-80544896D01*
X169841659Y-80542715D01*
X169841111Y-80541842D01*
X169841264Y-80541745D01*
X169816144Y-80480209D01*
X169815500Y-80467587D01*
X169815500Y-79170945D01*
X169815500Y-79170943D01*
X169774577Y-79018216D01*
X169774577Y-79018215D01*
X169717572Y-78919480D01*
X169695520Y-78881284D01*
X169583716Y-78769480D01*
X169583715Y-78769479D01*
X169579385Y-78765149D01*
X169579374Y-78765139D01*
X169445700Y-78631465D01*
X169412215Y-78570142D01*
X169410163Y-78557686D01*
X169400368Y-78470745D01*
X169340789Y-78300478D01*
X169244816Y-78147738D01*
X169117262Y-78020184D01*
X168964523Y-77924211D01*
X168794254Y-77864631D01*
X168794249Y-77864630D01*
X168615004Y-77844435D01*
X168614996Y-77844435D01*
X168435750Y-77864630D01*
X168435745Y-77864631D01*
X168265476Y-77924211D01*
X168112737Y-78020184D01*
X167985184Y-78147737D01*
X167889211Y-78300476D01*
X167829631Y-78470745D01*
X167829630Y-78470750D01*
X167809435Y-78649996D01*
X167809435Y-78650003D01*
X167829630Y-78829249D01*
X167829631Y-78829254D01*
X167889211Y-78999523D01*
X167914978Y-79040530D01*
X167985184Y-79152262D01*
X168112738Y-79279816D01*
X168265478Y-79375789D01*
X168435745Y-79435368D01*
X168504384Y-79443101D01*
X168568796Y-79470166D01*
X168608352Y-79527760D01*
X168614500Y-79566321D01*
X168614500Y-80265903D01*
X168594815Y-80332942D01*
X168542011Y-80378697D01*
X168472853Y-80388641D01*
X168409297Y-80359616D01*
X168402819Y-80353584D01*
X167830700Y-79781465D01*
X167797215Y-79720142D01*
X167795163Y-79707686D01*
X167785368Y-79620745D01*
X167725789Y-79450478D01*
X167629816Y-79297738D01*
X167502262Y-79170184D01*
X167492240Y-79163887D01*
X167349523Y-79074211D01*
X167179254Y-79014631D01*
X167179249Y-79014630D01*
X167000004Y-78994435D01*
X166999996Y-78994435D01*
X166820750Y-79014630D01*
X166820745Y-79014631D01*
X166650476Y-79074211D01*
X166497737Y-79170184D01*
X166370184Y-79297737D01*
X166274211Y-79450476D01*
X166214631Y-79620745D01*
X166214630Y-79620750D01*
X166194435Y-79799996D01*
X166194435Y-79800003D01*
X166214630Y-79979249D01*
X166214631Y-79979254D01*
X166274211Y-80149523D01*
X166325589Y-80231290D01*
X166370184Y-80302262D01*
X166497738Y-80429816D01*
X166650478Y-80525789D01*
X166820745Y-80585368D01*
X166907669Y-80595161D01*
X166972080Y-80622226D01*
X166981465Y-80630700D01*
X173290681Y-86939916D01*
X173324166Y-87001239D01*
X173327000Y-87027597D01*
X173327000Y-91178403D01*
X173307315Y-91245442D01*
X173254511Y-91291197D01*
X173185353Y-91301141D01*
X173121797Y-91272116D01*
X173115319Y-91266084D01*
X168830700Y-86981465D01*
X168797215Y-86920142D01*
X168795163Y-86907686D01*
X168785368Y-86820745D01*
X168725789Y-86650478D01*
X168629816Y-86497738D01*
X168502262Y-86370184D01*
X168409528Y-86311915D01*
X168349523Y-86274211D01*
X168179254Y-86214631D01*
X168179249Y-86214630D01*
X168000004Y-86194435D01*
X167999996Y-86194435D01*
X167820750Y-86214630D01*
X167820745Y-86214631D01*
X167650476Y-86274211D01*
X167590472Y-86311915D01*
X167523235Y-86330915D01*
X167456400Y-86310547D01*
X167411186Y-86257279D01*
X167400500Y-86206921D01*
X167400500Y-83382412D01*
X167420185Y-83315373D01*
X167427555Y-83305097D01*
X167429810Y-83302267D01*
X167429816Y-83302262D01*
X167525789Y-83149522D01*
X167585368Y-82979255D01*
X167589850Y-82939475D01*
X167605565Y-82800003D01*
X167605565Y-82799996D01*
X167585369Y-82620750D01*
X167585368Y-82620745D01*
X167525788Y-82450476D01*
X167429815Y-82297737D01*
X167302262Y-82170184D01*
X167149523Y-82074211D01*
X166979254Y-82014631D01*
X166979249Y-82014630D01*
X166800004Y-81994435D01*
X166799996Y-81994435D01*
X166620750Y-82014630D01*
X166620745Y-82014631D01*
X166450476Y-82074211D01*
X166297737Y-82170184D01*
X166170184Y-82297737D01*
X166074211Y-82450476D01*
X166014631Y-82620745D01*
X166014630Y-82620750D01*
X165994435Y-82799996D01*
X165994435Y-82800003D01*
X166014630Y-82979249D01*
X166014631Y-82979254D01*
X166074211Y-83149523D01*
X166170185Y-83302263D01*
X166172445Y-83305097D01*
X166173334Y-83307275D01*
X166173889Y-83308158D01*
X166173734Y-83308255D01*
X166198855Y-83369783D01*
X166199500Y-83382412D01*
X166199500Y-85202374D01*
X166179815Y-85269413D01*
X166127011Y-85315168D01*
X166057853Y-85325112D01*
X165994297Y-85296087D01*
X165987819Y-85290055D01*
X164136119Y-83438355D01*
X164136117Y-83438352D01*
X164017246Y-83319481D01*
X164017245Y-83319480D01*
X163930433Y-83269360D01*
X163930433Y-83269359D01*
X163930429Y-83269358D01*
X163880314Y-83240423D01*
X163727586Y-83199499D01*
X163569472Y-83199499D01*
X163561876Y-83199499D01*
X163561860Y-83199500D01*
X154182455Y-83199500D01*
X154182439Y-83199499D01*
X154174843Y-83199499D01*
X154016728Y-83199499D01*
X153940364Y-83219961D01*
X153863999Y-83240423D01*
X153863994Y-83240426D01*
X153727075Y-83319475D01*
X153727067Y-83319481D01*
X152412181Y-84634368D01*
X152350858Y-84667853D01*
X152281166Y-84662869D01*
X152225233Y-84620997D01*
X152200816Y-84555533D01*
X152200500Y-84546687D01*
X152200500Y-81700097D01*
X152220185Y-81633058D01*
X152236819Y-81612416D01*
X154098451Y-79750784D01*
X156018536Y-77830698D01*
X156079857Y-77797215D01*
X156092310Y-77795163D01*
X156179255Y-77785368D01*
X156349522Y-77725789D01*
X156502262Y-77629816D01*
X156629816Y-77502262D01*
X156725789Y-77349522D01*
X156785368Y-77179255D01*
X156805565Y-77000000D01*
X156803916Y-76985369D01*
X156785369Y-76820750D01*
X156785368Y-76820745D01*
X156725788Y-76650476D01*
X156629815Y-76497737D01*
X156502262Y-76370184D01*
X156502259Y-76370182D01*
X156475766Y-76353535D01*
X156429475Y-76301200D01*
X156418828Y-76232147D01*
X156447203Y-76168299D01*
X156454045Y-76160874D01*
X159378102Y-73236819D01*
X159439425Y-73203334D01*
X159465783Y-73200500D01*
X162417588Y-73200500D01*
X162484627Y-73220185D01*
X162494903Y-73227555D01*
X162497736Y-73229814D01*
X162497738Y-73229816D01*
X162650478Y-73325789D01*
X162820745Y-73385368D01*
X162820750Y-73385369D01*
X162999996Y-73405565D01*
X163000000Y-73405565D01*
X163000004Y-73405565D01*
X163179249Y-73385369D01*
X163179252Y-73385368D01*
X163179255Y-73385368D01*
X163349522Y-73325789D01*
X163502262Y-73229816D01*
X163629816Y-73102262D01*
X163725789Y-72949522D01*
X163785368Y-72779255D01*
X163805565Y-72600000D01*
X163803299Y-72579891D01*
X163785369Y-72420750D01*
X163785368Y-72420745D01*
X163778830Y-72402061D01*
X163725789Y-72250478D01*
X163715632Y-72234314D01*
X163646466Y-72124237D01*
X163629816Y-72097738D01*
X163502262Y-71970184D01*
X163486054Y-71960000D01*
X163349523Y-71874211D01*
X163179254Y-71814631D01*
X163179249Y-71814630D01*
X163000004Y-71794435D01*
X162999996Y-71794435D01*
X162820750Y-71814630D01*
X162820745Y-71814631D01*
X162650476Y-71874211D01*
X162497736Y-71970185D01*
X162494903Y-71972445D01*
X162492724Y-71973334D01*
X162491842Y-71973889D01*
X162491744Y-71973734D01*
X162430217Y-71998855D01*
X162417588Y-71999500D01*
X160349097Y-71999500D01*
X160282058Y-71979815D01*
X160236303Y-71927011D01*
X160226359Y-71857853D01*
X160255384Y-71794297D01*
X160261416Y-71787819D01*
X160989235Y-71060000D01*
X163218535Y-68830698D01*
X163279856Y-68797215D01*
X163292311Y-68795163D01*
X163379255Y-68785368D01*
X163549522Y-68725789D01*
X163702262Y-68629816D01*
X163829816Y-68502262D01*
X163925789Y-68349522D01*
X163985368Y-68179255D01*
X164005565Y-68000000D01*
X164002419Y-67972082D01*
X163985369Y-67820750D01*
X163985368Y-67820745D01*
X163925788Y-67650476D01*
X163878572Y-67575332D01*
X163829816Y-67497738D01*
X163702262Y-67370184D01*
X163669379Y-67349522D01*
X163549523Y-67274211D01*
X163379254Y-67214631D01*
X163379249Y-67214630D01*
X163200004Y-67194435D01*
X163199996Y-67194435D01*
X163020750Y-67214630D01*
X163020745Y-67214631D01*
X162850476Y-67274211D01*
X162697737Y-67370184D01*
X162570184Y-67497737D01*
X162474210Y-67650478D01*
X162414630Y-67820750D01*
X162404837Y-67907668D01*
X162377770Y-67972082D01*
X162369298Y-67981465D01*
X156923568Y-73427195D01*
X156862245Y-73460680D01*
X156792553Y-73455696D01*
X156736620Y-73413824D01*
X156712203Y-73348360D01*
X156712667Y-73325629D01*
X156720062Y-73260001D01*
X156720062Y-73259997D01*
X156699878Y-73080861D01*
X156640333Y-72910692D01*
X156631661Y-72896892D01*
X156631660Y-72896892D01*
X155951556Y-73576995D01*
X155951548Y-73577006D01*
X155532006Y-73996548D01*
X155532001Y-73996550D01*
X155215001Y-74313553D01*
X155215000Y-74313553D01*
X154851892Y-74676660D01*
X154851892Y-74676661D01*
X154865692Y-74685333D01*
X154865691Y-74685333D01*
X155035861Y-74744878D01*
X155214997Y-74765062D01*
X155215001Y-74765062D01*
X155280629Y-74757667D01*
X155349451Y-74769721D01*
X155400831Y-74817070D01*
X155418456Y-74884680D01*
X155396730Y-74951086D01*
X155382195Y-74968568D01*
X150231286Y-80119478D01*
X150119481Y-80231282D01*
X150119475Y-80231290D01*
X150078501Y-80302261D01*
X150078501Y-80302262D01*
X150040423Y-80368215D01*
X149999499Y-80520943D01*
X149999499Y-80520945D01*
X149999499Y-80689046D01*
X149999500Y-80689059D01*
X149999500Y-84116937D01*
X149979815Y-84183976D01*
X149927011Y-84229731D01*
X149857853Y-84239675D01*
X149834547Y-84233979D01*
X149779249Y-84214630D01*
X149779252Y-84214630D01*
X149692330Y-84204837D01*
X149627916Y-84177770D01*
X149618533Y-84169298D01*
X149436819Y-83987584D01*
X149403334Y-83926261D01*
X149400500Y-83899903D01*
X149400500Y-74676660D01*
X153451892Y-74676660D01*
X153451892Y-74676661D01*
X153465692Y-74685333D01*
X153465691Y-74685333D01*
X153635861Y-74744878D01*
X153814997Y-74765062D01*
X153815003Y-74765062D01*
X153994138Y-74744878D01*
X153994141Y-74744877D01*
X154164305Y-74685334D01*
X154164306Y-74685334D01*
X154178106Y-74676661D01*
X154178106Y-74676660D01*
X153815001Y-74313553D01*
X153815000Y-74313553D01*
X153451892Y-74676660D01*
X149400500Y-74676660D01*
X149400500Y-73976660D01*
X152751892Y-73976660D01*
X152751892Y-73976661D01*
X152765692Y-73985333D01*
X152765691Y-73985333D01*
X152935862Y-74044878D01*
X152936644Y-74045057D01*
X152937097Y-74045310D01*
X152942431Y-74047177D01*
X152942104Y-74048111D01*
X152997623Y-74079166D01*
X153026952Y-74132874D01*
X153027822Y-74132570D01*
X153029670Y-74137852D01*
X153029940Y-74138346D01*
X153030121Y-74139142D01*
X153089663Y-74309300D01*
X153089663Y-74309301D01*
X153098338Y-74323107D01*
X153461446Y-73960000D01*
X153441555Y-73940109D01*
X153715000Y-73940109D01*
X153715000Y-73979891D01*
X153730224Y-74016645D01*
X153758355Y-74044776D01*
X153795109Y-74060000D01*
X153834891Y-74060000D01*
X153871645Y-74044776D01*
X153899776Y-74016645D01*
X153915000Y-73979891D01*
X153915000Y-73959999D01*
X154168553Y-73959999D01*
X154168553Y-73960000D01*
X154515000Y-74306446D01*
X154515001Y-74306446D01*
X154861446Y-73960000D01*
X154841555Y-73940109D01*
X155115000Y-73940109D01*
X155115000Y-73979891D01*
X155130224Y-74016645D01*
X155158355Y-74044776D01*
X155195109Y-74060000D01*
X155234891Y-74060000D01*
X155271645Y-74044776D01*
X155299776Y-74016645D01*
X155315000Y-73979891D01*
X155315000Y-73940109D01*
X155299776Y-73903355D01*
X155271645Y-73875224D01*
X155234891Y-73860000D01*
X155195109Y-73860000D01*
X155158355Y-73875224D01*
X155130224Y-73903355D01*
X155115000Y-73940109D01*
X154841555Y-73940109D01*
X154580760Y-73679314D01*
X154515000Y-73613553D01*
X154449240Y-73679314D01*
X154449239Y-73679314D01*
X154168553Y-73959999D01*
X153915000Y-73959999D01*
X153915000Y-73940109D01*
X153899776Y-73903355D01*
X153871645Y-73875224D01*
X153834891Y-73860000D01*
X153795109Y-73860000D01*
X153758355Y-73875224D01*
X153730224Y-73903355D01*
X153715000Y-73940109D01*
X153441555Y-73940109D01*
X153114999Y-73613553D01*
X153114998Y-73613553D01*
X152751892Y-73976660D01*
X149400500Y-73976660D01*
X149400500Y-73259997D01*
X152309938Y-73259997D01*
X152309938Y-73260002D01*
X152330121Y-73439138D01*
X152389665Y-73609304D01*
X152398338Y-73623107D01*
X152761446Y-73260000D01*
X152761446Y-73259999D01*
X152741556Y-73240109D01*
X153015000Y-73240109D01*
X153015000Y-73279891D01*
X153030224Y-73316645D01*
X153058355Y-73344776D01*
X153095109Y-73360000D01*
X153134891Y-73360000D01*
X153171645Y-73344776D01*
X153199776Y-73316645D01*
X153215000Y-73279891D01*
X153215000Y-73259999D01*
X153468553Y-73259999D01*
X153510816Y-73302261D01*
X153510817Y-73302263D01*
X153815000Y-73606446D01*
X154161446Y-73260000D01*
X154141555Y-73240109D01*
X154415000Y-73240109D01*
X154415000Y-73279891D01*
X154430224Y-73316645D01*
X154458355Y-73344776D01*
X154495109Y-73360000D01*
X154534891Y-73360000D01*
X154571645Y-73344776D01*
X154599776Y-73316645D01*
X154615000Y-73279891D01*
X154615000Y-73259999D01*
X154868553Y-73259999D01*
X154910816Y-73302261D01*
X154910817Y-73302263D01*
X155215000Y-73606446D01*
X155561446Y-73260000D01*
X155541555Y-73240109D01*
X155815000Y-73240109D01*
X155815000Y-73279891D01*
X155830224Y-73316645D01*
X155858355Y-73344776D01*
X155895109Y-73360000D01*
X155934891Y-73360000D01*
X155971645Y-73344776D01*
X155999776Y-73316645D01*
X156015000Y-73279891D01*
X156015000Y-73240109D01*
X155999776Y-73203355D01*
X155971645Y-73175224D01*
X155934891Y-73160000D01*
X155895109Y-73160000D01*
X155858355Y-73175224D01*
X155830224Y-73203355D01*
X155815000Y-73240109D01*
X155541555Y-73240109D01*
X155250967Y-72949521D01*
X155215000Y-72913553D01*
X155179033Y-72949521D01*
X155179032Y-72949522D01*
X154868553Y-73259999D01*
X154615000Y-73259999D01*
X154615000Y-73240109D01*
X154599776Y-73203355D01*
X154571645Y-73175224D01*
X154534891Y-73160000D01*
X154495109Y-73160000D01*
X154458355Y-73175224D01*
X154430224Y-73203355D01*
X154415000Y-73240109D01*
X154141555Y-73240109D01*
X153850967Y-72949521D01*
X153815000Y-72913553D01*
X153779033Y-72949521D01*
X153779032Y-72949522D01*
X153468553Y-73259999D01*
X153215000Y-73259999D01*
X153215000Y-73240109D01*
X153199776Y-73203355D01*
X153171645Y-73175224D01*
X153134891Y-73160000D01*
X153095109Y-73160000D01*
X153058355Y-73175224D01*
X153030224Y-73203355D01*
X153015000Y-73240109D01*
X152741556Y-73240109D01*
X152398338Y-72896891D01*
X152398337Y-72896891D01*
X152389667Y-72910691D01*
X152389662Y-72910701D01*
X152330122Y-73080858D01*
X152330121Y-73080861D01*
X152309938Y-73259997D01*
X149400500Y-73259997D01*
X149400500Y-72559999D01*
X152768553Y-72559999D01*
X152768553Y-72560001D01*
X153114998Y-72906446D01*
X153114999Y-72906446D01*
X153421446Y-72600000D01*
X153461446Y-72560000D01*
X153441555Y-72540109D01*
X153715000Y-72540109D01*
X153715000Y-72579891D01*
X153730224Y-72616645D01*
X153758355Y-72644776D01*
X153795109Y-72660000D01*
X153834891Y-72660000D01*
X153871645Y-72644776D01*
X153899776Y-72616645D01*
X153915000Y-72579891D01*
X153915000Y-72559999D01*
X154168553Y-72559999D01*
X154208554Y-72599999D01*
X154208555Y-72600001D01*
X154515000Y-72906446D01*
X154861446Y-72560000D01*
X154841555Y-72540109D01*
X155115000Y-72540109D01*
X155115000Y-72579891D01*
X155130224Y-72616645D01*
X155158355Y-72644776D01*
X155195109Y-72660000D01*
X155234891Y-72660000D01*
X155271645Y-72644776D01*
X155299776Y-72616645D01*
X155315000Y-72579891D01*
X155315000Y-72559999D01*
X155568553Y-72559999D01*
X155608554Y-72599999D01*
X155608555Y-72600001D01*
X155915000Y-72906446D01*
X156261446Y-72560000D01*
X156261446Y-72559999D01*
X155915000Y-72213553D01*
X155914999Y-72213553D01*
X155878078Y-72250476D01*
X155878076Y-72250478D01*
X155568553Y-72559999D01*
X155315000Y-72559999D01*
X155315000Y-72540109D01*
X155299776Y-72503355D01*
X155271645Y-72475224D01*
X155234891Y-72460000D01*
X155195109Y-72460000D01*
X155158355Y-72475224D01*
X155130224Y-72503355D01*
X155115000Y-72540109D01*
X154841555Y-72540109D01*
X154551923Y-72250477D01*
X154515000Y-72213553D01*
X154478077Y-72250477D01*
X154478076Y-72250478D01*
X154168553Y-72559999D01*
X153915000Y-72559999D01*
X153915000Y-72540109D01*
X153899776Y-72503355D01*
X153871645Y-72475224D01*
X153834891Y-72460000D01*
X153795109Y-72460000D01*
X153758355Y-72475224D01*
X153730224Y-72503355D01*
X153715000Y-72540109D01*
X153441555Y-72540109D01*
X153114999Y-72213553D01*
X153114998Y-72213553D01*
X152768553Y-72559999D01*
X149400500Y-72559999D01*
X149400500Y-71859997D01*
X152309938Y-71859997D01*
X152309938Y-71860002D01*
X152330121Y-72039138D01*
X152389665Y-72209304D01*
X152398338Y-72223107D01*
X152761446Y-71860000D01*
X152761446Y-71859999D01*
X152741556Y-71840109D01*
X153015000Y-71840109D01*
X153015000Y-71879891D01*
X153030224Y-71916645D01*
X153058355Y-71944776D01*
X153095109Y-71960000D01*
X153134891Y-71960000D01*
X153171645Y-71944776D01*
X153199776Y-71916645D01*
X153215000Y-71879891D01*
X153215000Y-71859999D01*
X153468553Y-71859999D01*
X153815000Y-72206446D01*
X154161446Y-71860000D01*
X154141555Y-71840109D01*
X154415000Y-71840109D01*
X154415000Y-71879891D01*
X154430224Y-71916645D01*
X154458355Y-71944776D01*
X154495109Y-71960000D01*
X154534891Y-71960000D01*
X154571645Y-71944776D01*
X154599776Y-71916645D01*
X154615000Y-71879891D01*
X154615000Y-71859999D01*
X154868553Y-71859999D01*
X155215000Y-72206446D01*
X155561446Y-71860000D01*
X155541555Y-71840109D01*
X155815000Y-71840109D01*
X155815000Y-71879891D01*
X155830224Y-71916645D01*
X155858355Y-71944776D01*
X155895109Y-71960000D01*
X155934891Y-71960000D01*
X155971645Y-71944776D01*
X155999776Y-71916645D01*
X156015000Y-71879891D01*
X156015000Y-71860000D01*
X156268553Y-71860000D01*
X156631660Y-72223106D01*
X156631661Y-72223106D01*
X156640334Y-72209306D01*
X156640334Y-72209305D01*
X156699877Y-72039141D01*
X156699878Y-72039138D01*
X156720062Y-71860002D01*
X156720062Y-71859997D01*
X156699878Y-71680861D01*
X156640333Y-71510692D01*
X156631661Y-71496892D01*
X156631660Y-71496892D01*
X156268553Y-71860000D01*
X156015000Y-71860000D01*
X156015000Y-71840109D01*
X155999776Y-71803355D01*
X155971645Y-71775224D01*
X155934891Y-71760000D01*
X155895109Y-71760000D01*
X155858355Y-71775224D01*
X155830224Y-71803355D01*
X155815000Y-71840109D01*
X155541555Y-71840109D01*
X155280760Y-71579314D01*
X155215000Y-71513553D01*
X155149240Y-71579314D01*
X155149239Y-71579314D01*
X154868553Y-71859999D01*
X154615000Y-71859999D01*
X154615000Y-71840109D01*
X154599776Y-71803355D01*
X154571645Y-71775224D01*
X154534891Y-71760000D01*
X154495109Y-71760000D01*
X154458355Y-71775224D01*
X154430224Y-71803355D01*
X154415000Y-71840109D01*
X154141555Y-71840109D01*
X153880760Y-71579314D01*
X153815000Y-71513553D01*
X153749240Y-71579314D01*
X153749239Y-71579314D01*
X153468553Y-71859999D01*
X153215000Y-71859999D01*
X153215000Y-71840109D01*
X153199776Y-71803355D01*
X153171645Y-71775224D01*
X153134891Y-71760000D01*
X153095109Y-71760000D01*
X153058355Y-71775224D01*
X153030224Y-71803355D01*
X153015000Y-71840109D01*
X152741556Y-71840109D01*
X152398338Y-71496891D01*
X152398337Y-71496891D01*
X152389667Y-71510691D01*
X152389662Y-71510701D01*
X152330122Y-71680858D01*
X152330121Y-71680861D01*
X152309938Y-71859997D01*
X149400500Y-71859997D01*
X149400500Y-71182412D01*
X149411974Y-71143337D01*
X152751891Y-71143337D01*
X152751891Y-71143338D01*
X153114998Y-71506446D01*
X153114999Y-71506446D01*
X153390868Y-71230577D01*
X153461446Y-71159998D01*
X153441557Y-71140109D01*
X153715000Y-71140109D01*
X153715000Y-71179891D01*
X153730224Y-71216645D01*
X153758355Y-71244776D01*
X153795109Y-71260000D01*
X153834891Y-71260000D01*
X153871645Y-71244776D01*
X153899776Y-71216645D01*
X153915000Y-71179891D01*
X153915000Y-71159998D01*
X154168553Y-71159998D01*
X154168553Y-71159999D01*
X154515000Y-71506446D01*
X154790870Y-71230577D01*
X154861446Y-71159999D01*
X154861446Y-71159998D01*
X154841557Y-71140109D01*
X155115000Y-71140109D01*
X155115000Y-71179891D01*
X155130224Y-71216645D01*
X155158355Y-71244776D01*
X155195109Y-71260000D01*
X155234891Y-71260000D01*
X155271645Y-71244776D01*
X155299776Y-71216645D01*
X155315000Y-71179891D01*
X155315000Y-71159998D01*
X155568553Y-71159998D01*
X155568553Y-71159999D01*
X155915000Y-71506446D01*
X155915001Y-71506446D01*
X156278107Y-71143338D01*
X156264301Y-71134663D01*
X156094142Y-71075121D01*
X156093346Y-71074940D01*
X156092883Y-71074681D01*
X156087570Y-71072822D01*
X156087895Y-71071890D01*
X156032370Y-71040827D01*
X156003049Y-70987125D01*
X156002177Y-70987431D01*
X156000321Y-70982128D01*
X156000057Y-70981644D01*
X155999878Y-70980862D01*
X155940333Y-70810692D01*
X155931661Y-70796892D01*
X155931660Y-70796892D01*
X155568553Y-71159998D01*
X155315000Y-71159998D01*
X155315000Y-71140109D01*
X155299776Y-71103355D01*
X155271645Y-71075224D01*
X155234891Y-71060000D01*
X155195109Y-71060000D01*
X155158355Y-71075224D01*
X155130224Y-71103355D01*
X155115000Y-71140109D01*
X154841557Y-71140109D01*
X154515001Y-70813553D01*
X154515000Y-70813553D01*
X154168553Y-71159998D01*
X153915000Y-71159998D01*
X153915000Y-71140109D01*
X153899776Y-71103355D01*
X153871645Y-71075224D01*
X153834891Y-71060000D01*
X153795109Y-71060000D01*
X153758355Y-71075224D01*
X153730224Y-71103355D01*
X153715000Y-71140109D01*
X153441557Y-71140109D01*
X153098338Y-70796891D01*
X153098337Y-70796891D01*
X153089667Y-70810691D01*
X153089662Y-70810701D01*
X153030119Y-70980866D01*
X153029939Y-70981656D01*
X153029682Y-70982113D01*
X153027823Y-70987429D01*
X153026891Y-70987103D01*
X152995824Y-71042631D01*
X152942124Y-71071952D01*
X152942429Y-71072823D01*
X152937145Y-71074671D01*
X152936656Y-71074939D01*
X152935866Y-71075119D01*
X152765701Y-71134662D01*
X152765691Y-71134667D01*
X152751891Y-71143337D01*
X149411974Y-71143337D01*
X149420185Y-71115373D01*
X149427555Y-71105097D01*
X149429810Y-71102267D01*
X149429816Y-71102262D01*
X149525789Y-70949522D01*
X149585368Y-70779255D01*
X149585369Y-70779249D01*
X149605565Y-70600003D01*
X149605565Y-70599996D01*
X149587914Y-70443337D01*
X153451891Y-70443337D01*
X153451891Y-70443338D01*
X153815000Y-70806446D01*
X153815001Y-70806446D01*
X154178107Y-70443338D01*
X154178105Y-70443337D01*
X154851891Y-70443337D01*
X154851891Y-70443338D01*
X155215000Y-70806446D01*
X155215001Y-70806446D01*
X155578107Y-70443338D01*
X155564304Y-70434665D01*
X155394138Y-70375121D01*
X155215003Y-70354938D01*
X155214997Y-70354938D01*
X155035861Y-70375121D01*
X155035858Y-70375122D01*
X154865701Y-70434662D01*
X154865691Y-70434667D01*
X154851891Y-70443337D01*
X154178105Y-70443337D01*
X154164304Y-70434665D01*
X153994138Y-70375121D01*
X153815003Y-70354938D01*
X153814997Y-70354938D01*
X153635861Y-70375121D01*
X153635858Y-70375122D01*
X153465701Y-70434662D01*
X153465691Y-70434667D01*
X153451891Y-70443337D01*
X149587914Y-70443337D01*
X149585369Y-70420750D01*
X149585368Y-70420745D01*
X149525788Y-70250476D01*
X149429815Y-70097737D01*
X149302262Y-69970184D01*
X149149523Y-69874211D01*
X148979254Y-69814631D01*
X148979249Y-69814630D01*
X148800004Y-69794435D01*
X148799996Y-69794435D01*
X148620750Y-69814630D01*
X148620745Y-69814631D01*
X148450476Y-69874211D01*
X148297737Y-69970184D01*
X148170184Y-70097737D01*
X148074211Y-70250476D01*
X148014631Y-70420745D01*
X148014630Y-70420750D01*
X147994435Y-70599996D01*
X147994435Y-70600003D01*
X148014630Y-70779249D01*
X148014631Y-70779254D01*
X148074211Y-70949523D01*
X148131582Y-71040827D01*
X148153016Y-71074940D01*
X148170185Y-71102263D01*
X148172445Y-71105097D01*
X148173334Y-71107275D01*
X148173889Y-71108158D01*
X148173734Y-71108255D01*
X148198855Y-71169783D01*
X148199500Y-71182412D01*
X148199500Y-84113330D01*
X148199499Y-84113348D01*
X148199499Y-84279054D01*
X148199498Y-84279054D01*
X148205108Y-84299991D01*
X148240309Y-84431361D01*
X148240424Y-84431787D01*
X148257126Y-84460715D01*
X148257127Y-84460717D01*
X148319477Y-84568712D01*
X148319481Y-84568717D01*
X148438349Y-84687585D01*
X148438355Y-84687590D01*
X148769298Y-85018533D01*
X148802783Y-85079856D01*
X148804837Y-85092330D01*
X148814630Y-85179249D01*
X148874210Y-85349521D01*
X148876066Y-85352475D01*
X148970184Y-85502262D01*
X149097738Y-85629816D01*
X149250478Y-85725789D01*
X149416315Y-85783818D01*
X149420745Y-85785368D01*
X149420750Y-85785369D01*
X149599996Y-85805565D01*
X149600000Y-85805565D01*
X149600004Y-85805565D01*
X149779249Y-85785369D01*
X149779250Y-85785369D01*
X149779251Y-85785368D01*
X149779255Y-85785368D01*
X149780004Y-85785105D01*
X149780519Y-85785079D01*
X149786047Y-85783818D01*
X149786267Y-85784785D01*
X149849781Y-85781538D01*
X149910412Y-85816261D01*
X149942644Y-85878252D01*
X149936246Y-85947828D01*
X149925962Y-85968116D01*
X149874210Y-86050477D01*
X149814630Y-86220750D01*
X149806898Y-86289383D01*
X149779832Y-86353797D01*
X149722237Y-86393352D01*
X149683678Y-86399500D01*
X145949098Y-86399500D01*
X145882059Y-86379815D01*
X145836304Y-86327011D01*
X145826360Y-86257853D01*
X145855385Y-86194297D01*
X145861417Y-86187819D01*
X145880520Y-86168716D01*
X145880520Y-86168715D01*
X145890724Y-86158511D01*
X145890728Y-86158506D01*
X146818535Y-85230698D01*
X146879856Y-85197215D01*
X146892311Y-85195163D01*
X146979255Y-85185368D01*
X147149522Y-85125789D01*
X147302262Y-85029816D01*
X147429816Y-84902262D01*
X147525789Y-84749522D01*
X147585368Y-84579255D01*
X147585369Y-84579249D01*
X147605565Y-84400003D01*
X147605565Y-84399996D01*
X147585369Y-84220750D01*
X147585368Y-84220745D01*
X147560613Y-84150000D01*
X147525789Y-84050478D01*
X147429816Y-83897738D01*
X147302262Y-83770184D01*
X147291117Y-83763181D01*
X147149523Y-83674211D01*
X146979254Y-83614631D01*
X146979249Y-83614630D01*
X146800004Y-83594435D01*
X146799996Y-83594435D01*
X146620750Y-83614630D01*
X146620745Y-83614631D01*
X146450476Y-83674211D01*
X146297737Y-83770184D01*
X146170184Y-83897737D01*
X146074210Y-84050478D01*
X146014630Y-84220750D01*
X146004837Y-84307668D01*
X145977770Y-84372082D01*
X145969298Y-84381465D01*
X145187584Y-85163181D01*
X145126261Y-85196666D01*
X145099903Y-85199500D01*
X143182412Y-85199500D01*
X143115373Y-85179815D01*
X143105097Y-85172445D01*
X143102263Y-85170185D01*
X143102262Y-85170184D01*
X143045496Y-85134515D01*
X142949523Y-85074211D01*
X142779254Y-85014631D01*
X142779249Y-85014630D01*
X142600004Y-84994435D01*
X142599996Y-84994435D01*
X142420750Y-85014630D01*
X142420745Y-85014631D01*
X142250476Y-85074211D01*
X142097737Y-85170184D01*
X141970184Y-85297737D01*
X141874211Y-85450476D01*
X141814631Y-85620745D01*
X141814630Y-85620750D01*
X141794435Y-85799996D01*
X141794435Y-85800003D01*
X141814630Y-85979249D01*
X141814631Y-85979254D01*
X141874211Y-86149523D01*
X141962092Y-86289383D01*
X141970184Y-86302262D01*
X142097738Y-86429816D01*
X142168389Y-86474209D01*
X142244183Y-86521834D01*
X142250478Y-86525789D01*
X142409591Y-86581465D01*
X142420745Y-86585368D01*
X142420750Y-86585369D01*
X142599996Y-86605565D01*
X142600000Y-86605565D01*
X142600004Y-86605565D01*
X142779249Y-86585369D01*
X142779252Y-86585368D01*
X142779255Y-86585368D01*
X142949522Y-86525789D01*
X143102262Y-86429816D01*
X143102267Y-86429810D01*
X143105097Y-86427555D01*
X143107275Y-86426665D01*
X143108158Y-86426111D01*
X143108255Y-86426265D01*
X143169783Y-86401145D01*
X143182412Y-86400500D01*
X143568060Y-86400500D01*
X143635099Y-86420185D01*
X143680854Y-86472989D01*
X143690798Y-86542147D01*
X143661773Y-86605703D01*
X143655741Y-86612181D01*
X143570184Y-86697737D01*
X143474211Y-86850476D01*
X143414631Y-87020745D01*
X143414630Y-87020750D01*
X143394435Y-87199996D01*
X143394435Y-87200003D01*
X143414630Y-87379249D01*
X143414631Y-87379254D01*
X143474211Y-87549523D01*
X143556523Y-87680521D01*
X143570184Y-87702262D01*
X143697738Y-87829816D01*
X143850478Y-87925789D01*
X144003258Y-87979249D01*
X144020745Y-87985368D01*
X144020750Y-87985369D01*
X144199996Y-88005565D01*
X144200000Y-88005565D01*
X144200004Y-88005565D01*
X144379249Y-87985369D01*
X144379252Y-87985368D01*
X144379255Y-87985368D01*
X144549522Y-87925789D01*
X144702262Y-87829816D01*
X144829816Y-87702262D01*
X144843477Y-87680521D01*
X144857297Y-87658527D01*
X144909631Y-87612237D01*
X144962290Y-87600500D01*
X150761860Y-87600500D01*
X150761876Y-87600501D01*
X150875500Y-87600501D01*
X150942539Y-87620186D01*
X150988294Y-87672990D01*
X150999500Y-87724501D01*
X150999500Y-88944902D01*
X150979815Y-89011941D01*
X150963181Y-89032583D01*
X148362705Y-91633058D01*
X148301382Y-91666543D01*
X148242931Y-91665152D01*
X148146697Y-91639366D01*
X148146693Y-91639365D01*
X148146692Y-91639365D01*
X148146691Y-91639364D01*
X148146686Y-91639364D01*
X147920002Y-91619532D01*
X147919998Y-91619532D01*
X147693313Y-91639364D01*
X147693302Y-91639366D01*
X147473511Y-91698258D01*
X147473502Y-91698261D01*
X147267267Y-91794431D01*
X147267265Y-91794432D01*
X147080858Y-91924954D01*
X146919954Y-92085858D01*
X146789432Y-92272265D01*
X146789431Y-92272267D01*
X146762382Y-92330275D01*
X146716209Y-92382714D01*
X146649016Y-92401866D01*
X146582135Y-92381650D01*
X146537618Y-92330275D01*
X146510568Y-92272267D01*
X146510567Y-92272265D01*
X146487974Y-92239999D01*
X146412839Y-92132693D01*
X146380045Y-92085858D01*
X146219141Y-91924954D01*
X146032734Y-91794432D01*
X146032732Y-91794431D01*
X145826497Y-91698261D01*
X145826488Y-91698258D01*
X145606697Y-91639366D01*
X145606693Y-91639365D01*
X145606692Y-91639365D01*
X145606691Y-91639364D01*
X145606686Y-91639364D01*
X145380002Y-91619532D01*
X145379998Y-91619532D01*
X145153313Y-91639364D01*
X145153302Y-91639366D01*
X144933511Y-91698258D01*
X144933502Y-91698261D01*
X144727267Y-91794431D01*
X144727265Y-91794432D01*
X144540858Y-91924954D01*
X144379954Y-92085858D01*
X144249432Y-92272265D01*
X144249431Y-92272267D01*
X144153261Y-92478502D01*
X144153258Y-92478511D01*
X144094366Y-92698302D01*
X144094364Y-92698313D01*
X144074532Y-92924998D01*
X144074532Y-92925001D01*
X144094364Y-93151686D01*
X144094366Y-93151697D01*
X144153258Y-93371488D01*
X144153261Y-93371497D01*
X144249431Y-93577732D01*
X144249432Y-93577734D01*
X144379954Y-93764141D01*
X144540858Y-93925045D01*
X144540861Y-93925047D01*
X144727266Y-94055568D01*
X144933504Y-94151739D01*
X144933509Y-94151740D01*
X144933511Y-94151741D01*
X144986415Y-94165916D01*
X145153308Y-94210635D01*
X145315230Y-94224801D01*
X145379998Y-94230468D01*
X145380000Y-94230468D01*
X145380002Y-94230468D01*
X145436807Y-94225498D01*
X145606692Y-94210635D01*
X145826496Y-94151739D01*
X146032734Y-94055568D01*
X146219139Y-93925047D01*
X146380047Y-93764139D01*
X146510568Y-93577734D01*
X146537618Y-93519724D01*
X146583790Y-93467285D01*
X146650983Y-93448133D01*
X146717865Y-93468348D01*
X146762382Y-93519725D01*
X146789429Y-93577728D01*
X146789432Y-93577734D01*
X146919954Y-93764141D01*
X147080858Y-93925045D01*
X147080861Y-93925047D01*
X147267266Y-94055568D01*
X147267269Y-94055569D01*
X147271820Y-94058197D01*
X147320035Y-94108765D01*
X147333256Y-94177373D01*
X147307287Y-94242237D01*
X147297499Y-94253264D01*
X146587584Y-94963181D01*
X146526261Y-94996666D01*
X146499903Y-94999500D01*
X140524500Y-94999500D01*
X140457461Y-94979815D01*
X140411706Y-94927011D01*
X140400500Y-94875500D01*
X140400500Y-88382412D01*
X140420185Y-88315373D01*
X140427555Y-88305097D01*
X140429810Y-88302267D01*
X140429816Y-88302262D01*
X140525789Y-88149522D01*
X140585368Y-87979255D01*
X140585369Y-87979249D01*
X140605565Y-87800003D01*
X140605565Y-87799996D01*
X140585369Y-87620750D01*
X140585368Y-87620745D01*
X140525788Y-87450476D01*
X140481033Y-87379249D01*
X140429816Y-87297738D01*
X140302262Y-87170184D01*
X140264046Y-87146171D01*
X140149523Y-87074211D01*
X139979254Y-87014631D01*
X139979250Y-87014630D01*
X139867997Y-87002095D01*
X139803583Y-86975028D01*
X139764028Y-86917433D01*
X139761891Y-86847596D01*
X139764833Y-86837938D01*
X139785368Y-86779255D01*
X139785369Y-86779249D01*
X139805565Y-86600003D01*
X139805565Y-86599996D01*
X139785369Y-86420750D01*
X139785368Y-86420745D01*
X139753935Y-86330915D01*
X139725789Y-86250478D01*
X139724995Y-86249215D01*
X139662354Y-86149522D01*
X139629816Y-86097738D01*
X139502262Y-85970184D01*
X139466683Y-85947828D01*
X139349523Y-85874211D01*
X139179254Y-85814631D01*
X139179249Y-85814630D01*
X139000004Y-85794435D01*
X138999996Y-85794435D01*
X138820750Y-85814630D01*
X138820745Y-85814631D01*
X138650476Y-85874211D01*
X138497737Y-85970184D01*
X138370184Y-86097737D01*
X138274210Y-86250478D01*
X138214630Y-86420750D01*
X138204837Y-86507668D01*
X138177770Y-86572082D01*
X138169298Y-86581465D01*
X137845458Y-86905305D01*
X137819777Y-86925011D01*
X137742758Y-86969477D01*
X137742753Y-86969481D01*
X137630949Y-87081286D01*
X135549055Y-89163181D01*
X135487732Y-89196666D01*
X135461374Y-89199500D01*
X134665068Y-89199500D01*
X134599096Y-89180494D01*
X134509522Y-89124210D01*
X134509518Y-89124209D01*
X134339262Y-89064633D01*
X134339249Y-89064630D01*
X134160004Y-89044435D01*
X134159996Y-89044435D01*
X133980750Y-89064630D01*
X133980745Y-89064631D01*
X133810476Y-89124211D01*
X133657737Y-89220184D01*
X133530184Y-89347737D01*
X133434211Y-89500476D01*
X133374631Y-89670745D01*
X133374630Y-89670750D01*
X133354435Y-89849996D01*
X133354435Y-89850003D01*
X133374630Y-90029249D01*
X133374633Y-90029262D01*
X133436510Y-90206094D01*
X133434364Y-90206844D01*
X133443962Y-90265144D01*
X133435609Y-90293590D01*
X133436510Y-90293906D01*
X133374633Y-90470737D01*
X133374630Y-90470750D01*
X133354435Y-90649996D01*
X133354435Y-90650003D01*
X133374630Y-90829249D01*
X133374631Y-90829254D01*
X133434211Y-90999523D01*
X133517749Y-91132472D01*
X133530184Y-91152262D01*
X133657738Y-91279816D01*
X133738902Y-91330815D01*
X133780430Y-91356909D01*
X133810478Y-91375789D01*
X133980745Y-91435368D01*
X133980750Y-91435369D01*
X134159996Y-91455565D01*
X134160000Y-91455565D01*
X134160004Y-91455565D01*
X134339249Y-91435369D01*
X134339252Y-91435368D01*
X134339255Y-91435368D01*
X134509522Y-91375789D01*
X134662262Y-91279816D01*
X134662267Y-91279810D01*
X134665097Y-91277555D01*
X134667275Y-91276665D01*
X134668158Y-91276111D01*
X134668255Y-91276265D01*
X134729783Y-91251145D01*
X134742412Y-91250500D01*
X135673331Y-91250500D01*
X135673347Y-91250501D01*
X135680943Y-91250501D01*
X135839054Y-91250501D01*
X135839057Y-91250501D01*
X135991785Y-91209577D01*
X136041904Y-91180639D01*
X136128716Y-91130520D01*
X136240520Y-91018716D01*
X136240520Y-91018714D01*
X136250728Y-91008507D01*
X136250729Y-91008504D01*
X137547820Y-89711413D01*
X137609142Y-89677930D01*
X137678834Y-89682914D01*
X137734767Y-89724786D01*
X137759184Y-89790250D01*
X137759500Y-89799096D01*
X137759500Y-90549902D01*
X137739815Y-90616941D01*
X137723181Y-90637583D01*
X137141465Y-91219298D01*
X137080142Y-91252783D01*
X137067668Y-91254837D01*
X136980750Y-91264630D01*
X136810478Y-91324210D01*
X136657737Y-91420184D01*
X136530184Y-91547737D01*
X136434211Y-91700476D01*
X136374631Y-91870745D01*
X136374630Y-91870750D01*
X136354435Y-92049996D01*
X136354435Y-92050003D01*
X136374630Y-92229249D01*
X136374631Y-92229254D01*
X136434211Y-92399523D01*
X136483843Y-92478511D01*
X136530184Y-92552262D01*
X136657738Y-92679816D01*
X136687168Y-92698308D01*
X136796649Y-92767100D01*
X136810478Y-92775789D01*
X136851091Y-92790000D01*
X136980745Y-92835368D01*
X136980750Y-92835369D01*
X137159996Y-92855565D01*
X137160000Y-92855565D01*
X137160004Y-92855565D01*
X137339249Y-92835369D01*
X137339252Y-92835368D01*
X137339255Y-92835368D01*
X137509522Y-92775789D01*
X137662262Y-92679816D01*
X137789816Y-92552262D01*
X137885789Y-92399522D01*
X137945368Y-92229255D01*
X137955161Y-92142329D01*
X137982226Y-92077918D01*
X137990690Y-92068543D01*
X138718506Y-91340728D01*
X138718511Y-91340724D01*
X138728714Y-91330520D01*
X138728716Y-91330520D01*
X138840520Y-91218716D01*
X138878887Y-91152262D01*
X138896969Y-91120944D01*
X138896970Y-91120942D01*
X138919574Y-91081790D01*
X138919573Y-91081790D01*
X138919577Y-91081785D01*
X138955725Y-90946875D01*
X138992090Y-90887216D01*
X139054937Y-90856687D01*
X139124313Y-90864982D01*
X139178190Y-90909467D01*
X139199465Y-90976019D01*
X139199500Y-90978970D01*
X139199500Y-95399903D01*
X139179815Y-95466942D01*
X139163181Y-95487584D01*
X138837584Y-95813181D01*
X138776261Y-95846666D01*
X138749903Y-95849500D01*
X135681940Y-95849500D01*
X135614901Y-95829815D01*
X135569146Y-95777011D01*
X135559202Y-95707853D01*
X135588227Y-95644297D01*
X135594259Y-95637819D01*
X135600796Y-95631282D01*
X135629816Y-95602262D01*
X135725789Y-95449522D01*
X135785368Y-95279255D01*
X135786337Y-95270655D01*
X135805565Y-95100003D01*
X135805565Y-95099996D01*
X135785369Y-94920750D01*
X135785368Y-94920745D01*
X135769536Y-94875500D01*
X135725789Y-94750478D01*
X135629816Y-94597738D01*
X135502262Y-94470184D01*
X135413852Y-94414632D01*
X135349523Y-94374211D01*
X135179254Y-94314631D01*
X135179249Y-94314630D01*
X135000004Y-94294435D01*
X134999996Y-94294435D01*
X134820750Y-94314630D01*
X134820745Y-94314631D01*
X134650476Y-94374211D01*
X134497736Y-94470185D01*
X134494903Y-94472445D01*
X134492724Y-94473334D01*
X134491842Y-94473889D01*
X134491744Y-94473734D01*
X134430217Y-94498855D01*
X134417588Y-94499500D01*
X132265783Y-94499500D01*
X132198744Y-94479815D01*
X132178102Y-94463181D01*
X131225802Y-93510881D01*
X131192317Y-93449558D01*
X131197301Y-93379866D01*
X131239173Y-93323933D01*
X131304637Y-93299516D01*
X131372910Y-93314368D01*
X131382375Y-93320099D01*
X131399997Y-93331874D01*
X131400008Y-93331880D01*
X131572894Y-93403491D01*
X131572902Y-93403493D01*
X131756428Y-93439999D01*
X131756431Y-93440000D01*
X132150000Y-93440000D01*
X132150000Y-92790000D01*
X132650000Y-92790000D01*
X132650000Y-93440000D01*
X133043569Y-93440000D01*
X133043571Y-93439999D01*
X133227097Y-93403493D01*
X133227105Y-93403491D01*
X133399991Y-93331880D01*
X133400000Y-93331875D01*
X133555589Y-93227913D01*
X133555593Y-93227910D01*
X133687910Y-93095593D01*
X133687913Y-93095589D01*
X133791875Y-92940000D01*
X133791880Y-92939991D01*
X133863492Y-92767103D01*
X133863493Y-92767100D01*
X133868884Y-92740000D01*
X133116988Y-92740000D01*
X133134205Y-92730060D01*
X133190060Y-92674205D01*
X133229556Y-92605796D01*
X133250000Y-92529496D01*
X133250000Y-92450504D01*
X133229556Y-92374204D01*
X133190060Y-92305795D01*
X133134205Y-92249940D01*
X133116988Y-92240000D01*
X133868884Y-92240000D01*
X133868884Y-92239999D01*
X133863493Y-92212899D01*
X133863492Y-92212896D01*
X133791880Y-92040008D01*
X133791875Y-92039999D01*
X133687913Y-91884410D01*
X133687910Y-91884406D01*
X133555593Y-91752089D01*
X133555589Y-91752086D01*
X133400000Y-91648124D01*
X133399991Y-91648119D01*
X133227105Y-91576508D01*
X133227097Y-91576506D01*
X133043570Y-91540000D01*
X132650000Y-91540000D01*
X132650000Y-92190000D01*
X132150000Y-92190000D01*
X132150000Y-91634462D01*
X132169685Y-91567423D01*
X132212000Y-91527075D01*
X132258015Y-91500509D01*
X132360509Y-91398015D01*
X132432984Y-91272485D01*
X132470500Y-91132475D01*
X132470500Y-90987525D01*
X132432984Y-90847515D01*
X132377223Y-90750935D01*
X132360511Y-90721988D01*
X132360506Y-90721982D01*
X132258017Y-90619493D01*
X132258011Y-90619488D01*
X132132488Y-90547017D01*
X132132489Y-90547017D01*
X132121006Y-90543940D01*
X131992475Y-90509500D01*
X131847525Y-90509500D01*
X131718993Y-90543940D01*
X131707511Y-90547017D01*
X131581988Y-90619488D01*
X131581982Y-90619493D01*
X131479493Y-90721982D01*
X131479488Y-90721988D01*
X131407017Y-90847511D01*
X131407016Y-90847515D01*
X131369500Y-90987525D01*
X131369500Y-91132475D01*
X131401298Y-91251145D01*
X131407017Y-91272488D01*
X131479488Y-91398011D01*
X131479493Y-91398017D01*
X131501837Y-91420361D01*
X131535322Y-91481684D01*
X131530338Y-91551376D01*
X131488466Y-91607309D01*
X131461610Y-91622602D01*
X131400014Y-91648116D01*
X131399999Y-91648124D01*
X131244410Y-91752086D01*
X131244406Y-91752089D01*
X131112089Y-91884406D01*
X131112086Y-91884410D01*
X131027602Y-92010849D01*
X130973989Y-92055654D01*
X130904664Y-92064361D01*
X130841637Y-92034206D01*
X130804918Y-91974763D01*
X130800500Y-91941958D01*
X130800500Y-84398041D01*
X130820185Y-84331002D01*
X130872989Y-84285247D01*
X130942147Y-84275303D01*
X131005703Y-84304328D01*
X131027602Y-84329150D01*
X131112086Y-84455589D01*
X131112089Y-84455593D01*
X131244406Y-84587910D01*
X131244410Y-84587913D01*
X131399999Y-84691875D01*
X131400008Y-84691880D01*
X131461609Y-84717396D01*
X131516012Y-84761237D01*
X131538077Y-84827531D01*
X131520798Y-84895230D01*
X131501839Y-84919637D01*
X131479488Y-84941988D01*
X131407017Y-85067511D01*
X131407016Y-85067515D01*
X131369500Y-85207525D01*
X131369500Y-85352475D01*
X131407016Y-85492485D01*
X131407017Y-85492488D01*
X131479488Y-85618011D01*
X131479490Y-85618013D01*
X131479491Y-85618015D01*
X131581985Y-85720509D01*
X131581986Y-85720510D01*
X131581988Y-85720511D01*
X131707511Y-85792982D01*
X131707512Y-85792982D01*
X131707515Y-85792984D01*
X131847525Y-85830500D01*
X131847528Y-85830500D01*
X131992472Y-85830500D01*
X131992475Y-85830500D01*
X132132485Y-85792984D01*
X132258015Y-85720509D01*
X132360509Y-85618015D01*
X132432984Y-85492485D01*
X132470500Y-85352475D01*
X132470500Y-85207525D01*
X132432984Y-85067515D01*
X132422418Y-85049215D01*
X132360511Y-84941988D01*
X132360506Y-84941982D01*
X132258017Y-84839493D01*
X132258015Y-84839491D01*
X132212000Y-84812924D01*
X132163784Y-84762357D01*
X132150000Y-84705537D01*
X132150000Y-84150000D01*
X132650000Y-84150000D01*
X132650000Y-84800000D01*
X133043569Y-84800000D01*
X133043571Y-84799999D01*
X133227097Y-84763493D01*
X133227105Y-84763491D01*
X133399991Y-84691880D01*
X133400000Y-84691875D01*
X133555589Y-84587913D01*
X133555593Y-84587910D01*
X133687910Y-84455593D01*
X133687913Y-84455589D01*
X133725059Y-84399996D01*
X137394435Y-84399996D01*
X137394435Y-84400003D01*
X137414630Y-84579249D01*
X137414631Y-84579254D01*
X137474211Y-84749523D01*
X137565765Y-84895230D01*
X137570184Y-84902262D01*
X137697738Y-85029816D01*
X137850478Y-85125789D01*
X138020742Y-85185367D01*
X138020745Y-85185368D01*
X138020750Y-85185369D01*
X138199996Y-85205565D01*
X138200000Y-85205565D01*
X138200004Y-85205565D01*
X138379249Y-85185369D01*
X138379252Y-85185368D01*
X138379255Y-85185368D01*
X138549522Y-85125789D01*
X138702262Y-85029816D01*
X138702267Y-85029810D01*
X138705097Y-85027555D01*
X138707275Y-85026665D01*
X138708158Y-85026111D01*
X138708255Y-85026265D01*
X138769783Y-85001145D01*
X138782412Y-85000500D01*
X140713331Y-85000500D01*
X140713347Y-85000501D01*
X140720943Y-85000501D01*
X140879054Y-85000501D01*
X140879057Y-85000501D01*
X141031785Y-84959577D01*
X141081904Y-84930639D01*
X141168716Y-84880520D01*
X141280520Y-84768716D01*
X141280520Y-84768714D01*
X141290728Y-84758507D01*
X141290729Y-84758504D01*
X145179719Y-80869515D01*
X145241040Y-80836032D01*
X145310732Y-80841016D01*
X145333365Y-80852202D01*
X145385922Y-80885226D01*
X145450475Y-80925788D01*
X145620745Y-80985368D01*
X145620750Y-80985369D01*
X145799996Y-81005565D01*
X145800000Y-81005565D01*
X145800004Y-81005565D01*
X145979249Y-80985369D01*
X145979252Y-80985368D01*
X145979255Y-80985368D01*
X146149522Y-80925789D01*
X146302262Y-80829816D01*
X146429816Y-80702262D01*
X146525789Y-80549522D01*
X146585368Y-80379255D01*
X146587581Y-80359616D01*
X146605565Y-80200003D01*
X146605565Y-80199996D01*
X146585369Y-80020750D01*
X146585368Y-80020745D01*
X146525788Y-79850476D01*
X146429815Y-79697737D01*
X146302262Y-79570184D01*
X146149523Y-79474211D01*
X145979254Y-79414631D01*
X145979249Y-79414630D01*
X145800004Y-79394435D01*
X145799996Y-79394435D01*
X145620750Y-79414630D01*
X145620745Y-79414631D01*
X145450476Y-79474211D01*
X145297736Y-79570185D01*
X145294903Y-79572445D01*
X145292724Y-79573334D01*
X145291842Y-79573889D01*
X145291744Y-79573734D01*
X145230217Y-79598855D01*
X145217588Y-79599500D01*
X145086669Y-79599500D01*
X145086653Y-79599499D01*
X145079057Y-79599499D01*
X144920943Y-79599499D01*
X144813587Y-79628265D01*
X144768210Y-79640424D01*
X144768209Y-79640425D01*
X144733066Y-79660716D01*
X144733064Y-79660717D01*
X144631290Y-79719475D01*
X144631282Y-79719481D01*
X144519478Y-79831286D01*
X140587584Y-83763181D01*
X140526261Y-83796666D01*
X140499903Y-83799500D01*
X138782412Y-83799500D01*
X138715373Y-83779815D01*
X138705097Y-83772445D01*
X138702263Y-83770185D01*
X138702262Y-83770184D01*
X138645000Y-83734204D01*
X138549523Y-83674211D01*
X138379254Y-83614631D01*
X138379249Y-83614630D01*
X138200004Y-83594435D01*
X138199996Y-83594435D01*
X138020750Y-83614630D01*
X138020745Y-83614631D01*
X137850476Y-83674211D01*
X137697737Y-83770184D01*
X137570184Y-83897737D01*
X137474211Y-84050476D01*
X137414631Y-84220745D01*
X137414630Y-84220750D01*
X137394435Y-84399996D01*
X133725059Y-84399996D01*
X133791875Y-84300000D01*
X133791880Y-84299991D01*
X133863492Y-84127103D01*
X133863493Y-84127100D01*
X133868884Y-84100000D01*
X133116988Y-84100000D01*
X133134205Y-84090060D01*
X133190060Y-84034205D01*
X133229556Y-83965796D01*
X133250000Y-83889496D01*
X133250000Y-83810504D01*
X133229556Y-83734204D01*
X133190060Y-83665795D01*
X133134205Y-83609940D01*
X133116988Y-83600000D01*
X133868884Y-83600000D01*
X133868884Y-83599999D01*
X133863493Y-83572899D01*
X133863492Y-83572896D01*
X133791880Y-83400008D01*
X133791875Y-83399999D01*
X133687913Y-83244410D01*
X133687910Y-83244406D01*
X133555593Y-83112089D01*
X133555589Y-83112086D01*
X133400000Y-83008124D01*
X133399991Y-83008119D01*
X133227105Y-82936508D01*
X133227097Y-82936506D01*
X133043570Y-82900000D01*
X132650000Y-82900000D01*
X132650000Y-83550000D01*
X132150000Y-83550000D01*
X132150000Y-82900000D01*
X131756430Y-82900000D01*
X131572902Y-82936506D01*
X131572894Y-82936508D01*
X131400008Y-83008119D01*
X131399999Y-83008124D01*
X131244410Y-83112086D01*
X131244406Y-83112089D01*
X131112089Y-83244406D01*
X131112086Y-83244410D01*
X131027602Y-83370849D01*
X130973989Y-83415654D01*
X130904664Y-83424361D01*
X130841637Y-83394206D01*
X130804918Y-83334763D01*
X130800500Y-83301958D01*
X130800500Y-79700097D01*
X130820185Y-79633058D01*
X130836819Y-79612416D01*
X133612416Y-76836819D01*
X133673739Y-76803334D01*
X133700097Y-76800500D01*
X142217588Y-76800500D01*
X142284627Y-76820185D01*
X142294903Y-76827555D01*
X142297736Y-76829814D01*
X142297738Y-76829816D01*
X142450478Y-76925789D01*
X142620745Y-76985368D01*
X142620750Y-76985369D01*
X142799996Y-77005565D01*
X142800000Y-77005565D01*
X142800004Y-77005565D01*
X142979249Y-76985369D01*
X142979252Y-76985368D01*
X142979255Y-76985368D01*
X143149522Y-76925789D01*
X143302262Y-76829816D01*
X143429816Y-76702262D01*
X143525789Y-76549522D01*
X143585368Y-76379255D01*
X143586390Y-76370184D01*
X143605565Y-76200003D01*
X143605565Y-76199996D01*
X143585369Y-76020750D01*
X143585368Y-76020745D01*
X143525788Y-75850476D01*
X143429815Y-75697737D01*
X143302262Y-75570184D01*
X143149523Y-75474211D01*
X142979254Y-75414631D01*
X142979249Y-75414630D01*
X142800004Y-75394435D01*
X142799996Y-75394435D01*
X142620750Y-75414630D01*
X142620745Y-75414631D01*
X142450476Y-75474211D01*
X142297736Y-75570185D01*
X142294903Y-75572445D01*
X142292724Y-75573334D01*
X142291842Y-75573889D01*
X142291744Y-75573734D01*
X142230217Y-75598855D01*
X142217588Y-75599500D01*
X133320940Y-75599500D01*
X133280019Y-75610464D01*
X133280019Y-75610465D01*
X133242751Y-75620451D01*
X133168214Y-75640423D01*
X133168209Y-75640426D01*
X133031290Y-75719475D01*
X133031282Y-75719481D01*
X130612181Y-78138583D01*
X130550858Y-78172068D01*
X130481166Y-78167084D01*
X130425233Y-78125212D01*
X130400816Y-78059748D01*
X130400500Y-78050902D01*
X130400500Y-76900097D01*
X130420185Y-76833058D01*
X130436819Y-76812416D01*
X132019420Y-75229815D01*
X133618536Y-73630698D01*
X133679857Y-73597215D01*
X133692310Y-73595163D01*
X133779255Y-73585368D01*
X133949522Y-73525789D01*
X134102262Y-73429816D01*
X134229816Y-73302262D01*
X134325789Y-73149522D01*
X134385368Y-72979255D01*
X134388718Y-72949522D01*
X134405565Y-72800003D01*
X134405565Y-72799996D01*
X134385369Y-72620750D01*
X134385368Y-72620745D01*
X134325787Y-72450473D01*
X134233479Y-72303567D01*
X134214478Y-72236331D01*
X134234845Y-72169496D01*
X134250786Y-72149919D01*
X141513888Y-64886819D01*
X141575211Y-64853334D01*
X141601569Y-64850500D01*
X149163432Y-64850500D01*
X149230471Y-64870185D01*
G37*
%TD.AperFunction*%
%TA.AperFunction,Conductor*%
G36*
X128480000Y-84800000D02*
G01*
X128723569Y-84800000D01*
X128723571Y-84799999D01*
X128907097Y-84763493D01*
X128907105Y-84763491D01*
X129028047Y-84713396D01*
X129097517Y-84705927D01*
X129159996Y-84737202D01*
X129195648Y-84797291D01*
X129199500Y-84827957D01*
X129199500Y-91512042D01*
X129179815Y-91579081D01*
X129127011Y-91624836D01*
X129057853Y-91634780D01*
X129028048Y-91626603D01*
X128907109Y-91576509D01*
X128907097Y-91576506D01*
X128723570Y-91540000D01*
X128480000Y-91540000D01*
X128480000Y-92190000D01*
X127980000Y-92190000D01*
X127980000Y-91540000D01*
X127736430Y-91540000D01*
X127552902Y-91576506D01*
X127552894Y-91576508D01*
X127374378Y-91650452D01*
X127373569Y-91648500D01*
X127314543Y-91660787D01*
X127249301Y-91635782D01*
X127207934Y-91579475D01*
X127200500Y-91537187D01*
X127200500Y-84802812D01*
X127220185Y-84735773D01*
X127272989Y-84690018D01*
X127342147Y-84680074D01*
X127373977Y-84690515D01*
X127374378Y-84689548D01*
X127552894Y-84763491D01*
X127552902Y-84763493D01*
X127736428Y-84799999D01*
X127736431Y-84800000D01*
X127980000Y-84800000D01*
X127980000Y-84150000D01*
X128480000Y-84150000D01*
X128480000Y-84800000D01*
G37*
%TD.AperFunction*%
%TA.AperFunction,Conductor*%
G36*
X129118834Y-77384386D02*
G01*
X129174767Y-77426258D01*
X129199184Y-77491722D01*
X129199500Y-77500568D01*
X129199500Y-82872042D01*
X129179815Y-82939081D01*
X129127011Y-82984836D01*
X129057853Y-82994780D01*
X129028048Y-82986603D01*
X128907109Y-82936509D01*
X128907097Y-82936506D01*
X128723570Y-82900000D01*
X128480000Y-82900000D01*
X128480000Y-83550000D01*
X127980000Y-83550000D01*
X127980000Y-82900000D01*
X127736430Y-82900000D01*
X127552902Y-82936506D01*
X127552894Y-82936508D01*
X127374378Y-83010452D01*
X127373569Y-83008500D01*
X127314543Y-83020787D01*
X127249301Y-82995782D01*
X127207934Y-82939475D01*
X127200500Y-82897187D01*
X127200500Y-79251568D01*
X127220185Y-79184529D01*
X127236819Y-79163887D01*
X128987819Y-77412887D01*
X129049142Y-77379402D01*
X129118834Y-77384386D01*
G37*
%TD.AperFunction*%
%TA.AperFunction,Conductor*%
G36*
X173970039Y-63369685D02*
G01*
X174015794Y-63422489D01*
X174027000Y-63474000D01*
X174027000Y-66244811D01*
X174007315Y-66311850D01*
X173954511Y-66357605D01*
X173885353Y-66367549D01*
X173821797Y-66338524D01*
X173793445Y-66302894D01*
X173749683Y-66220352D01*
X173749681Y-66220348D01*
X173545829Y-65919690D01*
X173545822Y-65919680D01*
X173414029Y-65764523D01*
X173414028Y-65764523D01*
X172169251Y-67009300D01*
X172095412Y-66907670D01*
X171917330Y-66729588D01*
X171815698Y-66655748D01*
X173063110Y-65408336D01*
X173063110Y-65408334D01*
X173046929Y-65393007D01*
X173046928Y-65393006D01*
X172757733Y-65173167D01*
X172757717Y-65173156D01*
X172446477Y-64985890D01*
X172446464Y-64985883D01*
X172116794Y-64833360D01*
X172116789Y-64833359D01*
X171772538Y-64717367D01*
X171417764Y-64639275D01*
X171056633Y-64600000D01*
X170693366Y-64600000D01*
X170332235Y-64639275D01*
X169977461Y-64717367D01*
X169633210Y-64833359D01*
X169633205Y-64833360D01*
X169303535Y-64985883D01*
X169303522Y-64985890D01*
X168992282Y-65173156D01*
X168992266Y-65173167D01*
X168703075Y-65393002D01*
X168686888Y-65408335D01*
X168686887Y-65408335D01*
X169934301Y-66655748D01*
X169832670Y-66729588D01*
X169654588Y-66907670D01*
X169580748Y-67009301D01*
X168335970Y-65764522D01*
X168335969Y-65764523D01*
X168204177Y-65919680D01*
X168204170Y-65919690D01*
X168000318Y-66220348D01*
X168000316Y-66220352D01*
X167830161Y-66541297D01*
X167830152Y-66541315D01*
X167695697Y-66878772D01*
X167695696Y-66878775D01*
X167647781Y-67051350D01*
X167610879Y-67110679D01*
X167547759Y-67140640D01*
X167478461Y-67131719D01*
X167424987Y-67086749D01*
X167404315Y-67020007D01*
X167405082Y-67004285D01*
X167405565Y-67000000D01*
X167405565Y-66999996D01*
X167385369Y-66820750D01*
X167385368Y-66820745D01*
X167325788Y-66650476D01*
X167257186Y-66541297D01*
X167229816Y-66497738D01*
X167102262Y-66370184D01*
X167085381Y-66359577D01*
X166949521Y-66274210D01*
X166779249Y-66214630D01*
X166692331Y-66204837D01*
X166627917Y-66177770D01*
X166618534Y-66169298D01*
X164087590Y-63638355D01*
X164087588Y-63638352D01*
X164010917Y-63561681D01*
X163977432Y-63500358D01*
X163982416Y-63430666D01*
X164024288Y-63374733D01*
X164089752Y-63350316D01*
X164098598Y-63350000D01*
X173903000Y-63350000D01*
X173970039Y-63369685D01*
G37*
%TD.AperFunction*%
%TD*%
M02*
