%TF.GenerationSoftware,KiCad,Pcbnew,8.0.3*%
%TF.CreationDate,2024-07-09T19:18:37+01:00*%
%TF.ProjectId,LEDStrip,4c454453-7472-4697-902e-6b696361645f,rev?*%
%TF.SameCoordinates,Original*%
%TF.FileFunction,Copper,L1,Top*%
%TF.FilePolarity,Positive*%
%FSLAX46Y46*%
G04 Gerber Fmt 4.6, Leading zero omitted, Abs format (unit mm)*
G04 Created by KiCad (PCBNEW 8.0.3) date 2024-07-09 19:18:37*
%MOMM*%
%LPD*%
G01*
G04 APERTURE LIST*
G04 Aperture macros list*
%AMRoundRect*
0 Rectangle with rounded corners*
0 $1 Rounding radius*
0 $2 $3 $4 $5 $6 $7 $8 $9 X,Y pos of 4 corners*
0 Add a 4 corners polygon primitive as box body*
4,1,4,$2,$3,$4,$5,$6,$7,$8,$9,$2,$3,0*
0 Add four circle primitives for the rounded corners*
1,1,$1+$1,$2,$3*
1,1,$1+$1,$4,$5*
1,1,$1+$1,$6,$7*
1,1,$1+$1,$8,$9*
0 Add four rect primitives between the rounded corners*
20,1,$1+$1,$2,$3,$4,$5,0*
20,1,$1+$1,$4,$5,$6,$7,0*
20,1,$1+$1,$6,$7,$8,$9,0*
20,1,$1+$1,$8,$9,$2,$3,0*%
%AMFreePoly0*
4,1,19,0.550000,-0.750000,0.000000,-0.750000,0.000000,-0.744911,-0.071157,-0.744911,-0.207708,-0.704816,-0.327430,-0.627875,-0.420627,-0.520320,-0.479746,-0.390866,-0.500000,-0.250000,-0.500000,0.250000,-0.479746,0.390866,-0.420627,0.520320,-0.327430,0.627875,-0.207708,0.704816,-0.071157,0.744911,0.000000,0.744911,0.000000,0.750000,0.550000,0.750000,0.550000,-0.750000,0.550000,-0.750000,
$1*%
%AMFreePoly1*
4,1,19,0.000000,0.744911,0.071157,0.744911,0.207708,0.704816,0.327430,0.627875,0.420627,0.520320,0.479746,0.390866,0.500000,0.250000,0.500000,-0.250000,0.479746,-0.390866,0.420627,-0.520320,0.327430,-0.627875,0.207708,-0.704816,0.071157,-0.744911,0.000000,-0.744911,0.000000,-0.750000,-0.550000,-0.750000,-0.550000,0.750000,0.000000,0.750000,0.000000,0.744911,0.000000,0.744911,
$1*%
G04 Aperture macros list end*
%TA.AperFunction,SMDPad,CuDef*%
%ADD10RoundRect,0.150000X0.625000X-0.150000X0.625000X0.150000X-0.625000X0.150000X-0.625000X-0.150000X0*%
%TD*%
%TA.AperFunction,SMDPad,CuDef*%
%ADD11RoundRect,0.250000X0.650000X-0.350000X0.650000X0.350000X-0.650000X0.350000X-0.650000X-0.350000X0*%
%TD*%
%TA.AperFunction,SMDPad,CuDef*%
%ADD12FreePoly0,90.000000*%
%TD*%
%TA.AperFunction,SMDPad,CuDef*%
%ADD13R,1.500000X1.000000*%
%TD*%
%TA.AperFunction,SMDPad,CuDef*%
%ADD14FreePoly1,90.000000*%
%TD*%
%TA.AperFunction,SMDPad,CuDef*%
%ADD15RoundRect,0.225000X-0.250000X0.225000X-0.250000X-0.225000X0.250000X-0.225000X0.250000X0.225000X0*%
%TD*%
%TA.AperFunction,ComponentPad*%
%ADD16R,4.500000X2.000000*%
%TD*%
%TA.AperFunction,ComponentPad*%
%ADD17O,4.000000X2.000000*%
%TD*%
%TA.AperFunction,ComponentPad*%
%ADD18O,2.000000X4.000000*%
%TD*%
%TA.AperFunction,SMDPad,CuDef*%
%ADD19RoundRect,0.200000X0.275000X-0.200000X0.275000X0.200000X-0.275000X0.200000X-0.275000X-0.200000X0*%
%TD*%
%TA.AperFunction,ComponentPad*%
%ADD20C,5.700000*%
%TD*%
%TA.AperFunction,SMDPad,CuDef*%
%ADD21RoundRect,0.250000X-0.650000X1.000000X-0.650000X-1.000000X0.650000X-1.000000X0.650000X1.000000X0*%
%TD*%
%TA.AperFunction,SMDPad,CuDef*%
%ADD22RoundRect,0.250000X-0.450000X-0.425000X0.450000X-0.425000X0.450000X0.425000X-0.450000X0.425000X0*%
%TD*%
%TA.AperFunction,ComponentPad*%
%ADD23R,1.600000X1.600000*%
%TD*%
%TA.AperFunction,ComponentPad*%
%ADD24O,1.600000X1.600000*%
%TD*%
%TA.AperFunction,SMDPad,CuDef*%
%ADD25RoundRect,0.150000X-0.200000X0.150000X-0.200000X-0.150000X0.200000X-0.150000X0.200000X0.150000X0*%
%TD*%
%TA.AperFunction,SMDPad,CuDef*%
%ADD26RoundRect,0.225000X0.250000X-0.225000X0.250000X0.225000X-0.250000X0.225000X-0.250000X-0.225000X0*%
%TD*%
%TA.AperFunction,SMDPad,CuDef*%
%ADD27RoundRect,0.250000X-0.650000X0.350000X-0.650000X-0.350000X0.650000X-0.350000X0.650000X0.350000X0*%
%TD*%
%TA.AperFunction,SMDPad,CuDef*%
%ADD28RoundRect,0.150000X-0.625000X0.150000X-0.625000X-0.150000X0.625000X-0.150000X0.625000X0.150000X0*%
%TD*%
%TA.AperFunction,SMDPad,CuDef*%
%ADD29RoundRect,0.150000X0.200000X-0.150000X0.200000X0.150000X-0.200000X0.150000X-0.200000X-0.150000X0*%
%TD*%
%TA.AperFunction,SMDPad,CuDef*%
%ADD30RoundRect,0.218750X0.218750X0.256250X-0.218750X0.256250X-0.218750X-0.256250X0.218750X-0.256250X0*%
%TD*%
%TA.AperFunction,SMDPad,CuDef*%
%ADD31RoundRect,0.200000X0.200000X0.275000X-0.200000X0.275000X-0.200000X-0.275000X0.200000X-0.275000X0*%
%TD*%
%TA.AperFunction,SMDPad,CuDef*%
%ADD32RoundRect,0.225000X0.225000X0.250000X-0.225000X0.250000X-0.225000X-0.250000X0.225000X-0.250000X0*%
%TD*%
%TA.AperFunction,SMDPad,CuDef*%
%ADD33R,0.900000X1.000000*%
%TD*%
%TA.AperFunction,SMDPad,CuDef*%
%ADD34R,0.250000X0.700000*%
%TD*%
%TA.AperFunction,SMDPad,CuDef*%
%ADD35R,2.350000X1.780000*%
%TD*%
%TA.AperFunction,SMDPad,CuDef*%
%ADD36RoundRect,0.200000X-0.275000X0.200000X-0.275000X-0.200000X0.275000X-0.200000X0.275000X0.200000X0*%
%TD*%
%TA.AperFunction,SMDPad,CuDef*%
%ADD37RoundRect,0.250000X-0.787500X-1.875000X0.787500X-1.875000X0.787500X1.875000X-0.787500X1.875000X0*%
%TD*%
%TA.AperFunction,SMDPad,CuDef*%
%ADD38FreePoly0,270.000000*%
%TD*%
%TA.AperFunction,SMDPad,CuDef*%
%ADD39FreePoly1,270.000000*%
%TD*%
%TA.AperFunction,SMDPad,CuDef*%
%ADD40R,1.160000X0.600000*%
%TD*%
%TA.AperFunction,SMDPad,CuDef*%
%ADD41R,1.160000X0.300000*%
%TD*%
%TA.AperFunction,ComponentPad*%
%ADD42O,2.000000X0.900000*%
%TD*%
%TA.AperFunction,ComponentPad*%
%ADD43O,1.700000X0.900000*%
%TD*%
%TA.AperFunction,SMDPad,CuDef*%
%ADD44RoundRect,0.250000X-0.425000X0.450000X-0.425000X-0.450000X0.425000X-0.450000X0.425000X0.450000X0*%
%TD*%
%TA.AperFunction,SMDPad,CuDef*%
%ADD45RoundRect,0.150000X-0.150000X-0.625000X0.150000X-0.625000X0.150000X0.625000X-0.150000X0.625000X0*%
%TD*%
%TA.AperFunction,SMDPad,CuDef*%
%ADD46RoundRect,0.250000X-0.350000X-0.650000X0.350000X-0.650000X0.350000X0.650000X-0.350000X0.650000X0*%
%TD*%
%TA.AperFunction,ComponentPad*%
%ADD47RoundRect,0.250000X0.725000X-0.600000X0.725000X0.600000X-0.725000X0.600000X-0.725000X-0.600000X0*%
%TD*%
%TA.AperFunction,ComponentPad*%
%ADD48O,1.950000X1.700000*%
%TD*%
%TA.AperFunction,SMDPad,CuDef*%
%ADD49RoundRect,0.150000X0.587500X0.150000X-0.587500X0.150000X-0.587500X-0.150000X0.587500X-0.150000X0*%
%TD*%
%TA.AperFunction,SMDPad,CuDef*%
%ADD50RoundRect,0.225000X-0.375000X0.225000X-0.375000X-0.225000X0.375000X-0.225000X0.375000X0.225000X0*%
%TD*%
%TA.AperFunction,SMDPad,CuDef*%
%ADD51RoundRect,0.250000X0.450000X0.425000X-0.450000X0.425000X-0.450000X-0.425000X0.450000X-0.425000X0*%
%TD*%
%TA.AperFunction,SMDPad,CuDef*%
%ADD52RoundRect,0.225000X-0.225000X-0.250000X0.225000X-0.250000X0.225000X0.250000X-0.225000X0.250000X0*%
%TD*%
%TA.AperFunction,ComponentPad*%
%ADD53R,1.700000X1.700000*%
%TD*%
%TA.AperFunction,ComponentPad*%
%ADD54O,1.700000X1.700000*%
%TD*%
%TA.AperFunction,SMDPad,CuDef*%
%ADD55RoundRect,0.200000X-0.200000X-0.275000X0.200000X-0.275000X0.200000X0.275000X-0.200000X0.275000X0*%
%TD*%
%TA.AperFunction,SMDPad,CuDef*%
%ADD56R,1.500000X0.900000*%
%TD*%
%TA.AperFunction,SMDPad,CuDef*%
%ADD57R,0.900000X1.500000*%
%TD*%
%TA.AperFunction,HeatsinkPad*%
%ADD58C,0.600000*%
%TD*%
%TA.AperFunction,SMDPad,CuDef*%
%ADD59R,3.900000X3.900000*%
%TD*%
%TA.AperFunction,SMDPad,CuDef*%
%ADD60RoundRect,0.250000X-0.300000X2.050000X-0.300000X-2.050000X0.300000X-2.050000X0.300000X2.050000X0*%
%TD*%
%TA.AperFunction,SMDPad,CuDef*%
%ADD61RoundRect,0.250000X-2.375000X2.025000X-2.375000X-2.025000X2.375000X-2.025000X2.375000X2.025000X0*%
%TD*%
%TA.AperFunction,SMDPad,CuDef*%
%ADD62RoundRect,0.250002X-5.149998X4.449998X-5.149998X-4.449998X5.149998X-4.449998X5.149998X4.449998X0*%
%TD*%
%TA.AperFunction,SMDPad,CuDef*%
%ADD63R,6.500000X1.920000*%
%TD*%
%TA.AperFunction,ComponentPad*%
%ADD64R,1.378000X1.378000*%
%TD*%
%TA.AperFunction,ComponentPad*%
%ADD65C,1.378000*%
%TD*%
%TA.AperFunction,SMDPad,CuDef*%
%ADD66RoundRect,0.375000X-0.625000X-0.375000X0.625000X-0.375000X0.625000X0.375000X-0.625000X0.375000X0*%
%TD*%
%TA.AperFunction,SMDPad,CuDef*%
%ADD67RoundRect,0.500000X-0.500000X-1.400000X0.500000X-1.400000X0.500000X1.400000X-0.500000X1.400000X0*%
%TD*%
%TA.AperFunction,ViaPad*%
%ADD68C,0.600000*%
%TD*%
%TA.AperFunction,Conductor*%
%ADD69C,0.200000*%
%TD*%
%TA.AperFunction,Conductor*%
%ADD70C,0.150000*%
%TD*%
%TA.AperFunction,Conductor*%
%ADD71C,0.800000*%
%TD*%
%TA.AperFunction,Conductor*%
%ADD72C,1.000000*%
%TD*%
%TA.AperFunction,Conductor*%
%ADD73C,2.000000*%
%TD*%
G04 APERTURE END LIST*
D10*
%TO.P,J4,1,Pin_1*%
%TO.N,MAT_CLK*%
X168925000Y-95300000D03*
%TO.P,J4,2,Pin_2*%
%TO.N,MAT_CS*%
X168925000Y-94300000D03*
%TO.P,J4,3,Pin_3*%
%TO.N,MAT_DIN*%
X168925000Y-93300000D03*
%TO.P,J4,4,Pin_4*%
%TO.N,GND*%
X168925000Y-92300000D03*
%TO.P,J4,5,Pin_5*%
%TO.N,VCC_5V*%
X168925000Y-91300000D03*
D11*
%TO.P,J4,MP,MountPin*%
%TO.N,unconnected-(J4-MountPin-PadMP)*%
X172800000Y-96600000D03*
X172800000Y-90000000D03*
%TD*%
D12*
%TO.P,JP2,1,A*%
%TO.N,<NO NET>*%
X173000000Y-101700000D03*
D13*
%TO.P,JP2,2,C*%
%TO.N,GAIN*%
X173000000Y-100400000D03*
D14*
%TO.P,JP2,3,B*%
%TO.N,ESP_3V3*%
X173000000Y-99100000D03*
%TD*%
D15*
%TO.P,C5,1*%
%TO.N,ESP_3V3*%
X135865000Y-66300000D03*
%TO.P,C5,2*%
%TO.N,GND*%
X135865000Y-67850000D03*
%TD*%
D16*
%TO.P,J5,1*%
%TO.N,VCC_12V*%
X161200000Y-115950000D03*
D17*
%TO.P,J5,2*%
%TO.N,unconnected-(J5-Pad2)*%
X161200000Y-122150000D03*
D18*
%TO.P,J5,3*%
%TO.N,GND*%
X165900000Y-119150000D03*
%TD*%
D19*
%TO.P,R14,1*%
%TO.N,Net-(U6-MICBIAS)*%
X172400000Y-111600000D03*
%TO.P,R14,2*%
%TO.N,Net-(C18-Pad2)*%
X172400000Y-109950000D03*
%TD*%
D20*
%TO.P,H3,1,1*%
%TO.N,GND*%
X128600000Y-67950000D03*
%TD*%
D21*
%TO.P,D3,1,K*%
%TO.N,Net-(D3-K)*%
X134000000Y-124800000D03*
%TO.P,D3,2,A*%
%TO.N,<NO NET>*%
X134000000Y-128800000D03*
%TD*%
D22*
%TO.P,C15,1*%
%TO.N,Net-(U6-CT)*%
X158400000Y-103800000D03*
%TO.P,C15,2*%
%TO.N,<NO NET>*%
X161100000Y-103800000D03*
%TD*%
D12*
%TO.P,JP1,1,A*%
%TO.N,ESP_3V3*%
X172600000Y-116900000D03*
D13*
%TO.P,JP1,2,C*%
%TO.N,Net-(J7-Pin_1)*%
X172600000Y-115600000D03*
D14*
%TO.P,JP1,3,B*%
%TO.N,GND*%
X172600000Y-114300000D03*
%TD*%
D23*
%TO.P,U1,1,VDD*%
%TO.N,VDD_EQ*%
X153000000Y-92925000D03*
D24*
%TO.P,U1,2,VSS*%
%TO.N,GND*%
X150460000Y-92925000D03*
%TO.P,U1,3,OUT*%
%TO.N,EQ_DATA*%
X147920000Y-92925000D03*
%TO.P,U1,4,STROBE*%
%TO.N,EQ_STROBE*%
X145380000Y-92925000D03*
%TO.P,U1,5,IN*%
%TO.N,Net-(U1-IN)*%
X145380000Y-100545000D03*
%TO.P,U1,6,GND*%
%TO.N,Net-(U1-GND)*%
X147920000Y-100545000D03*
%TO.P,U1,7,RESET*%
%TO.N,EQ_RESET*%
X150460000Y-100545000D03*
%TO.P,U1,8,CKIN*%
%TO.N,Net-(U1-CKIN)*%
X153000000Y-100545000D03*
%TD*%
D25*
%TO.P,D5,1,A1*%
%TO.N,GND*%
X136760000Y-90850000D03*
%TO.P,D5,2,A2*%
%TO.N,D+*%
X136760000Y-89450000D03*
%TD*%
D26*
%TO.P,C3,1*%
%TO.N,VCC_5V*%
X135865000Y-71450000D03*
%TO.P,C3,2*%
%TO.N,GND*%
X135865000Y-69900000D03*
%TD*%
D27*
%TO.P,SW3,*%
%TO.N,*%
X172815000Y-75100000D03*
X172815000Y-83700000D03*
D28*
%TO.P,SW3,B*%
%TO.N,Net-(R15-Pad1)*%
X170290000Y-82400000D03*
%TO.P,SW3,C1*%
%TO.N,ESP_3V3*%
X170290000Y-76400000D03*
%TO.P,SW3,C2*%
%TO.N,GND*%
X170290000Y-77400000D03*
%TO.P,SW3,G*%
%TO.N,Net-(R11-Pad1)*%
X170290000Y-81400000D03*
%TO.P,SW3,NC1*%
%TO.N,unconnected-(SW3-PadNC1)*%
X170290000Y-78400000D03*
%TO.P,SW3,NO1*%
%TO.N,CMD_BTN*%
X170290000Y-79400000D03*
%TO.P,SW3,R*%
%TO.N,Net-(R10-Pad1)*%
X170290000Y-80400000D03*
%TD*%
D19*
%TO.P,R2,1*%
%TO.N,Net-(J1-CC2)*%
X140000000Y-85225000D03*
%TO.P,R2,2*%
%TO.N,GND*%
X140000000Y-83575000D03*
%TD*%
D29*
%TO.P,D4,1,A1*%
%TO.N,GND*%
X136960000Y-83650000D03*
%TO.P,D4,2,A2*%
%TO.N,D-*%
X136960000Y-85050000D03*
%TD*%
D30*
%TO.P,D6,1,K*%
%TO.N,GND*%
X142665000Y-64450000D03*
%TO.P,D6,2,A*%
%TO.N,Net-(D6-A)*%
X141090000Y-64450000D03*
%TD*%
D31*
%TO.P,R5,1*%
%TO.N,Net-(U1-CKIN)*%
X154000000Y-90325000D03*
%TO.P,R5,2*%
%TO.N,VDD_EQ*%
X152350000Y-90325000D03*
%TD*%
D32*
%TO.P,C7,1*%
%TO.N,ESP_3V3*%
X171565000Y-73050000D03*
%TO.P,C7,2*%
%TO.N,GND*%
X170015000Y-73050000D03*
%TD*%
D33*
%TO.P,SW2,1*%
%TO.N,<NO NET>*%
X135950000Y-107800000D03*
X140050000Y-107800000D03*
%TO.P,SW2,2*%
%TO.N,GPIO0*%
X135950000Y-109400000D03*
X140050000Y-109400000D03*
%TD*%
D26*
%TO.P,C2,1*%
%TO.N,VCC_5V*%
X133665000Y-71425000D03*
%TO.P,C2,2*%
%TO.N,GND*%
X133665000Y-69875000D03*
%TD*%
D34*
%TO.P,U6,1,CT*%
%TO.N,Net-(U6-CT)*%
X163387500Y-101525000D03*
%TO.P,U6,2,~{SHDN}*%
%TO.N,ESP_3V3*%
X163787500Y-101525000D03*
%TO.P,U6,3,CG*%
%TO.N,Net-(U6-CG)*%
X164187500Y-101525000D03*
%TO.P,U6,4,GND*%
%TO.N,<NO NET>*%
X164587500Y-101525000D03*
%TO.P,U6,5,VDD*%
%TO.N,ESP_3V3*%
X164987500Y-101525000D03*
%TO.P,U6,6,MICOUT*%
%TO.N,AUDIO*%
X165387500Y-101525000D03*
%TO.P,U6,7,GND*%
%TO.N,<NO NET>*%
X165787500Y-101525000D03*
%TO.P,U6,8,MICIN*%
%TO.N,Net-(U6-MICIN)*%
X165787500Y-98575000D03*
%TO.P,U6,9,A/R*%
%TO.N,AR*%
X165387500Y-98575000D03*
%TO.P,U6,10,GAIN*%
%TO.N,GAIN*%
X164987500Y-98575000D03*
%TO.P,U6,11,GND*%
%TO.N,<NO NET>*%
X164587500Y-98575000D03*
%TO.P,U6,12,BIAS*%
%TO.N,Net-(U6-BIAS)*%
X164187500Y-98575000D03*
%TO.P,U6,13,MICBIAS*%
%TO.N,Net-(U6-MICBIAS)*%
X163787500Y-98575000D03*
%TO.P,U6,14,TH*%
%TO.N,Net-(U6-TH)*%
X163387500Y-98575000D03*
D35*
%TO.P,U6,15,GND*%
%TO.N,<NO NET>*%
X164587500Y-100050000D03*
%TD*%
D19*
%TO.P,R1,1*%
%TO.N,Net-(J1-CC1)*%
X135160000Y-85250000D03*
%TO.P,R1,2*%
%TO.N,GND*%
X135160000Y-83600000D03*
%TD*%
D36*
%TO.P,R11,1*%
%TO.N,Net-(R11-Pad1)*%
X168015000Y-77850000D03*
%TO.P,R11,2*%
%TO.N,RGB_G*%
X168015000Y-79500000D03*
%TD*%
D37*
%TO.P,CIN2,1*%
%TO.N,VCC_12V*%
X146775000Y-109000000D03*
%TO.P,CIN2,2*%
%TO.N,<NO NET>*%
X153000000Y-109000000D03*
%TD*%
D29*
%TO.P,D2,1,A1*%
%TO.N,GND*%
X136960000Y-86650000D03*
%TO.P,D2,2,A2*%
%TO.N,Net-(D1-A)*%
X136960000Y-88050000D03*
%TD*%
D38*
%TO.P,JP3,1,A*%
%TO.N,<NO NET>*%
X166000000Y-109600000D03*
D13*
%TO.P,JP3,2,C*%
%TO.N,AR*%
X166000000Y-110900000D03*
D39*
%TO.P,JP3,3,B*%
%TO.N,ESP_3V3*%
X166000000Y-112200000D03*
%TD*%
D22*
%TO.P,COUT1,1*%
%TO.N,VCC_5V*%
X140800000Y-111800000D03*
%TO.P,COUT1,2*%
%TO.N,<NO NET>*%
X143500000Y-111800000D03*
%TD*%
D15*
%TO.P,C4,1*%
%TO.N,ESP_3V3*%
X133865000Y-66325000D03*
%TO.P,C4,2*%
%TO.N,GND*%
X133865000Y-67875000D03*
%TD*%
D40*
%TO.P,J1,A1,GND*%
%TO.N,GND*%
X132980000Y-84970000D03*
%TO.P,J1,A4,VBUS*%
%TO.N,Net-(D1-A)*%
X132980000Y-85770000D03*
D41*
%TO.P,J1,A5,CC1*%
%TO.N,Net-(J1-CC1)*%
X132980000Y-86920000D03*
%TO.P,J1,A6,D+*%
%TO.N,D+*%
X132980000Y-87920000D03*
%TO.P,J1,A7,D-*%
%TO.N,D-*%
X132980000Y-88420000D03*
%TO.P,J1,A8,SBU1*%
%TO.N,unconnected-(J1-SBU1-PadA8)*%
X132980000Y-89420000D03*
D40*
%TO.P,J1,A9,VBUS*%
%TO.N,Net-(D1-A)*%
X132980000Y-90570000D03*
%TO.P,J1,A12,GND*%
%TO.N,GND*%
X132980000Y-91370000D03*
%TO.P,J1,B1,GND*%
X132980000Y-91370000D03*
%TO.P,J1,B4,VBUS*%
%TO.N,Net-(D1-A)*%
X132980000Y-90570000D03*
D41*
%TO.P,J1,B5,CC2*%
%TO.N,Net-(J1-CC2)*%
X132980000Y-89920000D03*
%TO.P,J1,B6,D+*%
%TO.N,D+*%
X132980000Y-88920000D03*
%TO.P,J1,B7,D-*%
%TO.N,D-*%
X132980000Y-87420000D03*
%TO.P,J1,B8,SBU2*%
%TO.N,unconnected-(J1-SBU2-PadB8)*%
X132980000Y-86420000D03*
D40*
%TO.P,J1,B9,VBUS*%
%TO.N,Net-(D1-A)*%
X132980000Y-85770000D03*
%TO.P,J1,B12,GND*%
%TO.N,GND*%
X132980000Y-84970000D03*
D42*
%TO.P,J1,S1,SHIELD*%
X132400000Y-83850000D03*
D43*
X128230000Y-83850000D03*
D42*
X132400000Y-92490000D03*
D43*
X128230000Y-92490000D03*
%TD*%
D44*
%TO.P,C18,1*%
%TO.N,Net-(U6-MICIN)*%
X172400000Y-104600000D03*
%TO.P,C18,2*%
%TO.N,Net-(C18-Pad2)*%
X172400000Y-107300000D03*
%TD*%
D45*
%TO.P,J2,1,Pin_1*%
%TO.N,VCC_12V*%
X138300000Y-124925000D03*
%TO.P,J2,2,Pin_2*%
%TO.N,LED_G*%
X139300000Y-124925000D03*
%TO.P,J2,3,Pin_3*%
%TO.N,LED_R*%
X140300000Y-124925000D03*
%TO.P,J2,4,Pin_4*%
%TO.N,LED_B*%
X141300000Y-124925000D03*
D46*
%TO.P,J2,MP,MountPin*%
%TO.N,unconnected-(J2-MountPin-PadMP)*%
X137000000Y-128800000D03*
X142600000Y-128800000D03*
%TD*%
D47*
%TO.P,J3,1,Pin_1*%
%TO.N,VCC_12V*%
X132400000Y-104350000D03*
D48*
%TO.P,J3,2,Pin_2*%
%TO.N,LED_ADDR*%
X132400000Y-101850000D03*
%TO.P,J3,3,Pin_3*%
%TO.N,GND*%
X132400000Y-99350000D03*
%TO.P,J3,4,Pin_4*%
X132400000Y-96850000D03*
%TD*%
D20*
%TO.P,H4,1,1*%
%TO.N,GND*%
X128875000Y-126000000D03*
%TD*%
D32*
%TO.P,C11,1*%
%TO.N,Net-(C11-Pad1)*%
X146200000Y-102925000D03*
%TO.P,C11,2*%
%TO.N,Net-(U1-IN)*%
X144650000Y-102925000D03*
%TD*%
D49*
%TO.P,Q1,1,D*%
%TO.N,LED_R*%
X142600000Y-122550000D03*
%TO.P,Q1,2,G*%
%TO.N,RGB_R*%
X142600000Y-120650000D03*
%TO.P,Q1,3,S*%
%TO.N,GND*%
X140725000Y-121600000D03*
%TD*%
D50*
%TO.P,D1,1,K*%
%TO.N,VCC_5V*%
X138760000Y-89600000D03*
%TO.P,D1,2,A*%
%TO.N,Net-(D1-A)*%
X138760000Y-92900000D03*
%TD*%
D51*
%TO.P,C19,1*%
%TO.N,ESP_3V3*%
X165800000Y-104400000D03*
%TO.P,C19,2*%
%TO.N,<NO NET>*%
X163100000Y-104400000D03*
%TD*%
D52*
%TO.P,C12,1*%
%TO.N,Net-(U1-GND)*%
X148450000Y-102925000D03*
%TO.P,C12,2*%
%TO.N,GND*%
X150000000Y-102925000D03*
%TD*%
D53*
%TO.P,J6,1,Pin_1*%
%TO.N,DISP_SDA*%
X128800000Y-110460000D03*
D54*
%TO.P,J6,2,Pin_2*%
%TO.N,DISP_SCL*%
X128800000Y-113000000D03*
%TO.P,J6,3,Pin_3*%
%TO.N,ESP_3V3*%
X128800000Y-115540000D03*
%TO.P,J6,4,Pin_4*%
%TO.N,GND*%
X128800000Y-118080000D03*
%TD*%
D55*
%TO.P,R6,1*%
%TO.N,Net-(C11-Pad1)*%
X144550000Y-90525000D03*
%TO.P,R6,2*%
%TO.N,AUDIO*%
X146200000Y-90525000D03*
%TD*%
D36*
%TO.P,R16,1*%
%TO.N,GND*%
X168015000Y-74650000D03*
%TO.P,R16,2*%
%TO.N,CMD_BTN*%
X168015000Y-76300000D03*
%TD*%
D55*
%TO.P,R3,1*%
%TO.N,ESP_3V3*%
X137640000Y-64450000D03*
%TO.P,R3,2*%
%TO.N,Net-(D6-A)*%
X139290000Y-64450000D03*
%TD*%
D36*
%TO.P,R10,1*%
%TO.N,Net-(R10-Pad1)*%
X168015000Y-81000000D03*
%TO.P,R10,2*%
%TO.N,RGB_R*%
X168015000Y-82650000D03*
%TD*%
D56*
%TO.P,U2,1,GND*%
%TO.N,GND*%
X147265000Y-64840000D03*
%TO.P,U2,2,3V3*%
%TO.N,ESP_3V3*%
X147265000Y-66110000D03*
%TO.P,U2,3,EN*%
%TO.N,CHIP_PU*%
X147265000Y-67380000D03*
%TO.P,U2,4,IO4*%
%TO.N,CMD_BTN*%
X147265000Y-68650000D03*
%TO.P,U2,5,IO5*%
%TO.N,EQ_RESET*%
X147265000Y-69920000D03*
%TO.P,U2,6,IO6*%
%TO.N,unconnected-(U2-IO6-Pad6)*%
X147265000Y-71190000D03*
%TO.P,U2,7,IO7*%
%TO.N,unconnected-(U2-IO7-Pad7)*%
X147265000Y-72460000D03*
%TO.P,U2,8,IO15*%
%TO.N,unconnected-(U2-IO15-Pad8)*%
X147265000Y-73730000D03*
%TO.P,U2,9,IO16*%
%TO.N,unconnected-(U2-IO16-Pad9)*%
X147265000Y-75000000D03*
%TO.P,U2,10,IO17*%
%TO.N,unconnected-(U2-IO17-Pad10)*%
X147265000Y-76270000D03*
%TO.P,U2,11,IO18*%
%TO.N,DISP_SDA*%
X147265000Y-77540000D03*
%TO.P,U2,12,IO8*%
%TO.N,unconnected-(U2-IO8-Pad12)*%
X147265000Y-78810000D03*
%TO.P,U2,13,IO19*%
%TO.N,D-*%
X147265000Y-80080000D03*
%TO.P,U2,14,IO20*%
%TO.N,D+*%
X147265000Y-81350000D03*
D57*
%TO.P,U2,15,IO3*%
%TO.N,unconnected-(U2-IO3-Pad15)*%
X149030000Y-82600000D03*
%TO.P,U2,16,IO46*%
%TO.N,unconnected-(U2-IO46-Pad16)*%
X150300000Y-82600000D03*
%TO.P,U2,17,IO9*%
%TO.N,DISP_SCL*%
X151570000Y-82600000D03*
%TO.P,U2,18,IO10*%
%TO.N,TFT_MOSI*%
X152840000Y-82600000D03*
%TO.P,U2,19,IO11*%
%TO.N,TFT_SCLK*%
X154110000Y-82600000D03*
%TO.P,U2,20,IO12*%
%TO.N,TFT_RST*%
X155380000Y-82600000D03*
%TO.P,U2,21,IO13*%
%TO.N,TFT_DC*%
X156650000Y-82600000D03*
%TO.P,U2,22,IO14*%
%TO.N,TFT_CS*%
X157920000Y-82600000D03*
%TO.P,U2,23,IO21*%
%TO.N,unconnected-(U2-IO21-Pad23)*%
X159190000Y-82600000D03*
%TO.P,U2,24,IO47*%
%TO.N,MAT_CS*%
X160460000Y-82600000D03*
%TO.P,U2,25,IO48*%
%TO.N,MAT_CLK*%
X161730000Y-82600000D03*
%TO.P,U2,26,IO45*%
%TO.N,MAT_DIN*%
X163000000Y-82600000D03*
D56*
%TO.P,U2,27,IO0*%
%TO.N,GPIO0*%
X164765000Y-81350000D03*
%TO.P,U2,28,IO35*%
%TO.N,unconnected-(U2-IO35-Pad28)*%
X164765000Y-80080000D03*
%TO.P,U2,29,IO36*%
%TO.N,unconnected-(U2-IO36-Pad29)*%
X164765000Y-78810000D03*
%TO.P,U2,30,IO37*%
%TO.N,unconnected-(U2-IO37-Pad30)*%
X164765000Y-77540000D03*
%TO.P,U2,31,IO38*%
%TO.N,unconnected-(U2-IO38-Pad31)*%
X164765000Y-76270000D03*
%TO.P,U2,32,IO39*%
%TO.N,RGB_B*%
X164765000Y-75000000D03*
%TO.P,U2,33,IO40*%
%TO.N,RGB_R*%
X164765000Y-73730000D03*
%TO.P,U2,34,IO41*%
%TO.N,RGB_G*%
X164765000Y-72460000D03*
%TO.P,U2,35,IO42*%
%TO.N,LED_ADDR*%
X164765000Y-71190000D03*
%TO.P,U2,36,RXD0*%
%TO.N,unconnected-(U2-RXD0-Pad36)*%
X164765000Y-69920000D03*
%TO.P,U2,37,TXD0*%
%TO.N,unconnected-(U2-TXD0-Pad37)*%
X164765000Y-68650000D03*
%TO.P,U2,38,IO2*%
%TO.N,EQ_STROBE*%
X164765000Y-67380000D03*
%TO.P,U2,39,IO1*%
%TO.N,EQ_DATA*%
X164765000Y-66110000D03*
%TO.P,U2,40,GND*%
%TO.N,GND*%
X164765000Y-64840000D03*
D58*
%TO.P,U2,41,GND*%
X153115000Y-71860000D03*
X153115000Y-73260000D03*
X153815000Y-71160000D03*
X153815000Y-72560000D03*
X153815000Y-73960000D03*
X154515000Y-71860000D03*
D59*
X154515000Y-72560000D03*
D58*
X154515000Y-73260000D03*
X155215000Y-71160000D03*
X155215000Y-72560000D03*
X155215000Y-73960000D03*
X155915000Y-71860000D03*
X155915000Y-73260000D03*
%TD*%
D51*
%TO.P,C17,1*%
%TO.N,Net-(U6-BIAS)*%
X161300000Y-97600000D03*
%TO.P,C17,2*%
%TO.N,<NO NET>*%
X158600000Y-97600000D03*
%TD*%
D32*
%TO.P,C10,1*%
%TO.N,VDD_EQ*%
X149800000Y-90525000D03*
%TO.P,C10,2*%
%TO.N,GND*%
X148250000Y-90525000D03*
%TD*%
D37*
%TO.P,CIN1,1*%
%TO.N,VCC_12V*%
X155887500Y-109800000D03*
%TO.P,CIN1,2*%
%TO.N,<NO NET>*%
X162112500Y-109800000D03*
%TD*%
D26*
%TO.P,C13,1*%
%TO.N,CHIP_PU*%
X141775000Y-102775000D03*
%TO.P,C13,2*%
%TO.N,<NO NET>*%
X141775000Y-101225000D03*
%TD*%
D15*
%TO.P,C1,1*%
%TO.N,VCC_5V*%
X135195000Y-89570000D03*
%TO.P,C1,2*%
%TO.N,GND*%
X135195000Y-91120000D03*
%TD*%
D36*
%TO.P,R15,1*%
%TO.N,Net-(R15-Pad1)*%
X168015000Y-84250000D03*
%TO.P,R15,2*%
%TO.N,RGB_B*%
X168015000Y-85900000D03*
%TD*%
D31*
%TO.P,R12,1*%
%TO.N,Net-(U6-TH)*%
X166600000Y-107400000D03*
%TO.P,R12,2*%
%TO.N,<NO NET>*%
X164950000Y-107400000D03*
%TD*%
D32*
%TO.P,C8,1*%
%TO.N,CHIP_PU*%
X145015000Y-73650000D03*
%TO.P,C8,2*%
%TO.N,GND*%
X143465000Y-73650000D03*
%TD*%
D49*
%TO.P,Q2,1,D*%
%TO.N,LED_G*%
X138600000Y-122550000D03*
%TO.P,Q2,2,G*%
%TO.N,RGB_G*%
X138600000Y-120650000D03*
%TO.P,Q2,3,S*%
%TO.N,GND*%
X136725000Y-121600000D03*
%TD*%
D33*
%TO.P,SW1,1*%
%TO.N,<NO NET>*%
X135925000Y-101375000D03*
X140025000Y-101375000D03*
%TO.P,SW1,2*%
%TO.N,CHIP_PU*%
X135925000Y-102975000D03*
X140025000Y-102975000D03*
%TD*%
D60*
%TO.P,U3,1,VIN*%
%TO.N,VCC_12V*%
X153400000Y-116050000D03*
%TO.P,U3,2,OUT*%
%TO.N,Net-(D3-K)*%
X151700000Y-116050000D03*
%TO.P,U3,3,GND*%
%TO.N,<NO NET>*%
X150000000Y-116050000D03*
D61*
X152775000Y-122775000D03*
X147225000Y-122775000D03*
D62*
X150000000Y-125200000D03*
D61*
X152775000Y-127625000D03*
X147225000Y-127625000D03*
D60*
%TO.P,U3,4,FB*%
%TO.N,VCC_5V*%
X148300000Y-116050000D03*
%TO.P,U3,5,~{ON}/OFF*%
%TO.N,<NO NET>*%
X146600000Y-116050000D03*
%TD*%
D26*
%TO.P,C14,1*%
%TO.N,GPIO0*%
X141650000Y-109200000D03*
%TO.P,C14,2*%
%TO.N,<NO NET>*%
X141650000Y-107650000D03*
%TD*%
D63*
%TO.P,L1,1*%
%TO.N,Net-(D3-K)*%
X135200000Y-117010000D03*
%TO.P,L1,2*%
%TO.N,VCC_5V*%
X135200000Y-112190000D03*
%TD*%
D64*
%TO.P,MK1,1*%
%TO.N,Net-(C18-Pad2)*%
X162600000Y-92540000D03*
D65*
%TO.P,MK1,2*%
%TO.N,<NO NET>*%
X162600000Y-90000000D03*
%TD*%
D53*
%TO.P,J7,1,Pin_1*%
%TO.N,Net-(J7-Pin_1)*%
X169400000Y-101620000D03*
D54*
%TO.P,J7,2,Pin_2*%
%TO.N,TFT_CS*%
X169400000Y-104160000D03*
%TO.P,J7,3,Pin_3*%
%TO.N,TFT_DC*%
X169400000Y-106700000D03*
%TO.P,J7,4,Pin_4*%
%TO.N,TFT_RST*%
X169400000Y-109240000D03*
%TO.P,J7,5,Pin_5*%
%TO.N,TFT_MOSI*%
X169400000Y-111780000D03*
%TO.P,J7,6,Pin_6*%
%TO.N,TFT_SCLK*%
X169400000Y-114320000D03*
%TO.P,J7,7,Pin_7*%
%TO.N,ESP_3V3*%
X169400000Y-116860000D03*
%TO.P,J7,8,Pin_8*%
%TO.N,GND*%
X169400000Y-119400000D03*
%TD*%
D52*
%TO.P,C9,1*%
%TO.N,GND*%
X152250000Y-102925000D03*
%TO.P,C9,2*%
%TO.N,Net-(U1-CKIN)*%
X153800000Y-102925000D03*
%TD*%
D20*
%TO.P,H2,1,1*%
%TO.N,GND*%
X170600000Y-126000000D03*
%TD*%
D55*
%TO.P,R4,1*%
%TO.N,CHIP_PU*%
X139615000Y-73650000D03*
%TO.P,R4,2*%
%TO.N,ESP_3V3*%
X141265000Y-73650000D03*
%TD*%
D49*
%TO.P,Q3,1,D*%
%TO.N,LED_B*%
X143200000Y-118000000D03*
%TO.P,Q3,2,G*%
%TO.N,RGB_B*%
X143200000Y-116100000D03*
%TO.P,Q3,3,S*%
%TO.N,GND*%
X141325000Y-117050000D03*
%TD*%
D51*
%TO.P,C16,1*%
%TO.N,Net-(U6-CG)*%
X161400000Y-100200000D03*
%TO.P,C16,2*%
%TO.N,<NO NET>*%
X158700000Y-100200000D03*
%TD*%
D31*
%TO.P,R8,1*%
%TO.N,GPIO0*%
X133400000Y-109600000D03*
%TO.P,R8,2*%
%TO.N,ESP_3V3*%
X131750000Y-109600000D03*
%TD*%
%TO.P,R7,1*%
%TO.N,CHIP_PU*%
X138775000Y-104775000D03*
%TO.P,R7,2*%
%TO.N,ESP_3V3*%
X137125000Y-104775000D03*
%TD*%
D19*
%TO.P,R13,1*%
%TO.N,Net-(U6-MICBIAS)*%
X156175000Y-101250000D03*
%TO.P,R13,2*%
%TO.N,Net-(U6-TH)*%
X156175000Y-99600000D03*
%TD*%
D66*
%TO.P,U4,1,GND*%
%TO.N,GND*%
X138115000Y-66750000D03*
%TO.P,U4,2,VO*%
%TO.N,ESP_3V3*%
X138115000Y-69050000D03*
D67*
X144415000Y-69050000D03*
D66*
%TO.P,U4,3,VI*%
%TO.N,VCC_5V*%
X138115000Y-71350000D03*
%TD*%
D26*
%TO.P,C6,1*%
%TO.N,ESP_3V3*%
X173415000Y-73200000D03*
%TO.P,C6,2*%
%TO.N,GND*%
X173415000Y-71650000D03*
%TD*%
D20*
%TO.P,H1,1,1*%
%TO.N,GND*%
X170875000Y-67950000D03*
%TD*%
D68*
%TO.N,ESP_3V3*%
X163486893Y-102598892D03*
X169800000Y-74600000D03*
X170400000Y-99400000D03*
X153400000Y-64600000D03*
X166450000Y-102800000D03*
%TO.N,CHIP_PU*%
X135000000Y-95100000D03*
X142800000Y-76200000D03*
%TO.N,GPIO0*%
X144000000Y-108600000D03*
X164600000Y-87200000D03*
%TO.N,Net-(U6-CT)*%
X162600000Y-101600000D03*
X158400000Y-102400000D03*
%TO.N,Net-(U6-MICIN)*%
X172400000Y-106000000D03*
X166200000Y-97800000D03*
%TO.N,MAT_CS*%
X161200000Y-84400000D03*
X165200000Y-86200000D03*
%TO.N,TFT_MOSI*%
X153510000Y-85800000D03*
%TO.N,Net-(J1-CC2)*%
X139000000Y-86600000D03*
X134160000Y-89850000D03*
%TO.N,<NO NET>*%
X140400000Y-106000000D03*
X171400000Y-118000000D03*
X172000000Y-112600000D03*
X159000000Y-95200000D03*
X139000000Y-107800000D03*
X161400000Y-91200000D03*
%TO.N,VCC_5V*%
X133600000Y-72800000D03*
X147800000Y-113200000D03*
X139800000Y-87800000D03*
X166000000Y-88200000D03*
X141400000Y-113200000D03*
%TO.N,RGB_R*%
X166800000Y-82800000D03*
X142800000Y-119600000D03*
%TO.N,Net-(D1-A)*%
X134160000Y-90650000D03*
X138360000Y-88050000D03*
X137160000Y-92050000D03*
%TO.N,D-*%
X138200000Y-84400000D03*
X145800000Y-80200000D03*
%TO.N,D+*%
X146800000Y-84400000D03*
X142600000Y-85800000D03*
%TO.N,RGB_G*%
X167000000Y-79800000D03*
X138600000Y-119600000D03*
%TO.N,RGB_B*%
X168000000Y-87000000D03*
X144600000Y-116450000D03*
%TO.N,GAIN*%
X171127818Y-98350000D03*
X164706587Y-96875000D03*
%TO.N,EQ_DATA*%
X156000000Y-77000000D03*
%TO.N,EQ_STROBE*%
X150600000Y-86400000D03*
X163200000Y-68000000D03*
%TO.N,EQ_RESET*%
X148800000Y-70600000D03*
X149600000Y-85000000D03*
%TO.N,AR*%
X164424265Y-110424265D03*
X165649941Y-97195529D03*
%TO.N,AUDIO*%
X151259396Y-98692074D03*
X165600000Y-102600000D03*
%TO.N,LED_ADDR*%
X144200000Y-87200000D03*
X163000000Y-72600000D03*
%TO.N,CMD_BTN*%
X166600000Y-67000000D03*
X151900000Y-65175000D03*
%TO.N,Net-(U6-TH)*%
X162200000Y-106200000D03*
X166200773Y-106270459D03*
%TO.N,Net-(U6-MICBIAS)*%
X164932559Y-94475000D03*
X155800000Y-97200000D03*
X162800000Y-97200000D03*
%TO.N,VCC_12V*%
X137000000Y-123345534D03*
X149400000Y-106400000D03*
%TO.N,Net-(R11-Pad1)*%
X168615000Y-78650000D03*
X169215000Y-81050000D03*
%TO.N,GND*%
X151200000Y-67400000D03*
X148600000Y-65000000D03*
X167200000Y-92200000D03*
%TD*%
D69*
%TO.N,ESP_3V3*%
X165600000Y-106518215D02*
X165702500Y-106620715D01*
D70*
X147265000Y-66110000D02*
X146785000Y-66110000D01*
X135840000Y-66325000D02*
X135865000Y-66300000D01*
X135865000Y-66225000D02*
X137640000Y-64450000D01*
D69*
X165952244Y-105670459D02*
X165600000Y-106022703D01*
D70*
X135865000Y-66300000D02*
X136615000Y-67050000D01*
X163486893Y-102598892D02*
X163787500Y-102298285D01*
X136840000Y-67394240D02*
X136840000Y-65747708D01*
X141265000Y-72200000D02*
X141265000Y-73650000D01*
X169440000Y-116900000D02*
X169400000Y-116860000D01*
X138495760Y-69050000D02*
X136840000Y-67394240D01*
X149790000Y-64611827D02*
X149790000Y-65088173D01*
D69*
X170290000Y-76400000D02*
X171064999Y-76400000D01*
D70*
X146785000Y-66110000D02*
X144415000Y-68480000D01*
D69*
X130034314Y-109200000D02*
X130034314Y-111365686D01*
X171565000Y-75125000D02*
X170290000Y-76400000D01*
D70*
X148878173Y-63700000D02*
X149790000Y-64611827D01*
D69*
X166400000Y-112200000D02*
X166000000Y-112200000D01*
D70*
X144415000Y-69050000D02*
X141265000Y-72200000D01*
D69*
X131000000Y-113340000D02*
X128800000Y-115540000D01*
X170675000Y-97725000D02*
X170400000Y-98000000D01*
X171400000Y-76735001D02*
X171400000Y-97500000D01*
X171565000Y-73050000D02*
X171565000Y-75125000D01*
X127600000Y-112573654D02*
X127600000Y-114340000D01*
D70*
X172600000Y-116900000D02*
X169440000Y-116900000D01*
D69*
X171625000Y-97725000D02*
X170675000Y-97725000D01*
D70*
X135865000Y-66300000D02*
X135865000Y-66225000D01*
D69*
X131750000Y-109600000D02*
X131000000Y-110350000D01*
X127600000Y-114340000D02*
X128800000Y-115540000D01*
D70*
X171625000Y-97725000D02*
X171750000Y-97850000D01*
X170015000Y-74600000D02*
X169800000Y-74600000D01*
X149801827Y-64600000D02*
X153400000Y-64600000D01*
D69*
X129550000Y-111850000D02*
X128323654Y-111850000D01*
X133034314Y-106200000D02*
X130034314Y-109200000D01*
D70*
X133865000Y-66325000D02*
X135840000Y-66325000D01*
D69*
X171400000Y-97500000D02*
X171625000Y-97725000D01*
X165702500Y-107697500D02*
X167055000Y-109050000D01*
D70*
X136615000Y-67050000D02*
X136615000Y-67550000D01*
D69*
X166000000Y-104600000D02*
X166000000Y-105670459D01*
X165702500Y-106620715D02*
X165702500Y-107697500D01*
D70*
X163787500Y-102298285D02*
X163787500Y-101525000D01*
X136840000Y-65747708D02*
X138887708Y-63700000D01*
D69*
X171565000Y-73050000D02*
X170015000Y-74600000D01*
X169400000Y-116860000D02*
X166000000Y-113460000D01*
X170400000Y-98000000D02*
X170400000Y-99400000D01*
X165600000Y-106022703D02*
X165600000Y-106518215D01*
X164987500Y-103587500D02*
X166000000Y-104600000D01*
D70*
X136615000Y-67550000D02*
X138115000Y-69050000D01*
D69*
X167055000Y-111545000D02*
X166400000Y-112200000D01*
X167055000Y-109050000D02*
X167055000Y-111545000D01*
D70*
X165800000Y-103450000D02*
X165800000Y-104400000D01*
X148768173Y-66110000D02*
X147265000Y-66110000D01*
D69*
X166000000Y-113460000D02*
X166000000Y-112200000D01*
X137125000Y-104775000D02*
X135700000Y-106200000D01*
X166000000Y-105670459D02*
X165952244Y-105670459D01*
X131000000Y-110350000D02*
X131000000Y-113340000D01*
D70*
X164987500Y-101525000D02*
X164987500Y-103587500D01*
X149790000Y-65088173D02*
X148768173Y-66110000D01*
X166450000Y-102800000D02*
X165800000Y-103450000D01*
X144415000Y-68480000D02*
X144415000Y-69050000D01*
X138887708Y-63700000D02*
X148878173Y-63700000D01*
D69*
X128323654Y-111850000D02*
X127600000Y-112573654D01*
D70*
X149790000Y-64611827D02*
X149801827Y-64600000D01*
D69*
X171064999Y-76400000D02*
X171400000Y-76735001D01*
X135700000Y-106200000D02*
X133034314Y-106200000D01*
X173415000Y-73200000D02*
X171715000Y-73200000D01*
X130034314Y-111365686D02*
X129550000Y-111850000D01*
D70*
X138115000Y-69050000D02*
X138495760Y-69050000D01*
D69*
X171750000Y-97850000D02*
X173000000Y-99100000D01*
%TO.N,CHIP_PU*%
X144400000Y-74600000D02*
X145015000Y-73985000D01*
X135000000Y-102050000D02*
X135000000Y-95100000D01*
X140025000Y-102975000D02*
X138775000Y-104225000D01*
X146315000Y-67380000D02*
X147265000Y-67380000D01*
X135925000Y-102975000D02*
X136975000Y-102975000D01*
X145015000Y-73985000D02*
X145015000Y-73650000D01*
X145015000Y-73650000D02*
X146215000Y-72450000D01*
X135925000Y-102975000D02*
X135000000Y-102050000D01*
X138775000Y-104225000D02*
X138775000Y-104775000D01*
X143400000Y-75600000D02*
X144400000Y-74600000D01*
X141575000Y-102975000D02*
X141775000Y-102775000D01*
X139615000Y-73650000D02*
X139615000Y-74125000D01*
X141090000Y-75600000D02*
X143400000Y-75600000D01*
X139615000Y-74125000D02*
X141090000Y-75600000D01*
X136975000Y-102975000D02*
X138775000Y-104775000D01*
X146215000Y-67480000D02*
X146315000Y-67380000D01*
X140025000Y-102975000D02*
X141575000Y-102975000D01*
X142800000Y-76200000D02*
X144400000Y-74600000D01*
X146215000Y-72450000D02*
X146215000Y-67480000D01*
%TO.N,Net-(U1-CKIN)*%
X153800000Y-102925000D02*
X153800000Y-101345000D01*
X154100000Y-90425000D02*
X154100000Y-99445000D01*
X154100000Y-99445000D02*
X153000000Y-100545000D01*
X154000000Y-90325000D02*
X154100000Y-90425000D01*
X153800000Y-101345000D02*
X153000000Y-100545000D01*
%TO.N,VDD_EQ*%
X150000000Y-90325000D02*
X149800000Y-90525000D01*
X152350000Y-90325000D02*
X152350000Y-92275000D01*
X152350000Y-90325000D02*
X150000000Y-90325000D01*
X152350000Y-92275000D02*
X153000000Y-92925000D01*
%TO.N,Net-(C11-Pad1)*%
X144550000Y-90525000D02*
X143400000Y-91675000D01*
X146480000Y-102645000D02*
X146200000Y-102925000D01*
X146480000Y-100089365D02*
X146480000Y-102645000D01*
X143400000Y-91675000D02*
X143400000Y-97009365D01*
X143400000Y-97009365D02*
X146480000Y-100089365D01*
%TO.N,Net-(U1-IN)*%
X144650000Y-101275000D02*
X145380000Y-100545000D01*
X144650000Y-102925000D02*
X144650000Y-101275000D01*
%TO.N,Net-(U1-GND)*%
X148450000Y-102925000D02*
X148450000Y-101075000D01*
X148450000Y-101075000D02*
X147920000Y-100545000D01*
%TO.N,GPIO0*%
X164600000Y-87200000D02*
X164600000Y-81515000D01*
X141650000Y-109200000D02*
X143400000Y-109200000D01*
X164600000Y-81515000D02*
X164765000Y-81350000D01*
X143400000Y-109200000D02*
X144000000Y-108600000D01*
X140050000Y-109400000D02*
X141450000Y-109400000D01*
X135750000Y-109600000D02*
X135950000Y-109400000D01*
X140050000Y-109400000D02*
X135950000Y-109400000D01*
X141450000Y-109400000D02*
X141650000Y-109200000D01*
X133400000Y-109600000D02*
X135750000Y-109600000D01*
D70*
%TO.N,Net-(U6-CT)*%
X158400000Y-103800000D02*
X158400000Y-102400000D01*
X163387500Y-101525000D02*
X162600000Y-101600000D01*
D69*
%TO.N,Net-(U6-CG)*%
X162400000Y-103200000D02*
X163734314Y-103200000D01*
X161400000Y-100200000D02*
X161400000Y-102200000D01*
D70*
X164187500Y-102400000D02*
X164187500Y-101525000D01*
D69*
X164187500Y-102746814D02*
X164187500Y-102400000D01*
X161400000Y-102200000D02*
X162400000Y-103200000D01*
X163734314Y-103200000D02*
X164187500Y-102746814D01*
D70*
%TO.N,Net-(U6-BIAS)*%
X162250000Y-96650000D02*
X161300000Y-97600000D01*
X162992463Y-96650000D02*
X162250000Y-96650000D01*
X164187500Y-98025736D02*
X163861764Y-97700000D01*
X163325000Y-97525000D02*
X163325000Y-96982537D01*
X164187500Y-98575000D02*
X164187500Y-98025736D01*
X163500000Y-97700000D02*
X163325000Y-97525000D01*
X163325000Y-96982537D02*
X162992463Y-96650000D01*
X163861764Y-97700000D02*
X163500000Y-97700000D01*
D71*
%TO.N,LED_R*%
X140300000Y-124925000D02*
X140300000Y-124085184D01*
X141835184Y-122550000D02*
X142600000Y-122550000D01*
X140300000Y-124085184D02*
X141835184Y-122550000D01*
D69*
%TO.N,Net-(C18-Pad2)*%
X163075000Y-93875000D02*
X162600000Y-93400000D01*
X172800000Y-109550000D02*
X172400000Y-109950000D01*
X171825000Y-102984340D02*
X170975000Y-102134340D01*
X173375000Y-106325000D02*
X173375000Y-103915256D01*
X162600000Y-93400000D02*
X162600000Y-92540000D01*
X172800000Y-107300000D02*
X172800000Y-109550000D01*
X169650330Y-100120000D02*
X168775000Y-99244670D01*
X167850000Y-95206238D02*
X166518762Y-93875000D01*
X168775000Y-99244670D02*
X168775000Y-96565552D01*
X170975000Y-100414670D02*
X170680330Y-100120000D01*
X167850000Y-95640552D02*
X167850000Y-95206238D01*
X170680330Y-100120000D02*
X169650330Y-100120000D01*
X172444084Y-102984340D02*
X171825000Y-102984340D01*
X172400000Y-107300000D02*
X173375000Y-106325000D01*
X168775000Y-96565552D02*
X167850000Y-95640552D01*
X166518762Y-93875000D02*
X163075000Y-93875000D01*
X170975000Y-102134340D02*
X170975000Y-100414670D01*
X173375000Y-103915256D02*
X172444084Y-102984340D01*
%TO.N,Net-(U6-MICIN)*%
X172400000Y-104600000D02*
X172400000Y-106000000D01*
D70*
X165787500Y-98212500D02*
X165787500Y-98575000D01*
X166200000Y-97800000D02*
X165787500Y-98212500D01*
D69*
%TO.N,MAT_CLK*%
X168925000Y-95300000D02*
X168509448Y-95300000D01*
X163589000Y-92589000D02*
X163589000Y-84989000D01*
X161730000Y-83130000D02*
X161730000Y-82600000D01*
X168509448Y-95300000D02*
X166684447Y-93475000D01*
X163589000Y-84989000D02*
X161730000Y-83130000D01*
X166684447Y-93475000D02*
X164475000Y-93475000D01*
X164475000Y-93475000D02*
X163589000Y-92589000D01*
%TO.N,MAT_DIN*%
X163989000Y-83589000D02*
X163000000Y-82600000D01*
X167075133Y-93300000D02*
X166850132Y-93075000D01*
X163989000Y-92389000D02*
X163989000Y-83589000D01*
X166850132Y-93075000D02*
X164675000Y-93075000D01*
X168925000Y-93300000D02*
X167075133Y-93300000D01*
X164675000Y-93075000D02*
X163989000Y-92389000D01*
%TO.N,MAT_CS*%
X160460000Y-83660000D02*
X160460000Y-82600000D01*
X169699999Y-94300000D02*
X170000000Y-93999999D01*
X170000000Y-90959448D02*
X165240552Y-86200000D01*
X168925000Y-94300000D02*
X169699999Y-94300000D01*
X165240552Y-86200000D02*
X165200000Y-86200000D01*
X170000000Y-93999999D02*
X170000000Y-90959448D01*
X161200000Y-84400000D02*
X160460000Y-83660000D01*
%TO.N,DISP_SDA*%
X128800000Y-108400000D02*
X131700000Y-105500000D01*
X146735000Y-77540000D02*
X147265000Y-77540000D01*
X134207500Y-104784744D02*
X134207500Y-94792500D01*
X134207500Y-94792500D02*
X134950000Y-94050000D01*
X139524382Y-94050000D02*
X142150000Y-91424382D01*
X142150000Y-91424382D02*
X142150000Y-90250000D01*
X144800000Y-79475000D02*
X146735000Y-77540000D01*
X144800000Y-87600000D02*
X144800000Y-79475000D01*
X131700000Y-105500000D02*
X133492244Y-105500000D01*
X133492244Y-105500000D02*
X134207500Y-104784744D01*
X134950000Y-94050000D02*
X139524382Y-94050000D01*
X128800000Y-110460000D02*
X128800000Y-108400000D01*
X142150000Y-90250000D02*
X144800000Y-87600000D01*
D71*
%TO.N,LED_G*%
X139300000Y-123250000D02*
X138600000Y-122550000D01*
X139300000Y-124925000D02*
X139300000Y-123250000D01*
%TO.N,LED_B*%
X141300000Y-124925000D02*
X142027316Y-124925000D01*
X142027316Y-124925000D02*
X143937500Y-123014816D01*
X143937500Y-123014816D02*
X143937500Y-118737500D01*
X143937500Y-118737500D02*
X143200000Y-118000000D01*
D69*
%TO.N,DISP_SCL*%
X128800000Y-113000000D02*
X130200000Y-113000000D01*
X130434314Y-109365686D02*
X133200000Y-106600000D01*
X143000000Y-104400000D02*
X143000000Y-98415736D01*
X130434314Y-112765686D02*
X130434314Y-109365686D01*
X140800000Y-106600000D02*
X143000000Y-104400000D01*
X142600000Y-90400000D02*
X149350000Y-83650000D01*
X133200000Y-106600000D02*
X140800000Y-106600000D01*
X142600000Y-98015736D02*
X142600000Y-90400000D01*
X151570000Y-83130000D02*
X151570000Y-82600000D01*
X151050000Y-83650000D02*
X151570000Y-83130000D01*
X149350000Y-83650000D02*
X151050000Y-83650000D01*
X143000000Y-98415736D02*
X142600000Y-98015736D01*
X130200000Y-113000000D02*
X130434314Y-112765686D01*
%TO.N,Net-(J7-Pin_1)*%
X171000000Y-103220000D02*
X169400000Y-101620000D01*
X171650000Y-115600000D02*
X171000000Y-114950000D01*
X172600000Y-115600000D02*
X171650000Y-115600000D01*
X171000000Y-114950000D02*
X171000000Y-103220000D01*
%TO.N,TFT_RST*%
X162143628Y-95875000D02*
X155380000Y-89111372D01*
X155380000Y-89111372D02*
X155380000Y-82600000D01*
X165743628Y-95875000D02*
X162143628Y-95875000D01*
X167450000Y-105650000D02*
X167450000Y-100111700D01*
X168000000Y-107840000D02*
X168000000Y-106200000D01*
X167450000Y-100111700D02*
X167225000Y-99886700D01*
X169400000Y-109240000D02*
X168000000Y-107840000D01*
X167225000Y-97356372D02*
X165743628Y-95875000D01*
X168000000Y-106200000D02*
X167450000Y-105650000D01*
X167225000Y-99886700D02*
X167225000Y-97356372D01*
%TO.N,TFT_MOSI*%
X152840000Y-85130000D02*
X152840000Y-82600000D01*
X153510000Y-85800000D02*
X152840000Y-85130000D01*
%TO.N,TFT_DC*%
X167625000Y-99721015D02*
X167625000Y-97190686D01*
X156650000Y-89815686D02*
X156650000Y-82600000D01*
X167625000Y-97190686D02*
X165909314Y-95475000D01*
X165909314Y-95475000D02*
X162309314Y-95475000D01*
X167850000Y-105150000D02*
X167850000Y-99946016D01*
X169400000Y-106700000D02*
X167850000Y-105150000D01*
X167850000Y-99946016D02*
X167625000Y-99721015D01*
X162309314Y-95475000D02*
X156650000Y-89815686D01*
%TO.N,TFT_SCLK*%
X167050000Y-100277386D02*
X166825000Y-100052385D01*
X165577942Y-96275000D02*
X161875000Y-96275000D01*
X154110000Y-88510000D02*
X154110000Y-82600000D01*
X167050000Y-105850000D02*
X167050000Y-100277386D01*
X166825000Y-97522058D02*
X165577942Y-96275000D01*
X167455000Y-106255000D02*
X167050000Y-105850000D01*
X166825000Y-100052385D02*
X166825000Y-97522058D01*
X167455000Y-112375000D02*
X167455000Y-106255000D01*
X161875000Y-96275000D02*
X154110000Y-88510000D01*
X169400000Y-114320000D02*
X167455000Y-112375000D01*
%TO.N,Net-(J1-CC1)*%
X133940000Y-86920000D02*
X133110000Y-86920000D01*
X135160000Y-85250000D02*
X135160000Y-85700000D01*
X135160000Y-85700000D02*
X133940000Y-86920000D01*
%TO.N,Net-(J1-CC2)*%
X140000000Y-85225000D02*
X140000000Y-85600000D01*
X140000000Y-85600000D02*
X139000000Y-86600000D01*
X133110000Y-89920000D02*
X134090000Y-89920000D01*
X134090000Y-89920000D02*
X134160000Y-89850000D01*
%TO.N,TFT_CS*%
X168250000Y-99780330D02*
X168025000Y-99555330D01*
X168250000Y-103010000D02*
X168250000Y-99780330D01*
X168025000Y-97025000D02*
X166075000Y-95075000D01*
X166075000Y-95075000D02*
X162475000Y-95075000D01*
X169400000Y-104160000D02*
X168250000Y-103010000D01*
X157920000Y-90520000D02*
X157920000Y-82600000D01*
X168025000Y-99555330D02*
X168025000Y-97025000D01*
X162475000Y-95075000D02*
X157920000Y-90520000D01*
%TO.N,<NO NET>*%
X132205000Y-110375000D02*
X132987352Y-110375000D01*
X162600000Y-90000000D02*
X161400000Y-91200000D01*
X134000000Y-128800000D02*
X135400000Y-127400000D01*
X128323654Y-116930000D02*
X129276346Y-116930000D01*
X163362500Y-108550000D02*
X164950000Y-108550000D01*
D70*
X164587500Y-98575000D02*
X164587500Y-100050000D01*
D69*
X155000000Y-97151471D02*
X155000000Y-102965686D01*
X147000000Y-127400000D02*
X147225000Y-127625000D01*
D72*
X153000000Y-109912500D02*
X150000000Y-112912500D01*
D69*
X164950000Y-108550000D02*
X164950000Y-107400000D01*
X163100000Y-105500000D02*
X164950000Y-107350000D01*
X163100000Y-104400000D02*
X162500000Y-103800000D01*
D73*
X146550000Y-121750000D02*
X146550000Y-116050000D01*
D69*
X140400000Y-106000000D02*
X140600000Y-105800000D01*
X140800000Y-110200000D02*
X140625000Y-110375000D01*
X154850000Y-120700000D02*
X152775000Y-122775000D01*
X167007843Y-117192157D02*
X167200000Y-117384315D01*
X141625000Y-101375000D02*
X141775000Y-101225000D01*
X129276346Y-116930000D02*
X131650000Y-114556346D01*
X171400000Y-118000000D02*
X171390000Y-118010000D01*
D72*
X150000000Y-112912500D02*
X150000000Y-116050000D01*
D70*
X164937500Y-100050000D02*
X165787500Y-100900000D01*
D69*
X155000000Y-102965686D02*
X161834314Y-109800000D01*
X140025000Y-101375000D02*
X141625000Y-101375000D01*
X172587648Y-112600000D02*
X172000000Y-112600000D01*
X162112500Y-109800000D02*
X163362500Y-108550000D01*
X163638478Y-121600000D02*
X162738478Y-120700000D01*
X131650000Y-114556346D02*
X131650000Y-110930000D01*
X162738478Y-120700000D02*
X154850000Y-120700000D01*
X163100000Y-104400000D02*
X163100000Y-105500000D01*
X134012352Y-107800000D02*
X135950000Y-107800000D01*
X173775000Y-111412648D02*
X172587648Y-112600000D01*
X162112500Y-109800000D02*
X162112500Y-112296815D01*
X133650000Y-129150000D02*
X127495227Y-129150000D01*
X162500000Y-103800000D02*
X161100000Y-103800000D01*
X132700000Y-110087648D02*
X132987352Y-110375000D01*
D73*
X150000000Y-125200000D02*
X146550000Y-121750000D01*
D69*
X167200000Y-121000000D02*
X166600000Y-121600000D01*
X157600000Y-96600000D02*
X155551471Y-96600000D01*
D70*
X164587500Y-101525000D02*
X164587500Y-100050000D01*
D69*
X166000000Y-109600000D02*
X164950000Y-108550000D01*
X164950000Y-107350000D02*
X164950000Y-107400000D01*
X155551471Y-96600000D02*
X155000000Y-97151471D01*
D72*
X153000000Y-109000000D02*
X153000000Y-109912500D01*
D69*
X132700000Y-109112352D02*
X134012352Y-107800000D01*
X127495227Y-129150000D02*
X125650000Y-127304773D01*
X164587500Y-102912500D02*
X163100000Y-104400000D01*
X141900000Y-110200000D02*
X140800000Y-110200000D01*
X162112500Y-112296815D02*
X167007843Y-117192157D01*
X142600000Y-102050000D02*
X142600000Y-103800000D01*
X157600000Y-96600000D02*
X159000000Y-95200000D01*
X161834314Y-109800000D02*
X162112500Y-109800000D01*
X167200000Y-117384315D02*
X167200000Y-121000000D01*
X171390000Y-118010000D02*
X167825686Y-118010000D01*
X135400000Y-127400000D02*
X147000000Y-127400000D01*
X140625000Y-110375000D02*
X132987352Y-110375000D01*
X132700000Y-110087648D02*
X132700000Y-109112352D01*
X131650000Y-110930000D02*
X132205000Y-110375000D01*
X167825686Y-118010000D02*
X167007843Y-117192157D01*
X158700000Y-100200000D02*
X158700000Y-101400000D01*
X141500000Y-107800000D02*
X141650000Y-107650000D01*
X135950000Y-107800000D02*
X139000000Y-107800000D01*
X134000000Y-128800000D02*
X133650000Y-129150000D01*
X141775000Y-101225000D02*
X142600000Y-102050000D01*
X158700000Y-101400000D02*
X161100000Y-103800000D01*
D70*
X165787500Y-100900000D02*
X165787500Y-101525000D01*
D69*
X125650000Y-119603654D02*
X128323654Y-116930000D01*
X135925000Y-101375000D02*
X140025000Y-101375000D01*
X166600000Y-121600000D02*
X163638478Y-121600000D01*
D73*
X150000000Y-125200000D02*
X150000000Y-118757538D01*
X150200000Y-125400000D02*
X150000000Y-125200000D01*
D70*
X164587500Y-101525000D02*
X164587500Y-102912500D01*
D69*
X146600000Y-122150000D02*
X147225000Y-122775000D01*
X173775000Y-102475000D02*
X173775000Y-111412648D01*
X142600000Y-103800000D02*
X140400000Y-106000000D01*
X139000000Y-107800000D02*
X141500000Y-107800000D01*
X125650000Y-127304773D02*
X125650000Y-119603654D01*
D70*
X164587500Y-100050000D02*
X164937500Y-100050000D01*
D69*
X173000000Y-101700000D02*
X173775000Y-102475000D01*
X143500000Y-111800000D02*
X141900000Y-110200000D01*
X158600000Y-97600000D02*
X157600000Y-96600000D01*
%TO.N,VCC_5V*%
X135400000Y-112190000D02*
X140410000Y-112190000D01*
X135840000Y-71425000D02*
X135865000Y-71450000D01*
X135865000Y-71450000D02*
X138015000Y-71450000D01*
X135160000Y-89700000D02*
X135558529Y-90098529D01*
X133665000Y-72735000D02*
X133600000Y-72800000D01*
X138760000Y-88840000D02*
X138760000Y-89600000D01*
X148300000Y-116050000D02*
X148300000Y-113700000D01*
X140800000Y-112600000D02*
X141400000Y-113200000D01*
X133665000Y-71425000D02*
X133665000Y-72735000D01*
X147800000Y-113200000D02*
X148300000Y-113700000D01*
X166000000Y-88375000D02*
X166000000Y-88200000D01*
X139800000Y-87800000D02*
X138760000Y-88840000D01*
X138015000Y-71450000D02*
X138115000Y-71350000D01*
X133665000Y-71425000D02*
X135840000Y-71425000D01*
X135558529Y-90098529D02*
X138261471Y-90098529D01*
X140800000Y-111800000D02*
X140800000Y-112600000D01*
X138261471Y-90098529D02*
X138760000Y-89600000D01*
X168925000Y-91300000D02*
X166000000Y-88375000D01*
X140410000Y-112190000D02*
X140800000Y-111800000D01*
%TO.N,RGB_R*%
X166215000Y-74250000D02*
X165695000Y-73730000D01*
X166950000Y-82650000D02*
X166800000Y-82800000D01*
X165695000Y-73730000D02*
X164765000Y-73730000D01*
X168015000Y-82650000D02*
X166215000Y-80850000D01*
X142600000Y-119800000D02*
X142800000Y-119600000D01*
X168015000Y-82650000D02*
X166950000Y-82650000D01*
X142600000Y-120650000D02*
X142600000Y-119800000D01*
X166215000Y-80850000D02*
X166215000Y-74250000D01*
%TO.N,Net-(D1-A)*%
X134080000Y-90570000D02*
X134160000Y-90650000D01*
X132640000Y-85970000D02*
X132840000Y-85770000D01*
X136960000Y-88050000D02*
X138360000Y-88050000D01*
X138760000Y-92900000D02*
X138010000Y-92900000D01*
X132910000Y-85970000D02*
X132100000Y-85970000D01*
X131000000Y-89200000D02*
X132370000Y-90570000D01*
X138010000Y-92900000D02*
X137160000Y-92050000D01*
X132370000Y-90570000D02*
X134080000Y-90570000D01*
X132100000Y-85970000D02*
X131000000Y-87070000D01*
X132840000Y-85770000D02*
X133110000Y-85770000D01*
X133110000Y-85770000D02*
X132910000Y-85970000D01*
X131000000Y-87070000D02*
X131000000Y-89200000D01*
%TO.N,Net-(D3-K)*%
X151977756Y-106575000D02*
X154022244Y-106575000D01*
X150190565Y-111590565D02*
X151662500Y-110118630D01*
X141035050Y-116350000D02*
X141450000Y-116350000D01*
X154400000Y-106952756D02*
X154400000Y-111915256D01*
X151662500Y-106890256D02*
X151977756Y-106575000D01*
X134000000Y-119800000D02*
X135400000Y-118400000D01*
X135400000Y-118400000D02*
X135400000Y-117210000D01*
X135760000Y-116450000D02*
X140935050Y-116450000D01*
X146209435Y-111590565D02*
X150190565Y-111590565D01*
X151700000Y-114615256D02*
X151700000Y-116050000D01*
X154400000Y-111915256D02*
X151700000Y-114615256D01*
X134000000Y-124800000D02*
X134000000Y-119800000D01*
X151662500Y-110118630D02*
X151662500Y-106890256D01*
X135400000Y-117210000D02*
X135200000Y-117010000D01*
X135200000Y-117010000D02*
X135760000Y-116450000D01*
X154022244Y-106575000D02*
X154400000Y-106952756D01*
X140935050Y-116450000D02*
X141035050Y-116350000D01*
X141450000Y-116350000D02*
X146209435Y-111590565D01*
%TO.N,D-*%
X132150000Y-87420000D02*
X134590000Y-87420000D01*
X137550000Y-85050000D02*
X138200000Y-84400000D01*
X134590000Y-87420000D02*
X136960000Y-85050000D01*
X133110000Y-88420000D02*
X132050000Y-88420000D01*
X136960000Y-85050000D02*
X137550000Y-85050000D01*
X145920000Y-80080000D02*
X145800000Y-80200000D01*
X147265000Y-80080000D02*
X145920000Y-80080000D01*
X131830000Y-87740000D02*
X132150000Y-87420000D01*
X132050000Y-88420000D02*
X131830000Y-88200000D01*
X131830000Y-88200000D02*
X131830000Y-87740000D01*
%TO.N,D+*%
X134290000Y-88570000D02*
X133990000Y-88870000D01*
X136760000Y-89450000D02*
X135880000Y-88570000D01*
X139301471Y-87450000D02*
X139551471Y-87200000D01*
X147265000Y-83935000D02*
X146800000Y-84400000D01*
X133990000Y-88080000D02*
X133830000Y-87920000D01*
X147265000Y-81350000D02*
X147265000Y-83935000D01*
X133990000Y-88870000D02*
X133990000Y-88080000D01*
X136310000Y-87709448D02*
X136569448Y-87450000D01*
X139551471Y-87200000D02*
X141000000Y-87200000D01*
X133940000Y-88920000D02*
X133990000Y-88870000D01*
X136310000Y-89000000D02*
X136310000Y-87709448D01*
X133830000Y-87920000D02*
X133110000Y-87920000D01*
X135880000Y-88570000D02*
X134290000Y-88570000D01*
X141000000Y-87200000D02*
X142400000Y-85800000D01*
X136569448Y-87450000D02*
X139301471Y-87450000D01*
X142600000Y-85800000D02*
X142400000Y-85800000D01*
X136760000Y-89450000D02*
X136310000Y-89000000D01*
X133110000Y-88920000D02*
X133940000Y-88920000D01*
%TO.N,Net-(D6-A)*%
X141090000Y-64450000D02*
X139290000Y-64450000D01*
%TO.N,RGB_G*%
X167300000Y-79500000D02*
X167000000Y-79800000D01*
X166615000Y-78100000D02*
X166615000Y-73450000D01*
X138600000Y-120650000D02*
X138600000Y-119600000D01*
X165295000Y-72460000D02*
X164765000Y-72460000D01*
X165815000Y-72650000D02*
X164955000Y-72650000D01*
X164955000Y-72650000D02*
X164765000Y-72460000D01*
X168015000Y-79500000D02*
X166615000Y-78100000D01*
X166615000Y-73450000D02*
X165815000Y-72650000D01*
X168015000Y-79500000D02*
X167300000Y-79500000D01*
%TO.N,RGB_B*%
X165715000Y-75000000D02*
X164765000Y-75000000D01*
X168015000Y-85900000D02*
X168000000Y-87000000D01*
X144600000Y-116450000D02*
X144250000Y-116100000D01*
X168015000Y-85900000D02*
X165815000Y-83700000D01*
X165815000Y-75100000D02*
X165715000Y-75000000D01*
X144250000Y-116100000D02*
X143200000Y-116100000D01*
X165815000Y-83700000D02*
X165815000Y-75100000D01*
D70*
%TO.N,GAIN*%
X164987500Y-98575000D02*
X164987500Y-97155913D01*
X171127818Y-99327818D02*
X172200000Y-100400000D01*
X171127818Y-98350000D02*
X171127818Y-99327818D01*
X172200000Y-100400000D02*
X173000000Y-100400000D01*
X164987500Y-97155913D02*
X164706587Y-96875000D01*
D69*
%TO.N,EQ_DATA*%
X162600000Y-70400000D02*
X156000000Y-77000000D01*
X162600000Y-67751471D02*
X162600000Y-70400000D01*
X164765000Y-66110000D02*
X164241471Y-66110000D01*
X164241471Y-66110000D02*
X162600000Y-67751471D01*
%TO.N,EQ_STROBE*%
X146900000Y-91405000D02*
X146900000Y-90100000D01*
X145380000Y-92925000D02*
X146900000Y-91405000D01*
X146900000Y-90100000D02*
X150600000Y-86400000D01*
X163820000Y-67380000D02*
X164765000Y-67380000D01*
X163200000Y-68000000D02*
X163820000Y-67380000D01*
%TO.N,EQ_RESET*%
X148120000Y-69920000D02*
X148800000Y-70600000D01*
X147265000Y-69920000D02*
X148120000Y-69920000D01*
X143000000Y-90800000D02*
X143000000Y-97850050D01*
X143600000Y-103365686D02*
X144034314Y-103800000D01*
X143600000Y-98450050D02*
X143600000Y-103365686D01*
X149600000Y-85000000D02*
X148800000Y-85000000D01*
X144034314Y-103800000D02*
X148798696Y-103800000D01*
X143000000Y-97850050D02*
X143600000Y-98450050D01*
X148800000Y-85000000D02*
X143000000Y-90800000D01*
X149200000Y-103398696D02*
X149200000Y-101805000D01*
X148798696Y-103800000D02*
X149200000Y-103398696D01*
X149200000Y-101805000D02*
X150460000Y-100545000D01*
%TO.N,AR*%
X164424265Y-110424265D02*
X164900000Y-110900000D01*
D70*
X165387500Y-97457970D02*
X165387500Y-98575000D01*
D69*
X164900000Y-110900000D02*
X166000000Y-110900000D01*
D70*
X165649941Y-97195529D02*
X165387500Y-97457970D01*
%TO.N,AUDIO*%
X165387500Y-102387500D02*
X165387500Y-101525000D01*
D69*
X148367074Y-98692074D02*
X144000000Y-94325000D01*
X144000000Y-92725000D02*
X146200000Y-90525000D01*
X151259396Y-98692074D02*
X148367074Y-98692074D01*
D70*
X165600000Y-102600000D02*
X165387500Y-102387500D01*
D69*
X144000000Y-94325000D02*
X144000000Y-92725000D01*
%TO.N,LED_ADDR*%
X133807500Y-100575000D02*
X132532500Y-101850000D01*
X139358696Y-93650000D02*
X134750000Y-93650000D01*
X134750000Y-93650000D02*
X133807500Y-94592500D01*
X163000000Y-72600000D02*
X164410000Y-71190000D01*
X164410000Y-71190000D02*
X164765000Y-71190000D01*
X133807500Y-94592500D02*
X133807500Y-100575000D01*
X141750000Y-89650000D02*
X141750000Y-91258696D01*
X141750000Y-91258696D02*
X139358696Y-93650000D01*
X144200000Y-87200000D02*
X141750000Y-89650000D01*
%TO.N,Net-(R10-Pad1)*%
X168615000Y-80400000D02*
X170290000Y-80400000D01*
X168015000Y-81000000D02*
X168615000Y-80400000D01*
%TO.N,CMD_BTN*%
X167015000Y-73284315D02*
X167000000Y-73269315D01*
X151900000Y-65175000D02*
X151825000Y-65175000D01*
X151825000Y-65175000D02*
X148350000Y-68650000D01*
X169215000Y-77500000D02*
X169215000Y-78800000D01*
X148350000Y-68650000D02*
X147265000Y-68650000D01*
X169815000Y-79400000D02*
X170290000Y-79400000D01*
X168015000Y-76300000D02*
X167015000Y-75300000D01*
X168015000Y-76300000D02*
X169215000Y-77500000D01*
X169215000Y-78800000D02*
X169815000Y-79400000D01*
X167000000Y-73269315D02*
X167000000Y-67400000D01*
X167000000Y-67400000D02*
X166600000Y-67000000D01*
X167015000Y-75300000D02*
X167015000Y-73284315D01*
%TO.N,Net-(U6-TH)*%
X166200773Y-106270459D02*
X166200773Y-107000773D01*
D70*
X157200000Y-98575000D02*
X163387500Y-98575000D01*
X156175000Y-99600000D02*
X157200000Y-98575000D01*
D69*
X156175000Y-99600000D02*
X157000000Y-100425000D01*
X166200773Y-107000773D02*
X166600000Y-107400000D01*
X157000000Y-100425000D02*
X157000000Y-104400000D01*
X158800000Y-106200000D02*
X162200000Y-106200000D01*
X157000000Y-104400000D02*
X158800000Y-106200000D01*
%TO.N,Net-(U6-MICBIAS)*%
X155800000Y-97200000D02*
X155400000Y-97600000D01*
D70*
X170600000Y-100570000D02*
X170600000Y-102289670D01*
X163737500Y-98000000D02*
X163787500Y-98050000D01*
D69*
X155400000Y-100475000D02*
X156175000Y-101250000D01*
X155400000Y-97600000D02*
X155400000Y-100475000D01*
D70*
X168400000Y-96720882D02*
X168400000Y-99400000D01*
X163787500Y-98050000D02*
X163787500Y-98575000D01*
X162800000Y-97800000D02*
X163000000Y-98000000D01*
X164932559Y-94475000D02*
X166588432Y-94475000D01*
X171450000Y-110650000D02*
X172400000Y-111600000D01*
X162800000Y-97200000D02*
X162800000Y-97800000D01*
X167475000Y-95795882D02*
X168400000Y-96720882D01*
X166588432Y-94475000D02*
X167475000Y-95361568D01*
X168400000Y-99400000D02*
X169495000Y-100495000D01*
X167475000Y-95361568D02*
X167475000Y-95795882D01*
X163000000Y-98000000D02*
X163737500Y-98000000D01*
X170525000Y-100495000D02*
X170600000Y-100570000D01*
X169495000Y-100495000D02*
X170525000Y-100495000D01*
X170600000Y-102289670D02*
X171450000Y-103139670D01*
X171450000Y-103139670D02*
X171450000Y-110650000D01*
D73*
%TO.N,VCC_12V*%
X153700000Y-115800000D02*
X153450000Y-116050000D01*
X155887500Y-106601778D02*
X155887500Y-109800000D01*
X155887500Y-113612500D02*
X153700000Y-115800000D01*
X149400000Y-106375000D02*
X150575000Y-105200000D01*
X154485722Y-105200000D02*
X155887500Y-106601778D01*
D72*
X137000000Y-123345534D02*
X138200000Y-124545534D01*
D73*
X149375000Y-106400000D02*
X149400000Y-106400000D01*
X161200000Y-115800000D02*
X153700000Y-115800000D01*
D72*
X138200000Y-124545534D02*
X138200000Y-124925000D01*
D73*
X146775000Y-109000000D02*
X149375000Y-106400000D01*
X149400000Y-106400000D02*
X149400000Y-106375000D01*
X155887500Y-109800000D02*
X155887500Y-113612500D01*
X150575000Y-105200000D02*
X154485722Y-105200000D01*
D69*
%TO.N,unconnected-(J2-MountPin-PadMP)*%
X137000000Y-128800000D02*
X142600000Y-128800000D01*
%TO.N,unconnected-(J4-MountPin-PadMP)*%
X172800000Y-96600000D02*
X172800000Y-90000000D01*
%TO.N,Net-(R11-Pad1)*%
X169940000Y-81050000D02*
X170290000Y-81400000D01*
X169215000Y-81050000D02*
X169940000Y-81050000D01*
X168015000Y-77850000D02*
X168015000Y-78050000D01*
X168015000Y-78050000D02*
X168615000Y-78650000D01*
%TO.N,Net-(R15-Pad1)*%
X168015000Y-84250000D02*
X168440000Y-84250000D01*
X168440000Y-84250000D02*
X170290000Y-82400000D01*
%TO.N,GND*%
X147265000Y-64840000D02*
X148440000Y-64840000D01*
X132532500Y-96850000D02*
X132532500Y-92492500D01*
X168015000Y-71350000D02*
X170415000Y-68950000D01*
X128800000Y-118080000D02*
X128875000Y-118155000D01*
X140365000Y-66750000D02*
X138115000Y-66750000D01*
X140725000Y-117650000D02*
X141325000Y-117050000D01*
X132532500Y-96850000D02*
X132532500Y-99350000D01*
X154515000Y-72560000D02*
X154515000Y-70715000D01*
X165900000Y-116650000D02*
X165900000Y-119000000D01*
X163100000Y-114500000D02*
X163750000Y-114500000D01*
X146875000Y-64450000D02*
X147265000Y-64840000D01*
X142665000Y-64450000D02*
X140365000Y-66750000D01*
X135465000Y-90850000D02*
X135195000Y-91120000D01*
X173655000Y-114805000D02*
X173150000Y-114300000D01*
X128875000Y-126075000D02*
X130050000Y-127250000D01*
X136200000Y-125034744D02*
X136200000Y-122125000D01*
X152250000Y-102925000D02*
X153025000Y-103700000D01*
X128360000Y-83850000D02*
X128360000Y-92490000D01*
X148250000Y-90715000D02*
X148250000Y-90525000D01*
X133110000Y-84970000D02*
X133110000Y-84430000D01*
X138115000Y-66750000D02*
X139415000Y-68050000D01*
X138915000Y-73162352D02*
X138915000Y-82490000D01*
X140852352Y-74425000D02*
X140315000Y-73887648D01*
X168925000Y-92300000D02*
X167200000Y-92200000D01*
X151900000Y-102575000D02*
X152250000Y-102925000D01*
X173150000Y-114300000D02*
X172600000Y-114300000D01*
X135160000Y-83600000D02*
X134480000Y-83600000D01*
X133110000Y-91370000D02*
X134945000Y-91370000D01*
X148440000Y-64840000D02*
X148600000Y-65000000D01*
X169215000Y-76740552D02*
X169874448Y-77400000D01*
X169874448Y-77400000D02*
X170290000Y-77400000D01*
X140725000Y-121600000D02*
X140725000Y-117650000D01*
X139415000Y-69704594D02*
X140565000Y-70854594D01*
X167200000Y-92200000D02*
X167100000Y-92300000D01*
X133865000Y-67875000D02*
X133865000Y-69675000D01*
X162235000Y-64840000D02*
X164765000Y-64840000D01*
X128800000Y-118080000D02*
X128800000Y-121200000D01*
X140565000Y-74137648D02*
X140852352Y-74425000D01*
X168015000Y-74650000D02*
X168015000Y-71350000D01*
X150460000Y-92925000D02*
X148250000Y-90715000D01*
X133984744Y-127250000D02*
X136200000Y-125034744D01*
X136960000Y-86615000D02*
X140000000Y-83575000D01*
X170800000Y-120800000D02*
X169400000Y-119400000D01*
X169215000Y-75850000D02*
X169215000Y-76740552D01*
X142690000Y-74425000D02*
X143465000Y-73650000D01*
X134945000Y-91370000D02*
X135195000Y-91120000D01*
X139202352Y-72875000D02*
X138915000Y-73162352D01*
X152250000Y-102925000D02*
X150000000Y-102925000D01*
X138915000Y-82490000D02*
X140000000Y-83575000D01*
X132530000Y-91950000D02*
X133110000Y-91370000D01*
X160775000Y-112175000D02*
X163100000Y-114500000D01*
X168015000Y-74650000D02*
X169215000Y-75850000D01*
X169400000Y-119400000D02*
X171493877Y-119400000D01*
X133110000Y-84430000D02*
X132530000Y-83850000D01*
X173655000Y-117238877D02*
X173655000Y-114805000D01*
X139415000Y-68050000D02*
X139415000Y-69704594D01*
X136760000Y-90850000D02*
X135465000Y-90850000D01*
X170800000Y-126000000D02*
X170800000Y-120800000D01*
X160775000Y-109306372D02*
X160775000Y-112175000D01*
X162235000Y-64840000D02*
X154515000Y-72560000D01*
X138915000Y-82490000D02*
X137755000Y-83650000D01*
X152000000Y-98799999D02*
X152000000Y-94465000D01*
X171415000Y-71650000D02*
X170015000Y-73050000D01*
X132530000Y-92490000D02*
X132530000Y-91950000D01*
X137755000Y-83650000D02*
X136960000Y-83650000D01*
X168415000Y-74650000D02*
X168015000Y-74650000D01*
X130850000Y-70200000D02*
X128600000Y-67950000D01*
X140852352Y-74425000D02*
X142690000Y-74425000D01*
X140315000Y-73162352D02*
X140027648Y-72875000D01*
X167305000Y-64840000D02*
X170415000Y-67950000D01*
X140565000Y-70854594D02*
X140565000Y-74137648D01*
X170015000Y-73050000D02*
X168415000Y-74650000D01*
X152000000Y-94465000D02*
X150460000Y-92925000D01*
X153025000Y-103700000D02*
X155168628Y-103700000D01*
X136725000Y-121600000D02*
X140725000Y-121600000D01*
X134480000Y-83600000D02*
X133110000Y-84970000D01*
X151200000Y-67400000D02*
X154515000Y-70715000D01*
X133865000Y-69675000D02*
X133665000Y-69875000D01*
X140027648Y-72875000D02*
X139202352Y-72875000D01*
X163750000Y-114500000D02*
X165900000Y-116650000D01*
X136910000Y-83600000D02*
X136960000Y-83650000D01*
X139415000Y-69704594D02*
X138919594Y-70200000D01*
X136200000Y-122125000D02*
X136725000Y-121600000D01*
X142665000Y-64450000D02*
X146875000Y-64450000D01*
X132530000Y-83850000D02*
X128360000Y-83850000D01*
X171493877Y-119400000D02*
X173655000Y-117238877D01*
X151900000Y-98899999D02*
X151900000Y-102575000D01*
X132530000Y-92490000D02*
X128360000Y-92490000D01*
X140315000Y-73887648D02*
X140315000Y-73162352D01*
X135160000Y-83600000D02*
X136910000Y-83600000D01*
X132532500Y-92492500D02*
X132530000Y-92490000D01*
X152000000Y-98799999D02*
X151900000Y-98899999D01*
X130050000Y-127250000D02*
X133984744Y-127250000D01*
X173415000Y-71650000D02*
X171415000Y-71650000D01*
X128875000Y-118155000D02*
X128875000Y-126075000D01*
X136960000Y-86650000D02*
X136960000Y-86615000D01*
X138919594Y-70200000D02*
X130850000Y-70200000D01*
X155168628Y-103700000D02*
X160775000Y-109306372D01*
X135865000Y-67850000D02*
X135865000Y-69900000D01*
X164765000Y-64840000D02*
X167305000Y-64840000D01*
%TD*%
%TA.AperFunction,Conductor*%
%TO.N,GND*%
G36*
X173970039Y-117208894D02*
G01*
X174015794Y-117261698D01*
X174027000Y-117313210D01*
X174027000Y-124910788D01*
X174007315Y-124977827D01*
X173954511Y-125023582D01*
X173885353Y-125033526D01*
X173821797Y-125004501D01*
X173784023Y-124945723D01*
X173783520Y-124943963D01*
X173779302Y-124928771D01*
X173644847Y-124591315D01*
X173644838Y-124591297D01*
X173474683Y-124270352D01*
X173474681Y-124270348D01*
X173270829Y-123969690D01*
X173270822Y-123969680D01*
X173139029Y-123814523D01*
X173139028Y-123814523D01*
X171894251Y-125059300D01*
X171820412Y-124957670D01*
X171642330Y-124779588D01*
X171540698Y-124705748D01*
X172788110Y-123458336D01*
X172788110Y-123458334D01*
X172771929Y-123443007D01*
X172771928Y-123443006D01*
X172482733Y-123223167D01*
X172482717Y-123223156D01*
X172171477Y-123035890D01*
X172171464Y-123035883D01*
X171841794Y-122883360D01*
X171841789Y-122883359D01*
X171497538Y-122767367D01*
X171142764Y-122689275D01*
X170781633Y-122650000D01*
X170418366Y-122650000D01*
X170057235Y-122689275D01*
X169702461Y-122767367D01*
X169358210Y-122883359D01*
X169358205Y-122883360D01*
X169028535Y-123035883D01*
X169028522Y-123035890D01*
X168717282Y-123223156D01*
X168717266Y-123223167D01*
X168428075Y-123443002D01*
X168411888Y-123458335D01*
X168411887Y-123458335D01*
X169659301Y-124705748D01*
X169557670Y-124779588D01*
X169379588Y-124957670D01*
X169305748Y-125059300D01*
X168060970Y-123814522D01*
X168060969Y-123814523D01*
X167929177Y-123969680D01*
X167929170Y-123969690D01*
X167725318Y-124270348D01*
X167725316Y-124270352D01*
X167555161Y-124591297D01*
X167555152Y-124591315D01*
X167420697Y-124928772D01*
X167420695Y-124928779D01*
X167323519Y-125278777D01*
X167323517Y-125278785D01*
X167264746Y-125637271D01*
X167245080Y-125999997D01*
X167245080Y-126000002D01*
X167264746Y-126362728D01*
X167323517Y-126721214D01*
X167323519Y-126721222D01*
X167420695Y-127071220D01*
X167420697Y-127071227D01*
X167555152Y-127408684D01*
X167555161Y-127408702D01*
X167725316Y-127729647D01*
X167725318Y-127729651D01*
X167929170Y-128030309D01*
X167929177Y-128030319D01*
X168060969Y-128185475D01*
X168060970Y-128185475D01*
X169305748Y-126940698D01*
X169379588Y-127042330D01*
X169557670Y-127220412D01*
X169659300Y-127294251D01*
X168411888Y-128541662D01*
X168411888Y-128541664D01*
X168428070Y-128556992D01*
X168428071Y-128556993D01*
X168717266Y-128776832D01*
X168717282Y-128776843D01*
X169028522Y-128964109D01*
X169028535Y-128964116D01*
X169358205Y-129116639D01*
X169358210Y-129116640D01*
X169702461Y-129232632D01*
X170057235Y-129310724D01*
X170418366Y-129349999D01*
X170418374Y-129350000D01*
X170781626Y-129350000D01*
X170781633Y-129349999D01*
X171142764Y-129310724D01*
X171497538Y-129232632D01*
X171841789Y-129116640D01*
X171841794Y-129116639D01*
X172171464Y-128964116D01*
X172171477Y-128964109D01*
X172482717Y-128776843D01*
X172482733Y-128776832D01*
X172771929Y-128556992D01*
X172788110Y-128541664D01*
X172788110Y-128541663D01*
X171540698Y-127294251D01*
X171642330Y-127220412D01*
X171820412Y-127042330D01*
X171894251Y-126940698D01*
X173139028Y-128185475D01*
X173139029Y-128185475D01*
X173270827Y-128030311D01*
X173270838Y-128030297D01*
X173474681Y-127729651D01*
X173474683Y-127729647D01*
X173644838Y-127408702D01*
X173644847Y-127408684D01*
X173779302Y-127071227D01*
X173779304Y-127071220D01*
X173783520Y-127056038D01*
X173820422Y-126996708D01*
X173883541Y-126966747D01*
X173952839Y-126975668D01*
X174006314Y-127020638D01*
X174026986Y-127087379D01*
X174027000Y-127089211D01*
X174027000Y-129955500D01*
X174007315Y-130022539D01*
X173954511Y-130068294D01*
X173903000Y-130079500D01*
X155970028Y-130079500D01*
X155902989Y-130059815D01*
X155857234Y-130007011D01*
X155847290Y-129937853D01*
X155852320Y-129916504D01*
X155889999Y-129802797D01*
X155900500Y-129700009D01*
X155900500Y-127631784D01*
X155900499Y-124850014D01*
X155900500Y-124850009D01*
X155900499Y-121424499D01*
X155920184Y-121357461D01*
X155972988Y-121311706D01*
X156024499Y-121300500D01*
X158746441Y-121300500D01*
X158813480Y-121320185D01*
X158859235Y-121372989D01*
X158869179Y-121442147D01*
X158856926Y-121480795D01*
X158809434Y-121574003D01*
X158809433Y-121574005D01*
X158809432Y-121574008D01*
X158793319Y-121623596D01*
X158736446Y-121798631D01*
X158699500Y-122031902D01*
X158699500Y-122268097D01*
X158736446Y-122501368D01*
X158809433Y-122725996D01*
X158889614Y-122883359D01*
X158916657Y-122936433D01*
X159055483Y-123127510D01*
X159222490Y-123294517D01*
X159413567Y-123433343D01*
X159434636Y-123444078D01*
X159624003Y-123540566D01*
X159624005Y-123540566D01*
X159624008Y-123540568D01*
X159744412Y-123579689D01*
X159848631Y-123613553D01*
X160081903Y-123650500D01*
X160081908Y-123650500D01*
X162318097Y-123650500D01*
X162551368Y-123613553D01*
X162775992Y-123540568D01*
X162986433Y-123433343D01*
X163177510Y-123294517D01*
X163344517Y-123127510D01*
X163483343Y-122936433D01*
X163590568Y-122725992D01*
X163663553Y-122501368D01*
X163676288Y-122420964D01*
X163694639Y-122305102D01*
X163724568Y-122241967D01*
X163783880Y-122205036D01*
X163817112Y-122200500D01*
X166513331Y-122200500D01*
X166513347Y-122200501D01*
X166520943Y-122200501D01*
X166679054Y-122200501D01*
X166679057Y-122200501D01*
X166831785Y-122159577D01*
X166910179Y-122114316D01*
X166968716Y-122080520D01*
X167080520Y-121968716D01*
X167080520Y-121968714D01*
X167090724Y-121958511D01*
X167090728Y-121958506D01*
X167558506Y-121490728D01*
X167558511Y-121490724D01*
X167568714Y-121480520D01*
X167568716Y-121480520D01*
X167680520Y-121368716D01*
X167743531Y-121259577D01*
X167759577Y-121231785D01*
X167800500Y-121079057D01*
X167800500Y-120920943D01*
X167800500Y-118734500D01*
X167820185Y-118667461D01*
X167872989Y-118621706D01*
X167924500Y-118610500D01*
X168083949Y-118610500D01*
X168150988Y-118630185D01*
X168196743Y-118682989D01*
X168206687Y-118752147D01*
X168196331Y-118786905D01*
X168126570Y-118936507D01*
X168126567Y-118936513D01*
X168069364Y-119149999D01*
X168069364Y-119150000D01*
X168966988Y-119150000D01*
X168934075Y-119207007D01*
X168900000Y-119334174D01*
X168900000Y-119465826D01*
X168934075Y-119592993D01*
X168966988Y-119650000D01*
X168069364Y-119650000D01*
X168126567Y-119863486D01*
X168126570Y-119863492D01*
X168226399Y-120077578D01*
X168361894Y-120271082D01*
X168528917Y-120438105D01*
X168722421Y-120573600D01*
X168936507Y-120673429D01*
X168936516Y-120673433D01*
X169150000Y-120730634D01*
X169150000Y-119833012D01*
X169207007Y-119865925D01*
X169334174Y-119900000D01*
X169465826Y-119900000D01*
X169592993Y-119865925D01*
X169650000Y-119833012D01*
X169650000Y-120730633D01*
X169863483Y-120673433D01*
X169863492Y-120673429D01*
X170077578Y-120573600D01*
X170271082Y-120438105D01*
X170438105Y-120271082D01*
X170573600Y-120077578D01*
X170673429Y-119863492D01*
X170673432Y-119863486D01*
X170730636Y-119650000D01*
X169833012Y-119650000D01*
X169865925Y-119592993D01*
X169900000Y-119465826D01*
X169900000Y-119334174D01*
X169865925Y-119207007D01*
X169833012Y-119150000D01*
X170730636Y-119150000D01*
X170730635Y-119149999D01*
X170673432Y-118936513D01*
X170673429Y-118936507D01*
X170603669Y-118786905D01*
X170593177Y-118717827D01*
X170621697Y-118654043D01*
X170680173Y-118615804D01*
X170716051Y-118610500D01*
X170831273Y-118610500D01*
X170897245Y-118629506D01*
X170897737Y-118629815D01*
X170897738Y-118629816D01*
X170949913Y-118662600D01*
X171037806Y-118717827D01*
X171050478Y-118725789D01*
X171173159Y-118768717D01*
X171220745Y-118785368D01*
X171220750Y-118785369D01*
X171399996Y-118805565D01*
X171400000Y-118805565D01*
X171400004Y-118805565D01*
X171579249Y-118785369D01*
X171579252Y-118785368D01*
X171579255Y-118785368D01*
X171749522Y-118725789D01*
X171902262Y-118629816D01*
X172029816Y-118502262D01*
X172125789Y-118349522D01*
X172185368Y-118179255D01*
X172188663Y-118150016D01*
X172203806Y-118015614D01*
X172230872Y-117951200D01*
X172288467Y-117911645D01*
X172327026Y-117905497D01*
X172334399Y-117905497D01*
X172334409Y-117905500D01*
X172385764Y-117905500D01*
X172865573Y-117905500D01*
X172865601Y-117905497D01*
X172921940Y-117905497D01*
X172921941Y-117905497D01*
X173055479Y-117886297D01*
X173055481Y-117886297D01*
X173061612Y-117885415D01*
X173064256Y-117885035D01*
X173064257Y-117885035D01*
X173202309Y-117844498D01*
X173333094Y-117784770D01*
X173454130Y-117706986D01*
X173562791Y-117612832D01*
X173562794Y-117612829D01*
X173657015Y-117504091D01*
X173734747Y-117383137D01*
X173790206Y-117261696D01*
X173835960Y-117208895D01*
X173902999Y-117189210D01*
X173970039Y-117208894D01*
G37*
%TD.AperFunction*%
%TA.AperFunction,Conductor*%
G36*
X131387800Y-115770294D02*
G01*
X131443733Y-115812166D01*
X131468150Y-115877630D01*
X131460649Y-115929806D01*
X131455909Y-115942515D01*
X131455908Y-115942516D01*
X131449501Y-116002116D01*
X131449500Y-116002135D01*
X131449500Y-118017870D01*
X131449501Y-118017876D01*
X131455908Y-118077483D01*
X131506202Y-118212328D01*
X131506206Y-118212335D01*
X131592452Y-118327544D01*
X131592455Y-118327547D01*
X131707664Y-118413793D01*
X131707671Y-118413797D01*
X131842517Y-118464091D01*
X131842516Y-118464091D01*
X131849444Y-118464835D01*
X131902127Y-118470500D01*
X134180902Y-118470499D01*
X134247941Y-118490184D01*
X134293696Y-118542987D01*
X134303640Y-118612146D01*
X134274615Y-118675702D01*
X134268583Y-118682180D01*
X133631286Y-119319478D01*
X133519481Y-119431282D01*
X133519479Y-119431285D01*
X133469361Y-119518094D01*
X133469359Y-119518096D01*
X133440425Y-119568209D01*
X133440424Y-119568210D01*
X133431905Y-119600003D01*
X133399499Y-119720943D01*
X133399499Y-119720945D01*
X133399499Y-119889046D01*
X133399500Y-119889059D01*
X133399500Y-122927357D01*
X133379815Y-122994396D01*
X133327011Y-123040151D01*
X133288102Y-123050715D01*
X133197202Y-123060001D01*
X133197200Y-123060001D01*
X133030668Y-123115185D01*
X133030663Y-123115187D01*
X132881342Y-123207289D01*
X132757289Y-123331342D01*
X132665187Y-123480663D01*
X132665186Y-123480666D01*
X132610001Y-123647203D01*
X132610001Y-123647204D01*
X132610000Y-123647204D01*
X132599500Y-123749983D01*
X132599500Y-125850001D01*
X132599501Y-125850018D01*
X132610000Y-125952796D01*
X132610001Y-125952799D01*
X132665185Y-126119331D01*
X132665187Y-126119336D01*
X132685177Y-126151745D01*
X132757288Y-126268656D01*
X132881344Y-126392712D01*
X133030666Y-126484814D01*
X133197203Y-126539999D01*
X133299991Y-126550500D01*
X134700008Y-126550499D01*
X134802797Y-126539999D01*
X134969334Y-126484814D01*
X135118656Y-126392712D01*
X135242712Y-126268656D01*
X135334814Y-126119334D01*
X135389999Y-125952797D01*
X135400500Y-125850009D01*
X135400499Y-123749992D01*
X135389999Y-123647203D01*
X135334814Y-123480666D01*
X135242712Y-123331344D01*
X135118656Y-123207288D01*
X134969334Y-123115186D01*
X134802797Y-123060001D01*
X134802794Y-123060000D01*
X134711897Y-123050714D01*
X134647205Y-123024317D01*
X134607054Y-122967136D01*
X134600500Y-122927356D01*
X134600500Y-121349998D01*
X135490204Y-121349998D01*
X135490205Y-121350000D01*
X136475000Y-121350000D01*
X136475000Y-120800000D01*
X136071850Y-120800000D01*
X136035010Y-120802899D01*
X136035004Y-120802900D01*
X135877306Y-120848716D01*
X135877303Y-120848717D01*
X135735947Y-120932314D01*
X135735938Y-120932321D01*
X135619821Y-121048438D01*
X135619814Y-121048447D01*
X135536218Y-121189801D01*
X135490399Y-121347513D01*
X135490204Y-121349998D01*
X134600500Y-121349998D01*
X134600500Y-120100096D01*
X134620185Y-120033057D01*
X134636814Y-120012419D01*
X135758506Y-118890727D01*
X135758511Y-118890724D01*
X135768714Y-118880520D01*
X135768716Y-118880520D01*
X135880520Y-118768716D01*
X135938621Y-118668081D01*
X135959577Y-118631785D01*
X135978168Y-118562403D01*
X136014532Y-118502745D01*
X136077379Y-118472216D01*
X136097942Y-118470499D01*
X138497871Y-118470499D01*
X138497872Y-118470499D01*
X138557483Y-118464091D01*
X138692331Y-118413796D01*
X138807546Y-118327546D01*
X138893796Y-118212331D01*
X138944091Y-118077483D01*
X138950500Y-118017873D01*
X138950500Y-117174500D01*
X138970185Y-117107461D01*
X139022989Y-117061706D01*
X139074500Y-117050500D01*
X139963500Y-117050500D01*
X140030539Y-117070185D01*
X140076294Y-117122989D01*
X140087500Y-117174500D01*
X140087500Y-117265649D01*
X140090399Y-117302489D01*
X140090400Y-117302495D01*
X140136216Y-117460193D01*
X140136217Y-117460196D01*
X140219814Y-117601552D01*
X140219821Y-117601561D01*
X140335938Y-117717678D01*
X140335947Y-117717685D01*
X140477303Y-117801282D01*
X140477306Y-117801283D01*
X140635004Y-117847099D01*
X140635010Y-117847100D01*
X140671850Y-117849999D01*
X140671866Y-117850000D01*
X141075000Y-117850000D01*
X141075000Y-117129332D01*
X141094685Y-117062293D01*
X141147489Y-117016538D01*
X141166714Y-117009627D01*
X141166832Y-117009577D01*
X141166835Y-117009577D01*
X141240385Y-116967112D01*
X141302384Y-116950500D01*
X141363331Y-116950500D01*
X141363347Y-116950501D01*
X141370943Y-116950501D01*
X141529054Y-116950501D01*
X141529057Y-116950501D01*
X141681785Y-116909577D01*
X141731904Y-116880639D01*
X141818716Y-116830520D01*
X141818719Y-116830516D01*
X141825105Y-116825618D01*
X141890276Y-116800429D01*
X141900584Y-116800000D01*
X142230685Y-116800000D01*
X142293806Y-116817268D01*
X142352102Y-116851744D01*
X142380516Y-116859999D01*
X142509926Y-116897597D01*
X142509929Y-116897597D01*
X142509931Y-116897598D01*
X142546806Y-116900500D01*
X142546814Y-116900500D01*
X142877917Y-116900500D01*
X142944956Y-116920185D01*
X142990711Y-116972989D01*
X143000655Y-117042147D01*
X142971630Y-117105703D01*
X142925370Y-117139060D01*
X142878853Y-117158329D01*
X142802246Y-117190061D01*
X142754793Y-117199500D01*
X142546798Y-117199500D01*
X142509932Y-117202401D01*
X142509926Y-117202402D01*
X142352106Y-117248254D01*
X142352103Y-117248255D01*
X142293806Y-117282732D01*
X142230685Y-117300000D01*
X141575000Y-117300000D01*
X141575000Y-117850000D01*
X141838000Y-117850000D01*
X141905039Y-117869685D01*
X141950794Y-117922489D01*
X141962000Y-117974000D01*
X141962000Y-118215701D01*
X141964901Y-118252567D01*
X141964902Y-118252573D01*
X142010754Y-118410393D01*
X142010755Y-118410396D01*
X142094417Y-118551862D01*
X142094423Y-118551870D01*
X142210629Y-118668076D01*
X142210633Y-118668079D01*
X142210635Y-118668081D01*
X142318811Y-118732056D01*
X142328132Y-118737568D01*
X142375815Y-118788637D01*
X142388319Y-118857378D01*
X142361674Y-118921968D01*
X142330985Y-118949292D01*
X142297742Y-118970180D01*
X142297737Y-118970184D01*
X142170184Y-119097737D01*
X142074211Y-119250476D01*
X142014631Y-119420745D01*
X142014630Y-119420750D01*
X141994435Y-119599996D01*
X141994435Y-119600002D01*
X142002900Y-119675130D01*
X142000076Y-119712823D01*
X142000560Y-119712887D01*
X141999499Y-119720945D01*
X141999499Y-119733278D01*
X141979814Y-119800317D01*
X141927010Y-119846072D01*
X141910094Y-119852354D01*
X141752106Y-119898253D01*
X141752103Y-119898255D01*
X141610637Y-119981917D01*
X141610629Y-119981923D01*
X141494423Y-120098129D01*
X141494417Y-120098137D01*
X141410755Y-120239603D01*
X141410754Y-120239606D01*
X141364902Y-120397426D01*
X141364901Y-120397432D01*
X141362000Y-120434298D01*
X141362000Y-120676000D01*
X141342315Y-120743039D01*
X141289511Y-120788794D01*
X141238000Y-120800000D01*
X140975000Y-120800000D01*
X140975000Y-121726000D01*
X140955315Y-121793039D01*
X140902511Y-121838794D01*
X140851000Y-121850000D01*
X139569315Y-121850000D01*
X139506194Y-121832732D01*
X139502094Y-121830307D01*
X139447898Y-121798256D01*
X139447897Y-121798255D01*
X139447896Y-121798255D01*
X139447893Y-121798254D01*
X139290073Y-121752402D01*
X139290067Y-121752401D01*
X139253201Y-121749500D01*
X139253194Y-121749500D01*
X139045207Y-121749500D01*
X138997754Y-121740061D01*
X138950881Y-121720645D01*
X138874629Y-121689060D01*
X138820227Y-121645220D01*
X138798162Y-121578926D01*
X138815441Y-121511226D01*
X138866579Y-121463616D01*
X138922083Y-121450500D01*
X139253186Y-121450500D01*
X139253194Y-121450500D01*
X139290069Y-121447598D01*
X139290071Y-121447597D01*
X139290073Y-121447597D01*
X139369572Y-121424500D01*
X139447898Y-121401744D01*
X139506194Y-121367268D01*
X139569315Y-121350000D01*
X140475000Y-121350000D01*
X140475000Y-120800000D01*
X140071850Y-120800000D01*
X140035010Y-120802899D01*
X140035007Y-120802900D01*
X139996593Y-120814060D01*
X139926723Y-120813859D01*
X139868054Y-120775916D01*
X139839212Y-120712277D01*
X139838000Y-120694983D01*
X139838000Y-120434313D01*
X139837999Y-120434298D01*
X139835098Y-120397432D01*
X139835097Y-120397426D01*
X139789245Y-120239606D01*
X139789244Y-120239603D01*
X139789244Y-120239602D01*
X139705581Y-120098135D01*
X139705579Y-120098133D01*
X139705576Y-120098129D01*
X139589370Y-119981923D01*
X139589361Y-119981916D01*
X139445790Y-119897009D01*
X139398107Y-119845940D01*
X139385603Y-119777198D01*
X139385691Y-119776394D01*
X139405565Y-119600003D01*
X139405565Y-119599996D01*
X139385369Y-119420750D01*
X139385368Y-119420745D01*
X139374188Y-119388794D01*
X139325789Y-119250478D01*
X139229816Y-119097738D01*
X139102262Y-118970184D01*
X139102256Y-118970180D01*
X138949523Y-118874211D01*
X138779254Y-118814631D01*
X138779249Y-118814630D01*
X138600004Y-118794435D01*
X138599996Y-118794435D01*
X138420750Y-118814630D01*
X138420745Y-118814631D01*
X138250476Y-118874211D01*
X138097737Y-118970184D01*
X137970184Y-119097737D01*
X137874211Y-119250476D01*
X137814631Y-119420745D01*
X137814630Y-119420750D01*
X137794435Y-119599996D01*
X137794435Y-119600003D01*
X137814309Y-119776394D01*
X137802254Y-119845216D01*
X137754905Y-119896595D01*
X137754210Y-119897009D01*
X137610638Y-119981916D01*
X137610629Y-119981923D01*
X137494423Y-120098129D01*
X137494417Y-120098137D01*
X137410755Y-120239603D01*
X137410754Y-120239606D01*
X137364902Y-120397426D01*
X137364901Y-120397432D01*
X137362000Y-120434298D01*
X137362000Y-120676000D01*
X137342315Y-120743039D01*
X137289511Y-120788794D01*
X137238000Y-120800000D01*
X136975000Y-120800000D01*
X136975000Y-121350000D01*
X137630685Y-121350000D01*
X137693806Y-121367268D01*
X137752102Y-121401744D01*
X137793724Y-121413836D01*
X137909926Y-121447597D01*
X137909929Y-121447597D01*
X137909931Y-121447598D01*
X137946806Y-121450500D01*
X137946814Y-121450500D01*
X138277917Y-121450500D01*
X138344956Y-121470185D01*
X138390711Y-121522989D01*
X138400655Y-121592147D01*
X138371630Y-121655703D01*
X138325370Y-121689060D01*
X138249118Y-121720645D01*
X138202246Y-121740061D01*
X138154793Y-121749500D01*
X137946798Y-121749500D01*
X137909932Y-121752401D01*
X137909926Y-121752402D01*
X137752106Y-121798254D01*
X137752103Y-121798255D01*
X137693806Y-121832732D01*
X137630685Y-121850000D01*
X135490205Y-121850000D01*
X135490204Y-121850001D01*
X135490399Y-121852486D01*
X135536218Y-122010198D01*
X135619814Y-122151552D01*
X135619821Y-122151561D01*
X135735938Y-122267678D01*
X135735947Y-122267685D01*
X135877303Y-122351282D01*
X135877306Y-122351283D01*
X136035004Y-122397099D01*
X136035010Y-122397100D01*
X136071850Y-122399999D01*
X136071866Y-122400000D01*
X136231251Y-122400000D01*
X136298290Y-122419685D01*
X136344045Y-122472489D01*
X136353989Y-122541647D01*
X136324964Y-122605203D01*
X136318932Y-122611681D01*
X136222863Y-122707749D01*
X136222860Y-122707753D01*
X136113372Y-122871613D01*
X136113367Y-122871623D01*
X136037949Y-123053697D01*
X136037947Y-123053705D01*
X135999500Y-123246989D01*
X135999500Y-123444078D01*
X136037947Y-123637362D01*
X136037949Y-123637370D01*
X136113367Y-123819444D01*
X136113372Y-123819454D01*
X136222860Y-123983314D01*
X136222863Y-123983318D01*
X137163181Y-124923635D01*
X137196666Y-124984958D01*
X137199500Y-125011316D01*
X137199500Y-125023541D01*
X137199500Y-125023543D01*
X137199499Y-125023543D01*
X137237947Y-125216829D01*
X137237950Y-125216839D01*
X137313364Y-125398907D01*
X137313371Y-125398920D01*
X137422860Y-125562781D01*
X137422863Y-125562785D01*
X137475693Y-125615615D01*
X137507088Y-125668701D01*
X137548253Y-125810393D01*
X137548255Y-125810396D01*
X137631917Y-125951862D01*
X137631923Y-125951870D01*
X137748129Y-126068076D01*
X137748133Y-126068079D01*
X137748135Y-126068081D01*
X137889602Y-126151744D01*
X137931224Y-126163836D01*
X138047426Y-126197597D01*
X138047429Y-126197597D01*
X138047431Y-126197598D01*
X138084306Y-126200500D01*
X138084314Y-126200500D01*
X138515686Y-126200500D01*
X138515694Y-126200500D01*
X138552569Y-126197598D01*
X138552571Y-126197597D01*
X138552573Y-126197597D01*
X138594191Y-126185505D01*
X138710398Y-126151744D01*
X138720213Y-126145939D01*
X138736878Y-126136084D01*
X138804601Y-126118900D01*
X138863122Y-126136084D01*
X138889598Y-126151742D01*
X138889599Y-126151742D01*
X138889602Y-126151744D01*
X138931224Y-126163836D01*
X139047426Y-126197597D01*
X139047429Y-126197597D01*
X139047431Y-126197598D01*
X139084306Y-126200500D01*
X139084314Y-126200500D01*
X139515686Y-126200500D01*
X139515694Y-126200500D01*
X139552569Y-126197598D01*
X139552571Y-126197597D01*
X139552573Y-126197597D01*
X139594191Y-126185505D01*
X139710398Y-126151744D01*
X139720213Y-126145939D01*
X139736878Y-126136084D01*
X139804601Y-126118900D01*
X139863122Y-126136084D01*
X139889598Y-126151742D01*
X139889599Y-126151742D01*
X139889602Y-126151744D01*
X139931224Y-126163836D01*
X140047426Y-126197597D01*
X140047429Y-126197597D01*
X140047431Y-126197598D01*
X140084306Y-126200500D01*
X140084314Y-126200500D01*
X140515686Y-126200500D01*
X140515694Y-126200500D01*
X140552569Y-126197598D01*
X140552571Y-126197597D01*
X140552573Y-126197597D01*
X140594191Y-126185505D01*
X140710398Y-126151744D01*
X140720213Y-126145939D01*
X140736878Y-126136084D01*
X140804601Y-126118900D01*
X140863122Y-126136084D01*
X140889598Y-126151742D01*
X140889599Y-126151742D01*
X140889602Y-126151744D01*
X140931224Y-126163836D01*
X141047426Y-126197597D01*
X141047429Y-126197597D01*
X141047431Y-126197598D01*
X141084306Y-126200500D01*
X141084314Y-126200500D01*
X141515686Y-126200500D01*
X141515694Y-126200500D01*
X141552569Y-126197598D01*
X141552571Y-126197597D01*
X141552573Y-126197597D01*
X141594191Y-126185505D01*
X141710398Y-126151744D01*
X141851865Y-126068081D01*
X141968081Y-125951865D01*
X142006809Y-125886378D01*
X142057878Y-125838696D01*
X142109971Y-125826346D01*
X142109947Y-125826097D01*
X142111787Y-125825915D01*
X142113541Y-125825500D01*
X142116009Y-125825500D01*
X142116010Y-125825499D01*
X142289982Y-125790895D01*
X142371922Y-125756953D01*
X142453863Y-125723013D01*
X142559289Y-125652569D01*
X142568452Y-125646447D01*
X142575935Y-125641447D01*
X142601352Y-125624464D01*
X143887819Y-124337995D01*
X143949142Y-124304511D01*
X144018833Y-124309495D01*
X144074767Y-124351366D01*
X144099184Y-124416831D01*
X144099500Y-124425677D01*
X144099500Y-126675500D01*
X144079815Y-126742539D01*
X144027011Y-126788294D01*
X143975500Y-126799500D01*
X135486669Y-126799500D01*
X135486653Y-126799499D01*
X135479057Y-126799499D01*
X135320943Y-126799499D01*
X135213587Y-126828265D01*
X135168210Y-126840424D01*
X135168209Y-126840425D01*
X135128154Y-126863552D01*
X135128152Y-126863553D01*
X135031290Y-126919475D01*
X135031286Y-126919478D01*
X134922941Y-127027823D01*
X134861618Y-127061307D01*
X134809302Y-127061394D01*
X134802793Y-127060000D01*
X134700010Y-127049500D01*
X133299998Y-127049500D01*
X133299981Y-127049501D01*
X133197203Y-127060000D01*
X133197200Y-127060001D01*
X133030668Y-127115185D01*
X133030663Y-127115187D01*
X132881342Y-127207289D01*
X132757289Y-127331342D01*
X132665187Y-127480663D01*
X132665185Y-127480668D01*
X132638697Y-127560603D01*
X132610001Y-127647203D01*
X132610001Y-127647204D01*
X132610000Y-127647204D01*
X132599500Y-127749983D01*
X132599500Y-128425500D01*
X132579815Y-128492539D01*
X132527011Y-128538294D01*
X132475500Y-128549500D01*
X131122310Y-128549500D01*
X131055271Y-128529815D01*
X131034629Y-128513181D01*
X129815698Y-127294251D01*
X129917330Y-127220412D01*
X130095412Y-127042330D01*
X130169251Y-126940698D01*
X131414028Y-128185475D01*
X131414029Y-128185475D01*
X131545827Y-128030311D01*
X131545838Y-128030297D01*
X131749681Y-127729651D01*
X131749683Y-127729647D01*
X131919838Y-127408702D01*
X131919847Y-127408684D01*
X132054302Y-127071227D01*
X132054304Y-127071220D01*
X132151480Y-126721222D01*
X132151482Y-126721214D01*
X132210253Y-126362728D01*
X132229920Y-126000002D01*
X132229920Y-125999997D01*
X132210253Y-125637271D01*
X132151482Y-125278785D01*
X132151480Y-125278777D01*
X132054304Y-124928779D01*
X132054302Y-124928772D01*
X131919847Y-124591315D01*
X131919838Y-124591297D01*
X131749683Y-124270352D01*
X131749681Y-124270348D01*
X131545829Y-123969690D01*
X131545822Y-123969680D01*
X131414029Y-123814523D01*
X131414028Y-123814523D01*
X130169251Y-125059300D01*
X130095412Y-124957670D01*
X129917330Y-124779588D01*
X129815698Y-124705748D01*
X131063110Y-123458336D01*
X131063110Y-123458334D01*
X131046929Y-123443007D01*
X131046928Y-123443006D01*
X130757733Y-123223167D01*
X130757717Y-123223156D01*
X130446477Y-123035890D01*
X130446464Y-123035883D01*
X130116794Y-122883360D01*
X130116789Y-122883359D01*
X129772538Y-122767367D01*
X129417764Y-122689275D01*
X129056633Y-122650000D01*
X128693366Y-122650000D01*
X128332235Y-122689275D01*
X127977461Y-122767367D01*
X127633210Y-122883359D01*
X127633205Y-122883360D01*
X127303535Y-123035883D01*
X127303522Y-123035890D01*
X126992282Y-123223156D01*
X126992266Y-123223167D01*
X126703075Y-123443002D01*
X126686888Y-123458335D01*
X126686887Y-123458335D01*
X127934301Y-124705748D01*
X127832670Y-124779588D01*
X127654588Y-124957670D01*
X127580748Y-125059301D01*
X126319088Y-123797640D01*
X126311752Y-123795806D01*
X126263890Y-123744903D01*
X126250500Y-123688854D01*
X126250500Y-119903751D01*
X126270185Y-119836712D01*
X126286819Y-119816070D01*
X126849289Y-119253600D01*
X127411790Y-118691099D01*
X127473110Y-118657616D01*
X127542802Y-118662600D01*
X127598735Y-118704472D01*
X127611850Y-118726377D01*
X127626398Y-118757576D01*
X127761894Y-118951082D01*
X127928917Y-119118105D01*
X128122421Y-119253600D01*
X128336507Y-119353429D01*
X128336516Y-119353433D01*
X128550000Y-119410634D01*
X128550000Y-118513012D01*
X128607007Y-118545925D01*
X128734174Y-118580000D01*
X128865826Y-118580000D01*
X128992993Y-118545925D01*
X129050000Y-118513012D01*
X129050000Y-119410633D01*
X129263483Y-119353433D01*
X129263492Y-119353429D01*
X129477578Y-119253600D01*
X129671082Y-119118105D01*
X129838105Y-118951082D01*
X129973600Y-118757578D01*
X130073429Y-118543492D01*
X130073432Y-118543486D01*
X130130636Y-118330000D01*
X129233012Y-118330000D01*
X129265925Y-118272993D01*
X129300000Y-118145826D01*
X129300000Y-118014174D01*
X129265925Y-117887007D01*
X129233012Y-117830000D01*
X130130636Y-117830000D01*
X130130635Y-117829999D01*
X130073432Y-117616513D01*
X130073429Y-117616507D01*
X129973600Y-117402422D01*
X129973599Y-117402420D01*
X129901309Y-117299179D01*
X129878982Y-117232973D01*
X129895992Y-117165206D01*
X129915195Y-117140384D01*
X131256787Y-115798793D01*
X131318108Y-115765310D01*
X131387800Y-115770294D01*
G37*
%TD.AperFunction*%
%TA.AperFunction,Conductor*%
G36*
X164155702Y-115189698D02*
G01*
X164162180Y-115195730D01*
X165484642Y-116518192D01*
X165518127Y-116579515D01*
X165513143Y-116649207D01*
X165471271Y-116705140D01*
X165435280Y-116723804D01*
X165324195Y-116759897D01*
X165113828Y-116867085D01*
X164922813Y-117005866D01*
X164755866Y-117172813D01*
X164617085Y-117363828D01*
X164509897Y-117574197D01*
X164436934Y-117798752D01*
X164400000Y-118031947D01*
X164400000Y-118900000D01*
X165400000Y-118900000D01*
X165400000Y-119400000D01*
X164400000Y-119400000D01*
X164400000Y-120268052D01*
X164436934Y-120501247D01*
X164509897Y-120725802D01*
X164557488Y-120819205D01*
X164570384Y-120887874D01*
X164544108Y-120952615D01*
X164487001Y-120992872D01*
X164447003Y-120999500D01*
X163938575Y-120999500D01*
X163871536Y-120979815D01*
X163850894Y-120963181D01*
X163226068Y-120338355D01*
X163226066Y-120338352D01*
X163107195Y-120219481D01*
X163107194Y-120219480D01*
X162999476Y-120157289D01*
X162999474Y-120157288D01*
X162970263Y-120140423D01*
X162970262Y-120140422D01*
X162970261Y-120140422D01*
X162914359Y-120125443D01*
X162817535Y-120099499D01*
X162659421Y-120099499D01*
X162651825Y-120099499D01*
X162651809Y-120099500D01*
X155560132Y-120099500D01*
X155495036Y-120081039D01*
X155469334Y-120065186D01*
X155302797Y-120010001D01*
X155302795Y-120010000D01*
X155200016Y-119999500D01*
X155200009Y-119999500D01*
X155200007Y-119999500D01*
X151624500Y-119999500D01*
X151557461Y-119979815D01*
X151511706Y-119927011D01*
X151500500Y-119875500D01*
X151500500Y-118974499D01*
X151520185Y-118907460D01*
X151572989Y-118861705D01*
X151624500Y-118850499D01*
X152050002Y-118850499D01*
X152050008Y-118850499D01*
X152152797Y-118839999D01*
X152319334Y-118784814D01*
X152468656Y-118692712D01*
X152468664Y-118692703D01*
X152473085Y-118689209D01*
X152537879Y-118663066D01*
X152606522Y-118676103D01*
X152626915Y-118689209D01*
X152631339Y-118692707D01*
X152631344Y-118692712D01*
X152780666Y-118784814D01*
X152947203Y-118839999D01*
X153049991Y-118850500D01*
X153750008Y-118850499D01*
X153750016Y-118850498D01*
X153750019Y-118850498D01*
X153806302Y-118844748D01*
X153852797Y-118839999D01*
X154019334Y-118784814D01*
X154168656Y-118692712D01*
X154292712Y-118568656D01*
X154384814Y-118419334D01*
X154439999Y-118252797D01*
X154450500Y-118150009D01*
X154450500Y-117424500D01*
X154470185Y-117357461D01*
X154522989Y-117311706D01*
X154574500Y-117300500D01*
X158541769Y-117300500D01*
X158608808Y-117320185D01*
X158616080Y-117325233D01*
X158659132Y-117357461D01*
X158693430Y-117383137D01*
X158707668Y-117393795D01*
X158707671Y-117393797D01*
X158842517Y-117444091D01*
X158842516Y-117444091D01*
X158849444Y-117444835D01*
X158902127Y-117450500D01*
X163497872Y-117450499D01*
X163557483Y-117444091D01*
X163692331Y-117393796D01*
X163807546Y-117307546D01*
X163893796Y-117192331D01*
X163944091Y-117057483D01*
X163950500Y-116997873D01*
X163950499Y-115283410D01*
X163970184Y-115216372D01*
X164022987Y-115170617D01*
X164092146Y-115160673D01*
X164155702Y-115189698D01*
G37*
%TD.AperFunction*%
%TA.AperFunction,Conductor*%
G36*
X131958039Y-57120185D02*
G01*
X132003794Y-57172989D01*
X132015000Y-57224500D01*
X132015000Y-63350000D01*
X137005859Y-63350000D01*
X137072898Y-63369685D01*
X137118653Y-63422489D01*
X137128597Y-63491647D01*
X137099572Y-63555203D01*
X137070010Y-63580115D01*
X137040866Y-63597733D01*
X137004811Y-63619530D01*
X136884530Y-63739811D01*
X136796522Y-63885393D01*
X136745913Y-64047807D01*
X136739500Y-64118386D01*
X136739500Y-64485257D01*
X136719815Y-64552296D01*
X136703181Y-64572938D01*
X135962937Y-65313181D01*
X135901614Y-65346666D01*
X135875256Y-65349500D01*
X135566663Y-65349500D01*
X135566644Y-65349501D01*
X135467292Y-65359650D01*
X135467289Y-65359651D01*
X135306305Y-65412996D01*
X135306294Y-65413001D01*
X135161959Y-65502029D01*
X135161955Y-65502032D01*
X135042032Y-65621955D01*
X135042029Y-65621959D01*
X134999693Y-65690597D01*
X134947745Y-65737322D01*
X134894155Y-65749500D01*
X134820425Y-65749500D01*
X134753386Y-65729815D01*
X134714887Y-65690598D01*
X134687968Y-65646956D01*
X134568044Y-65527032D01*
X134568040Y-65527029D01*
X134423705Y-65438001D01*
X134423699Y-65437998D01*
X134423697Y-65437997D01*
X134423694Y-65437996D01*
X134262709Y-65384651D01*
X134163346Y-65374500D01*
X133566662Y-65374500D01*
X133566644Y-65374501D01*
X133467292Y-65384650D01*
X133467289Y-65384651D01*
X133306305Y-65437996D01*
X133306294Y-65438001D01*
X133161959Y-65527029D01*
X133161955Y-65527032D01*
X133042032Y-65646955D01*
X133042029Y-65646959D01*
X132953001Y-65791294D01*
X132952996Y-65791305D01*
X132899651Y-65952290D01*
X132889500Y-66051647D01*
X132889500Y-66598337D01*
X132889501Y-66598355D01*
X132899650Y-66697707D01*
X132899651Y-66697710D01*
X132952996Y-66858694D01*
X132953001Y-66858705D01*
X133042029Y-67003040D01*
X133042032Y-67003044D01*
X133051660Y-67012672D01*
X133085145Y-67073995D01*
X133080161Y-67143687D01*
X133051663Y-67188031D01*
X133042428Y-67197265D01*
X133042424Y-67197271D01*
X132953457Y-67341507D01*
X132953452Y-67341518D01*
X132900144Y-67502393D01*
X132890000Y-67601677D01*
X132890000Y-67625000D01*
X134849409Y-67625000D01*
X134890003Y-67602834D01*
X134916361Y-67600000D01*
X135937448Y-67600000D01*
X136004487Y-67619685D01*
X136050242Y-67672489D01*
X136057219Y-67691898D01*
X136072083Y-67747367D01*
X136078720Y-67772138D01*
X136078721Y-67772140D01*
X136098386Y-67806200D01*
X136115000Y-67868201D01*
X136115000Y-67976000D01*
X136095315Y-68043039D01*
X136042511Y-68088794D01*
X135991000Y-68100000D01*
X134880591Y-68100000D01*
X134839997Y-68122166D01*
X134813639Y-68125000D01*
X132890001Y-68125000D01*
X132890001Y-68148322D01*
X132900144Y-68247607D01*
X132953452Y-68408481D01*
X132953457Y-68408492D01*
X133042424Y-68552728D01*
X133042427Y-68552732D01*
X133162266Y-68672571D01*
X133249601Y-68726440D01*
X133296325Y-68778388D01*
X133307548Y-68847351D01*
X133279704Y-68911433D01*
X133223509Y-68949685D01*
X133106516Y-68988453D01*
X133106507Y-68988457D01*
X132962271Y-69077424D01*
X132962267Y-69077427D01*
X132842427Y-69197267D01*
X132842424Y-69197271D01*
X132753457Y-69341507D01*
X132753452Y-69341518D01*
X132700144Y-69502393D01*
X132690000Y-69601677D01*
X132690000Y-69625000D01*
X134639999Y-69625000D01*
X134639999Y-69601692D01*
X134639998Y-69601677D01*
X134629855Y-69502392D01*
X134576547Y-69341518D01*
X134576542Y-69341507D01*
X134487575Y-69197271D01*
X134487572Y-69197267D01*
X134367732Y-69077427D01*
X134367728Y-69077424D01*
X134280398Y-69023558D01*
X134233673Y-68971610D01*
X134222452Y-68902648D01*
X134250295Y-68838566D01*
X134306491Y-68800314D01*
X134423481Y-68761547D01*
X134423492Y-68761542D01*
X134567728Y-68672575D01*
X134567732Y-68672572D01*
X134687571Y-68552733D01*
X134767171Y-68423683D01*
X134819119Y-68376958D01*
X134888082Y-68365737D01*
X134952164Y-68393580D01*
X134978248Y-68423683D01*
X135042424Y-68527728D01*
X135042427Y-68527732D01*
X135162267Y-68647572D01*
X135162271Y-68647575D01*
X135306507Y-68736542D01*
X135306518Y-68736547D01*
X135369127Y-68757294D01*
X135426572Y-68797067D01*
X135453395Y-68861583D01*
X135441080Y-68930359D01*
X135393537Y-68981558D01*
X135369127Y-68992706D01*
X135306518Y-69013452D01*
X135306507Y-69013457D01*
X135162271Y-69102424D01*
X135162267Y-69102427D01*
X135042427Y-69222267D01*
X135042424Y-69222271D01*
X134953457Y-69366507D01*
X134953452Y-69366518D01*
X134900144Y-69527393D01*
X134890000Y-69626677D01*
X134890000Y-69650000D01*
X135991000Y-69650000D01*
X136058039Y-69669685D01*
X136103794Y-69722489D01*
X136115000Y-69774000D01*
X136115000Y-70026000D01*
X136095315Y-70093039D01*
X136042511Y-70138794D01*
X135991000Y-70150000D01*
X134890001Y-70150000D01*
X134890001Y-70173322D01*
X134900144Y-70272607D01*
X134953452Y-70433481D01*
X134953457Y-70433492D01*
X135042424Y-70577728D01*
X135042427Y-70577732D01*
X135051660Y-70586965D01*
X135085145Y-70648288D01*
X135080161Y-70717980D01*
X135051663Y-70762324D01*
X135042031Y-70771955D01*
X135037720Y-70777409D01*
X134980699Y-70817787D01*
X134940453Y-70824500D01*
X134605004Y-70824500D01*
X134537965Y-70804815D01*
X134499465Y-70765596D01*
X134487968Y-70746956D01*
X134478339Y-70737327D01*
X134444854Y-70676004D01*
X134449838Y-70606312D01*
X134478345Y-70561959D01*
X134487573Y-70552731D01*
X134576542Y-70408492D01*
X134576547Y-70408481D01*
X134629855Y-70247606D01*
X134639999Y-70148322D01*
X134640000Y-70148309D01*
X134640000Y-70125000D01*
X132690001Y-70125000D01*
X132690001Y-70148322D01*
X132700144Y-70247607D01*
X132753452Y-70408481D01*
X132753457Y-70408492D01*
X132842424Y-70552728D01*
X132842427Y-70552732D01*
X132851660Y-70561965D01*
X132885145Y-70623288D01*
X132880161Y-70692980D01*
X132851663Y-70737324D01*
X132842033Y-70746953D01*
X132842029Y-70746959D01*
X132753001Y-70891294D01*
X132752996Y-70891305D01*
X132699651Y-71052290D01*
X132689500Y-71151647D01*
X132689500Y-71698337D01*
X132689501Y-71698355D01*
X132699650Y-71797707D01*
X132699651Y-71797710D01*
X132752996Y-71958694D01*
X132753001Y-71958705D01*
X132842029Y-72103040D01*
X132842032Y-72103044D01*
X132925937Y-72186949D01*
X132959422Y-72248272D01*
X132954438Y-72317964D01*
X132943250Y-72340602D01*
X132874211Y-72450476D01*
X132814631Y-72620745D01*
X132814630Y-72620750D01*
X132794435Y-72799996D01*
X132794435Y-72800000D01*
X132814630Y-72979249D01*
X132814631Y-72979254D01*
X132874211Y-73149523D01*
X132938786Y-73252292D01*
X132970184Y-73302262D01*
X133097738Y-73429816D01*
X133250478Y-73525789D01*
X133342895Y-73558127D01*
X133420745Y-73585368D01*
X133420750Y-73585369D01*
X133599996Y-73605565D01*
X133600000Y-73605565D01*
X133600004Y-73605565D01*
X133779249Y-73585369D01*
X133779252Y-73585368D01*
X133779255Y-73585368D01*
X133949522Y-73525789D01*
X134102262Y-73429816D01*
X134229816Y-73302262D01*
X134325789Y-73149522D01*
X134385368Y-72979255D01*
X134388085Y-72955146D01*
X134405565Y-72800000D01*
X134405565Y-72799996D01*
X134385369Y-72620750D01*
X134385366Y-72620737D01*
X134325790Y-72450479D01*
X134301089Y-72411167D01*
X134282089Y-72343930D01*
X134302457Y-72277095D01*
X134340984Y-72239658D01*
X134368044Y-72222968D01*
X134487968Y-72103044D01*
X134499467Y-72084402D01*
X134551412Y-72037679D01*
X134605004Y-72025500D01*
X134909575Y-72025500D01*
X134976614Y-72045185D01*
X135015113Y-72084402D01*
X135042031Y-72128043D01*
X135161957Y-72247969D01*
X135306294Y-72336998D01*
X135306297Y-72336999D01*
X135306303Y-72337003D01*
X135467292Y-72390349D01*
X135566655Y-72400500D01*
X136163344Y-72400499D01*
X136163352Y-72400498D01*
X136163355Y-72400498D01*
X136217760Y-72394940D01*
X136262708Y-72390349D01*
X136423697Y-72337003D01*
X136568044Y-72247968D01*
X136591748Y-72224263D01*
X136653067Y-72190780D01*
X136722759Y-72195763D01*
X136776074Y-72234259D01*
X136867277Y-72347721D01*
X136867278Y-72347722D01*
X137015704Y-72467030D01*
X137015707Y-72467032D01*
X137186302Y-72551639D01*
X137186303Y-72551639D01*
X137186307Y-72551641D01*
X137371111Y-72597600D01*
X137413877Y-72600500D01*
X138816122Y-72600499D01*
X138858889Y-72597600D01*
X138858891Y-72597599D01*
X138858895Y-72597599D01*
X138891791Y-72589418D01*
X138961600Y-72592341D01*
X139018746Y-72632541D01*
X139045087Y-72697255D01*
X139032259Y-72765937D01*
X138985870Y-72815867D01*
X138979817Y-72819526D01*
X138979810Y-72819531D01*
X138859530Y-72939811D01*
X138771522Y-73085393D01*
X138720913Y-73247807D01*
X138714500Y-73318386D01*
X138714500Y-73981613D01*
X138720913Y-74052192D01*
X138720913Y-74052194D01*
X138720914Y-74052196D01*
X138771522Y-74214606D01*
X138855022Y-74352732D01*
X138859530Y-74360188D01*
X138979811Y-74480469D01*
X138979813Y-74480470D01*
X138979815Y-74480472D01*
X139125394Y-74568478D01*
X139218018Y-74597339D01*
X139268809Y-74628044D01*
X140605139Y-75964374D01*
X140605149Y-75964385D01*
X140609479Y-75968715D01*
X140609480Y-75968716D01*
X140721284Y-76080520D01*
X140808095Y-76130639D01*
X140808097Y-76130641D01*
X140837178Y-76147431D01*
X140858215Y-76159577D01*
X141010943Y-76200501D01*
X141010946Y-76200501D01*
X141176653Y-76200501D01*
X141176669Y-76200500D01*
X141883678Y-76200500D01*
X141950717Y-76220185D01*
X141996472Y-76272989D01*
X142006898Y-76310617D01*
X142014630Y-76379249D01*
X142074210Y-76549521D01*
X142074211Y-76549522D01*
X142170184Y-76702262D01*
X142297738Y-76829816D01*
X142348427Y-76861666D01*
X142417392Y-76905000D01*
X142450478Y-76925789D01*
X142514908Y-76948334D01*
X142620745Y-76985368D01*
X142620750Y-76985369D01*
X142799996Y-77005565D01*
X142800000Y-77005565D01*
X142800004Y-77005565D01*
X142979249Y-76985369D01*
X142979252Y-76985368D01*
X142979255Y-76985368D01*
X143149522Y-76925789D01*
X143302262Y-76829816D01*
X143429816Y-76702262D01*
X143525789Y-76549522D01*
X143585368Y-76379255D01*
X143595161Y-76292329D01*
X143622226Y-76227918D01*
X143630690Y-76218543D01*
X143751274Y-76097960D01*
X143751277Y-76097958D01*
X143768715Y-76080520D01*
X143768716Y-76080520D01*
X143880520Y-75968716D01*
X143880520Y-75968715D01*
X143897958Y-75951277D01*
X143897959Y-75951274D01*
X144880520Y-74968716D01*
X144880520Y-74968714D01*
X144890724Y-74958511D01*
X144890728Y-74958506D01*
X145187416Y-74661818D01*
X145248739Y-74628333D01*
X145275097Y-74625499D01*
X145288338Y-74625499D01*
X145288344Y-74625499D01*
X145288352Y-74625498D01*
X145288355Y-74625498D01*
X145367835Y-74617379D01*
X145387708Y-74615349D01*
X145548697Y-74562003D01*
X145693044Y-74472968D01*
X145808196Y-74357815D01*
X145869515Y-74324333D01*
X145939207Y-74329317D01*
X145995141Y-74371188D01*
X146019558Y-74436652D01*
X146019164Y-74458745D01*
X146014500Y-74502127D01*
X146014500Y-74502134D01*
X146014500Y-74502135D01*
X146014500Y-75497870D01*
X146014501Y-75497876D01*
X146020908Y-75557481D01*
X146033659Y-75591669D01*
X146038642Y-75661361D01*
X146033659Y-75678331D01*
X146020908Y-75712518D01*
X146014501Y-75772116D01*
X146014501Y-75772123D01*
X146014500Y-75772135D01*
X146014500Y-76767870D01*
X146014501Y-76767876D01*
X146020908Y-76827481D01*
X146033659Y-76861669D01*
X146038642Y-76931361D01*
X146033659Y-76948331D01*
X146020908Y-76982518D01*
X146014501Y-77042116D01*
X146014501Y-77042123D01*
X146014500Y-77042135D01*
X146014500Y-77359902D01*
X145994815Y-77426941D01*
X145978181Y-77447583D01*
X144319481Y-79106282D01*
X144319479Y-79106284D01*
X144294347Y-79149815D01*
X144283724Y-79168216D01*
X144240423Y-79243215D01*
X144199499Y-79395943D01*
X144199499Y-79395945D01*
X144199499Y-79564046D01*
X144199500Y-79564059D01*
X144199500Y-86283677D01*
X144179815Y-86350716D01*
X144127011Y-86396471D01*
X144089384Y-86406897D01*
X144020750Y-86414630D01*
X143850478Y-86474210D01*
X143697737Y-86570184D01*
X143570184Y-86697737D01*
X143474210Y-86850478D01*
X143414630Y-87020750D01*
X143404837Y-87107668D01*
X143377770Y-87172082D01*
X143369298Y-87181465D01*
X141381286Y-89169478D01*
X141269481Y-89281282D01*
X141269480Y-89281284D01*
X141226394Y-89355913D01*
X141219361Y-89368094D01*
X141219359Y-89368096D01*
X141190425Y-89418209D01*
X141190424Y-89418210D01*
X141177026Y-89468214D01*
X141149499Y-89570943D01*
X141149499Y-89570945D01*
X141149499Y-89739046D01*
X141149500Y-89739059D01*
X141149500Y-90958597D01*
X141129815Y-91025636D01*
X141113181Y-91046278D01*
X139906426Y-92253032D01*
X139845103Y-92286517D01*
X139775411Y-92281533D01*
X139719478Y-92239661D01*
X139713208Y-92230451D01*
X139707967Y-92221955D01*
X139588044Y-92102032D01*
X139588040Y-92102029D01*
X139443705Y-92013001D01*
X139443699Y-92012998D01*
X139443697Y-92012997D01*
X139421269Y-92005565D01*
X139282709Y-91959651D01*
X139183346Y-91949500D01*
X138336662Y-91949500D01*
X138336644Y-91949501D01*
X138237292Y-91959650D01*
X138237289Y-91959651D01*
X138110640Y-92001619D01*
X138040812Y-92004021D01*
X137980770Y-91968289D01*
X137949577Y-91905769D01*
X137948417Y-91897809D01*
X137945368Y-91870745D01*
X137885789Y-91700478D01*
X137789816Y-91547738D01*
X137662262Y-91420184D01*
X137662260Y-91420182D01*
X137662258Y-91420181D01*
X137616765Y-91391595D01*
X137570474Y-91339260D01*
X137559827Y-91270207D01*
X137563662Y-91252007D01*
X137607099Y-91102494D01*
X137607100Y-91102488D01*
X137607295Y-91100001D01*
X137607295Y-91100000D01*
X136634000Y-91100000D01*
X136566961Y-91080315D01*
X136521206Y-91027511D01*
X136510000Y-90976000D01*
X136510000Y-90823029D01*
X136529685Y-90755990D01*
X136582489Y-90710235D01*
X136634000Y-90699029D01*
X138174802Y-90699029D01*
X138174818Y-90699030D01*
X138182414Y-90699030D01*
X138340525Y-90699030D01*
X138340528Y-90699030D01*
X138493256Y-90658106D01*
X138543887Y-90628874D01*
X138630187Y-90579049D01*
X138630195Y-90579040D01*
X138633998Y-90576124D01*
X138699167Y-90550929D01*
X138709486Y-90550499D01*
X139183338Y-90550499D01*
X139183344Y-90550499D01*
X139183352Y-90550498D01*
X139183355Y-90550498D01*
X139237760Y-90544940D01*
X139282708Y-90540349D01*
X139443697Y-90487003D01*
X139588044Y-90397968D01*
X139707968Y-90278044D01*
X139797003Y-90133697D01*
X139850349Y-89972708D01*
X139860500Y-89873345D01*
X139860499Y-89326656D01*
X139855636Y-89279054D01*
X139850349Y-89227292D01*
X139850348Y-89227289D01*
X139797003Y-89066303D01*
X139796999Y-89066297D01*
X139796998Y-89066294D01*
X139707970Y-88921959D01*
X139707967Y-88921955D01*
X139705304Y-88919292D01*
X139704060Y-88917013D01*
X139703490Y-88916293D01*
X139703613Y-88916195D01*
X139671819Y-88857969D01*
X139676803Y-88788277D01*
X139705301Y-88743932D01*
X139818536Y-88630697D01*
X139879855Y-88597215D01*
X139892311Y-88595163D01*
X139979255Y-88585368D01*
X140149522Y-88525789D01*
X140302262Y-88429816D01*
X140429816Y-88302262D01*
X140525789Y-88149522D01*
X140585368Y-87979255D01*
X140591068Y-87928671D01*
X140593102Y-87910617D01*
X140620168Y-87846203D01*
X140677763Y-87806648D01*
X140716322Y-87800500D01*
X140913331Y-87800500D01*
X140913347Y-87800501D01*
X140920943Y-87800501D01*
X141079054Y-87800501D01*
X141079057Y-87800501D01*
X141231785Y-87759577D01*
X141296650Y-87722127D01*
X141368716Y-87680520D01*
X141480520Y-87568716D01*
X141480520Y-87568714D01*
X141490724Y-87558511D01*
X141490728Y-87558506D01*
X142417276Y-86631957D01*
X142478597Y-86598474D01*
X142518838Y-86596420D01*
X142538505Y-86598636D01*
X142599998Y-86605565D01*
X142600000Y-86605565D01*
X142600003Y-86605565D01*
X142779249Y-86585369D01*
X142779252Y-86585368D01*
X142779255Y-86585368D01*
X142949522Y-86525789D01*
X143102262Y-86429816D01*
X143229816Y-86302262D01*
X143325789Y-86149522D01*
X143385368Y-85979255D01*
X143387873Y-85957022D01*
X143405565Y-85800003D01*
X143405565Y-85799996D01*
X143385369Y-85620750D01*
X143385368Y-85620745D01*
X143372413Y-85583723D01*
X143325789Y-85450478D01*
X143314104Y-85431882D01*
X143270059Y-85361785D01*
X143229816Y-85297738D01*
X143102262Y-85170184D01*
X143031608Y-85125789D01*
X142949523Y-85074211D01*
X142779254Y-85014631D01*
X142779249Y-85014630D01*
X142600004Y-84994435D01*
X142599996Y-84994435D01*
X142420750Y-85014630D01*
X142420745Y-85014631D01*
X142250476Y-85074211D01*
X142097737Y-85170184D01*
X141970184Y-85297737D01*
X141874211Y-85450478D01*
X141874208Y-85450484D01*
X141869521Y-85463879D01*
X141840162Y-85510601D01*
X140787584Y-86563181D01*
X140726261Y-86596666D01*
X140699903Y-86599500D01*
X140149097Y-86599500D01*
X140082058Y-86579815D01*
X140036303Y-86527011D01*
X140026359Y-86457853D01*
X140055384Y-86394297D01*
X140061416Y-86387819D01*
X140077153Y-86372082D01*
X140291203Y-86158032D01*
X140352524Y-86124549D01*
X140367652Y-86122225D01*
X140402196Y-86119086D01*
X140564606Y-86068478D01*
X140710185Y-85980472D01*
X140830472Y-85860185D01*
X140918478Y-85714606D01*
X140969086Y-85552196D01*
X140975500Y-85481616D01*
X140975500Y-84968384D01*
X140969086Y-84897804D01*
X140918478Y-84735394D01*
X140830472Y-84589815D01*
X140830470Y-84589813D01*
X140830469Y-84589811D01*
X140727984Y-84487326D01*
X140694499Y-84426003D01*
X140699483Y-84356311D01*
X140727985Y-84311963D01*
X140830071Y-84209878D01*
X140830072Y-84209877D01*
X140918019Y-84064395D01*
X140968590Y-83902106D01*
X140975000Y-83831572D01*
X140975000Y-83825000D01*
X139025001Y-83825000D01*
X139011931Y-83838069D01*
X139005316Y-83860600D01*
X138952512Y-83906355D01*
X138883354Y-83916299D01*
X138819798Y-83887274D01*
X138813320Y-83881242D01*
X138702262Y-83770184D01*
X138549523Y-83674211D01*
X138379254Y-83614631D01*
X138379249Y-83614630D01*
X138200004Y-83594435D01*
X138199996Y-83594435D01*
X138020750Y-83614630D01*
X138020739Y-83614633D01*
X137974953Y-83630654D01*
X137905175Y-83634215D01*
X137844548Y-83599486D01*
X137812321Y-83537492D01*
X137810000Y-83513612D01*
X137810000Y-83434365D01*
X137809999Y-83434350D01*
X137807100Y-83397510D01*
X137807099Y-83397504D01*
X137784125Y-83318427D01*
X139025000Y-83318427D01*
X139025000Y-83325000D01*
X139750000Y-83325000D01*
X140250000Y-83325000D01*
X140974999Y-83325000D01*
X140974999Y-83318417D01*
X140968591Y-83247897D01*
X140968590Y-83247892D01*
X140918018Y-83085603D01*
X140830072Y-82940122D01*
X140709877Y-82819927D01*
X140564395Y-82731980D01*
X140564396Y-82731980D01*
X140402105Y-82681409D01*
X140402106Y-82681409D01*
X140331572Y-82675000D01*
X140250000Y-82675000D01*
X140250000Y-83325000D01*
X139750000Y-83325000D01*
X139750000Y-82675000D01*
X139749999Y-82674999D01*
X139668417Y-82675000D01*
X139597897Y-82681408D01*
X139597892Y-82681409D01*
X139435603Y-82731981D01*
X139290122Y-82819927D01*
X139169927Y-82940122D01*
X139081980Y-83085604D01*
X139031409Y-83247893D01*
X139025000Y-83318427D01*
X137784125Y-83318427D01*
X137761283Y-83239806D01*
X137761282Y-83239803D01*
X137677685Y-83098447D01*
X137677678Y-83098438D01*
X137561561Y-82982321D01*
X137561552Y-82982314D01*
X137420196Y-82898717D01*
X137420193Y-82898716D01*
X137262495Y-82852900D01*
X137262489Y-82852899D01*
X137225649Y-82850000D01*
X137210000Y-82850000D01*
X137210000Y-83776000D01*
X137190315Y-83843039D01*
X137137511Y-83888794D01*
X137086000Y-83900000D01*
X136168362Y-83900000D01*
X136101323Y-83880315D01*
X136080681Y-83863681D01*
X136067000Y-83850000D01*
X134185001Y-83850000D01*
X134185001Y-83856582D01*
X134191408Y-83927102D01*
X134191409Y-83927107D01*
X134241981Y-84089396D01*
X134329927Y-84234877D01*
X134432015Y-84336965D01*
X134465500Y-84398288D01*
X134460516Y-84467980D01*
X134432015Y-84512327D01*
X134329531Y-84614810D01*
X134329530Y-84614811D01*
X134289968Y-84680254D01*
X134238439Y-84727440D01*
X134169580Y-84739278D01*
X134105252Y-84712008D01*
X134065878Y-84654289D01*
X134060537Y-84625455D01*
X134060356Y-84625475D01*
X134060099Y-84623088D01*
X134060028Y-84622703D01*
X134059998Y-84622150D01*
X134053598Y-84562627D01*
X134053596Y-84562620D01*
X134003354Y-84427913D01*
X134003350Y-84427906D01*
X133917191Y-84312814D01*
X133917185Y-84312807D01*
X133894597Y-84295898D01*
X133852727Y-84239964D01*
X133847743Y-84170272D01*
X133854349Y-84149178D01*
X133863491Y-84127107D01*
X133863493Y-84127100D01*
X133868884Y-84100000D01*
X133116988Y-84100000D01*
X133134205Y-84090060D01*
X133190060Y-84034205D01*
X133229556Y-83965796D01*
X133250000Y-83889496D01*
X133250000Y-83810504D01*
X133229556Y-83734204D01*
X133190060Y-83665795D01*
X133134205Y-83609940D01*
X133116988Y-83600000D01*
X133868884Y-83600000D01*
X133868884Y-83599999D01*
X133863493Y-83572899D01*
X133863492Y-83572896D01*
X133791880Y-83400008D01*
X133791875Y-83399999D01*
X133754075Y-83343427D01*
X134185000Y-83343427D01*
X134185000Y-83350000D01*
X134910000Y-83350000D01*
X135410000Y-83350000D01*
X136076638Y-83350000D01*
X136143677Y-83369685D01*
X136164319Y-83386319D01*
X136178000Y-83400000D01*
X136710000Y-83400000D01*
X136710000Y-82850000D01*
X136694350Y-82850000D01*
X136657510Y-82852899D01*
X136657504Y-82852900D01*
X136499806Y-82898716D01*
X136499803Y-82898717D01*
X136358447Y-82982314D01*
X136358442Y-82982318D01*
X136247255Y-83093505D01*
X136185932Y-83126989D01*
X136116240Y-83122005D01*
X136060307Y-83080133D01*
X136053457Y-83069973D01*
X135990072Y-82965122D01*
X135869877Y-82844927D01*
X135724395Y-82756980D01*
X135724396Y-82756980D01*
X135562105Y-82706409D01*
X135562106Y-82706409D01*
X135491572Y-82700000D01*
X135410000Y-82700000D01*
X135410000Y-83350000D01*
X134910000Y-83350000D01*
X134910000Y-82700000D01*
X134909999Y-82699999D01*
X134828417Y-82700000D01*
X134757897Y-82706408D01*
X134757892Y-82706409D01*
X134595603Y-82756981D01*
X134450122Y-82844927D01*
X134329927Y-82965122D01*
X134241980Y-83110604D01*
X134191409Y-83272893D01*
X134185000Y-83343427D01*
X133754075Y-83343427D01*
X133687913Y-83244410D01*
X133687910Y-83244406D01*
X133555593Y-83112089D01*
X133555589Y-83112086D01*
X133400000Y-83008124D01*
X133399991Y-83008119D01*
X133227105Y-82936508D01*
X133227097Y-82936506D01*
X133043570Y-82900000D01*
X132650000Y-82900000D01*
X132650000Y-83550000D01*
X132150000Y-83550000D01*
X132150000Y-82900000D01*
X131756430Y-82900000D01*
X131572902Y-82936506D01*
X131572894Y-82936508D01*
X131400008Y-83008119D01*
X131399999Y-83008124D01*
X131244410Y-83112086D01*
X131244406Y-83112089D01*
X131112089Y-83244406D01*
X131112086Y-83244410D01*
X131008124Y-83399999D01*
X131008119Y-83400008D01*
X130936507Y-83572896D01*
X130936506Y-83572899D01*
X130931115Y-83599999D01*
X130931116Y-83600000D01*
X131683012Y-83600000D01*
X131665795Y-83609940D01*
X131609940Y-83665795D01*
X131570444Y-83734204D01*
X131550000Y-83810504D01*
X131550000Y-83889496D01*
X131570444Y-83965796D01*
X131609940Y-84034205D01*
X131665795Y-84090060D01*
X131683012Y-84100000D01*
X130931116Y-84100000D01*
X130936506Y-84127100D01*
X130936507Y-84127103D01*
X131008119Y-84299991D01*
X131008124Y-84300000D01*
X131112086Y-84455589D01*
X131112089Y-84455593D01*
X131244406Y-84587910D01*
X131244410Y-84587913D01*
X131399999Y-84691875D01*
X131400008Y-84691880D01*
X131461609Y-84717396D01*
X131516012Y-84761237D01*
X131538077Y-84827531D01*
X131520798Y-84895230D01*
X131501839Y-84919637D01*
X131479488Y-84941988D01*
X131407017Y-85067511D01*
X131407016Y-85067515D01*
X131369500Y-85207525D01*
X131369500Y-85352475D01*
X131404103Y-85481613D01*
X131407017Y-85492488D01*
X131477032Y-85613756D01*
X131493505Y-85681656D01*
X131470653Y-85747683D01*
X131457326Y-85763437D01*
X130631286Y-86589478D01*
X130519481Y-86701282D01*
X130519479Y-86701284D01*
X130510798Y-86716321D01*
X130480096Y-86769500D01*
X130440423Y-86838215D01*
X130399499Y-86990943D01*
X130399499Y-86990945D01*
X130399499Y-87159046D01*
X130399500Y-87159059D01*
X130399500Y-89113330D01*
X130399499Y-89113348D01*
X130399499Y-89279054D01*
X130399498Y-89279054D01*
X130440424Y-89431789D01*
X130440425Y-89431790D01*
X130461455Y-89468214D01*
X130461456Y-89468216D01*
X130519475Y-89568709D01*
X130519481Y-89568717D01*
X130638349Y-89687585D01*
X130638355Y-89687590D01*
X131488439Y-90537674D01*
X131521924Y-90598997D01*
X131516940Y-90668689D01*
X131488442Y-90713033D01*
X131479494Y-90721981D01*
X131479492Y-90721983D01*
X131479491Y-90721985D01*
X131407016Y-90847515D01*
X131369500Y-90987525D01*
X131369500Y-91132475D01*
X131395107Y-91228040D01*
X131407017Y-91272488D01*
X131479488Y-91398011D01*
X131479493Y-91398017D01*
X131501837Y-91420361D01*
X131535322Y-91481684D01*
X131530338Y-91551376D01*
X131488466Y-91607309D01*
X131461610Y-91622602D01*
X131400014Y-91648116D01*
X131399999Y-91648124D01*
X131244410Y-91752086D01*
X131244406Y-91752089D01*
X131112089Y-91884406D01*
X131112086Y-91884410D01*
X131008124Y-92039999D01*
X131008119Y-92040008D01*
X130936507Y-92212896D01*
X130936506Y-92212899D01*
X130931115Y-92239999D01*
X130931116Y-92240000D01*
X131683012Y-92240000D01*
X131665795Y-92249940D01*
X131609940Y-92305795D01*
X131570444Y-92374204D01*
X131550000Y-92450504D01*
X131550000Y-92529496D01*
X131570444Y-92605796D01*
X131609940Y-92674205D01*
X131665795Y-92730060D01*
X131683012Y-92740000D01*
X130931116Y-92740000D01*
X130936506Y-92767100D01*
X130936507Y-92767103D01*
X131008119Y-92939991D01*
X131008124Y-92940000D01*
X131112086Y-93095589D01*
X131112089Y-93095593D01*
X131244406Y-93227910D01*
X131244410Y-93227913D01*
X131399999Y-93331875D01*
X131400008Y-93331880D01*
X131572894Y-93403491D01*
X131572902Y-93403493D01*
X131756428Y-93439999D01*
X131756431Y-93440000D01*
X132150000Y-93440000D01*
X132150000Y-92790000D01*
X132650000Y-92790000D01*
X132650000Y-93440000D01*
X133043569Y-93440000D01*
X133043571Y-93439999D01*
X133227097Y-93403493D01*
X133227105Y-93403491D01*
X133399991Y-93331880D01*
X133400000Y-93331875D01*
X133555589Y-93227913D01*
X133555593Y-93227910D01*
X133687910Y-93095593D01*
X133687913Y-93095589D01*
X133791875Y-92940000D01*
X133791880Y-92939991D01*
X133863492Y-92767103D01*
X133863493Y-92767100D01*
X133868884Y-92740000D01*
X133116988Y-92740000D01*
X133134205Y-92730060D01*
X133190060Y-92674205D01*
X133229556Y-92605796D01*
X133250000Y-92529496D01*
X133250000Y-92450504D01*
X133229556Y-92374204D01*
X133190060Y-92305795D01*
X133134205Y-92249940D01*
X133116988Y-92240000D01*
X133868884Y-92240000D01*
X133868884Y-92239999D01*
X133863493Y-92212899D01*
X133863492Y-92212897D01*
X133854347Y-92190817D01*
X133846879Y-92121348D01*
X133878155Y-92058869D01*
X133894600Y-92044098D01*
X133917188Y-92027188D01*
X133917190Y-92027186D01*
X134003352Y-91912088D01*
X134003354Y-91912086D01*
X134053596Y-91777380D01*
X134060346Y-91714603D01*
X134087085Y-91650052D01*
X134144477Y-91610204D01*
X134214302Y-91607710D01*
X134274391Y-91643362D01*
X134289174Y-91662760D01*
X134372426Y-91797731D01*
X134492267Y-91917572D01*
X134492271Y-91917575D01*
X134636507Y-92006542D01*
X134636518Y-92006547D01*
X134797393Y-92059855D01*
X134896683Y-92069999D01*
X134944999Y-92069998D01*
X134945000Y-92069998D01*
X134945000Y-90994000D01*
X134964685Y-90926961D01*
X135017489Y-90881206D01*
X135069000Y-90870000D01*
X135321000Y-90870000D01*
X135388039Y-90889685D01*
X135433794Y-90942489D01*
X135445000Y-90994000D01*
X135445000Y-92069999D01*
X135493308Y-92069999D01*
X135493322Y-92069998D01*
X135592607Y-92059855D01*
X135753481Y-92006547D01*
X135753492Y-92006542D01*
X135897728Y-91917575D01*
X135897732Y-91917572D01*
X136017572Y-91797732D01*
X136017575Y-91797728D01*
X136106542Y-91653492D01*
X136109597Y-91646941D01*
X136113067Y-91648559D01*
X136141335Y-91605136D01*
X136205059Y-91576484D01*
X136274158Y-91586832D01*
X136285111Y-91592593D01*
X136299803Y-91601282D01*
X136299806Y-91601283D01*
X136327646Y-91609372D01*
X136386532Y-91646978D01*
X136415738Y-91710450D01*
X136410093Y-91769403D01*
X136374631Y-91870745D01*
X136374630Y-91870750D01*
X136354435Y-92049996D01*
X136354435Y-92050000D01*
X136374630Y-92229249D01*
X136374631Y-92229254D01*
X136434211Y-92399523D01*
X136489990Y-92488294D01*
X136530184Y-92552262D01*
X136657738Y-92679816D01*
X136727226Y-92723478D01*
X136810478Y-92775789D01*
X136903840Y-92808458D01*
X136960617Y-92849180D01*
X136986364Y-92914133D01*
X136972908Y-92982694D01*
X136924521Y-93033097D01*
X136862886Y-93049500D01*
X134829057Y-93049500D01*
X134670942Y-93049500D01*
X134518215Y-93090423D01*
X134518214Y-93090423D01*
X134518212Y-93090424D01*
X134518209Y-93090425D01*
X134468096Y-93119359D01*
X134468095Y-93119360D01*
X134424689Y-93144420D01*
X134381285Y-93169479D01*
X134381282Y-93169481D01*
X133326981Y-94223782D01*
X133326979Y-94223785D01*
X133315474Y-94243713D01*
X133286190Y-94294435D01*
X133247923Y-94360715D01*
X133206999Y-94513443D01*
X133206999Y-94513445D01*
X133206999Y-94681546D01*
X133207000Y-94681559D01*
X133207000Y-95481449D01*
X133187315Y-95548488D01*
X133134511Y-95594243D01*
X133065353Y-95604187D01*
X133044682Y-95599380D01*
X132841128Y-95533242D01*
X132650000Y-95502969D01*
X132650000Y-96445854D01*
X132583343Y-96407370D01*
X132462535Y-96375000D01*
X132337465Y-96375000D01*
X132216657Y-96407370D01*
X132150000Y-96445854D01*
X132150000Y-95502969D01*
X131958872Y-95533242D01*
X131958869Y-95533242D01*
X131756782Y-95598904D01*
X131567442Y-95695379D01*
X131395540Y-95820272D01*
X131395535Y-95820276D01*
X131245276Y-95970535D01*
X131245272Y-95970540D01*
X131120379Y-96142442D01*
X131023904Y-96331782D01*
X130958242Y-96533870D01*
X130958242Y-96533873D01*
X130947769Y-96600000D01*
X131995854Y-96600000D01*
X131957370Y-96666657D01*
X131925000Y-96787465D01*
X131925000Y-96912535D01*
X131957370Y-97033343D01*
X131995854Y-97100000D01*
X130947769Y-97100000D01*
X130958242Y-97166126D01*
X130958242Y-97166129D01*
X131023904Y-97368217D01*
X131120379Y-97557557D01*
X131245272Y-97729459D01*
X131245276Y-97729464D01*
X131395535Y-97879723D01*
X131395540Y-97879727D01*
X131560644Y-97999682D01*
X131603310Y-98055012D01*
X131609289Y-98124625D01*
X131576684Y-98186420D01*
X131560644Y-98200318D01*
X131395540Y-98320272D01*
X131395535Y-98320276D01*
X131245276Y-98470535D01*
X131245272Y-98470540D01*
X131120379Y-98642442D01*
X131023904Y-98831782D01*
X130958242Y-99033870D01*
X130958242Y-99033873D01*
X130947769Y-99100000D01*
X131995854Y-99100000D01*
X131957370Y-99166657D01*
X131925000Y-99287465D01*
X131925000Y-99412535D01*
X131957370Y-99533343D01*
X131995854Y-99600000D01*
X130947769Y-99600000D01*
X130958242Y-99666126D01*
X130958242Y-99666129D01*
X131023904Y-99868217D01*
X131120379Y-100057557D01*
X131245272Y-100229459D01*
X131245276Y-100229464D01*
X131395535Y-100379723D01*
X131395540Y-100379727D01*
X131560218Y-100499372D01*
X131602884Y-100554701D01*
X131608863Y-100624315D01*
X131576258Y-100686110D01*
X131560218Y-100700008D01*
X131395214Y-100819890D01*
X131395209Y-100819894D01*
X131244890Y-100970213D01*
X131119951Y-101142179D01*
X131023444Y-101331585D01*
X130957753Y-101533760D01*
X130924500Y-101743713D01*
X130924500Y-101956286D01*
X130955260Y-102150500D01*
X130957754Y-102166243D01*
X131023152Y-102367517D01*
X131023444Y-102368414D01*
X131119951Y-102557820D01*
X131244890Y-102729786D01*
X131383705Y-102868601D01*
X131417190Y-102929924D01*
X131412206Y-102999616D01*
X131370334Y-103055549D01*
X131361121Y-103061821D01*
X131206342Y-103157289D01*
X131082289Y-103281342D01*
X130990187Y-103430663D01*
X130990185Y-103430668D01*
X130984079Y-103449096D01*
X130935001Y-103597203D01*
X130935001Y-103597204D01*
X130935000Y-103597204D01*
X130924500Y-103699983D01*
X130924500Y-105000001D01*
X130924501Y-105000018D01*
X130935000Y-105102796D01*
X130935001Y-105102799D01*
X130951789Y-105153460D01*
X130985596Y-105255483D01*
X130988838Y-105265265D01*
X130991240Y-105335093D01*
X130958813Y-105391950D01*
X128431286Y-107919478D01*
X128319481Y-108031282D01*
X128319477Y-108031287D01*
X128296099Y-108071782D01*
X128296098Y-108071784D01*
X128240423Y-108168215D01*
X128199499Y-108320943D01*
X128199499Y-108320945D01*
X128199499Y-108489046D01*
X128199500Y-108489059D01*
X128199500Y-108985500D01*
X128179815Y-109052539D01*
X128127011Y-109098294D01*
X128075501Y-109109500D01*
X127902130Y-109109500D01*
X127902123Y-109109501D01*
X127842516Y-109115908D01*
X127707671Y-109166202D01*
X127707664Y-109166206D01*
X127592455Y-109252452D01*
X127592452Y-109252455D01*
X127506206Y-109367664D01*
X127506202Y-109367671D01*
X127455908Y-109502517D01*
X127449501Y-109562116D01*
X127449500Y-109562135D01*
X127449500Y-111357870D01*
X127449501Y-111357876D01*
X127455908Y-111417483D01*
X127506202Y-111552328D01*
X127506203Y-111552330D01*
X127555641Y-111618370D01*
X127580058Y-111683834D01*
X127565207Y-111752107D01*
X127544055Y-111780362D01*
X127231286Y-112093132D01*
X127119481Y-112204936D01*
X127119479Y-112204938D01*
X127102162Y-112234934D01*
X127079025Y-112275009D01*
X127040423Y-112341869D01*
X126999499Y-112494597D01*
X126999499Y-112494599D01*
X126999499Y-112662700D01*
X126999500Y-112662713D01*
X126999500Y-114253330D01*
X126999499Y-114253348D01*
X126999499Y-114419054D01*
X126999498Y-114419054D01*
X126999499Y-114419057D01*
X127040423Y-114571785D01*
X127056425Y-114599501D01*
X127119477Y-114708712D01*
X127119481Y-114708717D01*
X127238349Y-114827585D01*
X127238355Y-114827590D01*
X127467233Y-115056468D01*
X127500718Y-115117791D01*
X127499327Y-115176241D01*
X127464939Y-115304583D01*
X127464936Y-115304596D01*
X127444341Y-115539999D01*
X127444341Y-115540000D01*
X127464936Y-115775403D01*
X127464938Y-115775413D01*
X127526094Y-116003655D01*
X127526096Y-116003659D01*
X127526097Y-116003663D01*
X127621140Y-116207483D01*
X127625965Y-116217830D01*
X127625967Y-116217834D01*
X127761501Y-116411395D01*
X127761506Y-116411402D01*
X127789580Y-116439476D01*
X127823065Y-116500799D01*
X127818081Y-116570491D01*
X127789580Y-116614838D01*
X125584681Y-118819737D01*
X125523358Y-118853222D01*
X125453666Y-118848238D01*
X125397733Y-118806366D01*
X125373316Y-118740902D01*
X125373000Y-118732056D01*
X125373000Y-92239999D01*
X126911115Y-92239999D01*
X126911116Y-92240000D01*
X127663012Y-92240000D01*
X127645795Y-92249940D01*
X127589940Y-92305795D01*
X127550444Y-92374204D01*
X127530000Y-92450504D01*
X127530000Y-92529496D01*
X127550444Y-92605796D01*
X127589940Y-92674205D01*
X127645795Y-92730060D01*
X127663012Y-92740000D01*
X126911116Y-92740000D01*
X126916506Y-92767100D01*
X126916507Y-92767103D01*
X126988119Y-92939991D01*
X126988124Y-92940000D01*
X127092086Y-93095589D01*
X127092089Y-93095593D01*
X127224406Y-93227910D01*
X127224410Y-93227913D01*
X127379999Y-93331875D01*
X127380008Y-93331880D01*
X127552894Y-93403491D01*
X127552902Y-93403493D01*
X127736428Y-93439999D01*
X127736431Y-93440000D01*
X127980000Y-93440000D01*
X127980000Y-92790000D01*
X128480000Y-92790000D01*
X128480000Y-93440000D01*
X128723569Y-93440000D01*
X128723571Y-93439999D01*
X128907097Y-93403493D01*
X128907105Y-93403491D01*
X129079991Y-93331880D01*
X129080000Y-93331875D01*
X129235589Y-93227913D01*
X129235593Y-93227910D01*
X129367910Y-93095593D01*
X129367913Y-93095589D01*
X129471875Y-92940000D01*
X129471880Y-92939991D01*
X129543492Y-92767103D01*
X129543493Y-92767100D01*
X129548884Y-92740000D01*
X128796988Y-92740000D01*
X128814205Y-92730060D01*
X128870060Y-92674205D01*
X128909556Y-92605796D01*
X128930000Y-92529496D01*
X128930000Y-92450504D01*
X128909556Y-92374204D01*
X128870060Y-92305795D01*
X128814205Y-92249940D01*
X128796988Y-92240000D01*
X129548884Y-92240000D01*
X129548884Y-92239999D01*
X129543493Y-92212899D01*
X129543492Y-92212896D01*
X129471880Y-92040008D01*
X129471875Y-92039999D01*
X129367913Y-91884410D01*
X129367910Y-91884406D01*
X129235593Y-91752089D01*
X129235589Y-91752086D01*
X129080000Y-91648124D01*
X129079991Y-91648119D01*
X128907105Y-91576508D01*
X128907097Y-91576506D01*
X128723570Y-91540000D01*
X128480000Y-91540000D01*
X128480000Y-92190000D01*
X127980000Y-92190000D01*
X127980000Y-91540000D01*
X127736430Y-91540000D01*
X127552902Y-91576506D01*
X127552894Y-91576508D01*
X127380008Y-91648119D01*
X127379999Y-91648124D01*
X127224410Y-91752086D01*
X127224406Y-91752089D01*
X127092089Y-91884406D01*
X127092086Y-91884410D01*
X126988124Y-92039999D01*
X126988119Y-92040008D01*
X126916507Y-92212896D01*
X126916506Y-92212899D01*
X126911115Y-92239999D01*
X125373000Y-92239999D01*
X125373000Y-83599999D01*
X126911115Y-83599999D01*
X126911116Y-83600000D01*
X127663012Y-83600000D01*
X127645795Y-83609940D01*
X127589940Y-83665795D01*
X127550444Y-83734204D01*
X127530000Y-83810504D01*
X127530000Y-83889496D01*
X127550444Y-83965796D01*
X127589940Y-84034205D01*
X127645795Y-84090060D01*
X127663012Y-84100000D01*
X126911116Y-84100000D01*
X126916506Y-84127100D01*
X126916507Y-84127103D01*
X126988119Y-84299991D01*
X126988124Y-84300000D01*
X127092086Y-84455589D01*
X127092089Y-84455593D01*
X127224406Y-84587910D01*
X127224410Y-84587913D01*
X127379999Y-84691875D01*
X127380008Y-84691880D01*
X127552894Y-84763491D01*
X127552902Y-84763493D01*
X127736428Y-84799999D01*
X127736431Y-84800000D01*
X127980000Y-84800000D01*
X127980000Y-84150000D01*
X128480000Y-84150000D01*
X128480000Y-84800000D01*
X128723569Y-84800000D01*
X128723571Y-84799999D01*
X128907097Y-84763493D01*
X128907105Y-84763491D01*
X129079991Y-84691880D01*
X129080000Y-84691875D01*
X129235589Y-84587913D01*
X129235593Y-84587910D01*
X129367910Y-84455593D01*
X129367913Y-84455589D01*
X129471875Y-84300000D01*
X129471880Y-84299991D01*
X129543492Y-84127103D01*
X129543493Y-84127100D01*
X129548884Y-84100000D01*
X128796988Y-84100000D01*
X128814205Y-84090060D01*
X128870060Y-84034205D01*
X128909556Y-83965796D01*
X128930000Y-83889496D01*
X128930000Y-83810504D01*
X128909556Y-83734204D01*
X128870060Y-83665795D01*
X128814205Y-83609940D01*
X128796988Y-83600000D01*
X129548884Y-83600000D01*
X129548884Y-83599999D01*
X129543493Y-83572899D01*
X129543492Y-83572896D01*
X129471880Y-83400008D01*
X129471875Y-83399999D01*
X129367913Y-83244410D01*
X129367910Y-83244406D01*
X129235593Y-83112089D01*
X129235589Y-83112086D01*
X129080000Y-83008124D01*
X129079991Y-83008119D01*
X128907105Y-82936508D01*
X128907097Y-82936506D01*
X128723570Y-82900000D01*
X128480000Y-82900000D01*
X128480000Y-83550000D01*
X127980000Y-83550000D01*
X127980000Y-82900000D01*
X127736430Y-82900000D01*
X127552902Y-82936506D01*
X127552894Y-82936508D01*
X127380008Y-83008119D01*
X127379999Y-83008124D01*
X127224410Y-83112086D01*
X127224406Y-83112089D01*
X127092089Y-83244406D01*
X127092086Y-83244410D01*
X126988124Y-83399999D01*
X126988119Y-83400008D01*
X126916507Y-83572896D01*
X126916506Y-83572899D01*
X126911115Y-83599999D01*
X125373000Y-83599999D01*
X125373000Y-69513724D01*
X125392685Y-69446685D01*
X125445489Y-69400930D01*
X125514647Y-69390986D01*
X125578203Y-69420011D01*
X125606555Y-69455641D01*
X125725316Y-69679647D01*
X125725318Y-69679651D01*
X125929170Y-69980309D01*
X125929177Y-69980319D01*
X126060969Y-70135475D01*
X126060970Y-70135475D01*
X127305748Y-68890698D01*
X127379588Y-68992330D01*
X127557670Y-69170412D01*
X127659300Y-69244251D01*
X126411888Y-70491662D01*
X126411888Y-70491664D01*
X126428070Y-70506992D01*
X126428071Y-70506993D01*
X126717266Y-70726832D01*
X126717282Y-70726843D01*
X127028522Y-70914109D01*
X127028535Y-70914116D01*
X127358205Y-71066639D01*
X127358210Y-71066640D01*
X127702461Y-71182632D01*
X128057235Y-71260724D01*
X128418366Y-71299999D01*
X128418374Y-71300000D01*
X128781626Y-71300000D01*
X128781633Y-71299999D01*
X129142764Y-71260724D01*
X129497538Y-71182632D01*
X129841789Y-71066640D01*
X129841794Y-71066639D01*
X130171464Y-70914116D01*
X130171477Y-70914109D01*
X130482717Y-70726843D01*
X130482733Y-70726832D01*
X130771929Y-70506992D01*
X130788110Y-70491664D01*
X130788110Y-70491663D01*
X129540698Y-69244251D01*
X129642330Y-69170412D01*
X129820412Y-68992330D01*
X129894251Y-68890698D01*
X131139028Y-70135475D01*
X131139029Y-70135475D01*
X131270827Y-69980311D01*
X131270838Y-69980297D01*
X131474681Y-69679651D01*
X131474683Y-69679647D01*
X131644838Y-69358702D01*
X131644847Y-69358684D01*
X131779302Y-69021227D01*
X131779304Y-69021220D01*
X131876480Y-68671222D01*
X131876482Y-68671214D01*
X131935253Y-68312728D01*
X131954920Y-67950002D01*
X131954920Y-67949997D01*
X131935253Y-67587271D01*
X131876482Y-67228785D01*
X131876480Y-67228777D01*
X131779304Y-66878779D01*
X131779302Y-66878772D01*
X131644847Y-66541315D01*
X131644838Y-66541297D01*
X131474683Y-66220352D01*
X131474681Y-66220348D01*
X131270829Y-65919690D01*
X131270822Y-65919680D01*
X131139029Y-65764523D01*
X131139028Y-65764523D01*
X129894251Y-67009300D01*
X129820412Y-66907670D01*
X129642330Y-66729588D01*
X129540698Y-66655748D01*
X130788110Y-65408336D01*
X130788110Y-65408334D01*
X130771929Y-65393007D01*
X130771928Y-65393006D01*
X130482733Y-65173167D01*
X130482717Y-65173156D01*
X130171477Y-64985890D01*
X130171464Y-64985883D01*
X129841794Y-64833360D01*
X129841789Y-64833359D01*
X129497538Y-64717367D01*
X129142764Y-64639275D01*
X128781633Y-64600000D01*
X128418366Y-64600000D01*
X128057235Y-64639275D01*
X127702461Y-64717367D01*
X127358210Y-64833359D01*
X127358205Y-64833360D01*
X127028535Y-64985883D01*
X127028522Y-64985890D01*
X126717282Y-65173156D01*
X126717266Y-65173167D01*
X126428075Y-65393002D01*
X126411888Y-65408335D01*
X126411887Y-65408335D01*
X127659301Y-66655748D01*
X127557670Y-66729588D01*
X127379588Y-66907670D01*
X127305748Y-67009300D01*
X126060970Y-65764522D01*
X126060969Y-65764523D01*
X125929177Y-65919680D01*
X125929170Y-65919690D01*
X125725318Y-66220348D01*
X125725315Y-66220352D01*
X125606555Y-66444358D01*
X125557762Y-66494368D01*
X125489677Y-66510059D01*
X125423917Y-66486449D01*
X125381360Y-66431035D01*
X125373000Y-66386275D01*
X125373000Y-57224500D01*
X125392685Y-57157461D01*
X125445489Y-57111706D01*
X125497000Y-57100500D01*
X131891000Y-57100500D01*
X131958039Y-57120185D01*
G37*
%TD.AperFunction*%
%TA.AperFunction,Conductor*%
G36*
X173946334Y-112193062D02*
G01*
X174002267Y-112234934D01*
X174026684Y-112300398D01*
X174027000Y-112309244D01*
X174027000Y-114798922D01*
X174007315Y-114865961D01*
X173954511Y-114911716D01*
X173885353Y-114921660D01*
X173821797Y-114892635D01*
X173799254Y-114864662D01*
X173799112Y-114864769D01*
X173796127Y-114860782D01*
X173794169Y-114858352D01*
X173793793Y-114857664D01*
X173707547Y-114742455D01*
X173707544Y-114742452D01*
X173592335Y-114656206D01*
X173592328Y-114656202D01*
X173457482Y-114605908D01*
X173457483Y-114605908D01*
X173397883Y-114599501D01*
X173397881Y-114599500D01*
X173397873Y-114599500D01*
X173397864Y-114599500D01*
X171802129Y-114599500D01*
X171802120Y-114599501D01*
X171737752Y-114606420D01*
X171668992Y-114594012D01*
X171617856Y-114546400D01*
X171600500Y-114483130D01*
X171600500Y-113483062D01*
X171620185Y-113416023D01*
X171672989Y-113370268D01*
X171742147Y-113360324D01*
X171765448Y-113366018D01*
X171820745Y-113385368D01*
X171820748Y-113385368D01*
X171820750Y-113385369D01*
X171999996Y-113405565D01*
X172000000Y-113405565D01*
X172000004Y-113405565D01*
X172179249Y-113385369D01*
X172179252Y-113385368D01*
X172179255Y-113385368D01*
X172349522Y-113325789D01*
X172502262Y-113229816D01*
X172502266Y-113229811D01*
X172505097Y-113227555D01*
X172507275Y-113226665D01*
X172508158Y-113226111D01*
X172508255Y-113226265D01*
X172569784Y-113201146D01*
X172582411Y-113200501D01*
X172666702Y-113200501D01*
X172666705Y-113200501D01*
X172819433Y-113159577D01*
X172869552Y-113130639D01*
X172956364Y-113080520D01*
X173068168Y-112968716D01*
X173068168Y-112968714D01*
X173078376Y-112958507D01*
X173078377Y-112958504D01*
X173815320Y-112221562D01*
X173876642Y-112188078D01*
X173946334Y-112193062D01*
G37*
%TD.AperFunction*%
%TA.AperFunction,Conductor*%
G36*
X157593203Y-106408570D02*
G01*
X157599679Y-106414600D01*
X159104556Y-107919478D01*
X160538181Y-109353103D01*
X160571666Y-109414426D01*
X160574500Y-109440784D01*
X160574500Y-111725001D01*
X160574501Y-111725018D01*
X160585000Y-111827796D01*
X160585001Y-111827799D01*
X160640185Y-111994331D01*
X160640187Y-111994336D01*
X160653184Y-112015408D01*
X160732288Y-112143656D01*
X160856344Y-112267712D01*
X161005666Y-112359814D01*
X161172203Y-112414999D01*
X161274991Y-112425500D01*
X161430148Y-112425499D01*
X161497187Y-112445183D01*
X161542942Y-112497987D01*
X161549922Y-112517402D01*
X161552922Y-112528599D01*
X161552923Y-112528600D01*
X161562008Y-112544336D01*
X161564988Y-112549496D01*
X161564989Y-112549501D01*
X161564990Y-112549501D01*
X161631975Y-112665524D01*
X161631981Y-112665532D01*
X161750849Y-112784400D01*
X161750855Y-112784405D01*
X163204269Y-114237819D01*
X163237754Y-114299142D01*
X163232770Y-114368834D01*
X163190898Y-114424767D01*
X163125434Y-114449184D01*
X163116588Y-114449500D01*
X161884400Y-114449500D01*
X161828105Y-114435985D01*
X161775996Y-114409433D01*
X161551368Y-114336446D01*
X161318097Y-114299500D01*
X161318092Y-114299500D01*
X157412670Y-114299500D01*
X157345631Y-114279815D01*
X157299876Y-114227011D01*
X157289932Y-114157853D01*
X157294736Y-114137192D01*
X157351053Y-113963869D01*
X157381046Y-113774499D01*
X157388000Y-113730597D01*
X157388000Y-111929283D01*
X157394294Y-111890279D01*
X157414999Y-111827797D01*
X157425500Y-111725009D01*
X157425499Y-107874992D01*
X157414999Y-107772203D01*
X157414998Y-107772199D01*
X157394294Y-107709718D01*
X157388000Y-107670714D01*
X157388000Y-106502283D01*
X157407685Y-106435244D01*
X157460489Y-106389489D01*
X157529647Y-106379545D01*
X157593203Y-106408570D01*
G37*
%TD.AperFunction*%
%TA.AperFunction,Conductor*%
G36*
X151797865Y-101088348D02*
G01*
X151842381Y-101139724D01*
X151847173Y-101150000D01*
X151869429Y-101197728D01*
X151869432Y-101197734D01*
X151999954Y-101384141D01*
X152160858Y-101545045D01*
X152160861Y-101545047D01*
X152347266Y-101675568D01*
X152478089Y-101736572D01*
X152530528Y-101782743D01*
X152549680Y-101849936D01*
X152529465Y-101916818D01*
X152513366Y-101936633D01*
X152500000Y-101949999D01*
X152500000Y-103051000D01*
X152480315Y-103118039D01*
X152427511Y-103163794D01*
X152376000Y-103175000D01*
X151300001Y-103175000D01*
X151300001Y-103223322D01*
X151310144Y-103322607D01*
X151363452Y-103483481D01*
X151363455Y-103483487D01*
X151380057Y-103510402D01*
X151398498Y-103577794D01*
X151377577Y-103644458D01*
X151323935Y-103689228D01*
X151274519Y-103699500D01*
X150975481Y-103699500D01*
X150908442Y-103679815D01*
X150862687Y-103627011D01*
X150852743Y-103557853D01*
X150869943Y-103510402D01*
X150886544Y-103483487D01*
X150886547Y-103483481D01*
X150939855Y-103322606D01*
X150949999Y-103223322D01*
X150950000Y-103223309D01*
X150950000Y-103175000D01*
X149924500Y-103175000D01*
X149857461Y-103155315D01*
X149811706Y-103102511D01*
X149800500Y-103051000D01*
X149800500Y-102799000D01*
X149820185Y-102731961D01*
X149872989Y-102686206D01*
X149924500Y-102675000D01*
X150949999Y-102675000D01*
X150949999Y-102626692D01*
X150949998Y-102626677D01*
X151300000Y-102626677D01*
X151300000Y-102675000D01*
X152000000Y-102675000D01*
X152000000Y-101949999D01*
X151976693Y-101950000D01*
X151976674Y-101950001D01*
X151877392Y-101960144D01*
X151716518Y-102013452D01*
X151716507Y-102013457D01*
X151572271Y-102102424D01*
X151572267Y-102102427D01*
X151452427Y-102222267D01*
X151452424Y-102222271D01*
X151363457Y-102366507D01*
X151363452Y-102366518D01*
X151310144Y-102527393D01*
X151300000Y-102626677D01*
X150949998Y-102626677D01*
X150939855Y-102527392D01*
X150886547Y-102366518D01*
X150886542Y-102366507D01*
X150797575Y-102222271D01*
X150797572Y-102222267D01*
X150677732Y-102102427D01*
X150677728Y-102102424D01*
X150611437Y-102061535D01*
X150564712Y-102009587D01*
X150553491Y-101940625D01*
X150581334Y-101876543D01*
X150639403Y-101837687D01*
X150665725Y-101832469D01*
X150686692Y-101830635D01*
X150906496Y-101771739D01*
X151112734Y-101675568D01*
X151299139Y-101545047D01*
X151460047Y-101384139D01*
X151590568Y-101197734D01*
X151617618Y-101139724D01*
X151663790Y-101087285D01*
X151730983Y-101068133D01*
X151797865Y-101088348D01*
G37*
%TD.AperFunction*%
%TA.AperFunction,Conductor*%
G36*
X150710000Y-94203872D02*
G01*
X150906317Y-94151269D01*
X150906326Y-94151265D01*
X151112482Y-94055134D01*
X151298820Y-93924657D01*
X151459658Y-93763819D01*
X151477190Y-93738781D01*
X151531766Y-93695155D01*
X151601264Y-93687961D01*
X151663619Y-93719482D01*
X151699034Y-93779712D01*
X151702055Y-93796647D01*
X151705907Y-93832480D01*
X151756202Y-93967328D01*
X151756206Y-93967335D01*
X151842452Y-94082544D01*
X151842455Y-94082547D01*
X151957664Y-94168793D01*
X151957671Y-94168797D01*
X152092517Y-94219091D01*
X152092516Y-94219091D01*
X152099444Y-94219835D01*
X152152127Y-94225500D01*
X153375500Y-94225499D01*
X153442539Y-94245184D01*
X153488294Y-94297987D01*
X153499500Y-94349499D01*
X153499500Y-99144901D01*
X153479815Y-99211940D01*
X153463181Y-99232582D01*
X153442705Y-99253058D01*
X153381382Y-99286543D01*
X153322931Y-99285152D01*
X153226697Y-99259366D01*
X153226693Y-99259365D01*
X153226692Y-99259365D01*
X153226691Y-99259364D01*
X153226686Y-99259364D01*
X153000002Y-99239532D01*
X152999998Y-99239532D01*
X152773313Y-99259364D01*
X152773302Y-99259366D01*
X152553511Y-99318258D01*
X152553502Y-99318261D01*
X152347267Y-99414431D01*
X152347265Y-99414432D01*
X152160858Y-99544954D01*
X151999954Y-99705858D01*
X151869432Y-99892265D01*
X151869431Y-99892267D01*
X151842382Y-99950275D01*
X151796209Y-100002714D01*
X151729016Y-100021866D01*
X151662135Y-100001650D01*
X151617618Y-99950275D01*
X151614915Y-99944478D01*
X151590568Y-99892266D01*
X151473434Y-99724980D01*
X151460045Y-99705858D01*
X151424835Y-99670648D01*
X151391350Y-99609325D01*
X151396334Y-99539633D01*
X151438206Y-99483700D01*
X151471556Y-99465927D01*
X151608918Y-99417863D01*
X151761658Y-99321890D01*
X151889212Y-99194336D01*
X151985185Y-99041596D01*
X152044764Y-98871329D01*
X152045092Y-98868422D01*
X152064961Y-98692077D01*
X152064961Y-98692070D01*
X152044765Y-98512824D01*
X152044764Y-98512819D01*
X152041442Y-98503326D01*
X151985185Y-98342552D01*
X151889212Y-98189812D01*
X151761658Y-98062258D01*
X151608919Y-97966285D01*
X151438650Y-97906705D01*
X151438645Y-97906704D01*
X151259400Y-97886509D01*
X151259392Y-97886509D01*
X151080146Y-97906704D01*
X151080141Y-97906705D01*
X150909872Y-97966285D01*
X150757132Y-98062259D01*
X150754299Y-98064519D01*
X150752120Y-98065408D01*
X150751238Y-98065963D01*
X150751140Y-98065808D01*
X150689613Y-98090929D01*
X150676984Y-98091574D01*
X148667171Y-98091574D01*
X148600132Y-98071889D01*
X148579490Y-98055255D01*
X144908942Y-94384707D01*
X144875457Y-94323384D01*
X144880441Y-94253692D01*
X144922313Y-94197759D01*
X144987777Y-94173342D01*
X145028716Y-94177251D01*
X145063720Y-94186630D01*
X145153308Y-94210635D01*
X145303579Y-94223782D01*
X145379998Y-94230468D01*
X145380000Y-94230468D01*
X145380002Y-94230468D01*
X145445414Y-94224745D01*
X145606692Y-94210635D01*
X145826496Y-94151739D01*
X146032734Y-94055568D01*
X146219139Y-93925047D01*
X146380047Y-93764139D01*
X146510568Y-93577734D01*
X146537618Y-93519724D01*
X146583790Y-93467285D01*
X146650983Y-93448133D01*
X146717865Y-93468348D01*
X146762382Y-93519725D01*
X146789429Y-93577728D01*
X146789432Y-93577734D01*
X146919954Y-93764141D01*
X147080858Y-93925045D01*
X147080861Y-93925047D01*
X147267266Y-94055568D01*
X147473504Y-94151739D01*
X147693308Y-94210635D01*
X147843579Y-94223782D01*
X147919998Y-94230468D01*
X147920000Y-94230468D01*
X147920002Y-94230468D01*
X147985414Y-94224745D01*
X148146692Y-94210635D01*
X148366496Y-94151739D01*
X148572734Y-94055568D01*
X148759139Y-93925047D01*
X148920047Y-93764139D01*
X149050568Y-93577734D01*
X149077895Y-93519129D01*
X149124064Y-93466695D01*
X149191257Y-93447542D01*
X149258139Y-93467757D01*
X149302657Y-93519133D01*
X149329865Y-93577482D01*
X149460342Y-93763820D01*
X149621179Y-93924657D01*
X149807517Y-94055134D01*
X150013673Y-94151265D01*
X150013682Y-94151269D01*
X150209999Y-94203872D01*
X150210000Y-94203871D01*
X150210000Y-93240686D01*
X150214394Y-93245080D01*
X150305606Y-93297741D01*
X150407339Y-93325000D01*
X150512661Y-93325000D01*
X150614394Y-93297741D01*
X150705606Y-93245080D01*
X150710000Y-93240686D01*
X150710000Y-94203872D01*
G37*
%TD.AperFunction*%
%TA.AperFunction,Conductor*%
G36*
X132650000Y-98945854D02*
G01*
X132583343Y-98907370D01*
X132462535Y-98875000D01*
X132337465Y-98875000D01*
X132216657Y-98907370D01*
X132150000Y-98945854D01*
X132150000Y-97254145D01*
X132216657Y-97292630D01*
X132337465Y-97325000D01*
X132462535Y-97325000D01*
X132583343Y-97292630D01*
X132650000Y-97254145D01*
X132650000Y-98945854D01*
G37*
%TD.AperFunction*%
%TA.AperFunction,Conductor*%
G36*
X165165954Y-87875404D02*
G01*
X165211168Y-87928671D01*
X165220407Y-87997928D01*
X165214899Y-88019977D01*
X165214634Y-88020731D01*
X165214630Y-88020750D01*
X165194435Y-88199996D01*
X165194435Y-88200003D01*
X165214630Y-88379249D01*
X165214631Y-88379254D01*
X165274211Y-88549523D01*
X165337660Y-88650500D01*
X165370184Y-88702262D01*
X165497738Y-88829816D01*
X165575560Y-88878715D01*
X165644382Y-88921959D01*
X165650478Y-88925789D01*
X165702333Y-88943933D01*
X165749059Y-88973294D01*
X167638996Y-90863232D01*
X167672481Y-90924555D01*
X167670392Y-90985506D01*
X167652403Y-91047427D01*
X167652401Y-91047436D01*
X167649500Y-91084298D01*
X167649500Y-91515701D01*
X167652401Y-91552567D01*
X167652402Y-91552573D01*
X167698254Y-91710393D01*
X167698256Y-91710398D01*
X167714207Y-91737371D01*
X167731388Y-91805095D01*
X167714208Y-91863608D01*
X167698719Y-91889798D01*
X167698716Y-91889806D01*
X167652900Y-92047505D01*
X167652899Y-92047511D01*
X167652704Y-92049998D01*
X167652705Y-92050000D01*
X168015950Y-92050000D01*
X168050545Y-92054924D01*
X168197426Y-92097597D01*
X168197429Y-92097597D01*
X168197431Y-92097598D01*
X168234306Y-92100500D01*
X169051000Y-92100500D01*
X169118039Y-92120185D01*
X169163794Y-92172989D01*
X169175000Y-92224500D01*
X169175000Y-92375500D01*
X169155315Y-92442539D01*
X169102511Y-92488294D01*
X169051000Y-92499500D01*
X168234298Y-92499500D01*
X168197432Y-92502401D01*
X168197426Y-92502402D01*
X168050545Y-92545076D01*
X168015950Y-92550000D01*
X167652705Y-92550000D01*
X167652704Y-92550001D01*
X167652900Y-92552496D01*
X167653033Y-92553223D01*
X167652989Y-92553633D01*
X167653397Y-92558809D01*
X167652436Y-92558884D01*
X167645713Y-92622708D01*
X167601989Y-92677205D01*
X167535742Y-92699411D01*
X167531051Y-92699500D01*
X167375230Y-92699500D01*
X167308191Y-92679815D01*
X167287549Y-92663181D01*
X167218849Y-92594481D01*
X167218841Y-92594475D01*
X167081922Y-92515426D01*
X167081918Y-92515424D01*
X167081916Y-92515423D01*
X167081914Y-92515422D01*
X167081911Y-92515421D01*
X167033321Y-92502401D01*
X167033321Y-92502402D01*
X166929188Y-92474499D01*
X166929185Y-92474499D01*
X166771073Y-92474500D01*
X164975098Y-92474500D01*
X164908059Y-92454815D01*
X164887417Y-92438181D01*
X164625819Y-92176583D01*
X164592334Y-92115260D01*
X164589500Y-92088902D01*
X164589500Y-88117561D01*
X164609185Y-88050522D01*
X164661989Y-88004767D01*
X164699617Y-87994341D01*
X164779250Y-87985369D01*
X164779253Y-87985368D01*
X164779255Y-87985368D01*
X164949522Y-87925789D01*
X165031884Y-87874037D01*
X165099118Y-87855037D01*
X165165954Y-87875404D01*
G37*
%TD.AperFunction*%
%TA.AperFunction,Conductor*%
G36*
X151525324Y-90945185D02*
G01*
X151564401Y-90985349D01*
X151594528Y-91035185D01*
X151713182Y-91153839D01*
X151746666Y-91215160D01*
X151749500Y-91241519D01*
X151749500Y-91878271D01*
X151741682Y-91921604D01*
X151705908Y-92017517D01*
X151702056Y-92053352D01*
X151675318Y-92117903D01*
X151617926Y-92157752D01*
X151548101Y-92160245D01*
X151488012Y-92124593D01*
X151477192Y-92111221D01*
X151459657Y-92086179D01*
X151298820Y-91925342D01*
X151112482Y-91794865D01*
X150906328Y-91698734D01*
X150710000Y-91646127D01*
X150710000Y-92609314D01*
X150705606Y-92604920D01*
X150614394Y-92552259D01*
X150512661Y-92525000D01*
X150407339Y-92525000D01*
X150305606Y-92552259D01*
X150214394Y-92604920D01*
X150210000Y-92609314D01*
X150210000Y-91626475D01*
X150201434Y-91614745D01*
X150197277Y-91544999D01*
X150231488Y-91484078D01*
X150279116Y-91455089D01*
X150333697Y-91437003D01*
X150478044Y-91347968D01*
X150597968Y-91228044D01*
X150687003Y-91083697D01*
X150711259Y-91010495D01*
X150751032Y-90953051D01*
X150815547Y-90926228D01*
X150828965Y-90925500D01*
X151458285Y-90925500D01*
X151525324Y-90945185D01*
G37*
%TD.AperFunction*%
%TA.AperFunction,Conductor*%
G36*
X149067971Y-91309835D02*
G01*
X149112327Y-91338339D01*
X149121955Y-91347967D01*
X149121959Y-91347970D01*
X149266294Y-91436998D01*
X149266297Y-91436999D01*
X149266303Y-91437003D01*
X149427292Y-91490349D01*
X149526655Y-91500500D01*
X149879462Y-91500499D01*
X149946500Y-91520183D01*
X149992255Y-91572987D01*
X150002199Y-91642146D01*
X149973174Y-91705701D01*
X149931866Y-91736881D01*
X149807517Y-91794865D01*
X149621179Y-91925342D01*
X149460342Y-92086179D01*
X149329867Y-92272515D01*
X149302657Y-92330867D01*
X149256484Y-92383306D01*
X149189290Y-92402457D01*
X149122409Y-92382241D01*
X149077893Y-92330865D01*
X149050570Y-92272271D01*
X149050567Y-92272265D01*
X149027974Y-92239999D01*
X148920047Y-92085861D01*
X148920045Y-92085858D01*
X148759141Y-91924954D01*
X148572734Y-91794432D01*
X148572732Y-91794431D01*
X148519059Y-91769403D01*
X148448241Y-91736379D01*
X148395804Y-91690209D01*
X148376652Y-91623015D01*
X148396868Y-91556134D01*
X148450033Y-91510799D01*
X148500648Y-91499999D01*
X148523307Y-91499999D01*
X148523323Y-91499998D01*
X148622607Y-91489855D01*
X148783481Y-91436547D01*
X148783492Y-91436542D01*
X148927731Y-91347573D01*
X148936959Y-91338345D01*
X148998279Y-91304856D01*
X149067971Y-91309835D01*
G37*
%TD.AperFunction*%
%TA.AperFunction,Conductor*%
G36*
X133173039Y-91390184D02*
G01*
X133218794Y-91442988D01*
X133230000Y-91494499D01*
X133230000Y-91496000D01*
X133210315Y-91563039D01*
X133157511Y-91608794D01*
X133106000Y-91620000D01*
X132437886Y-91620000D01*
X132370847Y-91600315D01*
X132325092Y-91547511D01*
X132315148Y-91478353D01*
X132344173Y-91414797D01*
X132350205Y-91408319D01*
X132351706Y-91406818D01*
X132413029Y-91373333D01*
X132439387Y-91370499D01*
X133106000Y-91370499D01*
X133173039Y-91390184D01*
G37*
%TD.AperFunction*%
%TA.AperFunction,Conductor*%
G36*
X138943834Y-84890758D02*
G01*
X138999767Y-84932630D01*
X139024184Y-84998094D01*
X139024500Y-85006940D01*
X139024500Y-85481616D01*
X139025488Y-85492485D01*
X139030914Y-85552199D01*
X139048443Y-85608453D01*
X139049593Y-85678314D01*
X139017738Y-85733023D01*
X138981463Y-85769298D01*
X138920140Y-85802783D01*
X138907666Y-85804837D01*
X138820750Y-85814630D01*
X138650478Y-85874210D01*
X138497737Y-85970184D01*
X138370184Y-86097737D01*
X138274211Y-86250476D01*
X138214631Y-86420745D01*
X138214630Y-86420750D01*
X138194435Y-86599996D01*
X138194435Y-86600002D01*
X138207011Y-86711616D01*
X138194957Y-86780438D01*
X138147608Y-86831818D01*
X138083791Y-86849500D01*
X136834000Y-86849500D01*
X136766961Y-86829815D01*
X136721206Y-86777011D01*
X136710000Y-86725500D01*
X136710000Y-86524000D01*
X136729685Y-86456961D01*
X136782489Y-86411206D01*
X136834000Y-86400000D01*
X137807295Y-86400000D01*
X137807295Y-86399998D01*
X137807100Y-86397513D01*
X137761281Y-86239801D01*
X137677685Y-86098447D01*
X137677678Y-86098438D01*
X137561561Y-85982321D01*
X137561552Y-85982314D01*
X137518785Y-85957022D01*
X137471101Y-85905953D01*
X137458598Y-85837211D01*
X137485244Y-85772622D01*
X137518783Y-85743559D01*
X137561865Y-85718081D01*
X137606092Y-85673852D01*
X137661679Y-85641758D01*
X137781785Y-85609577D01*
X137853424Y-85568216D01*
X137918716Y-85530520D01*
X138030520Y-85418716D01*
X138030520Y-85418714D01*
X138040724Y-85408511D01*
X138040728Y-85408506D01*
X138218535Y-85230698D01*
X138279856Y-85197215D01*
X138292311Y-85195163D01*
X138379255Y-85185368D01*
X138549522Y-85125789D01*
X138702262Y-85029816D01*
X138812819Y-84919259D01*
X138874142Y-84885774D01*
X138943834Y-84890758D01*
G37*
%TD.AperFunction*%
%TA.AperFunction,Conductor*%
G36*
X133173039Y-84146685D02*
G01*
X133218794Y-84199489D01*
X133230000Y-84251000D01*
X133230000Y-84845500D01*
X133210315Y-84912539D01*
X133157511Y-84958294D01*
X133106000Y-84969500D01*
X132439386Y-84969500D01*
X132372347Y-84949815D01*
X132351705Y-84933181D01*
X132350205Y-84931681D01*
X132316720Y-84870358D01*
X132321704Y-84800666D01*
X132363576Y-84744733D01*
X132429040Y-84720316D01*
X132437886Y-84720000D01*
X132730000Y-84720000D01*
X132730000Y-84251000D01*
X132749685Y-84183961D01*
X132788878Y-84150000D01*
X132989496Y-84150000D01*
X133065796Y-84129556D01*
X133070223Y-84127000D01*
X133106000Y-84127000D01*
X133173039Y-84146685D01*
G37*
%TD.AperFunction*%
%TA.AperFunction,Conductor*%
G36*
X173970039Y-63369685D02*
G01*
X174015794Y-63422489D01*
X174027000Y-63474000D01*
X174027000Y-66244811D01*
X174007315Y-66311850D01*
X173954511Y-66357605D01*
X173885353Y-66367549D01*
X173821797Y-66338524D01*
X173793445Y-66302894D01*
X173749683Y-66220352D01*
X173749681Y-66220348D01*
X173545829Y-65919690D01*
X173545822Y-65919680D01*
X173414029Y-65764523D01*
X173414028Y-65764523D01*
X172169251Y-67009300D01*
X172095412Y-66907670D01*
X171917330Y-66729588D01*
X171815698Y-66655748D01*
X173063110Y-65408336D01*
X173063110Y-65408334D01*
X173046929Y-65393007D01*
X173046928Y-65393006D01*
X172757733Y-65173167D01*
X172757717Y-65173156D01*
X172446477Y-64985890D01*
X172446464Y-64985883D01*
X172116794Y-64833360D01*
X172116789Y-64833359D01*
X171772538Y-64717367D01*
X171417764Y-64639275D01*
X171056633Y-64600000D01*
X170693366Y-64600000D01*
X170332235Y-64639275D01*
X169977461Y-64717367D01*
X169633210Y-64833359D01*
X169633205Y-64833360D01*
X169303535Y-64985883D01*
X169303522Y-64985890D01*
X168992282Y-65173156D01*
X168992266Y-65173167D01*
X168703075Y-65393002D01*
X168686888Y-65408335D01*
X168686887Y-65408335D01*
X169934301Y-66655748D01*
X169832670Y-66729588D01*
X169654588Y-66907670D01*
X169580748Y-67009300D01*
X168335970Y-65764522D01*
X168335969Y-65764523D01*
X168204177Y-65919680D01*
X168204170Y-65919690D01*
X168000318Y-66220348D01*
X168000316Y-66220352D01*
X167830161Y-66541297D01*
X167830152Y-66541315D01*
X167695697Y-66878771D01*
X167672657Y-66961754D01*
X167635754Y-67021083D01*
X167572634Y-67051043D01*
X167503336Y-67042121D01*
X167465496Y-67016260D01*
X167430700Y-66981464D01*
X167397215Y-66920141D01*
X167395163Y-66907684D01*
X167385368Y-66820745D01*
X167325789Y-66650478D01*
X167325174Y-66649500D01*
X167257186Y-66541297D01*
X167229816Y-66497738D01*
X167102262Y-66370184D01*
X167082243Y-66357605D01*
X166949523Y-66274211D01*
X166779254Y-66214631D01*
X166779249Y-66214630D01*
X166600004Y-66194435D01*
X166599996Y-66194435D01*
X166420750Y-66214630D01*
X166420745Y-66214631D01*
X166250474Y-66274212D01*
X166205470Y-66302490D01*
X166138233Y-66321490D01*
X166071398Y-66301122D01*
X166026185Y-66247854D01*
X166015499Y-66197496D01*
X166015499Y-65612129D01*
X166015498Y-65612123D01*
X166015497Y-65612116D01*
X166009091Y-65552517D01*
X165996073Y-65517616D01*
X165991090Y-65447926D01*
X165996075Y-65430949D01*
X166008597Y-65397375D01*
X166008598Y-65397372D01*
X166014999Y-65337844D01*
X166015000Y-65337827D01*
X166015000Y-65090000D01*
X163515000Y-65090000D01*
X163515000Y-65337844D01*
X163521401Y-65397372D01*
X163521403Y-65397379D01*
X163533925Y-65430952D01*
X163538909Y-65500643D01*
X163533925Y-65517617D01*
X163520909Y-65552514D01*
X163520908Y-65552516D01*
X163514501Y-65612116D01*
X163514501Y-65612123D01*
X163514500Y-65612135D01*
X163514500Y-65936372D01*
X163494815Y-66003411D01*
X163478181Y-66024053D01*
X162231286Y-67270949D01*
X162119481Y-67382753D01*
X162119477Y-67382758D01*
X162075427Y-67459057D01*
X162075427Y-67459058D01*
X162040423Y-67519685D01*
X162026781Y-67570595D01*
X161999499Y-67672414D01*
X161999499Y-67672416D01*
X161999499Y-67840517D01*
X161999500Y-67840530D01*
X161999500Y-70099902D01*
X161979815Y-70166941D01*
X161963181Y-70187583D01*
X155981465Y-76169298D01*
X155920142Y-76202783D01*
X155907668Y-76204837D01*
X155820750Y-76214630D01*
X155650478Y-76274210D01*
X155497737Y-76370184D01*
X155370184Y-76497737D01*
X155274211Y-76650476D01*
X155214631Y-76820745D01*
X155214630Y-76820750D01*
X155194435Y-76999996D01*
X155194435Y-77000003D01*
X155214630Y-77179249D01*
X155214631Y-77179254D01*
X155274211Y-77349523D01*
X155335827Y-77447583D01*
X155370184Y-77502262D01*
X155497738Y-77629816D01*
X155650478Y-77725789D01*
X155820745Y-77785368D01*
X155820750Y-77785369D01*
X155999996Y-77805565D01*
X156000000Y-77805565D01*
X156000004Y-77805565D01*
X156179249Y-77785369D01*
X156179252Y-77785368D01*
X156179255Y-77785368D01*
X156349522Y-77725789D01*
X156502262Y-77629816D01*
X156629816Y-77502262D01*
X156725789Y-77349522D01*
X156785368Y-77179255D01*
X156795161Y-77092329D01*
X156822226Y-77027918D01*
X156830690Y-77018543D01*
X163080520Y-70768716D01*
X163159577Y-70631784D01*
X163200501Y-70479057D01*
X163200501Y-70320942D01*
X163200501Y-70313347D01*
X163200500Y-70313329D01*
X163200500Y-68916321D01*
X163220185Y-68849282D01*
X163272989Y-68803527D01*
X163310615Y-68793101D01*
X163376617Y-68785665D01*
X163445439Y-68797720D01*
X163496818Y-68845069D01*
X163514500Y-68908884D01*
X163514500Y-69147869D01*
X163514501Y-69147876D01*
X163520908Y-69207481D01*
X163533659Y-69241669D01*
X163538642Y-69311361D01*
X163533659Y-69328331D01*
X163520908Y-69362518D01*
X163514501Y-69422116D01*
X163514501Y-69422123D01*
X163514500Y-69422135D01*
X163514500Y-70417870D01*
X163514501Y-70417876D01*
X163520908Y-70477481D01*
X163533659Y-70511669D01*
X163538642Y-70581361D01*
X163533659Y-70598331D01*
X163520908Y-70632518D01*
X163514501Y-70692116D01*
X163514501Y-70692123D01*
X163514500Y-70692135D01*
X163514500Y-71184902D01*
X163494815Y-71251941D01*
X163478181Y-71272583D01*
X162981465Y-71769298D01*
X162920142Y-71802783D01*
X162907668Y-71804837D01*
X162820750Y-71814630D01*
X162650478Y-71874210D01*
X162497737Y-71970184D01*
X162370184Y-72097737D01*
X162274211Y-72250476D01*
X162214631Y-72420745D01*
X162214630Y-72420750D01*
X162194435Y-72599996D01*
X162194435Y-72600003D01*
X162214630Y-72779249D01*
X162214631Y-72779254D01*
X162274211Y-72949523D01*
X162349059Y-73068642D01*
X162370184Y-73102262D01*
X162497738Y-73229816D01*
X162650478Y-73325789D01*
X162820739Y-73385366D01*
X162820745Y-73385368D01*
X162820750Y-73385369D01*
X162999996Y-73405565D01*
X163000000Y-73405565D01*
X163000004Y-73405565D01*
X163179249Y-73385369D01*
X163179251Y-73385368D01*
X163179255Y-73385368D01*
X163179258Y-73385366D01*
X163179262Y-73385366D01*
X163349545Y-73325781D01*
X163419324Y-73322219D01*
X163479951Y-73356947D01*
X163512179Y-73418940D01*
X163514500Y-73442822D01*
X163514500Y-74227870D01*
X163514501Y-74227876D01*
X163520908Y-74287481D01*
X163533659Y-74321669D01*
X163538642Y-74391361D01*
X163533659Y-74408331D01*
X163520908Y-74442518D01*
X163516828Y-74480472D01*
X163514501Y-74502123D01*
X163514500Y-74502135D01*
X163514500Y-75497870D01*
X163514501Y-75497876D01*
X163520908Y-75557481D01*
X163533659Y-75591669D01*
X163538642Y-75661361D01*
X163533659Y-75678331D01*
X163520908Y-75712518D01*
X163514501Y-75772116D01*
X163514501Y-75772123D01*
X163514500Y-75772135D01*
X163514500Y-76767870D01*
X163514501Y-76767876D01*
X163520908Y-76827481D01*
X163533659Y-76861669D01*
X163538642Y-76931361D01*
X163533659Y-76948331D01*
X163520908Y-76982518D01*
X163514501Y-77042116D01*
X163514501Y-77042123D01*
X163514500Y-77042135D01*
X163514500Y-78037870D01*
X163514501Y-78037876D01*
X163520908Y-78097481D01*
X163533659Y-78131669D01*
X163538642Y-78201361D01*
X163533659Y-78218331D01*
X163520908Y-78252518D01*
X163514501Y-78312116D01*
X163514501Y-78312123D01*
X163514500Y-78312135D01*
X163514500Y-79307870D01*
X163514501Y-79307876D01*
X163520908Y-79367481D01*
X163533659Y-79401669D01*
X163538642Y-79471361D01*
X163533659Y-79488331D01*
X163520908Y-79522518D01*
X163514501Y-79582116D01*
X163514501Y-79582123D01*
X163514500Y-79582135D01*
X163514500Y-80577870D01*
X163514501Y-80577876D01*
X163520908Y-80637481D01*
X163533659Y-80671669D01*
X163538642Y-80741361D01*
X163533659Y-80758331D01*
X163520908Y-80792518D01*
X163517388Y-80825265D01*
X163514501Y-80852123D01*
X163514500Y-80852135D01*
X163514500Y-81225500D01*
X163494815Y-81292539D01*
X163442011Y-81338294D01*
X163390500Y-81349500D01*
X162502129Y-81349500D01*
X162502123Y-81349501D01*
X162442518Y-81355908D01*
X162408331Y-81368659D01*
X162338639Y-81373642D01*
X162321669Y-81368659D01*
X162287480Y-81355908D01*
X162287482Y-81355908D01*
X162227883Y-81349501D01*
X162227881Y-81349500D01*
X162227873Y-81349500D01*
X162227864Y-81349500D01*
X161232129Y-81349500D01*
X161232123Y-81349501D01*
X161172518Y-81355908D01*
X161138331Y-81368659D01*
X161068639Y-81373642D01*
X161051669Y-81368659D01*
X161017480Y-81355908D01*
X161017482Y-81355908D01*
X160957883Y-81349501D01*
X160957881Y-81349500D01*
X160957873Y-81349500D01*
X160957864Y-81349500D01*
X159962129Y-81349500D01*
X159962123Y-81349501D01*
X159902518Y-81355908D01*
X159868331Y-81368659D01*
X159798639Y-81373642D01*
X159781669Y-81368659D01*
X159747480Y-81355908D01*
X159747482Y-81355908D01*
X159687883Y-81349501D01*
X159687881Y-81349500D01*
X159687873Y-81349500D01*
X159687864Y-81349500D01*
X158692129Y-81349500D01*
X158692123Y-81349501D01*
X158632518Y-81355908D01*
X158598331Y-81368659D01*
X158528639Y-81373642D01*
X158511669Y-81368659D01*
X158477480Y-81355908D01*
X158477482Y-81355908D01*
X158417883Y-81349501D01*
X158417881Y-81349500D01*
X158417873Y-81349500D01*
X158417864Y-81349500D01*
X157422129Y-81349500D01*
X157422123Y-81349501D01*
X157362518Y-81355908D01*
X157328331Y-81368659D01*
X157258639Y-81373642D01*
X157241669Y-81368659D01*
X157207480Y-81355908D01*
X157207482Y-81355908D01*
X157147883Y-81349501D01*
X157147881Y-81349500D01*
X157147873Y-81349500D01*
X157147864Y-81349500D01*
X156152129Y-81349500D01*
X156152123Y-81349501D01*
X156092518Y-81355908D01*
X156058331Y-81368659D01*
X155988639Y-81373642D01*
X155971669Y-81368659D01*
X155937480Y-81355908D01*
X155937482Y-81355908D01*
X155877883Y-81349501D01*
X155877881Y-81349500D01*
X155877873Y-81349500D01*
X155877864Y-81349500D01*
X154882129Y-81349500D01*
X154882123Y-81349501D01*
X154822518Y-81355908D01*
X154788331Y-81368659D01*
X154718639Y-81373642D01*
X154701669Y-81368659D01*
X154667480Y-81355908D01*
X154667482Y-81355908D01*
X154607883Y-81349501D01*
X154607881Y-81349500D01*
X154607873Y-81349500D01*
X154607864Y-81349500D01*
X153612129Y-81349500D01*
X153612123Y-81349501D01*
X153552518Y-81355908D01*
X153518331Y-81368659D01*
X153448639Y-81373642D01*
X153431669Y-81368659D01*
X153397480Y-81355908D01*
X153397482Y-81355908D01*
X153337883Y-81349501D01*
X153337881Y-81349500D01*
X153337873Y-81349500D01*
X153337864Y-81349500D01*
X152342129Y-81349500D01*
X152342123Y-81349501D01*
X152282518Y-81355908D01*
X152248331Y-81368659D01*
X152178639Y-81373642D01*
X152161669Y-81368659D01*
X152127480Y-81355908D01*
X152127482Y-81355908D01*
X152067883Y-81349501D01*
X152067881Y-81349500D01*
X152067873Y-81349500D01*
X152067864Y-81349500D01*
X151072129Y-81349500D01*
X151072123Y-81349501D01*
X151012518Y-81355908D01*
X150978331Y-81368659D01*
X150908639Y-81373642D01*
X150891669Y-81368659D01*
X150857480Y-81355908D01*
X150857482Y-81355908D01*
X150797883Y-81349501D01*
X150797881Y-81349500D01*
X150797873Y-81349500D01*
X150797864Y-81349500D01*
X149802129Y-81349500D01*
X149802123Y-81349501D01*
X149742518Y-81355908D01*
X149708331Y-81368659D01*
X149638639Y-81373642D01*
X149621669Y-81368659D01*
X149587480Y-81355908D01*
X149587482Y-81355908D01*
X149527883Y-81349501D01*
X149527881Y-81349500D01*
X149527873Y-81349500D01*
X149527865Y-81349500D01*
X148639499Y-81349500D01*
X148572460Y-81329815D01*
X148526705Y-81277011D01*
X148515499Y-81225500D01*
X148515499Y-80852129D01*
X148515498Y-80852123D01*
X148515497Y-80852116D01*
X148509091Y-80792517D01*
X148496340Y-80758332D01*
X148491357Y-80688642D01*
X148496340Y-80671669D01*
X148509091Y-80637483D01*
X148515500Y-80577873D01*
X148515499Y-79582128D01*
X148509091Y-79522517D01*
X148496340Y-79488332D01*
X148491357Y-79418642D01*
X148496340Y-79401669D01*
X148509091Y-79367483D01*
X148515500Y-79307873D01*
X148515499Y-78312128D01*
X148509091Y-78252517D01*
X148496340Y-78218332D01*
X148491357Y-78148642D01*
X148496340Y-78131669D01*
X148509091Y-78097483D01*
X148515500Y-78037873D01*
X148515499Y-77042128D01*
X148509091Y-76982517D01*
X148496340Y-76948332D01*
X148491357Y-76878642D01*
X148496340Y-76861669D01*
X148509091Y-76827483D01*
X148515500Y-76767873D01*
X148515499Y-75772128D01*
X148509091Y-75712517D01*
X148496340Y-75678332D01*
X148491357Y-75608642D01*
X148496340Y-75591669D01*
X148509091Y-75557483D01*
X148515500Y-75497873D01*
X148515499Y-74557844D01*
X152065000Y-74557844D01*
X152071401Y-74617372D01*
X152071403Y-74617379D01*
X152121645Y-74752086D01*
X152121649Y-74752093D01*
X152207809Y-74867187D01*
X152207812Y-74867190D01*
X152322906Y-74953350D01*
X152322913Y-74953354D01*
X152457620Y-75003596D01*
X152457627Y-75003598D01*
X152517155Y-75009999D01*
X152517172Y-75010000D01*
X154265000Y-75010000D01*
X154265000Y-73863554D01*
X154765000Y-73863554D01*
X154765000Y-75010000D01*
X156512828Y-75010000D01*
X156512844Y-75009999D01*
X156572372Y-75003598D01*
X156572379Y-75003596D01*
X156707086Y-74953354D01*
X156707093Y-74953350D01*
X156822187Y-74867190D01*
X156822190Y-74867187D01*
X156908350Y-74752093D01*
X156908354Y-74752086D01*
X156958596Y-74617379D01*
X156958598Y-74617372D01*
X156964999Y-74557844D01*
X156965000Y-74557827D01*
X156965000Y-72810000D01*
X155818553Y-72810000D01*
X155929280Y-72920726D01*
X155929282Y-72920730D01*
X156180871Y-73172318D01*
X156214356Y-73233641D01*
X156209372Y-73303332D01*
X156180871Y-73347680D01*
X155951560Y-73576990D01*
X155951548Y-73577006D01*
X155532006Y-73996548D01*
X155531999Y-73996551D01*
X155302680Y-74225871D01*
X155241357Y-74259356D01*
X155171665Y-74254372D01*
X155127318Y-74225871D01*
X154875740Y-73974292D01*
X154875725Y-73974280D01*
X154841554Y-73940109D01*
X155115000Y-73940109D01*
X155115000Y-73979891D01*
X155130224Y-74016645D01*
X155158355Y-74044776D01*
X155195109Y-74060000D01*
X155234891Y-74060000D01*
X155271645Y-74044776D01*
X155299776Y-74016645D01*
X155315000Y-73979891D01*
X155315000Y-73940109D01*
X155299776Y-73903355D01*
X155271645Y-73875224D01*
X155234891Y-73860000D01*
X155195109Y-73860000D01*
X155158355Y-73875224D01*
X155130224Y-73903355D01*
X155115000Y-73940109D01*
X154841554Y-73940109D01*
X154765000Y-73863554D01*
X154265000Y-73863554D01*
X154265000Y-73863553D01*
X154132007Y-73996548D01*
X154131998Y-73996552D01*
X153902680Y-74225871D01*
X153841357Y-74259356D01*
X153771665Y-74254372D01*
X153727318Y-74225871D01*
X153475736Y-73974288D01*
X153475726Y-73974280D01*
X153441555Y-73940109D01*
X153715000Y-73940109D01*
X153715000Y-73979891D01*
X153730224Y-74016645D01*
X153758355Y-74044776D01*
X153795109Y-74060000D01*
X153834891Y-74060000D01*
X153871645Y-74044776D01*
X153899776Y-74016645D01*
X153915000Y-73979891D01*
X153915000Y-73940109D01*
X153899776Y-73903355D01*
X153871645Y-73875224D01*
X153834891Y-73860000D01*
X153795109Y-73860000D01*
X153758355Y-73875224D01*
X153730224Y-73903355D01*
X153715000Y-73940109D01*
X153441555Y-73940109D01*
X153059573Y-73558127D01*
X153059571Y-73558124D01*
X152849127Y-73347680D01*
X152815642Y-73286357D01*
X152818949Y-73240109D01*
X153015000Y-73240109D01*
X153015000Y-73279891D01*
X153030224Y-73316645D01*
X153058355Y-73344776D01*
X153095109Y-73360000D01*
X153134891Y-73360000D01*
X153171645Y-73344776D01*
X153199776Y-73316645D01*
X153215000Y-73279891D01*
X153215000Y-73259999D01*
X153468553Y-73259999D01*
X153508554Y-73299999D01*
X153508555Y-73300001D01*
X153815000Y-73606446D01*
X154161446Y-73260000D01*
X154141555Y-73240109D01*
X154415000Y-73240109D01*
X154415000Y-73279891D01*
X154430224Y-73316645D01*
X154458355Y-73344776D01*
X154495109Y-73360000D01*
X154534891Y-73360000D01*
X154571645Y-73344776D01*
X154599776Y-73316645D01*
X154615000Y-73279891D01*
X154615000Y-73259999D01*
X154868553Y-73259999D01*
X154908554Y-73299999D01*
X154908555Y-73300001D01*
X155215000Y-73606446D01*
X155561446Y-73260000D01*
X155541555Y-73240109D01*
X155815000Y-73240109D01*
X155815000Y-73279891D01*
X155830224Y-73316645D01*
X155858355Y-73344776D01*
X155895109Y-73360000D01*
X155934891Y-73360000D01*
X155971645Y-73344776D01*
X155999776Y-73316645D01*
X156015000Y-73279891D01*
X156015000Y-73240109D01*
X155999776Y-73203355D01*
X155971645Y-73175224D01*
X155934891Y-73160000D01*
X155895109Y-73160000D01*
X155858355Y-73175224D01*
X155830224Y-73203355D01*
X155815000Y-73240109D01*
X155541555Y-73240109D01*
X155248403Y-72946957D01*
X155248401Y-72946954D01*
X155215001Y-72913553D01*
X155214999Y-72913553D01*
X155181597Y-72946956D01*
X155181596Y-72946957D01*
X154868553Y-73259999D01*
X154615000Y-73259999D01*
X154615000Y-73240109D01*
X154599776Y-73203355D01*
X154571645Y-73175224D01*
X154534891Y-73160000D01*
X154495109Y-73160000D01*
X154458355Y-73175224D01*
X154430224Y-73203355D01*
X154415000Y-73240109D01*
X154141555Y-73240109D01*
X153848403Y-72946957D01*
X153848401Y-72946954D01*
X153815001Y-72913553D01*
X153814999Y-72913553D01*
X153781597Y-72946956D01*
X153781596Y-72946957D01*
X153468553Y-73259999D01*
X153215000Y-73259999D01*
X153215000Y-73240109D01*
X153199776Y-73203355D01*
X153171645Y-73175224D01*
X153134891Y-73160000D01*
X153095109Y-73160000D01*
X153058355Y-73175224D01*
X153030224Y-73203355D01*
X153015000Y-73240109D01*
X152818949Y-73240109D01*
X152820626Y-73216665D01*
X152849127Y-73172318D01*
X153042132Y-72979314D01*
X153211446Y-72810000D01*
X152065000Y-72810000D01*
X152065000Y-74557844D01*
X148515499Y-74557844D01*
X148515499Y-74502128D01*
X148509091Y-74442517D01*
X148496340Y-74408332D01*
X148491357Y-74338642D01*
X148496340Y-74321669D01*
X148509091Y-74287483D01*
X148515500Y-74227873D01*
X148515499Y-73232128D01*
X148509091Y-73172517D01*
X148496340Y-73138332D01*
X148491357Y-73068642D01*
X148496338Y-73051672D01*
X148509091Y-73017483D01*
X148515500Y-72957873D01*
X148515500Y-72540109D01*
X153715000Y-72540109D01*
X153715000Y-72579891D01*
X153730224Y-72616645D01*
X153758355Y-72644776D01*
X153795109Y-72660000D01*
X153834891Y-72660000D01*
X153871645Y-72644776D01*
X153899776Y-72616645D01*
X153915000Y-72579891D01*
X153915000Y-72540109D01*
X155115000Y-72540109D01*
X155115000Y-72579891D01*
X155130224Y-72616645D01*
X155158355Y-72644776D01*
X155195109Y-72660000D01*
X155234891Y-72660000D01*
X155271645Y-72644776D01*
X155299776Y-72616645D01*
X155315000Y-72579891D01*
X155315000Y-72540109D01*
X155299776Y-72503355D01*
X155271645Y-72475224D01*
X155234891Y-72460000D01*
X155195109Y-72460000D01*
X155158355Y-72475224D01*
X155130224Y-72503355D01*
X155115000Y-72540109D01*
X153915000Y-72540109D01*
X153899776Y-72503355D01*
X153871645Y-72475224D01*
X153834891Y-72460000D01*
X153795109Y-72460000D01*
X153758355Y-72475224D01*
X153730224Y-72503355D01*
X153715000Y-72540109D01*
X148515500Y-72540109D01*
X148515499Y-71962128D01*
X148509091Y-71902517D01*
X148496340Y-71868332D01*
X148491357Y-71798642D01*
X148496338Y-71781672D01*
X148509091Y-71747483D01*
X148515500Y-71687873D01*
X148515499Y-71512264D01*
X148535183Y-71445226D01*
X148587987Y-71399471D01*
X148653381Y-71389045D01*
X148745885Y-71399467D01*
X148799998Y-71405565D01*
X148800000Y-71405565D01*
X148800004Y-71405565D01*
X148979249Y-71385369D01*
X148979252Y-71385368D01*
X148979255Y-71385368D01*
X149149522Y-71325789D01*
X149302262Y-71229816D01*
X149429816Y-71102262D01*
X149525789Y-70949522D01*
X149585368Y-70779255D01*
X149585576Y-70777409D01*
X149605565Y-70600003D01*
X149605565Y-70599996D01*
X149601301Y-70562155D01*
X152065000Y-70562155D01*
X152065000Y-72310000D01*
X153211445Y-72310000D01*
X153149414Y-72247969D01*
X153149414Y-72247968D01*
X153059573Y-72158127D01*
X153059571Y-72158124D01*
X152849127Y-71947680D01*
X152815642Y-71886357D01*
X152818949Y-71840109D01*
X153015000Y-71840109D01*
X153015000Y-71879891D01*
X153030224Y-71916645D01*
X153058355Y-71944776D01*
X153095109Y-71960000D01*
X153134891Y-71960000D01*
X153171645Y-71944776D01*
X153199776Y-71916645D01*
X153215000Y-71879891D01*
X153215000Y-71859999D01*
X153468553Y-71859999D01*
X153508554Y-71899999D01*
X153508555Y-71900001D01*
X153815000Y-72206446D01*
X154161446Y-71860000D01*
X154141555Y-71840109D01*
X154415000Y-71840109D01*
X154415000Y-71879891D01*
X154430224Y-71916645D01*
X154458355Y-71944776D01*
X154495109Y-71960000D01*
X154534891Y-71960000D01*
X154571645Y-71944776D01*
X154599776Y-71916645D01*
X154615000Y-71879891D01*
X154615000Y-71859999D01*
X154868553Y-71859999D01*
X154908554Y-71899999D01*
X154908555Y-71900001D01*
X155215000Y-72206446D01*
X155561446Y-71860000D01*
X155541555Y-71840109D01*
X155815000Y-71840109D01*
X155815000Y-71879891D01*
X155830224Y-71916645D01*
X155858355Y-71944776D01*
X155895109Y-71960000D01*
X155934891Y-71960000D01*
X155971645Y-71944776D01*
X155999776Y-71916645D01*
X156015000Y-71879891D01*
X156015000Y-71840109D01*
X155999776Y-71803355D01*
X155971645Y-71775224D01*
X155934891Y-71760000D01*
X155895109Y-71760000D01*
X155858355Y-71775224D01*
X155830224Y-71803355D01*
X155815000Y-71840109D01*
X155541555Y-71840109D01*
X155280760Y-71579314D01*
X155215000Y-71513553D01*
X155149240Y-71579314D01*
X155149239Y-71579314D01*
X154868553Y-71859999D01*
X154615000Y-71859999D01*
X154615000Y-71840109D01*
X154599776Y-71803355D01*
X154571645Y-71775224D01*
X154534891Y-71760000D01*
X154495109Y-71760000D01*
X154458355Y-71775224D01*
X154430224Y-71803355D01*
X154415000Y-71840109D01*
X154141555Y-71840109D01*
X153880760Y-71579314D01*
X153815000Y-71513553D01*
X153749240Y-71579314D01*
X153749239Y-71579314D01*
X153468553Y-71859999D01*
X153215000Y-71859999D01*
X153215000Y-71840109D01*
X153199776Y-71803355D01*
X153171645Y-71775224D01*
X153134891Y-71760000D01*
X153095109Y-71760000D01*
X153058355Y-71775224D01*
X153030224Y-71803355D01*
X153015000Y-71840109D01*
X152818949Y-71840109D01*
X152820626Y-71816665D01*
X152849127Y-71772318D01*
X153042132Y-71579314D01*
X153481337Y-71140109D01*
X153715000Y-71140109D01*
X153715000Y-71179891D01*
X153730224Y-71216645D01*
X153758355Y-71244776D01*
X153795109Y-71260000D01*
X153834891Y-71260000D01*
X153871645Y-71244776D01*
X153899776Y-71216645D01*
X153915000Y-71179891D01*
X153915000Y-71140109D01*
X153899776Y-71103355D01*
X153871645Y-71075224D01*
X153834891Y-71060000D01*
X153795109Y-71060000D01*
X153758355Y-71075224D01*
X153730224Y-71103355D01*
X153715000Y-71140109D01*
X153481337Y-71140109D01*
X153534314Y-71087132D01*
X153727318Y-70894127D01*
X153788641Y-70860642D01*
X153858332Y-70865626D01*
X153902680Y-70894127D01*
X154113121Y-71104568D01*
X154113127Y-71104573D01*
X154238370Y-71229816D01*
X154238371Y-71229816D01*
X154265000Y-71256445D01*
X154265000Y-71256444D01*
X154765000Y-71256444D01*
X154791629Y-71229816D01*
X154791630Y-71229816D01*
X154881337Y-71140109D01*
X155115000Y-71140109D01*
X155115000Y-71179891D01*
X155130224Y-71216645D01*
X155158355Y-71244776D01*
X155195109Y-71260000D01*
X155234891Y-71260000D01*
X155271645Y-71244776D01*
X155299776Y-71216645D01*
X155315000Y-71179891D01*
X155315000Y-71140109D01*
X155299776Y-71103355D01*
X155271645Y-71075224D01*
X155234891Y-71060000D01*
X155195109Y-71060000D01*
X155158355Y-71075224D01*
X155130224Y-71103355D01*
X155115000Y-71140109D01*
X154881337Y-71140109D01*
X154934314Y-71087132D01*
X155127318Y-70894127D01*
X155188641Y-70860642D01*
X155258332Y-70865626D01*
X155302680Y-70894127D01*
X155513121Y-71104568D01*
X155513127Y-71104573D01*
X155929280Y-71520726D01*
X155929282Y-71520730D01*
X156180871Y-71772318D01*
X156214356Y-71833641D01*
X156209372Y-71903332D01*
X156180871Y-71947680D01*
X155951560Y-72176990D01*
X155951548Y-72177006D01*
X155880586Y-72247968D01*
X155880586Y-72247969D01*
X155818554Y-72310000D01*
X156965000Y-72310000D01*
X156965000Y-70562172D01*
X156964999Y-70562155D01*
X156958598Y-70502627D01*
X156958596Y-70502620D01*
X156908354Y-70367913D01*
X156908350Y-70367906D01*
X156822190Y-70252812D01*
X156822187Y-70252809D01*
X156707093Y-70166649D01*
X156707086Y-70166645D01*
X156572379Y-70116403D01*
X156572372Y-70116401D01*
X156512844Y-70110000D01*
X154765000Y-70110000D01*
X154765000Y-71256444D01*
X154265000Y-71256444D01*
X154265000Y-70110000D01*
X152517155Y-70110000D01*
X152457627Y-70116401D01*
X152457620Y-70116403D01*
X152322913Y-70166645D01*
X152322906Y-70166649D01*
X152207812Y-70252809D01*
X152207809Y-70252812D01*
X152121649Y-70367906D01*
X152121645Y-70367913D01*
X152071403Y-70502620D01*
X152071401Y-70502627D01*
X152065000Y-70562155D01*
X149601301Y-70562155D01*
X149585369Y-70420750D01*
X149585368Y-70420745D01*
X149547788Y-70313347D01*
X149525789Y-70250478D01*
X149523984Y-70247606D01*
X149473113Y-70166645D01*
X149429816Y-70097738D01*
X149302262Y-69970184D01*
X149189443Y-69899295D01*
X149149521Y-69874210D01*
X148979249Y-69814630D01*
X148892330Y-69804837D01*
X148827916Y-69777770D01*
X148818533Y-69769298D01*
X148607590Y-69558355D01*
X148607588Y-69558352D01*
X148551597Y-69502361D01*
X148518112Y-69441038D01*
X148516007Y-69425412D01*
X148515854Y-69425429D01*
X148509521Y-69366518D01*
X148509091Y-69362517D01*
X148509090Y-69362515D01*
X148509090Y-69362512D01*
X148507308Y-69354969D01*
X148510225Y-69354279D01*
X148506238Y-69298540D01*
X148539722Y-69237217D01*
X148574817Y-69213767D01*
X148574745Y-69213642D01*
X148576659Y-69212536D01*
X148579956Y-69210334D01*
X148581775Y-69209579D01*
X148581785Y-69209577D01*
X148631904Y-69180639D01*
X148718716Y-69130520D01*
X148830520Y-69018716D01*
X148830520Y-69018714D01*
X148840728Y-69008507D01*
X148840730Y-69008504D01*
X151834011Y-66015222D01*
X151895332Y-65981739D01*
X151907799Y-65979686D01*
X151999276Y-65969379D01*
X152079249Y-65960369D01*
X152079252Y-65960368D01*
X152079255Y-65960368D01*
X152249522Y-65900789D01*
X152402262Y-65804816D01*
X152529816Y-65677262D01*
X152625789Y-65524522D01*
X152685368Y-65354255D01*
X152687243Y-65337612D01*
X152690645Y-65307423D01*
X152717711Y-65243009D01*
X152775305Y-65203453D01*
X152845142Y-65201314D01*
X152890735Y-65227431D01*
X152892295Y-65225475D01*
X152897737Y-65229815D01*
X152897738Y-65229816D01*
X152988080Y-65286582D01*
X153030412Y-65313181D01*
X153050478Y-65325789D01*
X153172476Y-65368478D01*
X153220745Y-65385368D01*
X153220750Y-65385369D01*
X153399996Y-65405565D01*
X153400000Y-65405565D01*
X153400004Y-65405565D01*
X153579249Y-65385369D01*
X153579252Y-65385368D01*
X153579255Y-65385368D01*
X153749522Y-65325789D01*
X153902262Y-65229816D01*
X154029816Y-65102262D01*
X154125789Y-64949522D01*
X154185368Y-64779255D01*
X154187277Y-64762319D01*
X154205565Y-64600000D01*
X154205565Y-64599996D01*
X154185369Y-64420750D01*
X154185368Y-64420745D01*
X154162837Y-64356356D01*
X154157868Y-64342155D01*
X163515000Y-64342155D01*
X163515000Y-64590000D01*
X164515000Y-64590000D01*
X165015000Y-64590000D01*
X166015000Y-64590000D01*
X166015000Y-64342172D01*
X166014999Y-64342155D01*
X166008598Y-64282627D01*
X166008596Y-64282620D01*
X165958354Y-64147913D01*
X165958350Y-64147906D01*
X165872190Y-64032812D01*
X165872187Y-64032809D01*
X165757093Y-63946649D01*
X165757086Y-63946645D01*
X165622379Y-63896403D01*
X165622372Y-63896401D01*
X165562844Y-63890000D01*
X165015000Y-63890000D01*
X165015000Y-64590000D01*
X164515000Y-64590000D01*
X164515000Y-63890000D01*
X163967155Y-63890000D01*
X163907627Y-63896401D01*
X163907620Y-63896403D01*
X163772913Y-63946645D01*
X163772906Y-63946649D01*
X163657812Y-64032809D01*
X163657809Y-64032812D01*
X163571649Y-64147906D01*
X163571645Y-64147913D01*
X163521403Y-64282620D01*
X163521401Y-64282627D01*
X163515000Y-64342155D01*
X154157868Y-64342155D01*
X154125789Y-64250478D01*
X154029816Y-64097738D01*
X153902262Y-63970184D01*
X153749523Y-63874211D01*
X153579254Y-63814631D01*
X153579249Y-63814630D01*
X153400004Y-63794435D01*
X153399996Y-63794435D01*
X153220750Y-63814630D01*
X153220745Y-63814631D01*
X153050476Y-63874211D01*
X152897737Y-63970184D01*
X152879741Y-63988181D01*
X152818418Y-64021666D01*
X152792060Y-64024500D01*
X150067915Y-64024500D01*
X150000876Y-64004815D01*
X149980234Y-63988181D01*
X149553734Y-63561681D01*
X149520249Y-63500358D01*
X149525233Y-63430666D01*
X149567105Y-63374733D01*
X149632569Y-63350316D01*
X149641415Y-63350000D01*
X173903000Y-63350000D01*
X173970039Y-63369685D01*
G37*
%TD.AperFunction*%
%TA.AperFunction,Conductor*%
G36*
X169111009Y-75044303D02*
G01*
X169162643Y-75090261D01*
X169170184Y-75102262D01*
X169297738Y-75229816D01*
X169450478Y-75325789D01*
X169567378Y-75366694D01*
X169624154Y-75407416D01*
X169649901Y-75472369D01*
X169636445Y-75540930D01*
X169588058Y-75591333D01*
X169561018Y-75602812D01*
X169404606Y-75648254D01*
X169404603Y-75648255D01*
X169263137Y-75731917D01*
X169263129Y-75731923D01*
X169141402Y-75853651D01*
X169139928Y-75852177D01*
X169092029Y-75886754D01*
X169022261Y-75890527D01*
X168961529Y-75855982D01*
X168938144Y-75816520D01*
X168936557Y-75817235D01*
X168933479Y-75810397D01*
X168933478Y-75810396D01*
X168933478Y-75810394D01*
X168845472Y-75664815D01*
X168845470Y-75664813D01*
X168845469Y-75664811D01*
X168742984Y-75562326D01*
X168709499Y-75501003D01*
X168714483Y-75431311D01*
X168742985Y-75386963D01*
X168845071Y-75284878D01*
X168845072Y-75284877D01*
X168933017Y-75139399D01*
X168939264Y-75119350D01*
X168977999Y-75061201D01*
X169042024Y-75033225D01*
X169111009Y-75044303D01*
G37*
%TD.AperFunction*%
%TA.AperFunction,Conductor*%
G36*
X143208249Y-71173143D02*
G01*
X143243275Y-71193222D01*
X143361593Y-71289698D01*
X143541951Y-71383909D01*
X143541953Y-71383909D01*
X143541954Y-71383910D01*
X143561355Y-71389461D01*
X143737582Y-71439886D01*
X143856963Y-71450500D01*
X144973036Y-71450499D01*
X145092418Y-71439886D01*
X145288049Y-71383909D01*
X145433091Y-71308145D01*
X145501623Y-71294555D01*
X145566627Y-71320174D01*
X145607460Y-71376869D01*
X145614500Y-71418055D01*
X145614500Y-72149902D01*
X145594815Y-72216941D01*
X145578181Y-72237583D01*
X145177582Y-72638181D01*
X145116259Y-72671666D01*
X145089901Y-72674500D01*
X144741662Y-72674500D01*
X144741644Y-72674501D01*
X144642292Y-72684650D01*
X144642289Y-72684651D01*
X144481305Y-72737996D01*
X144481294Y-72738001D01*
X144336959Y-72827029D01*
X144336953Y-72827033D01*
X144327324Y-72836663D01*
X144266000Y-72870146D01*
X144196308Y-72865159D01*
X144151965Y-72836660D01*
X144142732Y-72827427D01*
X144142728Y-72827424D01*
X143998492Y-72738457D01*
X143998481Y-72738452D01*
X143837606Y-72685144D01*
X143738322Y-72675000D01*
X143715000Y-72675000D01*
X143715000Y-73776000D01*
X143695315Y-73843039D01*
X143642511Y-73888794D01*
X143591000Y-73900000D01*
X142515001Y-73900000D01*
X142515001Y-73948322D01*
X142525144Y-74047607D01*
X142578452Y-74208481D01*
X142578457Y-74208492D01*
X142667424Y-74352728D01*
X142667427Y-74352732D01*
X142787267Y-74472572D01*
X142787271Y-74472575D01*
X142931507Y-74561542D01*
X142931518Y-74561547D01*
X143092393Y-74614855D01*
X143191683Y-74624999D01*
X143226399Y-74624999D01*
X143293439Y-74644682D01*
X143339195Y-74697485D01*
X143349140Y-74766643D01*
X143320117Y-74830199D01*
X143314084Y-74836680D01*
X143274500Y-74876265D01*
X143187582Y-74963182D01*
X143126262Y-74996666D01*
X143099903Y-74999500D01*
X141390097Y-74999500D01*
X141323058Y-74979815D01*
X141302416Y-74963181D01*
X141176416Y-74837181D01*
X141142931Y-74775858D01*
X141147915Y-74706166D01*
X141189787Y-74650233D01*
X141255251Y-74625816D01*
X141264097Y-74625500D01*
X141521613Y-74625500D01*
X141521616Y-74625500D01*
X141592196Y-74619086D01*
X141754606Y-74568478D01*
X141900185Y-74480472D01*
X142020472Y-74360185D01*
X142108478Y-74214606D01*
X142159086Y-74052196D01*
X142165500Y-73981616D01*
X142165500Y-73351677D01*
X142515000Y-73351677D01*
X142515000Y-73400000D01*
X143215000Y-73400000D01*
X143215000Y-72674999D01*
X143191693Y-72675000D01*
X143191674Y-72675001D01*
X143092392Y-72685144D01*
X142931518Y-72738452D01*
X142931507Y-72738457D01*
X142787271Y-72827424D01*
X142787267Y-72827427D01*
X142667427Y-72947267D01*
X142667424Y-72947271D01*
X142578457Y-73091507D01*
X142578452Y-73091518D01*
X142525144Y-73252393D01*
X142515000Y-73351677D01*
X142165500Y-73351677D01*
X142165500Y-73318384D01*
X142159086Y-73247804D01*
X142108478Y-73085394D01*
X142020472Y-72939815D01*
X142020470Y-72939813D01*
X142020469Y-72939811D01*
X141900188Y-72819530D01*
X141894282Y-72814903D01*
X141895083Y-72813879D01*
X141853158Y-72768090D01*
X141840500Y-72713510D01*
X141840500Y-72489741D01*
X141860185Y-72422702D01*
X141876814Y-72402065D01*
X143077236Y-71201642D01*
X143138557Y-71168159D01*
X143208249Y-71173143D01*
G37*
%TD.AperFunction*%
%TA.AperFunction,Conductor*%
G36*
X173414028Y-70135475D02*
G01*
X173414029Y-70135475D01*
X173545827Y-69980311D01*
X173545838Y-69980297D01*
X173749680Y-69679652D01*
X173793444Y-69597106D01*
X173842238Y-69547096D01*
X173910322Y-69531404D01*
X173976082Y-69555013D01*
X174018639Y-69610427D01*
X174027000Y-69655188D01*
X174027000Y-70609466D01*
X174007315Y-70676505D01*
X173954511Y-70722260D01*
X173885353Y-70732204D01*
X173863997Y-70727172D01*
X173812608Y-70710144D01*
X173713322Y-70700000D01*
X173665000Y-70700000D01*
X173665000Y-71776000D01*
X173645315Y-71843039D01*
X173592511Y-71888794D01*
X173541000Y-71900000D01*
X172440001Y-71900000D01*
X172440001Y-71923322D01*
X172450144Y-72022607D01*
X172489520Y-72141436D01*
X172491922Y-72211265D01*
X172456190Y-72271306D01*
X172393670Y-72302499D01*
X172324210Y-72294938D01*
X172284133Y-72268121D01*
X172243044Y-72227032D01*
X172243040Y-72227029D01*
X172098705Y-72138001D01*
X172098699Y-72137998D01*
X172098697Y-72137997D01*
X172042448Y-72119358D01*
X171937709Y-72084651D01*
X171838346Y-72074500D01*
X171291662Y-72074500D01*
X171291644Y-72074501D01*
X171192292Y-72084650D01*
X171192289Y-72084651D01*
X171031305Y-72137996D01*
X171031294Y-72138001D01*
X170886959Y-72227029D01*
X170886953Y-72227033D01*
X170877324Y-72236663D01*
X170816000Y-72270146D01*
X170746308Y-72265159D01*
X170701965Y-72236660D01*
X170692732Y-72227427D01*
X170692728Y-72227424D01*
X170548492Y-72138457D01*
X170548481Y-72138452D01*
X170387606Y-72085144D01*
X170288322Y-72075000D01*
X170265000Y-72075000D01*
X170265000Y-73176000D01*
X170245315Y-73243039D01*
X170192511Y-73288794D01*
X170141000Y-73300000D01*
X169065001Y-73300000D01*
X169065001Y-73348322D01*
X169075144Y-73447607D01*
X169128452Y-73608481D01*
X169128457Y-73608492D01*
X169217424Y-73752728D01*
X169217427Y-73752732D01*
X169278627Y-73813932D01*
X169312112Y-73875255D01*
X169307128Y-73944947D01*
X169278628Y-73989294D01*
X169170181Y-74097740D01*
X169136974Y-74150590D01*
X169084639Y-74196881D01*
X169015586Y-74207528D01*
X168951737Y-74179153D01*
X168925864Y-74148767D01*
X168845072Y-74015122D01*
X168724877Y-73894927D01*
X168579395Y-73806980D01*
X168579396Y-73806980D01*
X168417105Y-73756409D01*
X168417106Y-73756409D01*
X168346572Y-73750000D01*
X168265000Y-73750000D01*
X168265000Y-74776000D01*
X168245315Y-74843039D01*
X168192511Y-74888794D01*
X168141000Y-74900000D01*
X167889000Y-74900000D01*
X167821961Y-74880315D01*
X167776206Y-74827511D01*
X167765000Y-74776000D01*
X167765000Y-73750000D01*
X167764999Y-73749999D01*
X167739502Y-73750000D01*
X167672462Y-73730316D01*
X167626706Y-73677513D01*
X167615500Y-73626000D01*
X167615500Y-73205260D01*
X167615500Y-73205258D01*
X167614226Y-73200501D01*
X167606728Y-73172517D01*
X167604725Y-73165042D01*
X167600500Y-73132949D01*
X167600500Y-72751677D01*
X169065000Y-72751677D01*
X169065000Y-72800000D01*
X169765000Y-72800000D01*
X169765000Y-72074999D01*
X169741693Y-72075000D01*
X169741674Y-72075001D01*
X169642392Y-72085144D01*
X169481518Y-72138452D01*
X169481507Y-72138457D01*
X169337271Y-72227424D01*
X169337267Y-72227427D01*
X169217427Y-72347267D01*
X169217424Y-72347271D01*
X169128457Y-72491507D01*
X169128452Y-72491518D01*
X169075144Y-72652393D01*
X169065000Y-72751677D01*
X167600500Y-72751677D01*
X167600500Y-69424130D01*
X167620185Y-69357091D01*
X167672989Y-69311336D01*
X167742147Y-69301392D01*
X167805703Y-69330417D01*
X167834055Y-69366047D01*
X168000316Y-69679647D01*
X168000318Y-69679651D01*
X168204170Y-69980309D01*
X168204177Y-69980319D01*
X168335969Y-70135475D01*
X168335970Y-70135475D01*
X169580748Y-68890698D01*
X169654588Y-68992330D01*
X169832670Y-69170412D01*
X169934300Y-69244251D01*
X168686888Y-70491662D01*
X168686888Y-70491664D01*
X168703070Y-70506992D01*
X168703071Y-70506993D01*
X168992266Y-70726832D01*
X168992282Y-70726843D01*
X169303522Y-70914109D01*
X169303535Y-70914116D01*
X169633205Y-71066639D01*
X169633210Y-71066640D01*
X169977461Y-71182632D01*
X170332235Y-71260724D01*
X170693366Y-71299999D01*
X170693374Y-71300000D01*
X171056626Y-71300000D01*
X171056633Y-71299999D01*
X171417764Y-71260724D01*
X171772538Y-71182632D01*
X172116788Y-71066641D01*
X172333162Y-70966535D01*
X172402271Y-70956251D01*
X172465969Y-70984962D01*
X172504032Y-71043553D01*
X172504377Y-71113422D01*
X172502935Y-71118077D01*
X172450144Y-71277391D01*
X172440000Y-71376677D01*
X172440000Y-71400000D01*
X173165000Y-71400000D01*
X173165000Y-70700000D01*
X173164999Y-70699999D01*
X173154390Y-70700000D01*
X173087350Y-70680317D01*
X173041594Y-70627513D01*
X173031650Y-70558355D01*
X173060674Y-70494799D01*
X173063102Y-70492260D01*
X173063110Y-70491663D01*
X171815698Y-69244251D01*
X171917330Y-69170412D01*
X172095412Y-68992330D01*
X172169251Y-68890698D01*
X173414028Y-70135475D01*
G37*
%TD.AperFunction*%
%TA.AperFunction,Conductor*%
G36*
X145958039Y-64295185D02*
G01*
X146003794Y-64347989D01*
X146015000Y-64399500D01*
X146015000Y-64590000D01*
X148515000Y-64590000D01*
X148515000Y-64450069D01*
X148534685Y-64383030D01*
X148587489Y-64337275D01*
X148656647Y-64327331D01*
X148720203Y-64356356D01*
X148726681Y-64362388D01*
X149126612Y-64762319D01*
X149160097Y-64823642D01*
X149155113Y-64893334D01*
X149126612Y-64937681D01*
X148726681Y-65337612D01*
X148665358Y-65371097D01*
X148595666Y-65366113D01*
X148539733Y-65324241D01*
X148515316Y-65258777D01*
X148515000Y-65249931D01*
X148515000Y-65090000D01*
X146015000Y-65090000D01*
X146015000Y-65337844D01*
X146021401Y-65397372D01*
X146021403Y-65397379D01*
X146033925Y-65430952D01*
X146038909Y-65500643D01*
X146033925Y-65517617D01*
X146020909Y-65552514D01*
X146020908Y-65552516D01*
X146014501Y-65612116D01*
X146014501Y-65612123D01*
X146014500Y-65612135D01*
X146014500Y-66015257D01*
X145994815Y-66082296D01*
X145978181Y-66102938D01*
X145399517Y-66681601D01*
X145338194Y-66715086D01*
X145277725Y-66713136D01*
X145135812Y-66672530D01*
X145092418Y-66660114D01*
X145092416Y-66660113D01*
X145092413Y-66660113D01*
X145026102Y-66654217D01*
X144973037Y-66649500D01*
X144973032Y-66649500D01*
X143856971Y-66649500D01*
X143856965Y-66649500D01*
X143856964Y-66649501D01*
X143845997Y-66650476D01*
X143737584Y-66660113D01*
X143541954Y-66716089D01*
X143486607Y-66745000D01*
X143361593Y-66810302D01*
X143361591Y-66810303D01*
X143361590Y-66810304D01*
X143203890Y-66938890D01*
X143075304Y-67096590D01*
X142981089Y-67276954D01*
X142925114Y-67472583D01*
X142925113Y-67472586D01*
X142914500Y-67591966D01*
X142914500Y-69685257D01*
X142894815Y-69752296D01*
X142878181Y-69772938D01*
X140911635Y-71739485D01*
X140804487Y-71846632D01*
X140804485Y-71846635D01*
X140728719Y-71977863D01*
X140689500Y-72124234D01*
X140689500Y-72713510D01*
X140669815Y-72780549D01*
X140635194Y-72814234D01*
X140635718Y-72814903D01*
X140629811Y-72819530D01*
X140527681Y-72921661D01*
X140466358Y-72955146D01*
X140396666Y-72950162D01*
X140352319Y-72921661D01*
X140250188Y-72819530D01*
X140250181Y-72819526D01*
X140104606Y-72731522D01*
X139942196Y-72680914D01*
X139942194Y-72680913D01*
X139942192Y-72680913D01*
X139892778Y-72676423D01*
X139871616Y-72674500D01*
X139358384Y-72674500D01*
X139313939Y-72678539D01*
X139245393Y-72665002D01*
X139195047Y-72616556D01*
X139178886Y-72548581D01*
X139202040Y-72482659D01*
X139225022Y-72458407D01*
X139362722Y-72347722D01*
X139482030Y-72199296D01*
X139482031Y-72199292D01*
X139482035Y-72199288D01*
X139566639Y-72028697D01*
X139566638Y-72028697D01*
X139566641Y-72028693D01*
X139612600Y-71843889D01*
X139615500Y-71801123D01*
X139615499Y-70898878D01*
X139612600Y-70856111D01*
X139566641Y-70671307D01*
X139555225Y-70648288D01*
X139482032Y-70500707D01*
X139482030Y-70500704D01*
X139362722Y-70352278D01*
X139362721Y-70352277D01*
X139293514Y-70296647D01*
X139253595Y-70239304D01*
X139251015Y-70169482D01*
X139286594Y-70109349D01*
X139293514Y-70103353D01*
X139306345Y-70093039D01*
X139362722Y-70047722D01*
X139482030Y-69899296D01*
X139566641Y-69728693D01*
X139612600Y-69543889D01*
X139615500Y-69501123D01*
X139615499Y-68598878D01*
X139612600Y-68556111D01*
X139566641Y-68371307D01*
X139505292Y-68247607D01*
X139482032Y-68200707D01*
X139482030Y-68200704D01*
X139362724Y-68052280D01*
X139362722Y-68052278D01*
X139293112Y-67996324D01*
X139253196Y-67938985D01*
X139250616Y-67869163D01*
X139286194Y-67809030D01*
X139293115Y-67803033D01*
X139362366Y-67747367D01*
X139362367Y-67747366D01*
X139481607Y-67599025D01*
X139481609Y-67599022D01*
X139566168Y-67428523D01*
X139612102Y-67243824D01*
X139615000Y-67201096D01*
X139615000Y-67000000D01*
X137989000Y-67000000D01*
X137921961Y-66980315D01*
X137876206Y-66927511D01*
X137865000Y-66876000D01*
X137865000Y-66624000D01*
X137884685Y-66556961D01*
X137937489Y-66511206D01*
X137989000Y-66500000D01*
X139615000Y-66500000D01*
X139615000Y-66298903D01*
X139612102Y-66256175D01*
X139566168Y-66071476D01*
X139481609Y-65900977D01*
X139481607Y-65900974D01*
X139362367Y-65752633D01*
X139362366Y-65752632D01*
X139229893Y-65646147D01*
X139189974Y-65588804D01*
X139187394Y-65518982D01*
X139222973Y-65458849D01*
X139285413Y-65427497D01*
X139307580Y-65425500D01*
X139546613Y-65425500D01*
X139546616Y-65425500D01*
X139617196Y-65419086D01*
X139779606Y-65368478D01*
X139925185Y-65280472D01*
X140045472Y-65160185D01*
X140069461Y-65120501D01*
X140120988Y-65073316D01*
X140189847Y-65061477D01*
X140254176Y-65088746D01*
X140281115Y-65119556D01*
X140303216Y-65155387D01*
X140303219Y-65155391D01*
X140422108Y-65274280D01*
X140422112Y-65274283D01*
X140565204Y-65362544D01*
X140565207Y-65362545D01*
X140565213Y-65362549D01*
X140724815Y-65415436D01*
X140823326Y-65425500D01*
X140823331Y-65425500D01*
X141356669Y-65425500D01*
X141356674Y-65425500D01*
X141455185Y-65415436D01*
X141614787Y-65362549D01*
X141757891Y-65274281D01*
X141790172Y-65242000D01*
X141851495Y-65208515D01*
X141921187Y-65213499D01*
X141965534Y-65242000D01*
X141997419Y-65273885D01*
X142140422Y-65362091D01*
X142140427Y-65362093D01*
X142299916Y-65414942D01*
X142398356Y-65424999D01*
X142915000Y-65424999D01*
X142931636Y-65424999D01*
X142931652Y-65424998D01*
X143030083Y-65414943D01*
X143189572Y-65362093D01*
X143189577Y-65362091D01*
X143332580Y-65273885D01*
X143451385Y-65155080D01*
X143539591Y-65012077D01*
X143539593Y-65012072D01*
X143592442Y-64852583D01*
X143602499Y-64754150D01*
X143602500Y-64754137D01*
X143602500Y-64700000D01*
X142915000Y-64700000D01*
X142915000Y-65424999D01*
X142398356Y-65424999D01*
X142415000Y-65424998D01*
X142415000Y-64399500D01*
X142434685Y-64332461D01*
X142487489Y-64286706D01*
X142539000Y-64275500D01*
X145891000Y-64275500D01*
X145958039Y-64295185D01*
G37*
%TD.AperFunction*%
%TD*%
M02*
